<?xml version="1.0" encoding="utf-8"?>
<!-- Generator: Adobe Illustrator 21.0.2, SVG Export Plug-In . SVG Version: 6.00 Build 0)  -->
<svg version="1.1" id="Layer_1" xmlns="http://www.w3.org/2000/svg" xmlns:xlink="http://www.w3.org/1999/xlink" x="0px" y="0px"
	 viewBox="0 0 506.8 75.7" style="enable-background:new 0 0 506.8 75.7;" xml:space="preserve">
<style type="text/css">
	.st0{fill:#989898;}
</style>
<g>
	<path id="XMLID_889_" class="st0" d="M361.9,4.4c0,2.2-1.8,3.9-4,3.9c-2.2,0-4-1.8-4-3.9c0-2.2,1.8-4,4-4
		C360.1,0.4,361.9,2.2,361.9,4.4"/>
	<path id="XMLID_886_" d="M90.3,12.7c-11.1,0-20.2,9.1-20.2,20.2c0,11.1,9.1,20.2,20.2,20.2c11.1,0,20.2-9.1,20.2-20.2
		C110.5,21.8,101.4,12.7,90.3,12.7 M90.3,47.1c-7.9,0-14.3-6.4-14.3-14.2c0-7.9,6.4-14.3,14.3-14.3c7.9,0,14.3,6.4,14.3,14.3
		C104.6,40.8,98.2,47.1,90.3,47.1"/>
	<path id="XMLID_880_" class="st0" d="M436.8,12.7c-11.1,0-20.2,9.1-20.2,20.2c0,11.1,9.1,20.2,20.2,20.2c11.1,0,20.2-9.1,20.2-20.2
		C457.1,21.8,448,12.7,436.8,12.7 M436.8,47.1c-7.9,0-14.3-6.4-14.3-14.2c0-7.9,6.4-14.3,14.3-14.3c7.9,0,14.3,6.4,14.3,14.3
		C451.1,40.8,444.7,47.1,436.8,47.1"/>
	<path id="XMLID_878_" class="st0" d="M329.4,12.7c-5,0-9.9,2.2-13,6.1l-0.6,0.6l-0.6-0.6c-3.1-3.9-7.9-6.1-12.9-6.1
		c-9.1,0-16.7,7.4-16.7,16.5v20.2c0.1,1.7,1.5,3.1,3.2,3.1c1.7,0,3.2-1.4,3.2-3.1V29.2c0-5.6,4.6-10.2,10.2-10.2
		c5.6,0,10.3,4.6,10.3,10.2v20.2c0,1.7,1.5,3.1,3.2,3.1c1.7,0,3.2-1.4,3.2-3.1V29.2c0-5.6,4.7-10.2,10.3-10.2
		c5.6,0,10.2,4.6,10.2,10.2v20.3c0.1,1.7,1.5,3,3.2,3c1.7,0,3.1-1.3,3.2-3V29.2C345.9,20.1,338.4,12.7,329.4,12.7"/>
	<path id="XMLID_876_" class="st0" d="M361.1,16.8c0-1.8-1.4-3.2-3.2-3.2c-1.8,0-3.2,1.4-3.2,3.2c0,0.1,0,0.1,0,0.2h0v32.4h0
		c0,1.8,1.4,3.2,3.2,3.2c1.8,0,3.2-1.4,3.2-3.2V16.9h0C361.1,16.9,361.1,16.8,361.1,16.8"/>
	<path id="XMLID_870_" class="st0" d="M277.1,33c0-11.2-9-20.2-20.1-20.2c-11.1,0-20.2,9.1-20.2,20.2c0,11.1,9.1,20.2,20.3,20.2
		c9,0,13.4-5.9,13.4-5.9v2c0,1.8,1.5,3.3,3.3,3.3c1.8,0,3.3-1.5,3.3-3.3v0.7V33z M257,47.3c-7.9,0-14.3-6.4-14.3-14.3
		c0-7.9,6.4-14.3,14.3-14.3c7.9,0,14.3,6.4,14.3,14.3C271.3,40.8,264.9,47.3,257,47.3"/>
	<path id="XMLID_867_" d="M195.5,33.4c0-5.1-1.7-10.1-4.5-13.9c-1.6-2.1-3.5-3.7-5.6-4.8c-2.4-1.2-5-1.9-7.8-1.9
		c-10.4,0-18.6,8.8-18.6,20.1c0,5.6,2,10.8,5.5,14.5c3.6,3.7,8.5,5.8,13.8,5.8c5.9,0,10.4-1.8,14.6-5.8c0.6-0.6,1-1.3,1-2
		c0-1.5-1.2-2.7-2.7-2.7c-0.8,0-1.4,0.4-1.8,0.7l0,0c-2.9,2.7-6.2,3.8-10.9,3.8c-3.6,0-6.7-0.9-8.9-2.6c-2.4-1.9-3.8-4.6-4.3-8.1
		l0-0.2h27.5C194.2,36.3,195.5,35,195.5,33.4 M169.3,21.7c2.2-2.1,5-3.2,8.1-3.2c3.6,0,6.5,1.2,8.7,3.7c2.3,2.6,3.1,5.9,3.3,8.2
		l0,0.2h-24.2l0-0.2C165.6,26.8,167,23.8,169.3,21.7"/>
	<path id="XMLID_866_" d="M134.8,12.7c-0.7,0-1.5,0.1-2.3,0.2l-0.2,0c-8.3,1.2-14.5,8.3-14.5,16.5v20.1v0c0.1,1.7,1.4,3,3.1,3
		c1.7,0,3-1.3,3.1-3v0c0,0,0-18.9,0-20l0,0c0,0,0-0.1,0-0.1c0,0,0-0.1,0-0.1c0-2.8,1.1-5.4,3.1-7.3c2-1.9,4.7-2.9,7.6-2.9
		c2.9,0,5.6,1,7.6,2.9c2,1.9,3.1,4.5,3.1,7.3v20.4l0,0.1c0.1,1.6,1.5,2.8,3.1,2.8c1.6,0,3-1.3,3.1-2.9v0V29.4
		C151.6,20.2,144.1,12.7,134.8,12.7"/>
	<path id="XMLID_860_" class="st0" d="M409.3,33c0-11.2-9.3-20.2-20.3-20.2c-11,0-19.9,9.1-19.9,20.2c0,11.1,9,20.2,20,20.2
		c4.6,0,9.3-1.9,12.8-4.8l0.9-0.8c0,0,0.6,6.3-0.8,10.6c-0.7,2.1-3.7,8.7-12.8,9c-4.2,0.1-8.6-2.4-11.2-6.1
		c-0.6-0.9-1.6-1.6-2.8-1.6c-1.8,0-3.3,1.5-3.3,3.3c0,0.5,0.1,1,0.3,1.5c0,0,0,0,0,0c3.5,6.1,10.1,9.7,16.9,9.7
		c6.4-0.2,11.3-2.2,14.8-6.1c5.4-6.1,5.5-15,5.5-21.6V33z M389.1,46.6c-7.4,0-13.5-6.1-13.5-13.7c0-7.6,6.1-13.8,13.5-13.8
		c7.5,0,13.6,6.2,13.6,13.8C402.6,40.5,396.5,46.6,389.1,46.6"/>
	<path id="XMLID_859_" d="M234.5,16.6c0,0.5-0.1,0.9-0.3,1.3l0,0.1c-0.5,1.3-15.4,37-15.4,37c-2.1,5.5-4.7,12.5-11.2,15.9
		c-4.1,2.2-8.9,2.3-14.4,0.5c-3.6-1.4-6.7-3.9-8.8-7.2c0,0,0-0.1-0.1-0.1c-0.3-0.5-0.4-1-0.4-1.5c0-1.7,1.4-3,3-3
		c1.1,0,2,0.6,2.5,1.4c0,0,0,0,0,0.1c1.4,2.2,3.5,4,5.8,4.8c7.7,2.6,12.3-2,13.6-3.5c2.5-3.1,5.1-10.8,5.1-10.8l-15.7-33.2l0,0
		c-0.3-0.6-0.4-1.2-0.4-1.7c0-1.7,1.4-3,3.1-3c0.5,0,2.1,0,3.1,2.4l12.9,27.5l11.4-27.6c0.4-1,1.2-2.3,2.9-2.3
		C233.2,13.5,234.5,14.9,234.5,16.6"/>
	<path id="XMLID_857_" class="st0" d="M436.8,42.7c-5.3,0-9.9-4-10.6-9.2c-0.1-1,0.6-1.9,1.6-2c1-0.1,1.9,0.6,2,1.6
		c0.5,3.4,3.4,6,6.9,6c3.5,0,6.5-2.6,6.9-6c0.1-1,1.1-1.7,2.1-1.6c1,0.1,1.7,1.1,1.6,2.1c-0.4,2.5-1.6,4.8-3.5,6.5
		C441.9,41.8,439.4,42.7,436.8,42.7"/>
	<path id="XMLID_856_" d="M46.4,12.7c-5,0-9.9,2.2-13,6.1l-0.6,0.6l-0.6-0.6c-3.1-3.9-7.9-6.1-12.9-6.1c-9.1,0-16.7,7.4-16.7,16.5
		v20.2c0.1,1.7,1.5,3.1,3.2,3.1c1.7,0,3.1-1.4,3.2-3.1V29.2c0-5.6,4.6-10.2,10.2-10.2c5.6,0,10.3,4.6,10.3,10.2v20.2
		c0,1.7,1.5,3.1,3.2,3.1c1.7,0,3.2-1.4,3.2-3.1V29.2C36,23.6,40.7,19,46.3,19c5.6,0,10.2,4.6,10.2,10.2v20.3c0.1,1.7,1.5,3,3.2,3
		c1.7,0,3.1-1.3,3.2-3V29.2C63,20.1,55.5,12.7,46.4,12.7"/>
	<path id="XMLID_855_" d="M465.6,47.2L465.6,47.2L479.8,33l-14-14.1v0c0,0-0.1-0.1-0.1-0.1c-1.3-1.3-1.3-3.3,0-4.6
		c1.3-1.3,3.3-1.3,4.6,0c0,0,0.1,0.1,0.1,0.1l0,0l14,14.1l14-14.1l0,0c0,0,0.1-0.1,0.1-0.1c1.3-1.3,3.3-1.3,4.6,0
		c1.3,1.3,1.3,3.3,0,4.6c0,0-0.1,0.1-0.1,0.1l0,0L489,33l14.2,14.2v0c1.2,1.3,1.2,3.3,0,4.6c-1.3,1.3-3.3,1.3-4.6,0l-14.2-14.2
		l-14.2,14.2c-1.3,1.2-3.3,1.2-4.6,0C464.4,50.5,464.4,48.5,465.6,47.2z"/>
</g>
</svg>
