<?xml version="1.0" encoding="utf-8"?>
<!-- Generator: Adobe Illustrator 21.0.2, SVG Export Plug-In . SVG Version: 6.00 Build 0)  -->
<svg version="1.1" id="Layer_1" xmlns="http://www.w3.org/2000/svg" xmlns:xlink="http://www.w3.org/1999/xlink" x="0px" y="0px"
	 viewBox="0 0 226 226" style="enable-background:new 0 0 226 226;" xml:space="preserve">
<style type="text/css">
	.st0{fill:url(#SVGID_1_);}
	.st1{fill:url(#XMLID_2_);}
	.st2{fill:url(#XMLID_3_);}
</style>
<g>
	<g>
		<g>
			<g>
				<g>
					
						<linearGradient id="SVGID_1_" gradientUnits="userSpaceOnUse" x1="24.9" y1="115.6" x2="228.4884" y2="115.6" gradientTransform="matrix(1 0 0 -1 0 228.6)">
						<stop  offset="0" style="stop-color:#EB3796"/>
						<stop  offset="1" style="stop-color:#873299"/>
					</linearGradient>
					<path class="st0" d="M113,225.7C50.8,225.7,0.3,175.1,0.3,113S50.8,0.3,113,0.3S225.7,50.9,225.7,113S175.1,225.7,113,225.7z
						 M113,8.3C55.3,8.3,8.3,55.3,8.3,113s47,104.7,104.7,104.7s104.7-47,104.7-104.7C217.7,55.3,170.7,8.3,113,8.3z"/>
				</g>
			</g>
		</g>
	</g>
	<g>
		
			<linearGradient id="XMLID_2_" gradientUnits="userSpaceOnUse" x1="24.9" y1="1218.7" x2="228.4884" y2="1218.7" gradientTransform="matrix(1 0 0 1 0 -1106)">
			<stop  offset="0" style="stop-color:#EB3796"/>
			<stop  offset="1" style="stop-color:#873299"/>
		</linearGradient>
		<path id="XMLID_22_" class="st1" d="M110.6,46.1C73.8,46.1,44,76,44,112.7s29.9,66.6,66.6,66.6s66.6-29.9,66.6-66.6
			S147.3,46.1,110.6,46.1 M110.6,159.5c-26,0-47.2-21-47.2-46.8c0-26,21.2-47.1,47.2-47.1s47.1,21.1,47.1,47.1
			C157.7,138.5,136.6,159.5,110.6,159.5"/>
		
			<linearGradient id="XMLID_3_" gradientUnits="userSpaceOnUse" x1="24.9" y1="1232.2775" x2="228.4884" y2="1232.2775" gradientTransform="matrix(1 0 0 1 0 -1106)">
			<stop  offset="0" style="stop-color:#EB3796"/>
			<stop  offset="1" style="stop-color:#873299"/>
		</linearGradient>
		<path id="XMLID_13_" class="st2" d="M110.6,144.9c-17.6,0-32.6-13.1-34.8-30.4c-0.4-3.3,1.9-6.3,5.2-6.8c3.3-0.4,6.3,1.9,6.8,5.2
			c1.5,11.3,11.3,19.9,22.9,19.9c11.4,0,21.3-8.4,22.8-19.7c0.5-3.3,3.5-5.6,6.8-5.1s5.6,3.5,5.1,6.8c-1.2,8.3-5.3,15.9-11.6,21.4
			C127.3,141.8,119.1,144.9,110.6,144.9"/>
	</g>
</g>
</svg>
