<?xml version="1.0" encoding="utf-8"?>
<!-- Generator: Adobe Illustrator 21.0.2, SVG Export Plug-In . SVG Version: 6.00 Build 0)  -->
<svg version="1.1" id="Layer_1" xmlns="http://www.w3.org/2000/svg" xmlns:xlink="http://www.w3.org/1999/xlink" x="0px" y="0px"
	 viewBox="0 0 226 226" style="enable-background:new 0 0 226 226;" xml:space="preserve">
<style type="text/css">
	.st0{fill:url(#SVGID_1_);}
	.st1{fill:url(#SVGID_2_);}
	.st2{fill:url(#SVGID_3_);}
	.st3{fill:url(#SVGID_4_);}
</style>
<g>
	<g>
		<g>
			<g>
				
					<linearGradient id="SVGID_1_" gradientUnits="userSpaceOnUse" x1="18.041" y1="115.6" x2="235.5218" y2="115.6" gradientTransform="matrix(1 0 0 -1 0 228.6)">
					<stop  offset="0" style="stop-color:#EB3796"/>
					<stop  offset="1" style="stop-color:#873299"/>
				</linearGradient>
				<path class="st0" d="M113,225.7C50.8,225.7,0.3,175.1,0.3,113S50.8,0.3,113,0.3S225.7,50.9,225.7,113S175.1,225.7,113,225.7z
					 M113,8.3C55.3,8.3,8.3,55.3,8.3,113s47,104.7,104.7,104.7s104.7-47,104.7-104.7C217.7,55.3,170.7,8.3,113,8.3z"/>
			</g>
		</g>
	</g>
	<g>
		
			<linearGradient id="SVGID_2_" gradientUnits="userSpaceOnUse" x1="18.041" y1="131.3" x2="235.5218" y2="131.3" gradientTransform="matrix(1 0 0 -1 0 228.6)">
			<stop  offset="0" style="stop-color:#EB3796"/>
			<stop  offset="1" style="stop-color:#873299"/>
		</linearGradient>
		<path class="st1" d="M101.8,96.9c0,3.7,1.7,6,8.4,8.2V89.5C104.6,90,101.8,93,101.8,96.9z"/>
		
			<linearGradient id="SVGID_3_" gradientUnits="userSpaceOnUse" x1="18.041" y1="103.4" x2="235.5218" y2="103.4" gradientTransform="matrix(1 0 0 -1 0 228.6)">
			<stop  offset="0" style="stop-color:#EB3796"/>
			<stop  offset="1" style="stop-color:#873299"/>
		</linearGradient>
		<path class="st2" d="M117.1,117.2v16c5.6-0.6,8.7-3.4,8.7-7.6C125.8,121.7,123.9,119.3,117.1,117.2z"/>
		
			<linearGradient id="SVGID_4_" gradientUnits="userSpaceOnUse" x1="18.041" y1="115.55" x2="235.5218" y2="115.55" gradientTransform="matrix(1 0 0 -1 0 228.6)">
			<stop  offset="0" style="stop-color:#EB3796"/>
			<stop  offset="1" style="stop-color:#873299"/>
		</linearGradient>
		<path class="st3" d="M173.5,102.7c-7.3-2.1-10.1-10.9-5.5-16.9l0,0c6.5-8.5-2-20.3-12.1-16.7l0,0c-7.1,2.5-14.6-2.9-14.4-10.4l0,0
			c0.3-10.7-13.6-15.2-19.6-6.4c-4.3,6.2-13.5,6.2-17.8,0C98,43.4,84.2,48,84.5,58.7l0,0c0.2,7.6-7.2,13-14.4,10.4l0,0
			C60,65.5,51.4,77.3,58,85.8l0,0c4.6,6,1.8,14.8-5.5,16.9c-10.3,3-10.3,17.6,0,20.7c7.3,2.1,10.1,10.9,5.5,16.9
			c-6.5,8.5,2,20.3,12.1,16.7l0,0c7.1-2.5,14.6,2.9,14.4,10.4l0,0c-0.3,10.7,13.6,15.2,19.6,6.4c4.3-6.2,13.5-6.2,17.8,0
			c6.1,8.9,19.9,4.3,19.6-6.4l0,0c-0.2-7.6,7.2-13,14.4-10.4l0,0c10.1,3.6,18.7-8.2,12.1-16.7c-4.6-6-1.8-14.8,5.5-16.9
			C183.8,120.3,183.8,105.7,173.5,102.7z M117.5,142.1v6.4c0,2.1-1.7,3.8-3.8,3.8s-3.9-1.7-3.9-3.8v-6.6c-6.6-0.7-12.6-3.1-18-6.8
			c-1.5-1-2.4-2.4-2.4-4.2c0-2.7,2.1-4.8,4.8-4.8c1.1,0,2.1,0.4,2.9,1c4.1,3,8.2,5,13,5.9v-17.3c-12.7-3.5-18.7-8.3-18.7-18.2
			c0-9.4,7.5-15.9,18.4-16.8v-5.4c0-2.1,1.8-3.8,3.9-3.8s3.8,1.7,3.8,3.8v5.5c5.2,0.6,9.6,2.3,13.6,4.8c1.4,0.8,2.6,2.1,2.6,4.2
			c0,2.7-2.2,4.8-4.9,4.8c-0.9,0-1.8-0.3-2.6-0.8c-3.1-1.8-6.1-3.2-9-3.9v16.8c13.3,3.3,19,8.7,19,18.1
			C136.2,134.6,128.6,141,117.5,142.1z"/>
	</g>
</g>
</svg>
