<?xml version="1.0" encoding="utf-8"?>
<!-- Generator: Adobe Illustrator 21.0.2, SVG Export Plug-In . SVG Version: 6.00 Build 0)  -->
<svg version="1.1" id="Layer_1" xmlns="http://www.w3.org/2000/svg" xmlns:xlink="http://www.w3.org/1999/xlink" x="0px" y="0px"
	 viewBox="0 0 415.7 95" style="enable-background:new 0 0 415.7 95;" xml:space="preserve">
<style type="text/css">
	.st0{fill:#00B550;stroke:#00B550;stroke-width:1.0124;stroke-miterlimit:10;}
</style>
<g>
	<path class="st0" d="M61.4,14.3L61,15l-0.1,0.4l-0.1,0.1v0.1l-0.1,0.1h-0.3l-0.3,0.2l-0.4,0.2L59,16.3l-0.1,0.1l-0.1,0.1l-0.2,0.3
		l0.1,0.2v0.3L58.5,18L58.2,18L58,18.3l-1,2L57,20.5l-0.1,0.1L55.7,23l-0.2,0.1l-0.2,0.5L55,24l-0.8,1.6l-0.8,1.9l-0.6,1.2L52.6,29
		l-0.2,0.5l-0.1,0.1l-0.2,0.5l-0.2,0.6l-0.1,0.1l-0.1,0.2L51,32.7v0.1L51,32.8l-0.3,0.5v0.1l-1.1,2.3L49.4,36l-0.4,0.9v0.2l-0.1,0.2
		l-0.2,0.1l-0.1-0.1l-0.1,0.2h-0.1c-1.4,2.9-3,5.7-4.5,8.4l2.6-2.2l0.2-0.3l0.6-0.7l0.7-0.5l0.3-0.4h0.4l5.2-4l0.2-0.5v-0.1l0.3-0.3
		l1.3-0.8l0.6-0.5l2-1.4l0.4-0.3l4.9-3.1l0.6-0.5l0.8-0.5l0.1-0.1l1.3-0.8l0.6-0.3l0.1-0.2l2.1-1.4l0.3-0.1l2.4-1.6l0.1-0.2l0.2-0.1
		h0.1l0.7-0.4l0.1-0.1l0.8-0.5l0.6-0.2l3-1.9l0.6-0.7l0.2-0.1l0.1-0.1l1.1-0.5l0.3-0.2l2.9-1.7l0.5-0.4l0.1,0.1l1.7-1l0.4-0.2
		l0.3-0.2l0.3-0.3l3.4-1.8v-0.1h0.1l0.8-0.2l0.3-0.2l0.1-0.2l4.8-2.5l0.4-0.1l0.7-0.3l0.1-0.1l0.7-0.5l1-0.4l0.3-0.3V10l0.6-0.5
		l0.4-0.2l0.6-0.3l1.3-0.4l0.6-0.3l1.3-0.3l1.5-0.7l0.3-0.2l0.1-0.2l0.1,0.1l0.1,0.1c1.4-0.5,2.9-1.2,4.6-2c2.9-1.2,6.3-1.6,9.5-2
		l0.3-0.1h0.1c0.3,0,0.4-0.1,0.6-0.1l0.1-0.1l2.9-0.5h0.3l1.2-0.1l0.2-0.1l0.2-0.1l0.1,0.1v0.3l-0.2,0.1h-0.4l-1,0.1l-0.8,0.3
		l-0.2-0.1l-0.1,0.1c0,0.1-0.1,0.3-0.2,0.3c-4.1,0.9-8.3,1.3-12.4,2.7l-1.5,0.5l-1.3,0.7L106,7.8l-0.6,0.3l-0.6,0.1l-0.8,0.2
		l-0.6,0.2c-2,0.9-4,1.8-5.9,2.8h-0.1l-0.7,0.5L96,12.2l-2.4,1.2l-0.8,0.7l-2.2,1.3l-0.6,0.2l-1,0.8l-1.1,0.4L87.3,17
		c-1.5,0.8-2.9,1.6-4.2,2.5L82.5,20l-0.7,0.5l-0.8,0.3l-0.6,0.4h-0.2l-3.4,2.2l-1.3,1.1l-0.6,0.1H75l-0.3,0.2L74,25.5l-1,0.4
		l-5.4,3.6l-0.5,0.4l-0.3,0.5l-0.3,0.4l-0.3-0.1l-0.1,0.3l-0.3,0.2l-0.1,0.1l-1.3,0.4L62.6,33L60,35.3l-0.6,0.5l-1,0.8l-0.2,0.3
		l-0.6,0.4h-0.2l-0.8,0.5L56.2,38L55,38.8l-1,0.8l-1.5,1.1h-0.3l-0.1,0.3l-0.8,0.5L51,41.8l-0.7,0.5l-0.1,0.5v0.5L50,43.8l-0.6,0.3
		l-0.6,0.1l-0.3-0.2v-0.3l-0.1-0.1l-1,0.8l-0.5,0.5l-0.1,0.2l-0.4,0.2L45.5,46l-0.6,0.5l-0.2,0.1l-0.6,0.5l-0.6,0.5l-0.2,0.3L43,48
		l-0.2,0.1l-0.4,0.4l0.3,0.2l0.5,0.9c1.5,2.1,2.9,3.9,3.4,4.6c0.7,1.1,1.5,2.1,2.2,3.1l0.3,0.2l0.6,0.3l0.3,0.5h-0.2
		c0.3,0.4,0.6,0.8,0.9,1.1l1.7,1.6l0.4,0.3v0.3l2.2,2.5l0.1-0.1l0.1,0.3l0.3,0.4l1,1.1l0.1,0.2l0.8,0.7l0.2,0.4l2.4,2.2h0.1l0.1,0.1
		h-0.1c0,0,0.1,0.1,0.1,0.1l0.6,1.2L62,71l0.3,0.3l1,0.9l0.6,0.3v0.1l0.7,0.5l0.2,0.6l0.6,0.5l0.4,0.3c0.1,0.1,0.3,0.2,0.4,0.3
		l0.3,0.1l0.3,0.1l0.5,0.5l0.3,0.1L68,76l0.4,0.4l1.3,1.3l0.7,0.2l0.2,0.1l0.5,0.2l0.2,0.1l0.5-0.1l0.1,0.1l0.2,0.5l0.3,0.3l0.9,0.5
		l0.1,0.1c0.6,0.3,1.2,1,1.7,1.4h0.1l0.8,0.5l1,0.6l0.8,0.3l1.9,0.7l3.4,2.2l1.3,0.5l1.7,1l0.9,0.3l1.7,1.1l1.5,0.3l0.1,0.3l0.3,0.1
		l0.9,0.4l0.4,0.2l0.4,0.3l2.9,1.4l1,0.4l1,0.3l0.6,0.1l0.5,0.3l-0.4,0.3L97.6,93c-0.1,0.1-0.3,0-0.4-0.1l-1.5-0.2l-0.5-0.2
		l-0.6,0.1l-0.1-0.1l-0.1-0.4l-0.2-0.2l-0.6-0.4l-0.2-0.2l-3.6-1.6l-2.9-1.5l-0.3,0.1h-0.2L86.2,88l-0.1-0.2
		c-2.5-1.2-5.1-2.4-7.5-3.7l-1-0.4h-0.3v-0.2l-0.3-0.2l-0.1-0.1l-3.4-2l-0.6-0.2l-1.3-0.8l-1.1-0.5l-1-0.5l-0.6-0.4l-0.7-0.8
		l-1.7-1.1l-0.1-0.1l-0.7-0.2L65,76.3l-0.6-0.4l-0.7-0.5L63.3,75l-0.1-0.5l-0.3-0.5l-0.2-0.3c-1.9-1.4-3.8-3-5.3-4.7l-0.6-0.4
		l-0.1-0.3l-0.9-0.9L55,66.9l-1-0.8l-1.8-2.6l0.1,0.1c-1.9-2.2-3.7-4.4-5.4-6.7l-0.4-0.1l-0.2-0.2l0.1-0.5l-0.1-0.2L46,55.7
		l-2.1-2.9l-0.2-0.2l-0.1-0.2c0-0.1-0.1-0.1-0.1-0.2l-0.6-0.3l-0.1-0.2l-0.2-0.5l-1-1.5l-0.3,0.1h-0.1c-0.3,0.5-0.6,0.9-0.8,1.4v0.3
		L40.3,52l-0.3,0.3l-0.8,0.7l-0.1,0.4l-0.3,0.5l-0.6,0.6l-0.4,0.6l-0.3,0.5l-0.4,0.8l-0.3,0.8l-0.2,0.3l-0.2,0.5l-0.1,0.3l0.2,0.5
		l-0.2,0.3l-0.8,0.2L35,60l-0.8,0.6c-2,2.9-4.1,5.6-6.1,8.4l-0.6,1.4l-2.2,2.5l-0.2,0.3H25l-2.4,3.1l0.1,0.1l-0.1,0.1l-0.3,0.5
		l-1.3,1.5l-0.8,0.8l-0.3,0.4v0.1l-0.6,0.9l-0.4,0.5L18.5,82l-0.1,0.4l-0.4,0.2l-0.3,0.1l-0.2,0.4l-0.1,0.2v0.3l-0.1,0.1L17,83.9
		l-0.3,0.5L15.8,85l-0.4,0.1l-0.3,0.2L15,85.3l-1.5,1.6l-0.9,1.7L12,89.8l-0.5,0.5l-0.6,0.2l-1.3,1.3l-1.7,0.5l-0.3-0.1l-0.1-0.3
		l0.3-1.1v-0.3l0.3-1.3l-0.2-0.3l-0.1-0.5l-0.1,0.1l-0.2-0.2h0.3l0.1-0.3v-0.5l0.1-0.8L8.8,85l0.3-2.3l0.4-0.8l0.3-1
		c0.2-0.8,0.7-1.6,1.3-2.5v-0.1l0.3-0.5h0.1l0.7-1v-0.1l0.5-0.5L12.5,76l0.1-0.3l0.1-0.5l0.3-0.4l0.1-0.1v-0.1l0.1-0.1l0.1-0.2
		l-0.1-0.1h0.1l0.3-0.3h0.1l0.1-0.1l0.1-0.1l0.6-0.5v-0.3l0.3-0.4l0.3-0.3l0.6-0.3l0.6-0.5l0.1-0.1l1-1.2l0.1-0.1l0.6-0.8l0.8-0.9
		l3.1-2.7l0.9-1l0.6-0.5l0.5-0.5l0.3-0.1l0.8-1.2l0.6-0.3l0.5-0.4l1.5-1.5l0.3-0.3l1.9-1.8l0.2-0.3l0.3-0.3l0.4-0.5l1.2-1l1.1-1.2
		l0.2-0.3l1-0.9l1.3-1.4l0.7-0.3l0.5-0.3l0.1,0.1l0.9-1.1l1.9-1.5v-0.2l0.1,0.1l0.5-0.4v-0.1c-0.5-0.4-0.8-0.8-1.1-1.4h-0.1
		l-0.2-0.3v-0.1l-0.5-0.6L38,45.2L38,44.6L37.6,44l-0.1-0.3l-0.1-0.1l-0.2-0.1l-0.2-0.3l-0.1-0.1L36.5,43l-0.3-0.5h-0.1v-0.1
		l0.1-0.1l-0.1-0.4l-0.2-0.3l0.1-0.1l-0.1-0.1l-0.3-0.8V40c-0.4-0.7-0.6-1.3-0.6-1.8c-0.1,0-0.1,0-0.1-0.1h0.1V38
		c0-0.2,0.1-0.3,0.4-0.4v-0.1l0.2-0.4l0.3-0.3l0.4,0.1l0.3,0.6l0.2,0.4l0.4-0.2l0.7-0.1l0.9,0.9l0.4,1.3l0.1,0.4l-0.1,1.1l-0.3,1.2
		l0.1-0.1l0.1,0.2l-0.1,0.1l-0.1,0.2l0.1,0.3l0.1,0.3l0.3,1l0.6,1l0.5,1.2l0.4,0.5l2-3.3l-0.1,0.1l0.5-1.1v-0.2l0.2-0.1l0.1-0.3
		l0.7-1.1l0.1-0.3l0.7-0.8l2.1-3.6l1.3-2.7l0.2-0.7h0.3l0.1-1l0.6-1.5v-0.2l0.3-0.3l0.9-1.9l0.4-1.4l-0.1-0.5l0.6-0.5l-0.1-0.5
		l1.3-2.4l0.1-0.7L54,21l0.1-0.7l-0.3,0.5l-0.5,1.1L53.1,22h-0.6l-0.1-0.3l0.1-0.2l1.2-1.4v-0.3l0.1,0.1l0.2-0.4l0.2-0.5h-0.1
		l-0.6-0.1c-0.3-0.1-0.2-1-0.2-1l0.3-0.4l0.3-0.5l1.1-1.4l0.3-0.8l0.2-0.7l0.3-0.5l0.3-0.4l0.3-0.1l0.1-0.2l0.1-0.1l0.3-0.8l0.5-0.3
		l0.1-0.3l0.9-1.4l1.7-1.1l0.1,0.1l0.5,0.4l0.1,1.6l-0.6,1.9l-0.6,1.1l0.1-0.1H60v0.1l0.4-0.2l0.1-0.1l0.3-0.1l0.2-0.1l0.3,0.2
		l0.2,0.3L61.4,14.3z M32.2,57c-1,0.9-2,1.8-2.9,2.7l-1,1l-0.2,0.3L25,64.3L25,64.6l-0.3,0.1l-2.3,2.4l-0.4,0.5l-0.1,0.3l-0.1,0.3
		L21,68.7l-0.6,0.5l-1.3,1.5l-0.1,0.1l-0.4,0.6l-0.3,0.3l-0.3,0.6L18,72.8L17.9,73l-0.5,0.5l-0.6,0.8l-1.3,1.4L14,77.8l-1,2
		l-0.7,1.1c-0.3,0.8-0.5,1.6-0.7,2.5l0.1,0.1l-0.1,0.3h-0.1V84l0.4,1.2v0.3l0.3-0.1l3.4-3.7l0.8-1l4.2-4.4l1-1.2l0.4-0.3l1-1.4
		l0.5-0.5l3.5-5c0.1-0.2,0.2-0.4,0.3-0.5l0.7-1l0.5-0.5c0.8-1.2,1.7-2.4,2.6-3.7l0.2-0.6l0.5-0.3c2-2.9,3.8-5.7,5.7-8.7L37,52.9
		l-0.5,0.4l-0.3,0.4l-1.5,1.1L32.2,57z"/>
	<path class="st0" d="M94.8,61.9l-0.7,0.5l-1,0.4L92.5,63l-0.3,0.2l-0.1,0.1l-0.2,0.1L91,63.9l-0.6,0.3l-0.1,0.1l-0.2,0.1l-0.5,0.1
		l-1,0.5l-0.4,0.2l-1,0.7l-0.6,0.2l-0.4,0.2l-0.8,0.4l-0.6,0.3l-0.4,0.1l-1.1,0.2l-1,0.5L81.4,68l-1.2-0.1l-0.8,0.2l-1.3-0.3
		c-0.7-0.2-1.3-0.5-1.6-1.1l-0.3-0.3l0.1-0.4c-0.1-0.5-0.1-1.2,0.2-1.8V64l0.5-1.4l0.6-1.4l0.1-0.5l0.5-0.8l0.5-0.5l0.1-0.3l0.4-0.3
		c0.1-0.2,0.3-0.4,0.5-0.7l0.6-0.8l0.2-0.5l0.2-0.4l0.2-0.2l0.2-0.7l0.6-0.6l0.4-0.2l0.3-0.4l0.6-0.5l1.3-2.2l0.3-1l0.8-1l0.5-0.4
		l0.3-0.5l0.3-0.2l0.1-0.7v-0.3l0.3-0.5l0.5-0.3l0.2-0.1h0.1v-0.1l0.5-0.5l0.5-0.3c0.3-0.3,0.6-0.6,1.1-0.5c0.1,0,0.1,0.1,0.2,0.1
		l0.2-0.1l0.1-0.1l0.4-0.1l0.6,0.1l0.5,0.3v0.3l-0.1,0.8L91.3,47l-0.7,0.8L90.4,48l-0.3,0.2H90l-0.4,0.1l-1.2,1.1l-0.1,0.3l-0.1,0.1
		l-1,1c-0.1,0.1-0.2,0.2-0.3,0.3l-0.1,0.4l-0.6,0.5l-0.5,0.7l-0.6,0.5L85,53.6l-0.5,0.3l-0.3,0.5l-0.1,0.2l-0.8,1l-1,1.2l-0.5,0.7
		L81.3,58l-0.8,1.3c-0.6,0.6-0.6,0.7-0.7,0.8l-0.5,1.2l-0.1,0.5L78.6,63l-0.4,1.4v0.4l-0.1,0.8c0.1,0.6,0.2,0.7,0.2,0.8l0.3,0.1
		l0.4-0.1h0.2l0.5,0.1l0.4-0.1l0.4-0.1l0.3,0.1h0.3l1.5-0.3h0.2c0.3-0.1,0.8-0.2,1.2-0.3l0.3-0.2l0.8-0.5l0.6-0.3l1.4-0.3l1.1-0.4
		l0.6-0.1l2.4-1.2l0.1-0.3H92l1.3-0.6l0.1-0.1l0.1-0.2l0.6-0.3h0.2l0.2-0.3l0.4-0.1l0.6-0.3l0.7-0.4l0.6-0.3l0.8-0.5l0.2-0.2
		l0.8-0.5l0.3-0.1l0.3-0.2l1.5-0.8h0.2l0.5-0.3l0.3-0.1l0.3-0.2c0.1,0,0.1-0.1,0.2-0.1l0.3-0.3l0.5-0.2l0.3-0.3l0.5-0.3l0.7-0.3
		l0.3-0.2c0.6-0.3,1.2-0.8,2-1.2l0.1-0.3h0.2l0.2,0.1l0.2,0.4l-0.2,0.3l-0.2,0.1l-0.4,0.2l-0.1,0.2l-0.1-0.1h-0.1v0.1l-0.9,0.5h-0.2
		l-2.2,1.3l-0.6,0.5l-0.6,0.5l-0.6,0.2l-0.4,0.2c-1.3,0.9-2.6,1.7-3.8,2.4L96.8,61l-0.2,0.1l-0.8,0.3l-0.2,0.1l-0.1,0.1L94.8,61.9z
		 M100.9,30.6l-0.6,1l-0.3,0.3l-0.2,0.3v0.1l-0.7,0.1l-0.6,0.1l-0.6,0.2l-0.6,0.4l-0.1,0.1L97,33.3l-0.3,0.5L96,34.1l-0.6,1
		l-0.7,0.2l-0.3,0.3l-0.5,0.5v0.1l-0.8,0.5l-0.1-0.5l0.3-0.2c0-0.1,0.1-0.2,0.1-0.4l0.8-1.2l-0.1-0.5l0.5-1l0.2-0.4l0.7-0.8l0.5-0.5
		l0.1-0.1l0.8-0.7l0.3-0.3l0.6-0.3l0.4-0.5h0.1l0.3-0.3h-0.1l0.3-0.1v0.1l0.5-0.5l0.7-0.2l0.6,0.5l0.7,0.3l-0.2,0.7l0.1,0.3
		L100.9,30.6z"/>
	<path class="st0" d="M136.6,63.8l-0.1-0.5c-0.1-0.1-0.1-0.1-0.1-0.2c-0.2-0.3-0.2-0.7-0.1-1.2v-0.2l0.1-0.7l0.4-1l0.3-0.7l0.3-0.4
		l0.6-0.7l0.7-1l0.6-0.7l0.1-0.2l0.1-0.3l0.6-0.8l0.2-0.4l0.1-0.3v-0.3l-0.2,0.1h-0.1l-0.6,0.3l-0.3,0.1l-1.7,1l-0.6,0.5l-0.5,0.5
		l-0.5,0.1l-0.5,0.2l-1.4,0.8l-0.3,0.4l-0.8,0.5l-0.4,0.2l-1.3,0.8l-1.4,1l-0.2,0.3l-0.3,0.3l-0.4,0.1l-0.1,0.1
		c-0.3,0.2-0.6,0.3-0.8,0.5l-0.3,0.2l-0.5,0.3l-0.7,0.5l-0.4,0.2c-1,0.7-2,1.1-2.4,1.1h-0.1v0.1l-0.3,0.1l-0.3-0.2l-0.3-0.3
		l-0.4-0.7c-0.2-0.3-0.2-1,0.1-1.8l0.2-1.4l0.1-0.4l0.3-0.7l0.2-0.1l0.6-1.2l0.2-0.3l1.1-1.4l0.4-0.7l0.1-0.1l0.1-0.2l0.7-0.8
		l0.2-0.5l0.3-0.3l1.5-2.3l1.4-2l1-1.2l1.3-1.6h-1l-1.3-0.2l-0.3,0.1l-0.1-0.1c0,0.1-0.1,0.1-0.1,0.1l-1.2,0.6l-0.8,0.7l-2.4,1.2
		l-0.6,0.5l-2.4,1.6l-1.5,0.7l-0.2,0.1l-0.5,0.4l-0.1,0.1l-0.3,0.1l-2.1,1.4l-0.9,0.6l-0.6,0.7l-1.4,1.2l-1,0.7
		c-0.2,0.2-0.4,0.3-0.6,0.5l-0.5,0.8l-0.2,0.2l-0.6,0.6l-0.6,0.2l-0.2,0.3h-0.1l-0.1,0.1h-0.2l-0.3,0.3l-0.1,0.1l-1.9,1.6l-0.1,0.2
		l-0.3,0.3l-0.3,0.2l-0.1,0.1l-0.9,0.8l-0.4,0.4h-0.1l-0.8,0.7v0.2h-0.1l-0.1,0.1l-0.7,0.8l-0.9,0.7l-0.3,0.4l-0.1,0.1l-0.7,0.7
		l-0.5,0.5l-0.3,0.6l-0.2,0.3l-0.3,0.1l-0.2,0.1l-0.1,0.1l-0.1,0.2l-0.1,0.1l-0.3,0.2l-0.1,0.1v0.1l-0.1,0.2v0.2l-0.3,0.3v0.1
		L99,70.3l-0.2,0.1l-0.1,0.1h-0.1l-0.1,0.1l-0.4,0.3l-0.8,0.2h-0.1V71l-0.5,0.1h-0.3L96,71.1l-0.1-0.3L95.4,71l-0.1-0.1L95,70.5
		l-0.2-0.3l0.1-0.5l0.2-0.6l0.2-0.2l-0.1-0.1l0.1-0.3l0.3-0.3l0.3-0.3l0.8-1.3l1.5-1.5l0.1-0.1l0.1-0.3l0.2-0.1l0.8-1.2l0.5-0.5
		l0.4-0.6l0.1-0.3l0.2-0.3l0.5-0.7v-0.1l0.3-0.2l0.2-0.3l0.4-0.6l1.3-1.7l0.4-0.5l0.3-0.5l1.3-1.6l0.3-0.5l1.3-1.6l0.8-1.2l0.2-0.3
		l0.2-0.7l0.1-0.4l0.3-0.3l0.3-0.1l0.1-0.4l0.1-0.1v-0.2l-0.1-0.1l0.1-0.2v-0.3l0.2-0.3h-0.1l0.1-0.1l0.1,0.1l0.2-0.1l0.1-0.2h0.1
		v-0.1l0.4-0.3l0.2-0.1l0.6-1l0.5-0.5l0.3-0.5l-0.1-0.1l0.3-0.5l0.1-0.2l0.1-0.3v-0.1l-0.1-0.1v-0.1h0.1l0.1-0.6l0.1-0.7l0.1-0.2
		l0.4-0.7l0.7-0.4l0.3,0.1V42l0.2-0.1h0.2l0.1-0.2l0.3-0.1l0.8-0.1h0.4l0.3,0.1l0.2,0.2v0.4l-0.3,0.5v0.3l-0.1,0.3l-0.6,1.4
		l-1.1,0.8l-0.8,0.5l-0.1,0.1l-0.8,1.2v0.1l-0.3,0.4l-0.1,0.5l-0.2,0.5l-0.1,0.3l-0.3,0.2l-0.1,0.1l-0.1,0.1l-0.1,0.1h-0.1l-0.1,0.3
		l-0.3,0.3l-0.4,0.3l-0.6,0.8l-0.4,0.5l-0.3,0.6l-0.2,0.2l-0.8,0.5l-0.8,1l-0.5,0.3l-0.8,1v0.1l-0.5,0.5l-0.6,0.9l-0.2,0.6l-0.3,0.4
		l-0.5,0.6l-0.1,0.2l-0.6,0.4l-0.6,0.8l-0.8,1.2l-0.8,1.1l-0.7,0.9L99.7,65l-0.5,1.2L99,66.5l0.1-0.1h0.3l0.2-0.1h0.2l0.1-0.1
		l0.1-0.1l0.4-0.2l0.1-0.3l0.3-0.4l0.3-0.2l0.7-0.3l0.6-0.4l0.7-0.6l0.1-0.1l0.1-0.1l0.4-0.3l0.8-0.8l1.6-1.4l0.6-0.3l1.5-1.1
		l0.4-0.5l0.1-0.1l0.4-0.2l1-0.7l0.5-0.7l0.3-0.1l1-0.7l0.6-0.6l0.3-0.2l0.1-0.1l1.3-1.2l0.5-0.3l0.8-0.7l0.2-0.3l0.4-0.3l0.6-0.5
		l0.6-0.3l0.7-0.8l1.8-1.4l0.6-0.5l0.4-0.5l1.3-0.5l0.9-0.5l0.3-0.4l0.1,0.1l0.3-0.2l0.3-0.1l0.5-0.4l0.1-0.1l0.5-0.2l0.6-0.4
		l0.8-0.3l1-0.6l0.1-0.3l1-0.5l2-0.4l1.5-0.6l0.7-0.2l0.4-0.1l0.2-0.1l0.1-0.1h0.1l-0.1,0.1l0.6,0.1L135,43l0.4,0.7l-0.1,0.7
		l-0.2,0.3c-0.4,0.8-1.3,1.7-1.7,2.4c-0.1,0.2-0.3,0.3-0.3,0.4l-0.6,0.5l-0.4,0.7l-1.1,1.1l-0.8,0.9l-0.1,0.2l-0.6,0.6l-1.9,3
		l-0.9,1.4l-0.7,1.6h-0.1v0.1l-0.8,1.4l-0.3,1l-0.2,0.3l-0.1,0.1l-0.2,0.5l-0.1,0.1l0.1,0.5l0.1,0.5l0.1,0.3l0.1,0.3l0.1,0.2
		l0.1,0.1l1-0.4l0.3-0.1c0.4-0.3,0.8-0.6,1.3-1l0.3-0.3l0.3-0.1c0.6-0.4,1-0.9,1.6-1.4l0.8-0.6l0.4-0.3l1.7-1.2l3-2.2l0.3-0.4
		l0.3-0.2l0.5-0.2h0.3c0.1-0.1,0.3-0.2,0.4-0.3l0.2-0.2l0.1-0.1v-0.1l0.1-0.1l0.1-0.2v-0.1l0.3-0.2l-0.1-0.1h0.1l0.1,0.1l0.2-0.1
		l0.1-0.1h0.1l0.6-0.2h0.5l0.3-0.1l0.2,0.1l-0.1,0.1l0.5-0.1l0.1-0.1l0.3,0.1l0.3,0.1l0.2,0.2v0.3l-0.1,0.1h0.1l-0.1,0.1l-0.4,1.2
		v0.2l-0.3,0.8l-0.6,0.8l-0.4,1l-0.2,0.4l-0.4,0.5l-0.8,1l-0.3,0.5l-0.4,0.7l-0.3,0.5l-0.2,0.7l0.1,0.7l0.5,0.4
		c0.6,0.3,1.5,0.4,2.4,0.3l0.4-0.1v0.1c0.1,0,0.1-0.1,0.2-0.1l0.1-0.1l0.2-0.1l0.8-0.1l0.7-0.3l0.4-0.2l0.3,0.1l0.2-0.1l0.1-0.1
		l0.4-0.1l1.5-0.7l0.9-0.5l0.4-0.1l0.4-0.3h0.2l1-0.5l0.4-0.1l0.4-0.2l0.9-0.4l0.9-0.5l2-1l0.2-0.1l2.5-1.2l0.3-0.2l0.9-0.3l0.3-0.2
		l0.9-0.5l0.5-0.3l0.3-0.1l0.2,0.3l-0.1,0.3l-0.3,0.1l-0.1,0.1l-0.3,0.2l-0.1,0.2l-0.1,0.1l-0.4,0.1l-2.1,1.3l-0.6,0.4h-0.2
		l-0.8,0.4l-0.6,0.4l-0.3,0.1l-0.1,0.1l-0.2,0.1l-1.2,0.6l-0.4,0.2l-0.3,0.2l-0.4,0.3l-0.3,0.1l-0.3,0.2l-0.6,0.3l-0.1,0.1l-0.3,0.1
		l-0.3,0.2l-0.6,0.3l-1,0.3l-1.3,0.5L145,63l-0.3-0.1l-0.7,0.3c-0.2,0.1-0.4,0.2-0.7,0.3l-0.1,0.1l-0.3,0.1l-0.8,0.2v0.1h-0.1
		l-0.4,0.2l-0.4,0.1h-0.3c-0.5,0.1-0.9,0.2-1.4,0.2h-0.7c-0.3,0-0.6-0.1-0.8-0.1h-0.2L136.6,63.8z"/>
	<path class="st0" d="M210.1,66.2l0.1-0.1l1.3-0.3h0.2l0.1-0.1l0.4-0.1l0.2,0l1.4-0.4L214,65l0.3-0.2l0.2,0h0.5l0.2-0.1l0.3,0h0.2
		l0.5-0.1l0.9-0.2l0.2-0.1l0.2,0l0.3-0.1l0.2,0h0.2l0.1,0l0.2-0.1h0.2l0.7-0.2l0.9-0.4l0.3,0l2.6-0.7h0.1c0,0,0.1,0,0.1,0l1.7-0.5h0
		l0.4-0.2l0.3,0v0l2.1-0.4l0,0l0.7-0.2h1l1.4-0.1l0.5-0.1l1-0.1h0.1l0.1,0h0.1v0h0.7l0.3,0.2l-0.1,0.2l-0.3,0.1c0,0-0.1,0-0.1,0
		h-0.1l-0.3,0.1l-1.2,0.2h-0.4l-1,0.1h-1.3l-1.3,0.2l-1.3,0.4l-0.7,0.1l-0.9,0.3h-0.6l-3,0.8l-0.3,0.1H221l-1.8,0.5l-0.2,0.1l-0.1,0
		l-0.2,0.1h0l-0.2,0l-0.7,0.2l-0.7,0.2l-0.8,0.1l-1.4,0.5l-0.8,0.3l-0.2,0l-0.1,0.1l-1.2,0.4l-0.4,0l-1.1,0.3l-0.6,0.1l-0.2,0.1H210
		v0l-0.3,0.2l-0.2,0H209l0.6,0.5l0.6,0.9l0.1,0.1l0.6,0.5l0.3,0.1l0.1,0.1l0.3,0.4v-0.1h0.2v0.2l0.4,0.1l0.6,0.3l0.7,0.1l0.9,0.4
		l0,0.1l0,0c0-0.1,0-0.2,0.1-0.3c0.1-0.2,0.5-0.2,0.5,0.1l0.6,1.2c0,0.1,0,0.1-0.1,0.2c-0.1,0-0.2,0-0.3,0l-0.3,0.5l-0.2,0l-0.4,0
		v0.1l-0.1,0.1v-0.2l-0.1-0.1l0,0c-0.1,0-0.3,0.1-0.5,0.1c-0.2,0-0.2-0.1-0.6-0.3c0,0-0.5,0-0.5,0c-0.1,0-0.3-0.1-0.3-0.2
		c-0.1-0.5-0.2-0.3-0.3-0.2c-0.1,0-0.2-0.1-0.3-0.2l-0.2-0.1l-0.5-0.7c-0.8-0.7-1.3-1.1-2.1-2.1h0v0l-0.9-1.1
		c-0.3,0-0.6,0.1-0.9,0.2l-0.5,0.1l-0.7,0.2l-0.5,0.1c-0.5,0.1-0.9,0.2-1.3,0.3v0h-0.2c-0.1,0-0.3,0-0.4,0.1l-0.4,0.2l-0.4,0.1
		l-2.9,0.6l-2.7,0.6l-0.8,0.2l-1.7,0.3l-0.3,0.1l-0.2,0l-0.2,0l-0.4,0.1h0l0,0l-0.3,0h-0.2l-1.3,0.2l-0.4,0.2l-0.1,0l-0.3,0.1
		l-0.2,0.1l-0.2,0.2l-0.1,0l-0.3-0.2h-0.3l-0.4-0.1c-1.6,0.3-3.2,0.5-3.7,0.6c-0.4,0-0.8,0.3-1.8,0.1l-0.1,0h-0.3l-0.4,0.1
		c-1.1,0-1.3,0-1.8-0.1l-0.3,0l-0.6-0.5c-0.1,0-0.2-0.2-0.2-0.4h0l-0.2-0.1l0-0.2l0-0.3l0-0.1l0-0.3l0.3-0.5l0.1-0.7l0.1-0.2v0
		l0.1-0.1l0.1,0l0.2-0.3l0.1-0.3l0.1-0.2h-0.1l0-0.1l0.1-0.2h0l0,0l0,0.1l0.1-0.1l0.2-0.2l0-0.1l0.1-0.1l0.5-0.4l0.3-0.2l0.3-0.3
		l0.7-0.4v0c0.5-0.5,1-0.8,1.6-1.2l0.1-0.1l0.2-0.3l0.1-0.1l0.5-0.1l0.2-0.2l0.2-0.1l0.3-0.1c0,0,0,0,0.1-0.1l0.9-0.6l0.4-0.3
		l0.4-0.3l0.1-0.1l0.2-0.1l0.1-0.1l0.2-0.1l0.1,0l2.6-1.8l0.2-0.2l0.5-0.5l1.7-1.1L196,57v-0.1l0.2-0.1l0.2,0l0.9-0.6l1-0.8l1.3-0.8
		l0.4-0.3v0h0.1l0.5-0.4l-0.1-0.2l-0.1-0.2l-0.2-0.3l0-0.2l0-0.5l-0.1-0.2l0-0.3v-0.2c-0.1-0.4-0.2-0.8-0.2-1.2l-0.2-0.4l0-0.2
		l-0.1-0.3l0-0.2l0-0.2V49l-0.1-0.3v-0.4l0.2-1.1v-1.4c0-0.8,0.2-1.6,0.4-2.4l0,0l0.1-0.1c0,0,0-0.1,0-0.2H200v0l0.1,0l0.4-1.4v0h0
		l0-0.2l0.1-0.3l0.1,0c0,0,0-0.1,0-0.2l0-0.1l0.1-0.3l0-0.3l0.1-0.4l0.4-0.4l0.1-0.3l0.7-1.1l0-0.1l0.1-0.2l0.5-0.8l0.2-0.3l0-0.3
		l0.1-0.1l0.3-0.1l0.3-0.3l0.3-0.4l0.4-0.5l0.3-0.6l0.3-0.2l0.1-0.2l0.1-0.1l0.5-0.4l0.2-0.3l0.2-0.1c1-1,2.3-2.2,3.6-3.2l0-0.1
		l0.5-0.4l0.7-0.6l0.5-0.4l0.2-0.1l0.5-0.2l0.1-0.1l0.4-0.3l0.4-0.1c1.2-0.7,2.3-1.3,3.2-1.5l2.1-0.4l0.2,0l0.3-0.2l0.4,0l0.2-0.1
		l0.1,0l0.2,0.1c0.1,0,0.2,0,0.3,0c0.6-0.1,1.2,0,1.9,0.4h0.3l0.2,0.2l0.3,0.3h0l0.4,0.2l0.6,0.4l0.1,0.3l0.1,0l0.2,0.1l0.2,0.3
		l0.4,0.7l0.2,0.4c0.4,0.7,0.6,1.5,0.3,2.1c0,0.1-0.1,0.2-0.1,0.3l0.1-0.1l0,0.6v0.2l-0.1,0.3l-0.1,0.2l-0.4,1.5l-0.2,0.6l-0.2,0.1
		l0.1,0.1l-0.2,0.2h-0.2l0,0.2l-0.2,0.4l0,0.1v0.1l-0.1,0.1l-0.1,0.1l-0.1,0.1l0,0.1l-0.1,0.2l-0.2,0l-0.5,0.4l-0.9,0.9l-0.6,0.6
		l-0.4,0.6l-0.4,0.8l-0.4,0.5l-0.9,0.6L219,41l-0.3,0.3l-0.5,0.4l-0.6,0.4l-0.4,0.6l-0.3,0.3l-1.5,0.9l-0.8,0.6l-0.2,0.3l0,0.1h-0.2
		l-0.3,0.1l-1.4,1.1l0,0.1l-0.4,0.3l-0.3,0.3l-0.4,0.4l-0.2,0.2l-0.6,0.3l-0.2,0.2l-0.3,0.2l0,0l-0.1,0.1l-1.2,0.9l0,0l-0.2,0.2
		l-0.4,0.3l-0.5,0.3l-0.3,0.2l-0.2,0.2l-0.5,0.3l-1.1,0.8l-0.2,0.2V52h-0.3l-2,1.4l-0.1,0.2l-0.2,0.3l-0.1,0.1l-0.4,0.2l0,0l-0.1,0
		l0,0.1l-0.1,0h0l0.1,0.1l-0.1,0.1l0.1,0.1l0,0.2l0.1,0.3v0.3l0.4,1.2l0.2,0.2l0.2,0.7l0,0.3l0.2,0.5l0.2,0.3l0.2,0.6l0.1,0.4
		l0.1,0.2v0.2l0.2,0.3c0.5,1.2,1.4,2.4,2.3,3.6l0.4,0.3l0.2,0.5l1.4,1.6l0.2,0.2l0.6-0.2l0.6,0L210.1,66.2z M192.2,70.1
		c0.4,0,0.8-0.1,0.9-0.1l1.6-0.3l0.1,0l0.5-0.1l0.4-0.2l0.1-0.1l0.2,0.1h0.4l1.9-0.4l0.3-0.1l0.1,0l0.1-0.1l0.8-0.1l0.2,0l1.7-0.3
		l0.2,0l0.7-0.2l0.6-0.3l0.6-0.1h0.5l1.5-0.3l0.4-0.1l0.9-0.2l0.4-0.1l0.1,0c-0.6-0.7-1.1-1.5-1.6-2.2l-0.3-0.3l-1.1-1.7v-0.1
		l-0.9-1.4l-0.1,0l-0.3-0.5l0-0.2l-0.1-0.1l-0.5-0.8v-0.1l-0.1-0.1l0-0.1l-0.1-0.1l-0.1-0.2l0-0.1l-0.2-0.2l-0.1-0.3l-0.1-0.1
		l-0.2-0.3l-0.1-0.4l0.3-0.9c0,0,0,0,0,0l-0.2-0.2v-0.1l0-0.1l-0.3-1.2c0,0,0-0.1,0-0.1l-0.4,0.3l-0.4,0.3l-0.3,0.4l-0.4,0.4
		l-0.7,0.5l-0.3,0.1l-0.6,0.1l-0.8,0.6l-0.6,0.5l-0.5,0.2l-2.5,1.7l-0.3,0.3l-0.2,0.2l-0.8,0.5l-0.7,0.4h0l-0.5,0.3l0,0.1l-0.4,0.4
		l-0.3,0.1l-2,1.4l-1,0.8l-0.5,0.6l-0.5,0.4l-0.3,0.2l-0.3,0.1l-0.8,0.7l-0.1,0.2l-0.3,0.2l-0.2,0.3l-0.2,0.2l-0.2,0l-0.1,0.1
		l-0.2,0.1l-0.1,0.1h-0.1l-0.6,0.6l-0.5,0.5l-0.1,0.3l0,0.1l0,0.2v0.1h0v0.1h0l0,0.4l0.2,0.1l0.3,0.2l0.2,0.1l0.7,0.1l0.9,0.2l0.2,0
		h0.9l2.5-0.3l0.6-0.2l0.4,0h0.6l0.8-0.1l0.6,0l0.3-0.1l0.7,0H192.2z M210.4,46.5l0.8-0.6l2.4-2l0.2-0.1l0.2-0.1l0.2-0.1l0.1-0.1
		l0.3-0.2h0l0.3-0.2l0.2-0.3l0.6-0.4l0.5-0.3l1.3-1l0.1-0.2h0.2l1.1-1l0.1-0.1l0.2-0.2l0.8-0.8l0-0.1l0.1-0.2l0.4-0.4l0.3-0.5
		l0.3-0.4l0.2-0.1l0.1-0.1l0.3-0.3l0-0.1l0.1-0.1c0.4-0.5,0.7-1,1-1.5l0-0.2h0.2c0.4-0.6,0.7-1.2,0.9-1.9v-1.1l0-0.7v-0.5l0-0.4
		l0-0.1l0-0.2l0,0h0l0,0l0,0l-0.3-0.3l-0.2-0.4l0-0.2l-0.1-0.7l-0.2-0.2l-0.3-0.2l-0.1-0.4v-0.2l0,0v-0.1l-0.2-0.1l-0.1-0.1v0
		l-0.2-0.3l-0.4-0.1l-0.4-0.2c-0.8-0.1-1.6-0.1-2.4,0l-0.5,0.1l-0.1,0.1l-0.3,0l-0.9,0.4l-0.3,0l-0.4,0.2l-0.3,0.2l-0.6,0.3l-0.2,0
		c-0.6,0.3-1.2,0.7-1.8,1.1l-0.2,0.2l-0.7,0.5l-0.7,0.7l-1.1,0.6c-0.4,0.3-0.7,0.5-1,0.8l-0.3,0.4l-0.5,0.5l-0.2,0.2l-0.5,0.3
		l-0.2,0.1c-0.8,0.7-1.5,1.5-2.2,2.2l-0.1,0.3l-0.4,0.2c-0.4,0.4-0.7,0.8-1,1.2l-0.5,0.6c-0.2,0.2-0.4,0.5-0.5,0.7
		c-0.3,0.4-0.6,0.8-0.8,1.2l-0.3,0.7l-0.4,0.6l-0.1,0.1l-0.1,0.2v0.1l-0.1,0.3l-0.1,0.1c0,0,0,0.1,0,0.1v0l0,0c0,0,0,0.1,0,0.1h0
		v0.1h0l0,0.4l0,0.4l0,0.2l-0.2,0.5l-0.2,0.2c-0.1,0.3-0.1,0.6-0.2,0.9c-0.1,0.5-0.1,0.9-0.2,1.4l0,0.1v0.9l0,0.2v0.9h0l0.1,1
		c0,0.3,0,0.5,0,0.7l0.1,0.3l0.1,0.6l0,0.3l0.1,0.2V51l0.1,0.7l0.1,0.3l0,0.2l0.1,0.7l0,0.3l0.1-0.1l0.2-0.1l0.4-0.2
		c0.1,0,0.2-0.1,0.3-0.2l0-0.1l0.2-0.1l0.4-0.3l0.4-0.6l0.2-0.2l0.4-0.3l0.5-0.3l0.3-0.2l0.3-0.2l1.1-0.6l0-0.1l0.1,0l0.3-0.2
		l1.2-0.9l0,0h0l0.1-0.2l1.2-0.9l0.3-0.4l0.3-0.3L210.4,46.5z"/>
	<path class="st0" d="M299.7,28.8l1.7-1.1l0.1-0.1c0.2-0.1,0.4-0.2,0.6-0.3l0.4-0.3l0.4-0.1l1-0.8l0.1-0.1l0.2-0.1l0.3-0.3l0.4-0.2
		l0.3-0.3l0.4-0.2l0.6-0.3l0.1-0.2L307,24l1-0.3l0.8-0.6l0.4-0.1l0.4-0.1v-0.1h0.1v0.1h0.3l0.1,0.1l0.3-0.2l4.3-1.9l0.1-0.1
		l-0.4,0.1v-0.2l0.4-0.3h0.4v0.3l1.1-0.6l0.8-0.5l0.2-0.2l0.7-0.4l1.7-0.3l1.2-0.5l0.6-0.1l0.3-0.2l0.2-0.1v-0.1h0.1v0.1
		c0.6-0.3,1.3-0.5,2-0.7v-0.1l0.3-0.4h0.6l0.9-0.1c1.8-0.6,3.6-1.2,5.5-1.7l1.1-0.6l1.5-0.3l2.9-0.9l2-0.5l0.9-0.1l1.3-0.3h1.5
		l0.8-0.1l1.1-0.1h0.7c1.6-0.2,3.4-0.3,5-0.4l0.5-0.1l0.2-0.2l0.1,0.1l0.4,0.1h1.3l0.1-0.1h0.1l0.3-0.1l0.8-0.1l1.2,0.1h0.1l0.3,0.1
		L357,11l0.5,0.1l0.3,0.1l0.3-0.1l0.1-0.1h0.1l-0.1,0.2h0.2c1.5,0.1,3.1,0.4,4.3,1l0.2,0.1l0.4-0.1l0.2,0.1l0.3,0.5l0.4,0.3l1,0.8
		l0.9,0.9l0.1,0.5v0.2c0.3,0.6,0.5,1.3,0.6,2l0.3,1v0.6c-0.3,0.3-0.3,0.3-0.3,0.2l-0.3,0.3l-0.3,0.1c-0.1,0.4-0.3,0.6-0.5,0.9
		l-0.1,0.1l0.1,0.8l-0.4,0.9l-1,1.5l-1.5,0.7l-0.4,0.1l-0.1-0.2v-0.8l0.3-0.4c0-0.1-0.1,0-0.1-0.1l-0.2,0.1l-0.3,0.1h-0.2
		c-0.1,0.1-0.1,0.1-0.1,0l-0.2-0.1l-0.3-0.4v-0.5l0.2-0.8l0.6-0.8l0.1-0.5l0.8-0.3l0.2-0.3l0.3-0.2v-0.3l0.2-0.5l-0.1-0.3l0.1-0.4
		l0.4-0.1h0.1v-0.1l-0.2-0.3l-0.3-0.2l-0.1-0.1v-0.1l-0.1-0.1l0.1-0.4v-0.7l-0.1-0.1l-0.2-0.1l-0.3-0.5l-0.5-0.3l-0.3-0.3v-0.3
		l-0.3-0.1c-1.1-0.5-2.4-0.7-3.8-0.8h-0.2l-0.3,0.1l-1.1,0.1h-0.3l-0.9-0.3l-0.1-0.1c-2-0.1-3.6-0.1-5.2-0.1h-0.1l-2.3,0.5l-0.8,0.1
		l-0.7,0.2l-2.6,0.3l-2.4,0.6l-1.1,0.1l-1.7,0.3h-0.6l-1.5,0.3l-0.6,0.1l-2.2,0.3l-0.6,0.2l-0.7,0.3l-1-0.1l-1,0.1
		c-0.1,0.1-0.2,0.1-0.3,0.1L327,17c-1.2,0.4-2.4,1-4.5,1.8l-0.1,0.1l-1,0.5l-0.5,0.1h-0.1l-1.9,0.8l-0.1,0.1v0.2h-0.2v-0.2l-4.5,2.2
		l-1.9,1.2l-0.8,0.3l-0.8,0.4l-2.5,1.3l-2.4,1.5l-1,0.4l-1.5,1l-0.7,0.3l-1.2,0.7l-0.7,0.2l-2,1.2l-0.6,0.5l-0.6,0.6l-1,0.3
		l-0.1,0.1l-3.8,2.7l-0.2,0.3l-0.3,0.3l-1.3,1l-0.6,0.5l-0.6,0.3l-0.1,0.1l-0.8,0.7l-0.2,0.3l-1.5,1.2l-0.3,0.3
		c-0.6,0.5-1.3,1.1-2,1.8l-0.4,0.6l-0.6,0.3c-1.3,1.3-2.9,2.9-4.5,4.6l-0.7,0.8l-1.8,2.4l-0.3,0.4l-0.3,0.3l-1,1.4l-1.4,1.8
		l-0.8,1.1l-1,1.3l-0.3,0.5l-1,1.3c-0.7,1.2-1.3,2.4-1.8,3.6l-0.4,1.3l-0.2,0.3l-0.2,0.5l-0.1,0.1l-0.3,1.5l-0.1,0.7l-0.1,0.3v0.4
		l-0.2,1c-0.1,0.4,0,0.9,0,1.3l0.1,0.3v0.7l0.1,0.6v0.4c0.1,0.5,0.3,1.1,0.5,1.6l0.1,0.1l0.1,0.4V74l0.3,0.4l0.3,0.7v0.1l0.4,0.5
		l0.3,0.1l0.7,1c0.1,0,0.1,0.1,0.1,0.1l0.6,0.1l0.1,0.3h0.2l0.1,0.3l0.2,0.3l0.1,0.1l0.4,0.3l0.3,0.1l0.8-0.2l0.3,0.2l0.3,0.1
		l0.2,0.2l0.3,0.7l0.3,0.3l0.4-0.1l1,0.3l0.2,0.3l0.1,0.2l0.1,0.1l1.7,0.5l0.6-0.2l1.3,0.1l0.4,0.3l0.3,0.3l4.6,0.4l0.6-0.1h0.1
		l1.3,0.1l1.9,0.1h1.1l0.8,0.1l0.1,0.1h0.3l0.3,0.1h1l5-0.3l0.3-0.1h0.4c0.4-0.1,0.8-0.1,1.1-0.1l0.7-0.3l1.2-0.1l0.4-0.1l1,0.3
		l0.3,0.1h0.4c2.2-0.3,4.5-0.7,6.6-1l0.6-0.2l0.9-0.1l0.7-0.3l2.7-0.5l2.7-0.8l1-0.2l2.5-0.5l1.3-0.5h0.7l2.2-0.7l0.8-0.5l1.5-0.2
		l0.4-0.1l0.7-0.1l2.8-0.7l0.2-0.3l1.9-0.5l0.5-0.1l0.2-0.2l0.3,0.1l1.2-0.4l0.7-0.3l0.6-0.2l0.6-0.1l0.7-0.3h0.1l0.3-0.1l1.9-0.6
		l0.8-0.4l0.5-0.1l0.4-0.2l0.9-0.2l5.4-2l0.9-0.4l0.8-0.2l0.1-0.1c1.2-0.3,2.2-0.8,3.4-1.2l0.2-0.1l1-0.4l0.2-0.1l0.1-0.1h0.4
		l0.4-0.3l0.1-0.1h0.4l0.1,0.3v0.3l-0.2,0.2h-0.6l-1,0.3l-0.3,0.3l-1.8,0.7l-0.1,0.1l-0.6,0.2l-2,0.8v0.1l-0.2,0.1l-0.8,0.5
		l-0.9,0.3l-0.6,0.3h-0.2l-0.9,0.3l-0.3,0.1l-0.8,0.3l-0.1,0.1h-0.1c-0.6,0.3-1.2,0.5-1.7,0.7l-0.5,0.2l-0.6,0.5l-0.6,0.1l-4.8,1.6
		l-0.2,0.1l-1.9,0.6h-0.5l-1.9,0.6l-0.3,0.1c-0.1,0-0.1,0-0.3,0.1l-0.8,0.3l-0.8,0.2l-0.3,0.3l-0.7,0.3l-1.4,0.1l-3.9,1.1h-0.1
		c-0.6,0.2-1.5,0.3-2.1,0.5l-0.4,0.3l-0.2-0.1l-0.8,0.2h-0.2c-0.1,0-0.1,0.1-0.1,0.1h-0.3l-0.1,0.1l-1,0.3l-0.9,0.3L317,81l-0.2-0.1
		h-0.1l-0.2,0.2l-0.8,0.1l-0.4,0.2l-0.7,0.1l-0.2,0.3l-0.3,0.3l-0.3-0.1l-0.6,0.1l-0.8,0.1l-0.7,0.1h-1.6l-2.2,0.4v0.2l-0.4,0.1
		l-0.3-0.1v-0.1c-0.1,0-0.3,0-0.5,0.1h-0.1l-1.1,0.1l-0.3,0.1l-0.4,0.2l-0.7,0.3l-1.8-0.1l-1.2,0.2l-0.3-0.1l-0.8,0.1l0.1,0.3h-1.5
		c-0.1,0-0.2,0-0.3,0.1l-0.5,0.2l-0.6-0.1l-1.6,0.2l-0.1,0.1h-0.1c-2.2,0.3-4.2,0.4-4.2,0.4h-0.1l-0.5,0.1l-1.3,0.4l-1.3,0.1
		l-0.8,0.1l-0.3-0.3h-0.3l-1.5-0.1l-0.8-0.5h-0.5l-2.2-0.5l-0.5-0.3l-1.1-0.3l-0.7,0.1l-0.8-0.4l-0.5-0.3c-0.1,0-0.2-0.1-0.3-0.1
		H277l-0.4-0.1h-0.3l-0.1,0.3h-0.8l-0.1,0.3l-0.8-0.1l-0.1-0.1l-0.5-0.1l-0.3-0.1l-0.1-0.1l-0.2,0.1l-0.9-0.3l-0.8-0.7l-0.6-0.3
		v-0.3h0.1l-0.8-0.5l-0.1,0.1l-0.3-0.7l-0.3-0.6v-0.3l-0.7-0.9v-0.3h0.1l-0.5-0.5l-0.1-0.1l-0.2-0.5v-0.1l-0.2-0.2l-0.2-0.1
		l-0.1-0.3l-0.1-0.1c-0.3-0.5-0.6-1.1-0.8-1.6l-0.2-0.4l-0.1-0.4l-0.3-1l-0.1-0.1l0.1-0.9c-0.1-1.8,0.1-3.6-0.3-5v-0.3l-0.1-0.5
		l0.1-0.2c0.1-0.7,0.3-1.4,0.6-2.2v-0.1l0.1-0.2l0.1-0.5l0.4-0.6c0.6-1.2,1.3-2.2,1.7-3.5c0.1-0.3,0.3-0.7,0.5-1.1l0.1-0.2l0.9-1.6
		l0.1-0.3l2-2.8l1.4-1.5l1.5-1.6l2.4-2.9l0.3-0.3l1.3-1.4l0.8-0.5l1.1-1.1l0.6-0.8l0.1-0.3l0.3-0.3l0.8-0.5l0.6-0.6l1.7-1.4l1.7-1.5
		l0.6-0.3l1.5-1.2v-0.1l0.1-0.1l0.4-0.1l0.2-0.1v-0.5l0.2-0.1l0.6-0.2l1.5-1.1l1.3-1l0.3-0.3l0.8-0.5l0.3-0.3l1-0.7l1.3-1l1.2-0.6
		l1-0.8l0.1-0.1L299.7,28.8z"/>
	<path class="st0" d="M378.7,54.1l-0.3,0.5c-0.1,0.1,0,0.3-0.1,0.5l-0.4,0.7l-0.5,0.7l-0.6,0.4l-0.7,0.7l-0.3,0.3l-0.3,0.3l-0.6,0.4
		l-0.1,0.1c-1.2,1-2.7,2-4.1,2.9v0.1h-0.2l-0.8,0.5v0.1l-0.1,0.1h-0.3c-0.1,0.1-0.1,0.1-0.1,0.1v0.2h-0.3l-0.6,0.4h-0.1l-0.3,0.3
		l-0.5,0.1l-0.3,0.3l-0.5,0.3l-0.3,0.1l-0.8,0.1l-0.3,0.1l-0.4,0.1h-0.1c-1.1,0.4-2.1,0.8-3.1,1.1l-0.3,0.2l-0.2,0.1l-0.3,0.3
		l-0.2,0.1l-0.5-0.1h-0.5l-1.3-0.1l-1.3-0.1V66c-0.1,0-0.2,0.1-0.3,0.1c-0.4-0.1-0.7-0.1-1-0.3c-0.3-0.2-1.7-0.9-1.8-1.4v-0.6
		l-0.2,0.1l-0.1-0.4l0.5-1.2l0.5-1.2l0.3-0.4l0.8-0.8l0.5-0.3l0.1-0.2l1.2-0.8l1-1l0.2-0.3l0.3-0.3l1.5-1.2l0.4-0.3l0.3-0.1l0.1-0.1
		l0.6-0.3l0.1-0.2l0.1,0.1l1.7-1.2l0.3-0.3l0.2-0.1l0.6-0.4l0.5-0.5l0.6-0.5l1-0.3l0.9-0.8l0.6-0.3l0.6-0.3c0.7-0.4,1.3-0.9,2-1.2
		l-1-0.1c-0.5,0.1-0.9,0.1-1.3,0.1l-0.2,0.1l-0.1,0.1l-0.2-0.1h-0.8c-0.6,0.1-1.4,0.2-2.2,0.2h-0.1l-1.6,0.1l-0.8-0.2l-0.4-0.3
		l-0.2-0.3l0.1-0.5l0.6-0.8l0.6-0.2l0.7-0.1l0.7-0.1l0.6,0.2l1,0.3c1,0,2.2,0.1,3.4,0.3l0.8-0.1l1.1,0.1l1.3-0.2l0.2,0.1l1.2-0.1
		c0.2-0.1,0.4-0.2,0.6-0.3l0.6-0.4l0.6-0.3l0.2-0.1l0.3-0.2l0.6-0.1l0.6-0.1c0.5-0.1,1-0.1,1.5-0.1l0.5-0.1l0.2,0.2
		c0.3,0.1,0.5,0.2,0.8,0.4l2-0.2l0.1-0.1l0.8-0.2l1-0.1l1.1-0.3l0.4-0.1l0.7-0.1h1.4l0.6-0.1L390,45h0.1c0.3,0,0.6,0,0.9-0.1
		c0.3,0,0.8-0.1,1.2-0.1l0.3-0.1l0.1-0.1h0.1l0.1,0.1h0.4l0.4-0.1h0.5l0.6,0.1h0.1l0.5-0.1l0.4,0.2h0.2l0.3-0.1l0.6,0.1l0.3,0.1
		c0.8,0.1,1.5,0.3,2,0.4l0.3,0.2h0.3l0.2,0.3c0.4,0.2,0.8,0.5,1.2,0.8h0.1l0.2,0.2l0.3,0.1l0.2,0.4l0.3,0.4V48l-0.4,0.3l-0.2,0.5
		l-0.6,1.1l-0.3,0.4v0.1c-0.1,0.1-0.1,0.1-0.1,0.2l-0.3,0.4l-0.4,0.1v-0.5l0.1-0.2v-0.1c0.1-0.3,0.3-0.6,0.4-0.9l0.1-0.3l0.5-1.2
		c0-0.1-0.1-0.1-0.1-0.3l-0.2-0.3l-0.7-0.3l-0.6-0.4l-1-0.3c-1.5-0.3-3.5-0.3-4.6-0.3h-1l-0.8,0.1c-0.8,0-1.1,0.1-1.8,0.2
		c-3.1,0.2-5.2,0.5-7.3,0.7l-0.1,0.1l-0.6,0.1l-0.3,0.2l-1.1-0.1c-1.1,0.1-2.2,0.3-3.5,0.5l-0.6,0.2h-0.6l-1.3,0.1l-0.3,0.2
		c0.7,0.2,1.3,0.5,1.8,0.7h0.1l0.2,0.2l0.1,0.1l0.3,0.2l0.6,0.3l0.8,0.9l0.2,0.5l0.3,0.8l-0.1,1.2C378.9,53.4,378.8,53.8,378.7,54.1
		z M377,53.6v-0.4l0.3-0.6l0.1-1v-0.1l-0.3-0.7l-0.4-0.4l-0.5-0.3l-0.6-0.3l-0.5-0.2l-0.6-0.2l-0.6-0.3l-0.4-0.1
		c-0.1,0-0.1-0.1-0.1-0.1c-0.9,0.5-1.7,1.2-3,2l-0.6,0.5l-0.5,0.4l-2.5,1.4l-0.7,0.5l-0.5,0.3l-1.4,0.9l-0.1,0.1l-0.3,0.3l-1,0.5
		l-0.8,0.5l-0.8,0.5l-0.3,0.3l-1,0.7l-0.1,0.1l-0.8,0.9l-0.6,0.8l-0.3,0.5c-0.1,0-0.1,0.1-0.1,0.1c-0.5,0.5-0.9,1.2-1.1,1.7v0.1
		l-0.1,0.3l-0.1,0.3v0.4l-0.1,0.1l-0.1,0.2c0.1,0.5,0.2,1,0.6,1.3h0.1l0.4,0.3c0.1,0,0.3,0.1,0.4,0.1c2.3,0.1,2.8-0.1,5.1-0.8
		c1-0.3,2-0.7,3-1.1l0.1-0.1h0.2l0.8-0.4l0.6-0.5l1.2-0.6l0.3-0.1h0.1l2.2-1.4l0.2-0.2l0.1-0.1c0.6-0.4,1.1-0.9,1.7-1.4l0.2-0.3
		l0.1-0.2l0.4-0.3l0.4-0.5l0.2-0.3l0.3-0.1l0.1-0.3l0.2-0.2l0.1-0.2h0.1C376.2,55,376.7,54.3,377,53.6z M379.7,46.2
		c-0.5-0.3-1.4,0.1-2.1,0.3L379.7,46.2z"/>
	<path class="st0" d="M401.8,62.5l0.2-0.1c-0.6-0.5-0.7-1.2-0.4-1.8c0.2-0.5,0.7-0.9,1.3-1.3c0.6-0.4,1.3-0.8,2.2-1
		c1-0.3,2.2-0.3,3.3-0.1l0.3,0.3c0.1,0.3,0.5,0.5,0.4,1l0.1,0.2l-0.1,0.3l-0.3,0.3c-0.2,0.4-0.5,0.8-0.8,1.2v0.1l-0.3,0.3
		c-0.1,0.1-0.2,0.3-0.3,0.3v0.1c-1.7,1.8-4.4,3.3-6.2,3.6c-0.3-0.1-0.3-0.2-0.5-0.5c0-0.1,0-0.2,0.1-0.3l-0.1-0.2l0.4-0.3l0.5-0.5
		v-0.1l-0.1-0.3l0.1-0.6l0.2-0.3L401.8,62.5L401.8,62.5z M403.9,63.1c-0.6,0.4-1,1-1.5,1.4c1-0.5,0.9-0.5,2-1.4
		C404.2,63.2,404,63.1,403.9,63.1z M405.3,62.5l0.8-0.6c0.3-0.4,0.3-0.8,0.6-1.1l0.1-0.6v-0.3l0.1-0.1v-0.1l0.1-0.4l-0.2-0.3
		l-0.4-0.1c-0.8,0-1.9,0.3-2.7,0.7c-1.1,0.7-1.5,1.7-0.2,2.2l1.3-0.5c0.2,0,0.3,0,0.5,0.3v0.1c0.1,0.3,0.1,0.3-0.1,0.5L405.3,62.5z"
		/>
</g>
</svg>
