<?xml version="1.0" encoding="utf-8"?>
<!-- Generator: Adobe Illustrator 21.0.2, SVG Export Plug-In . SVG Version: 6.00 Build 0)  -->
<svg version="1.1" id="Layer_1" xmlns="http://www.w3.org/2000/svg" xmlns:xlink="http://www.w3.org/1999/xlink" x="0px" y="0px"
	 viewBox="0 0 279 279" style="enable-background:new 0 0 279 279;" xml:space="preserve">
<style type="text/css">
	.st0{fill:url(#SVGID_1_);}
	.st1{fill:#FFFFFF;}
</style>
<g>
	<linearGradient id="SVGID_1_" gradientUnits="userSpaceOnUse" x1="5.3201" y1="203.3143" x2="273.041" y2="75.9482">
		<stop  offset="0" style="stop-color:#00AB51"/>
		<stop  offset="0.2109" style="stop-color:#2BB456"/>
		<stop  offset="0.4599" style="stop-color:#57BD5B"/>
		<stop  offset="0.6834" style="stop-color:#77C45F"/>
		<stop  offset="0.8711" style="stop-color:#8AC861"/>
		<stop  offset="1" style="stop-color:#91C962"/>
	</linearGradient>
	<path class="st0" d="M230.3,279H48.6C21.9,279,0,257.1,0,230.3V48.6C0,21.9,21.9,0,48.6,0h181.7C257.1,0,279,21.9,279,48.6v181.7
		C279,257.1,257.1,279,230.3,279z"/>
	<g>
		<path id="XMLID_683_" class="st1" d="M139.5,30C79.1,30,30,79.1,30,139.5C30,199.9,79.1,249,139.5,249
			c60.4,0,109.6-49.2,109.6-109.6C249,79.1,199.9,30,139.5,30 M139.5,216.4c-42.7,0-77.5-34.5-77.5-76.9c0-42.7,34.8-77.5,77.5-77.5
			c42.7,0,77.5,34.7,77.5,77.5C216.9,181.9,182.2,216.4,139.5,216.4"/>
		<path id="XMLID_672_" class="st1" d="M139.5,192.4c-28.9,0-53.5-21.5-57.3-49.9c-0.7-5.4,3.1-10.4,8.6-11.1
			c5.4-0.7,10.4,3.1,11.1,8.5c2.4,18.6,18.6,32.6,37.6,32.6c18.8,0,35-13.9,37.6-32.4c0.7-5.4,5.8-9.2,11.2-8.4
			c5.4,0.8,9.2,5.8,8.4,11.2c-1.9,13.6-8.7,26.1-19.1,35.2C167,187.3,153.5,192.4,139.5,192.4"/>
	</g>
</g>
</svg>
