<svg xmlns="http://www.w3.org/2000/svg" viewBox="0 0 108.31 108.32"><defs><style>.cls-1{fill:#fff;}</style></defs><title>logo</title><g id="Capa_2" data-name="Capa 2"><g id="Layer_1" data-name="Layer 1"><path id="_Trazado_compuesto_" data-name="&lt;Trazado compuesto&gt;" class="cls-1" d="M54.15,0a54.16,54.16,0,1,0,54.17,54.15A54.21,54.21,0,0,0,54.15,0m0,92.19a38.17,38.17,0,1,1,38.3-38,38.24,38.24,0,0,1-38.3,38"/><path id="_Trazado_" data-name="&lt;Trazado&gt;" class="cls-1" d="M54.17,80.32A28.56,28.56,0,0,1,25.85,55.64a4.9,4.9,0,0,1,9.72-1.27,18.78,18.78,0,0,0,37.17.14,4.9,4.9,0,0,1,9.7,1.36A28.37,28.37,0,0,1,73,73.27a28.66,28.66,0,0,1-18.81,7"/></g></g></svg>