<svg xmlns="http://www.w3.org/2000/svg" xmlns:xlink="http://www.w3.org/1999/xlink" viewBox="0 0 38.22 38.22"><defs><style>.cls-1{fill:url(#linear-gradient);}.cls-2{fill:url(#linear-gradient-2);}</style><linearGradient id="linear-gradient" x1="-269.93" y1="157.91" x2="1939.76" y2="-903.8" gradientTransform="matrix(0.97, -0.26, 0.26, 0.97, -4.27, 5.55)" gradientUnits="userSpaceOnUse"><stop offset="0" stop-color="#00b550"/><stop offset="1" stop-color="#ffda00"/></linearGradient><linearGradient id="linear-gradient-2" x1="-269.9" y1="157.97" x2="1939.78" y2="-903.74" xlink:href="#linear-gradient"/></defs><title>symbol</title><g id="Capa_2" data-name="Capa 2"><g id="Layer_1" data-name="Layer 1"><path class="cls-1" d="M19.5,8.11a1.31,1.31,0,0,1,1.32,1.32v.35A10.63,10.63,0,0,1,24.49,11a1.7,1.7,0,0,1-.81,3.21,1.85,1.85,0,0,1-.89-.23,9.65,9.65,0,0,0-2.1-.86V17c3.85,1,5.49,2.61,5.49,5.44s-2.18,4.65-5.36,5v1.34a1.32,1.32,0,1,1-2.63,0V27.39a12.65,12.65,0,0,1-5-1.77,1.74,1.74,0,0,1,.89-3.24,1.84,1.84,0,0,1,1,.33,9.66,9.66,0,0,0,3.24,1.42v-4c-3.64-1-5.44-2.38-5.44-5.39,0-2.78,2.12-4.65,5.31-5v-.3A1.31,1.31,0,0,1,19.5,8.11Zm-1.19,8.2V12.89c-1.21.18-1.75.78-1.75,1.59S16.92,15.8,18.31,16.31Zm2.38,4.43v3.52c1.19-.18,1.8-.73,1.8-1.64S22.06,21.21,20.69,20.73Z"/><path id="_Trazado_compuesto_" data-name="&lt;Trazado compuesto&gt;" class="cls-2" d="M19.11,0A19.11,19.11,0,1,0,38.22,19.11,19.13,19.13,0,0,0,19.11,0m0,33.69A14.63,14.63,0,1,1,33.79,19.11,14.66,14.66,0,0,1,19.11,33.69"/></g></g></svg>