<?xml version="1.0" encoding="utf-8"?>
<!-- Generator: Adobe Illustrator 21.0.2, SVG Export Plug-In . SVG Version: 6.00 Build 0)  -->
<svg version="1.1" id="Layer_1" xmlns="http://www.w3.org/2000/svg" xmlns:xlink="http://www.w3.org/1999/xlink" x="0px" y="0px"
	 viewBox="0 0 286 83.9" style="enable-background:new 0 0 286 83.9;" xml:space="preserve">
<style type="text/css">
	.st0{fill:#00B550;stroke:#FFFFFF;stroke-width:1.8389;stroke-miterlimit:10;}
	.st1{fill:#FFFFFF;}
</style>
<path class="st0" d="M274,82.9H12c-6.1,0-11-4.9-11-11V12c0-6.1,4.9-11,11-11H274c6.1,0,11,4.9,11,11v60
	C285.1,78,280.1,82.9,274,82.9z"/>
<g>
	<g>
		<path id="XMLID_843_" class="st1" d="M189.9,14.7c0,0.9-0.8,1.7-1.7,1.7c-0.9,0-1.7-0.8-1.7-1.7c0-0.9,0.8-1.7,1.7-1.7
			C189.2,13,189.9,13.8,189.9,14.7"/>
		<path id="XMLID_840_" d="M72.4,18.4c-4.8,0-8.7,3.9-8.7,8.7c0,4.8,3.9,8.7,8.7,8.7c4.8,0,8.7-3.9,8.7-8.7
			C81.2,22.3,77.3,18.4,72.4,18.4 M72.4,33.3c-3.4,0-6.2-2.8-6.2-6.1c0-3.4,2.8-6.2,6.2-6.2c3.4,0,6.2,2.8,6.2,6.2
			C78.6,30.5,75.8,33.3,72.4,33.3"/>
		<path id="XMLID_834_" class="st1" d="M222.3,18.4c-4.8,0-8.7,3.9-8.7,8.7c0,4.8,3.9,8.7,8.7,8.7c4.8,0,8.7-3.9,8.7-8.7
			C231.1,22.3,227.2,18.4,222.3,18.4 M222.3,33.3c-3.4,0-6.2-2.8-6.2-6.1c0-3.4,2.8-6.2,6.2-6.2c3.4,0,6.2,2.8,6.2,6.2
			C228.5,30.5,225.8,33.3,222.3,33.3"/>
		<path id="XMLID_832_" class="st1" d="M175.9,18.4c-2.2,0-4.3,1-5.6,2.7l-0.2,0.3l-0.3-0.3c-1.4-1.7-3.4-2.7-5.6-2.7
			c-3.9,0-7.2,3.2-7.2,7.1v8.7c0,0.7,0.6,1.3,1.4,1.3c0.8,0,1.4-0.6,1.4-1.3v-8.7c0-2.4,2-4.4,4.4-4.4c2.4,0,4.5,2,4.5,4.4v8.7
			c0,0.7,0.6,1.4,1.4,1.4c0.8,0,1.4-0.6,1.4-1.4v-8.7c0-2.4,2-4.4,4.5-4.4c2.4,0,4.4,2,4.4,4.4v8.8c0.1,0.7,0.7,1.3,1.4,1.3
			c0.7,0,1.3-0.6,1.4-1.3v-8.8C183,21.6,179.8,18.4,175.9,18.4"/>
		<path id="XMLID_830_" class="st1" d="M189.6,20.1c0-0.8-0.6-1.4-1.4-1.4c-0.8,0-1.4,0.6-1.4,1.4c0,0,0,0,0,0.1h0v14h0
			c0,0.8,0.6,1.4,1.4,1.4c0.8,0,1.4-0.6,1.4-1.4V20.1L189.6,20.1C189.6,20.2,189.6,20.1,189.6,20.1"/>
		<path id="XMLID_824_" class="st1" d="M153.2,27.1c0-4.8-3.9-8.7-8.7-8.7c-4.8,0-8.7,3.9-8.7,8.7c0,4.8,3.9,8.7,8.8,8.7
			c3.9,0,5.8-2.6,5.8-2.6v0.9c0,0.8,0.6,1.4,1.4,1.4c0.8,0,1.4-0.6,1.4-1.4v0.3V27.1z M144.6,33.3c-3.4,0-6.2-2.8-6.2-6.2
			c0-3.4,2.8-6.2,6.2-6.2c3.4,0,6.2,2.8,6.2,6.2C150.8,30.5,148,33.3,144.6,33.3"/>
		<path id="XMLID_821_" d="M117.9,27.3c0-2.2-0.7-4.4-2-6c-0.7-0.9-1.5-1.6-2.4-2.1c-1-0.5-2.2-0.8-3.4-0.8c-4.5,0-8,3.8-8,8.7
			c0,2.4,0.8,4.7,2.4,6.3c1.5,1.6,3.7,2.5,6,2.5c2.5,0,4.5-0.8,6.3-2.5c0.3-0.2,0.4-0.6,0.4-0.9c0-0.6-0.5-1.2-1.2-1.2
			c-0.3,0-0.6,0.2-0.8,0.3l0,0c-1.2,1.1-2.7,1.7-4.7,1.7c-1.6,0-2.9-0.4-3.9-1.1c-1-0.8-1.7-2-1.9-3.5l0-0.1h11.9
			C117.4,28.5,117.9,28,117.9,27.3 M106.6,22.2c0.9-0.9,2.2-1.4,3.5-1.4c1.6,0,2.8,0.5,3.7,1.6c1,1.1,1.3,2.6,1.4,3.6l0,0.1h-10.5
			l0-0.1C105,24.5,105.6,23.2,106.6,22.2"/>
		<path id="XMLID_820_" d="M91.7,18.4c-0.3,0-0.6,0-1,0.1l-0.1,0c-3.6,0.5-6.3,3.6-6.3,7.1v8.7v0c0,0.7,0.6,1.3,1.3,1.3
			c0.7,0,1.3-0.6,1.3-1.3v0c0,0,0-8.2,0-8.6l0,0c0,0,0,0,0-0.1c0,0,0,0,0,0c0-1.2,0.5-2.3,1.3-3.2c0.9-0.8,2-1.3,3.3-1.3
			c1.3,0,2.4,0.4,3.3,1.3c0.9,0.8,1.3,1.9,1.3,3.2v8.8l0,0c0.1,0.7,0.6,1.2,1.3,1.2c0.7,0,1.3-0.5,1.3-1.2v0v-8.7
			C98.9,21.6,95.7,18.4,91.7,18.4"/>
		<path id="XMLID_805_" class="st1" d="M210.4,27.1c0-4.8-4-8.8-8.8-8.8c-4.8,0-8.6,3.9-8.6,8.7c0,4.8,3.9,8.7,8.6,8.7
			c2,0,4-0.8,5.5-2.1l0.4-0.3c0,0,0.3,2.7-0.4,4.6c-0.3,0.9-1.6,3.8-5.5,3.9c-1.8,0.1-3.7-1-4.8-2.7c-0.3-0.4-0.7-0.7-1.2-0.7
			c-0.8,0-1.4,0.6-1.4,1.4c0,0.2,0.1,0.4,0.2,0.6l0,0c1.5,2.6,4.4,4.2,7.3,4.2c2.8-0.1,4.9-0.9,6.4-2.6c2.3-2.6,2.4-6.5,2.4-9.3
			V27.1z M201.7,33c-3.2,0-5.8-2.7-5.8-5.9c0-3.3,2.6-6,5.8-6c3.2,0,5.9,2.7,5.9,6C207.6,30.4,204.9,33,201.7,33"/>
		<path id="XMLID_804_" d="M134.8,20c0,0.2-0.1,0.4-0.1,0.6l0,0c-0.2,0.6-6.7,16-6.7,16c-0.9,2.4-2,5.4-4.8,6.9
			c-1.8,0.9-3.9,1-6.2,0.2c-1.6-0.6-2.9-1.7-3.8-3.1c0,0,0,0,0,0c-0.1-0.2-0.2-0.4-0.2-0.7c0-0.7,0.6-1.3,1.3-1.3
			c0.5,0,0.9,0.2,1.1,0.6c0,0,0,0,0,0c0.6,1,1.5,1.7,2.5,2.1c3.3,1.1,5.3-0.9,5.9-1.5c1.1-1.4,2.2-4.7,2.2-4.7l-6.8-14.4l0,0
			c-0.1-0.3-0.2-0.5-0.2-0.7c0-0.7,0.6-1.3,1.3-1.3c0.2,0,0.9,0,1.3,1l5.6,11.9l4.9-11.9c0.2-0.5,0.5-1,1.3-1
			C134.2,18.7,134.8,19.3,134.8,20"/>
		<path id="XMLID_802_" class="st1" d="M222.3,31.3c-2.3,0-4.3-1.7-4.6-4c-0.1-0.4,0.2-0.8,0.7-0.9c0.4-0.1,0.8,0.2,0.9,0.7
			c0.2,1.5,1.5,2.6,3,2.6c1.5,0,2.8-1.1,3-2.6c0.1-0.4,0.5-0.7,0.9-0.7c0.4,0.1,0.7,0.5,0.7,0.9c-0.2,1.1-0.7,2.1-1.5,2.8
			C224.5,30.9,223.5,31.3,222.3,31.3"/>
		<path id="XMLID_800_" d="M53.5,18.4c-2.2,0-4.3,1-5.6,2.7l-0.2,0.3L47.3,21c-1.4-1.7-3.4-2.7-5.6-2.7c-3.9,0-7.2,3.2-7.2,7.1v8.7
			c0,0.7,0.6,1.3,1.4,1.3c0.8,0,1.4-0.6,1.4-1.3v-8.7c0-2.4,2-4.4,4.4-4.4c2.4,0,4.5,2,4.5,4.4v8.7c0,0.7,0.6,1.4,1.4,1.4
			c0.8,0,1.4-0.6,1.4-1.4v-8.7c0-2.4,2-4.4,4.5-4.4c2.4,0,4.4,2,4.4,4.4v8.8c0.1,0.7,0.7,1.3,1.4,1.3c0.7,0,1.3-0.6,1.4-1.3v-8.8
			C60.6,21.6,57.4,18.4,53.5,18.4"/>
		<path id="XMLID_793_" d="M234.8,33.3L234.8,33.3l6.1-6.2l-6.1-6.1v0c0,0,0,0-0.1-0.1c-0.6-0.6-0.6-1.4,0-2c0.5-0.5,1.4-0.5,2,0
			c0,0,0,0,0.1,0.1l0,0l6.1,6.1L249,19l0,0c0,0,0,0,0.1-0.1c0.6-0.6,1.4-0.6,2,0c0.6,0.6,0.6,1.4,0,2c0,0,0,0-0.1,0.1l0,0l-6.1,6.1
			l6.1,6.2v0c0.5,0.6,0.5,1.4,0,2c-0.5,0.5-1.4,0.6-2,0l-6.1-6.2l-6.1,6.2c-0.5,0.5-1.4,0.5-2,0C234.3,34.7,234.3,33.8,234.8,33.3z"
			/>
	</g>
	<g>
		<g>
			<path class="st1" d="M91.3,66.5l-2.3-6.3c0-0.1-0.1-0.2-0.1-0.3c0-0.3,0.2-0.5,0.6-0.5c0.3,0,0.5,0.2,0.6,0.5l1.9,5.6l1.9-5.6
				c0.1-0.3,0.3-0.4,0.5-0.4h0.1c0.3,0,0.5,0.2,0.6,0.4l1.9,5.6l1.9-5.6c0.1-0.2,0.2-0.4,0.5-0.4c0.3,0,0.5,0.2,0.5,0.5
				c0,0.1,0,0.2-0.1,0.3l-2.3,6.3C97.5,66.8,97.2,67,97,67h0c-0.3,0-0.5-0.2-0.6-0.5l-1.9-5.4l-1.9,5.4C92.5,66.8,92.3,67,92,67h0
				C91.7,67,91.5,66.8,91.3,66.5z"/>
			<path class="st1" d="M101.5,57.1c0-0.4,0.3-0.6,0.6-0.6c0.4,0,0.7,0.2,0.7,0.6v0.2c0,0.3-0.3,0.6-0.7,0.6c-0.4,0-0.6-0.2-0.6-0.6
				V57.1z M101.6,59.9c0-0.3,0.2-0.6,0.5-0.6c0.3,0,0.6,0.2,0.6,0.6v6.4c0,0.3-0.2,0.6-0.5,0.6s-0.6-0.2-0.6-0.6V59.9z"/>
			<path class="st1" d="M105.3,64.9v-4.5h-0.6c-0.3,0-0.5-0.2-0.5-0.5c0-0.3,0.2-0.5,0.5-0.5h0.6v-1.8c0-0.3,0.2-0.6,0.5-0.6
				c0.3,0,0.6,0.3,0.6,0.6v1.8h1.9c0.3,0,0.5,0.2,0.5,0.5c0,0.3-0.2,0.5-0.5,0.5h-1.9v4.3c0,0.9,0.5,1.2,1.2,1.2
				c0.4,0,0.6-0.1,0.7-0.1c0.3,0,0.5,0.2,0.5,0.5c0,0.2-0.1,0.4-0.3,0.4c-0.3,0.1-0.7,0.2-1.1,0.2C106.2,67,105.3,66.4,105.3,64.9z"
				/>
			<path class="st1" d="M110.4,56.9c0-0.3,0.2-0.6,0.5-0.6c0.3,0,0.6,0.3,0.6,0.6v3.9c0.5-0.8,1.3-1.5,2.5-1.5c1.8,0,2.8,1.2,2.8,3
				v4.1c0,0.3-0.2,0.6-0.5,0.6c-0.3,0-0.6-0.2-0.6-0.6v-3.8c0-1.4-0.7-2.2-2.1-2.2c-1.3,0-2.2,0.9-2.2,2.3v3.8
				c0,0.3-0.2,0.6-0.5,0.6s-0.6-0.2-0.6-0.6V56.9z"/>
		</g>
		<g>
			<g>
				<path id="XMLID_515_" d="M166.6,51.4c0,0.7-0.6,1.3-1.3,1.3c-0.7,0-1.3-0.6-1.3-1.3c0-0.7,0.6-1.3,1.3-1.3
					C166,50.1,166.6,50.7,166.6,51.4"/>
				<path id="XMLID_512_" d="M190.9,54.1c-3.6,0-6.5,2.9-6.5,6.6c0,3.6,2.9,6.6,6.5,6.6c3.6,0,6.6-2.9,6.6-6.6
					C197.4,57.1,194.5,54.1,190.9,54.1 M190.9,65.3c-2.6,0-4.6-2.1-4.6-4.6c0-2.6,2.1-4.6,4.6-4.6c2.6,0,4.6,2.1,4.6,4.6
					C195.5,63.2,193.5,65.3,190.9,65.3"/>
				<path id="XMLID_507_" d="M156.1,54.1c-1.6,0-3.2,0.7-4.2,2l-0.2,0.2l-0.2-0.2c-1-1.3-2.6-2-4.2-2c-2.9,0-5.4,2.4-5.4,5.3V66
					c0,0.6,0.5,1,1,1c0.6,0,1-0.4,1-1v-6.5c0-1.8,1.5-3.3,3.3-3.3c1.8,0,3.3,1.5,3.3,3.3V66c0,0.6,0.5,1,1,1c0.6,0,1-0.5,1-1v-6.5
					c0-1.8,1.5-3.3,3.3-3.3c1.8,0,3.3,1.5,3.3,3.3V66c0,0.5,0.5,1,1,1c0.5,0,1-0.4,1-1v-6.6C161.4,56.5,159,54.1,156.1,54.1"/>
				<path id="XMLID_505_" d="M166.4,55.4c0-0.6-0.5-1-1-1c-0.6,0-1,0.5-1,1c0,0,0,0,0,0.1h0V66h0c0,0.6,0.5,1,1,1c0.6,0,1-0.5,1-1
					V55.4L166.4,55.4C166.4,55.4,166.4,55.4,166.4,55.4"/>
				<path id="XMLID_308_" d="M139.1,60.7c0-3.6-2.9-6.6-6.5-6.6c-3.6,0-6.5,2.9-6.5,6.6c0,3.6,2.9,6.6,6.6,6.6
					c2.9,0,4.4-1.9,4.4-1.9v0.6c0,0.6,0.5,1.1,1.1,1.1c0.6,0,1.1-0.5,1.1-1.1v0.2V60.7z M132.6,65.3c-2.6,0-4.6-2.1-4.6-4.6
					c0-2.6,2.1-4.6,4.6-4.6c2.6,0,4.6,2.1,4.6,4.6C137.3,63.2,135.2,65.3,132.6,65.3"/>
				<path id="XMLID_305_" d="M182,60.7c0-3.6-3-6.6-6.6-6.6c-3.6,0-6.5,2.9-6.5,6.6c0,3.6,2.9,6.5,6.5,6.5c1.5,0,3-0.6,4.1-1.5
					l0.3-0.3c0,0,0.2,2-0.3,3.4c-0.2,0.7-1.2,2.8-4.2,2.9c-1.4,0-2.8-0.8-3.6-2c-0.2-0.3-0.5-0.5-0.9-0.5c-0.6,0-1.1,0.5-1.1,1.1
					c0,0.2,0,0.3,0.1,0.5c0,0,0,0,0,0c1.1,2,3.3,3.1,5.5,3.1c2.1-0.1,3.7-0.7,4.8-2c1.8-2,1.8-4.9,1.8-7V60.7z M175.4,65.1
					c-2.4,0-4.4-2-4.4-4.4c0-2.5,2-4.5,4.4-4.5c2.4,0,4.4,2,4.4,4.5C179.8,63.1,177.8,65.1,175.4,65.1"/>
				<path id="XMLID_290_" d="M190.9,63.8c-1.7,0-3.2-1.3-3.4-3c0-0.3,0.2-0.6,0.5-0.7c0.3,0,0.6,0.2,0.7,0.5c0.1,1.1,1.1,2,2.2,2
					c1.1,0,2.1-0.8,2.2-1.9c0-0.3,0.3-0.5,0.7-0.5c0.3,0,0.5,0.3,0.5,0.7c-0.1,0.8-0.5,1.6-1.1,2.1
					C192.5,63.5,191.7,63.8,190.9,63.8"/>
			</g>
			<g>
				<g id="XMLID_170_">
					<path class="st1" d="M226.6,60.4c0-3.6-2.9-6.4-6.4-6.4c-3.6,0-6.4,2.9-6.4,6.4c0,3.5,2.9,6.4,6.4,6.4c2.9,0,4.3-1.9,4.3-1.9
						v0.6c0,0.6,0.5,1,1.1,1c0.6,0,1-0.5,1-1l0,0.2V60.4z M220.2,65c-2.5,0-4.6-2-4.6-4.6c0-2.5,2-4.6,4.6-4.6c2.5,0,4.6,2,4.6,4.6
						C224.8,63,222.7,65,220.2,65"/>
				</g>
				<g id="XMLID_79_">
					<path class="st1" d="M251.5,60.6c0-1.6-0.5-3.2-1.4-4.4c-0.5-0.7-1.1-1.2-1.8-1.5c-0.8-0.4-1.6-0.6-2.5-0.6
						c-3.3,0-5.9,2.8-5.9,6.4c0,1.8,0.6,3.4,1.8,4.6c1.1,1.2,2.7,1.8,4.4,1.8c1.9,0,3.3-0.6,4.6-1.9c0.2-0.2,0.3-0.4,0.3-0.6
						c0-0.5-0.4-0.8-0.9-0.8c-0.3,0-0.4,0.1-0.6,0.2l0,0c-0.9,0.8-2,1.2-3.5,1.2c-1.1,0-2.1-0.3-2.8-0.8c-0.8-0.6-1.2-1.5-1.4-2.6
						l0-0.1h8.7C251,61.5,251.5,61.1,251.5,60.6 M243.1,56.8c0.7-0.7,1.6-1,2.6-1c1.2,0,2.1,0.4,2.8,1.2c0.7,0.8,1,1.9,1,2.6l0,0.1
						h-7.7l0-0.1C241.9,58.5,242.4,57.5,243.1,56.8"/>
				</g>
				<g>
					<path class="st1" d="M229.7,66.6c-0.6,0-1-0.5-1-1v-6.3c0-3,2.4-5.4,5.4-5.4c2.2,0,4.2,1.3,5,3.4c0.2,0.5-0.1,1.1-0.6,1.3
						c-0.5,0.2-1.1-0.1-1.3-0.6c-0.5-1.3-1.7-2.1-3.1-2.1c-1.8,0-3.3,1.5-3.3,3.3v6.3C230.7,66.1,230.2,66.6,229.7,66.6z"/>
				</g>
				<g>
					<path class="st1" d="M206.4,67.1c-3.6,0-6.6-3-6.6-6.6c0-3.6,3-6.6,6.6-6.6c2.3,0,4.4,1.2,5.6,3.1c0.3,0.5,0.2,1.1-0.3,1.4
						c-0.5,0.3-1.1,0.2-1.4-0.3c-0.8-1.3-2.3-2.2-3.9-2.2c-2.5,0-4.6,2-4.6,4.6c0,2.5,2,4.6,4.6,4.6c1.6,0,3.1-0.9,3.9-2.3
						c0.3-0.5,0.9-0.6,1.4-0.4c0.5,0.3,0.6,0.9,0.4,1.4C210.9,65.9,208.8,67.1,206.4,67.1z"/>
				</g>
			</g>
		</g>
	</g>
</g>
</svg>
