<?xml version="1.0" encoding="utf-8"?>
<!-- Generator: Adobe Illustrator 21.0.2, SVG Export Plug-In . SVG Version: 6.00 Build 0)  -->
<svg version="1.1" id="Layer_1" xmlns="http://www.w3.org/2000/svg" xmlns:xlink="http://www.w3.org/1999/xlink" x="0px" y="0px"
	 viewBox="0 0 286 83.9" style="enable-background:new 0 0 286 83.9;" xml:space="preserve">
<style type="text/css">
	.st0{fill:#B3B3B3;stroke:#FFFFFF;stroke-width:1.8389;stroke-miterlimit:10;}
	.st1{fill:#FFFFFF;}
</style>
<g>
	<path class="st0" d="M274,82.9H12c-6.1,0-11-4.9-11-11V12c0-6.1,4.9-11,11-11H274c6.1,0,11,4.9,11,11v60
		C285.1,78,280.1,82.9,274,82.9z"/>
	<g>
		<path class="st1" d="M28.1,43V29.7h-0.9c-1.4,0-2.4-1.1-2.4-2.5s1.1-2.5,2.4-2.5h0.9v-4.3c0-1.6,1.3-2.9,2.8-2.9
			c1.5,0,2.8,1.3,2.8,2.9v4.3h4.4c1.4,0,2.5,1.1,2.5,2.5s-1.1,2.5-2.5,2.5h-4.4v12.4c0,2.3,1.1,3.2,3,3.2c0.7,0,1.2-0.1,1.4-0.1
			c1.3,0,2.4,1.1,2.4,2.4c0,1.1-0.7,1.9-1.5,2.3c-1.2,0.4-2.4,0.7-3.9,0.7C31,50.5,28.1,48.6,28.1,43z"/>
		<path class="st1" d="M44.9,17.7c0-1.6,1.2-2.9,2.8-2.9s2.8,1.3,2.8,2.9v10.9c1.6-2.3,3.9-4.4,7.7-4.4c5.5,0,8.8,3.8,8.8,9.7v13.5
			c0,1.6-1.2,2.9-2.8,2.9c-1.6,0-2.8-1.2-2.8-2.9V35.7c0-3.9-1.9-6.2-5.3-6.2c-3.3,0-5.5,2.3-5.5,6.3v11.6c0,1.6-1.3,2.9-2.8,2.9
			c-1.5,0-2.8-1.2-2.8-2.9V17.7z"/>
		<path class="st1" d="M83.9,50.6c-7.1,0-12.6-5.3-12.6-13.1v-0.1c0-7.2,5-13.2,12-13.2c7.8,0,11.7,6.6,11.7,12.5
			c0,1.6-1.2,2.8-2.7,2.8H76.9c0.6,4.1,3.4,6.4,7.1,6.4c2.4,0,4.2-0.9,5.8-2.2c0.4-0.3,0.8-0.5,1.4-0.5c1.3,0,2.2,1,2.2,2.3
			c0,0.7-0.3,1.3-0.7,1.8C90.5,49.3,87.7,50.6,83.9,50.6z M89.5,35.6C89.1,31.9,87,29,83.2,29c-3.4,0-5.9,2.7-6.4,6.7H89.5z"/>
		<path class="st1" d="M111.1,37.5L111.1,37.5c0-7.3,5.6-13.3,13.1-13.3c7.5,0,13.1,5.9,13.1,13.1v0.1c0,7.2-5.6,13.2-13.2,13.2
			C116.6,50.6,111.1,44.7,111.1,37.5z M131.6,37.5L131.6,37.5c0-4.6-3.1-8.2-7.5-8.2c-4.5,0-7.4,3.6-7.4,8v0.1
			c0,4.4,3.1,8.1,7.5,8.1C128.8,45.5,131.6,41.9,131.6,37.5z"/>
		<path class="st1" d="M143,43V29.7h-0.9c-1.4,0-2.4-1.1-2.4-2.5s1.1-2.5,2.4-2.5h0.9v-4.3c0-1.6,1.3-2.9,2.8-2.9
			c1.5,0,2.8,1.3,2.8,2.9v4.3h4.4c1.4,0,2.5,1.1,2.5,2.5s-1.1,2.5-2.5,2.5h-4.4v12.4c0,2.3,1.1,3.2,3,3.2c0.7,0,1.2-0.1,1.4-0.1
			c1.3,0,2.4,1.1,2.4,2.4c0,1.1-0.7,1.9-1.5,2.3c-1.2,0.4-2.4,0.7-3.9,0.7C145.9,50.5,143,48.6,143,43z"/>
		<path class="st1" d="M159.8,17.7c0-1.6,1.2-2.9,2.8-2.9s2.8,1.3,2.8,2.9v10.9c1.6-2.3,3.9-4.4,7.7-4.4c5.5,0,8.8,3.8,8.8,9.7v13.5
			c0,1.6-1.2,2.9-2.8,2.9c-1.6,0-2.8-1.2-2.8-2.9V35.7c0-3.9-1.9-6.2-5.3-6.2c-3.3,0-5.5,2.3-5.5,6.3v11.6c0,1.6-1.3,2.9-2.8,2.9
			c-1.5,0-2.8-1.2-2.8-2.9V17.7z"/>
		<path class="st1" d="M198.8,50.6c-7.1,0-12.6-5.3-12.6-13.1v-0.1c0-7.2,5-13.2,12-13.2c7.8,0,11.7,6.6,11.7,12.5
			c0,1.6-1.2,2.8-2.7,2.8h-15.4c0.6,4.1,3.4,6.4,7.1,6.4c2.4,0,4.2-0.9,5.8-2.2c0.4-0.3,0.8-0.5,1.4-0.5c1.3,0,2.2,1,2.2,2.3
			c0,0.7-0.3,1.3-0.7,1.8C205.4,49.3,202.6,50.6,198.8,50.6z M204.4,35.6c-0.4-3.7-2.5-6.7-6.2-6.7c-3.4,0-5.9,2.7-6.4,6.7H204.4z"
			/>
		<path class="st1" d="M214.5,27.4c0-1.6,1.2-2.9,2.8-2.9s2.8,1.3,2.8,2.9V30c1.3-3.2,3.7-5.6,6.2-5.6c1.8,0,2.8,1.2,2.8,2.9
			c0,1.5-1,2.5-2.2,2.8c-4,0.7-6.8,3.9-6.8,9.9v7.5c0,1.6-1.3,2.9-2.8,2.9c-1.5,0-2.8-1.2-2.8-2.9V27.4z"/>
		<path class="st1" d="M231.7,47.5c-0.6-0.3-1.1-1.1-1.1-2c0-1.3,1-2.3,2.3-2.3c0.5,0,0.9,0.1,1.2,0.3c2.4,1.6,4.8,2.4,7.1,2.4
			c2.4,0,3.8-1.1,3.8-2.7v-0.1c0-2-2.6-2.6-5.5-3.5c-3.6-1.1-7.7-2.6-7.7-7.4V32c0-4.8,3.9-7.7,8.8-7.7c2.6,0,5.4,0.8,7.7,2.1
			c0.8,0.4,1.4,1.2,1.4,2.2c0,1.3-1,2.3-2.3,2.3c-0.5,0-0.7-0.1-1.1-0.3c-2-1.1-4.1-1.7-5.8-1.7c-2.2,0-3.4,1.1-3.4,2.5v0.1
			c0,1.9,2.7,2.6,5.5,3.6c3.6,1.2,7.6,2.8,7.6,7.4v0.1c0,5.3-4,8-9.1,8C237.9,50.5,234.5,49.5,231.7,47.5z"/>
		<path class="st1" d="M253.9,27.4c2.1-0.7,3.3-2.2,3.2-4.3c-1.4-0.3-2.7-1.5-2.7-3.2v-0.4c0-1.8,1.3-3.2,3.2-3.2
			c2,0,3.4,1.6,3.4,4.2V21c0,3.3-0.8,5.5-2.3,7c-1.3,1.3-3.1,2.1-4.4,2.1c-1,0-1.4-0.6-1.4-1.3C252.9,28,253.3,27.6,253.9,27.4z"/>
	</g>
	<g>
		<path class="st1" d="M20.6,69.3v1.4h-1.7V56.4h1.8v6.7h0.1c0.3-0.4,0.7-0.8,1.3-1.1c0.5-0.3,1.2-0.5,1.9-0.5
			c0.7,0,1.3,0.1,1.8,0.4c0.5,0.2,1,0.6,1.4,1s0.7,0.9,0.9,1.5c0.2,0.6,0.3,1.2,0.3,1.8S28.2,67.4,28,68c-0.2,0.6-0.5,1.1-0.9,1.5
			c-0.4,0.4-0.9,0.8-1.4,1s-1.2,0.4-1.9,0.4c-0.6,0-1.2-0.1-1.8-0.4S20.9,69.8,20.6,69.3L20.6,69.3z M26.5,66.2
			c0-0.4-0.1-0.8-0.2-1.2c-0.1-0.4-0.3-0.7-0.6-1c-0.3-0.3-0.6-0.5-0.9-0.7C24.4,63.1,24,63,23.5,63c-0.5,0-0.9,0.1-1.2,0.3
			c-0.4,0.2-0.7,0.4-1,0.7c-0.3,0.3-0.5,0.6-0.6,1c-0.1,0.4-0.2,0.8-0.2,1.2c0,0.4,0.1,0.8,0.2,1.2c0.1,0.4,0.3,0.7,0.6,1
			s0.6,0.5,1,0.7c0.4,0.2,0.8,0.3,1.2,0.3c0.5,0,0.9-0.1,1.3-0.3c0.4-0.2,0.7-0.4,0.9-0.7c0.3-0.3,0.4-0.6,0.6-1
			C26.4,67,26.5,66.6,26.5,66.2z"/>
		<path class="st1" d="M32.9,58.5c0,0.3-0.1,0.6-0.3,0.8c-0.2,0.2-0.5,0.3-0.8,0.3c-0.3,0-0.6-0.1-0.8-0.3c-0.2-0.2-0.3-0.5-0.3-0.8
			c0-0.3,0.1-0.6,0.3-0.8c0.2-0.2,0.5-0.3,0.8-0.3c0.3,0,0.6,0.1,0.8,0.3C32.8,57.9,32.9,58.2,32.9,58.5z M32.6,70.7h-1.8v-9h1.8
			V70.7z"/>
		<path class="st1" d="M36.4,72.2c0.4,0.4,0.9,0.8,1.5,1.1c0.6,0.3,1.2,0.4,1.8,0.4c0.6,0,1.1-0.1,1.5-0.3s0.7-0.4,1-0.7
			c0.2-0.3,0.4-0.6,0.5-1c0.1-0.4,0.2-0.8,0.2-1.3v-1.2h0c-0.3,0.5-0.8,0.9-1.3,1.2c-0.6,0.3-1.2,0.4-1.8,0.4
			c-0.7,0-1.3-0.1-1.9-0.4c-0.6-0.2-1-0.6-1.4-1c-0.4-0.4-0.7-0.9-0.9-1.5s-0.3-1.2-0.3-1.8c0-0.6,0.1-1.2,0.3-1.8
			c0.2-0.6,0.5-1.1,0.9-1.5c0.4-0.4,0.9-0.8,1.4-1c0.6-0.2,1.2-0.4,1.9-0.4c0.6,0,1.3,0.1,1.8,0.4c0.6,0.3,1,0.7,1.4,1.3h0v-1.4h1.7
			v8.5c0,0.7-0.1,1.3-0.2,1.9s-0.4,1.1-0.8,1.6c-0.4,0.5-0.9,0.8-1.5,1.1s-1.4,0.4-2.3,0.4c-0.8,0-1.6-0.1-2.4-0.4s-1.5-0.7-2-1.2
			L36.4,72.2z M36.9,66.1c0,0.4,0.1,0.8,0.2,1.2c0.1,0.4,0.3,0.7,0.6,1c0.3,0.3,0.6,0.5,0.9,0.7c0.4,0.2,0.8,0.3,1.3,0.3
			c0.5,0,0.9-0.1,1.2-0.2s0.7-0.4,1-0.7c0.3-0.3,0.5-0.6,0.6-1c0.1-0.4,0.2-0.8,0.2-1.2c0-0.4-0.1-0.8-0.2-1.2
			c-0.1-0.4-0.4-0.7-0.6-1c-0.3-0.3-0.6-0.5-1-0.7c-0.4-0.2-0.8-0.3-1.2-0.3c-0.5,0-0.9,0.1-1.3,0.3c-0.4,0.2-0.7,0.4-0.9,0.7
			c-0.3,0.3-0.5,0.6-0.6,1C37,65.3,36.9,65.7,36.9,66.1z"/>
		<path class="st1" d="M54.1,69.3v1.4h-1.7V56.4h1.8v6.7h0.1c0.3-0.4,0.7-0.8,1.3-1.1c0.5-0.3,1.2-0.5,1.9-0.5
			c0.7,0,1.3,0.1,1.8,0.4c0.5,0.2,1,0.6,1.4,1s0.7,0.9,0.9,1.5c0.2,0.6,0.3,1.2,0.3,1.8s-0.1,1.3-0.3,1.9c-0.2,0.6-0.5,1.1-0.9,1.5
			c-0.4,0.4-0.9,0.8-1.4,1s-1.2,0.4-1.9,0.4c-0.6,0-1.2-0.1-1.8-0.4S54.5,69.8,54.1,69.3L54.1,69.3z M60.1,66.2
			c0-0.4-0.1-0.8-0.2-1.2c-0.1-0.4-0.3-0.7-0.6-1c-0.3-0.3-0.6-0.5-0.9-0.7C58,63.1,57.6,63,57.1,63c-0.5,0-0.9,0.1-1.2,0.3
			c-0.4,0.2-0.7,0.4-1,0.7c-0.3,0.3-0.5,0.6-0.6,1c-0.1,0.4-0.2,0.8-0.2,1.2c0,0.4,0.1,0.8,0.2,1.2c0.1,0.4,0.3,0.7,0.6,1
			s0.6,0.5,1,0.7c0.4,0.2,0.8,0.3,1.2,0.3c0.5,0,0.9-0.1,1.3-0.3c0.4-0.2,0.7-0.4,0.9-0.7c0.3-0.3,0.4-0.6,0.6-1
			C60,67,60.1,66.6,60.1,66.2z"/>
		<path class="st1" d="M69.9,64.9c0-0.7-0.2-1.2-0.6-1.5c-0.4-0.3-0.9-0.5-1.6-0.5c-0.5,0-1,0.1-1.4,0.3c-0.4,0.2-0.8,0.4-1.1,0.7
			l-0.9-1.1c0.4-0.4,1-0.7,1.6-1c0.6-0.2,1.3-0.4,2-0.4c0.6,0,1.2,0.1,1.7,0.3c0.5,0.2,0.9,0.4,1.2,0.7c0.3,0.3,0.5,0.7,0.7,1.1
			c0.2,0.4,0.2,0.9,0.2,1.4v3.9c0,0.3,0,0.6,0,1s0.1,0.6,0.1,0.8h-1.6c-0.1-0.4-0.2-0.9-0.2-1.3H70c-0.3,0.5-0.7,0.8-1.2,1.1
			c-0.5,0.3-1.1,0.4-1.8,0.4c-0.4,0-0.7,0-1.1-0.1c-0.4-0.1-0.7-0.2-1-0.5c-0.3-0.2-0.6-0.5-0.8-0.8c-0.2-0.4-0.3-0.8-0.3-1.3
			c0-0.7,0.2-1.2,0.5-1.6c0.4-0.4,0.8-0.7,1.4-0.9c0.6-0.2,1.3-0.3,2-0.4c0.7-0.1,1.5-0.1,2.2-0.1V64.9z M69.5,66.4
			c-0.4,0-0.9,0-1.4,0.1c-0.5,0-0.9,0.1-1.3,0.2c-0.4,0.1-0.7,0.3-1,0.5c-0.3,0.2-0.4,0.5-0.4,0.9c0,0.3,0.1,0.5,0.2,0.7
			s0.2,0.3,0.4,0.4c0.2,0.1,0.4,0.2,0.6,0.2c0.2,0,0.4,0.1,0.7,0.1c0.8,0,1.5-0.2,1.9-0.7c0.4-0.5,0.7-1.1,0.7-1.9v-0.5H69.5z"/>
		<path class="st1" d="M76.2,61.7c0,0.2,0,0.5,0.1,0.8s0,0.5,0,0.7h0.1c0.1-0.2,0.3-0.5,0.5-0.7c0.2-0.2,0.4-0.4,0.7-0.5
			s0.5-0.3,0.8-0.4c0.3-0.1,0.6-0.1,0.9-0.1c0.6,0,1.1,0.1,1.5,0.3c0.4,0.2,0.8,0.5,1,0.8c0.3,0.3,0.5,0.7,0.6,1.2
			c0.1,0.4,0.2,0.9,0.2,1.4v5.6h-1.8v-5c0-0.4,0-0.7-0.1-1c-0.1-0.3-0.2-0.6-0.3-0.9c-0.2-0.3-0.4-0.5-0.6-0.6
			c-0.3-0.2-0.6-0.2-1-0.2c-0.7,0-1.3,0.3-1.7,0.8c-0.4,0.5-0.7,1.3-0.7,2.1v4.8h-1.8v-7c0-0.2,0-0.5,0-0.9s0-0.7-0.1-1H76.2z"/>
		<path class="st1" d="M87.4,65.6L87.4,65.6l3.8-3.9h2.4l-4.2,4.1l4.6,4.9h-2.5l-4-4.6h-0.1v4.6h-1.8V56.4h1.8V65.6z"/>
		<path class="st1" d="M100.3,64c-0.2-0.3-0.5-0.6-0.9-0.8s-0.8-0.3-1.2-0.3c-0.2,0-0.4,0-0.6,0.1c-0.2,0-0.4,0.1-0.5,0.2
			c-0.2,0.1-0.3,0.2-0.4,0.4c-0.1,0.1-0.1,0.3-0.1,0.5c0,0.4,0.2,0.7,0.5,0.8c0.3,0.2,0.8,0.3,1.5,0.5c0.4,0.1,0.8,0.2,1.2,0.4
			c0.4,0.1,0.7,0.3,1,0.5c0.3,0.2,0.5,0.5,0.6,0.7c0.2,0.3,0.2,0.6,0.2,1c0,0.5-0.1,1-0.3,1.3s-0.5,0.7-0.8,0.9
			c-0.3,0.2-0.7,0.4-1.1,0.5c-0.4,0.1-0.9,0.2-1.3,0.2c-0.7,0-1.3-0.1-2-0.4c-0.6-0.3-1.2-0.7-1.6-1.2l1.3-1.1
			c0.2,0.4,0.6,0.6,1,0.9c0.4,0.2,0.9,0.4,1.4,0.4c0.2,0,0.4,0,0.7-0.1c0.2,0,0.4-0.1,0.6-0.2c0.2-0.1,0.3-0.2,0.4-0.4
			c0.1-0.2,0.2-0.4,0.2-0.6c0-0.4-0.2-0.7-0.6-0.9s-1-0.4-1.7-0.6c-0.3-0.1-0.6-0.2-0.9-0.3S96,66.2,95.7,66
			c-0.3-0.2-0.5-0.4-0.6-0.7s-0.2-0.6-0.2-1c0-0.5,0.1-0.9,0.3-1.2c0.2-0.3,0.5-0.6,0.8-0.9c0.3-0.2,0.7-0.4,1.1-0.5
			s0.8-0.2,1.2-0.2c0.6,0,1.3,0.1,1.9,0.4c0.6,0.3,1.1,0.6,1.4,1.1L100.3,64z"/>
		<path class="st1" d="M114.1,64.9c0-0.7-0.2-1.2-0.6-1.5c-0.4-0.3-0.9-0.5-1.6-0.5c-0.5,0-1,0.1-1.4,0.3c-0.4,0.2-0.8,0.4-1.1,0.7
			l-0.9-1.1c0.4-0.4,1-0.7,1.6-1c0.6-0.2,1.3-0.4,2-0.4c0.6,0,1.2,0.1,1.7,0.3c0.5,0.2,0.9,0.4,1.2,0.7c0.3,0.3,0.5,0.7,0.7,1.1
			c0.2,0.4,0.2,0.9,0.2,1.4v3.9c0,0.3,0,0.6,0,1s0.1,0.6,0.1,0.8h-1.6c-0.1-0.4-0.2-0.9-0.2-1.3h-0.1c-0.3,0.5-0.7,0.8-1.2,1.1
			c-0.5,0.3-1.1,0.4-1.8,0.4c-0.4,0-0.7,0-1.1-0.1c-0.4-0.1-0.7-0.2-1-0.5c-0.3-0.2-0.6-0.5-0.8-0.8c-0.2-0.4-0.3-0.8-0.3-1.3
			c0-0.7,0.2-1.2,0.5-1.6s0.8-0.7,1.4-0.9c0.6-0.2,1.3-0.3,2-0.4c0.7-0.1,1.5-0.1,2.2-0.1V64.9z M113.7,66.4c-0.4,0-0.9,0-1.4,0.1
			c-0.5,0-0.9,0.1-1.3,0.2c-0.4,0.1-0.7,0.3-1,0.5c-0.3,0.2-0.4,0.5-0.4,0.9c0,0.3,0.1,0.5,0.2,0.7s0.2,0.3,0.4,0.4
			c0.2,0.1,0.4,0.2,0.6,0.2c0.2,0,0.4,0.1,0.7,0.1c0.8,0,1.5-0.2,1.9-0.7c0.4-0.5,0.7-1.1,0.7-1.9v-0.5H113.7z"/>
		<path class="st1" d="M120.4,61.7c0,0.2,0,0.5,0.1,0.8s0,0.5,0,0.7h0.1c0.1-0.2,0.3-0.5,0.5-0.7c0.2-0.2,0.4-0.4,0.7-0.5
			s0.5-0.3,0.8-0.4c0.3-0.1,0.6-0.1,0.9-0.1c0.6,0,1.1,0.1,1.5,0.3c0.4,0.2,0.8,0.5,1,0.8c0.3,0.3,0.5,0.7,0.6,1.2
			c0.1,0.4,0.2,0.9,0.2,1.4v5.6H125v-5c0-0.4,0-0.7-0.1-1c-0.1-0.3-0.2-0.6-0.3-0.9c-0.2-0.3-0.4-0.5-0.6-0.6
			c-0.3-0.2-0.6-0.2-1-0.2c-0.7,0-1.3,0.3-1.7,0.8c-0.4,0.5-0.7,1.3-0.7,2.1v4.8h-1.8v-7c0-0.2,0-0.5,0-0.9s0-0.7-0.1-1H120.4z"/>
		<path class="st1" d="M136.9,69.3c-0.3,0.5-0.8,1-1.4,1.2s-1.2,0.4-1.8,0.4c-0.7,0-1.3-0.1-1.9-0.4c-0.6-0.2-1-0.6-1.4-1
			c-0.4-0.4-0.7-0.9-0.9-1.5c-0.2-0.6-0.3-1.2-0.3-1.9s0.1-1.3,0.3-1.8c0.2-0.6,0.5-1.1,0.9-1.5s0.9-0.8,1.4-1
			c0.6-0.2,1.2-0.4,1.8-0.4c0.7,0,1.4,0.2,1.9,0.5c0.5,0.3,1,0.7,1.3,1.1h0v-6.7h1.8v14.3H137L136.9,69.3L136.9,69.3z M131,66.2
			c0,0.4,0.1,0.8,0.2,1.2s0.3,0.7,0.6,1c0.3,0.3,0.6,0.5,0.9,0.7c0.4,0.2,0.8,0.3,1.3,0.3c0.5,0,0.9-0.1,1.2-0.3
			c0.4-0.2,0.7-0.4,1-0.7s0.5-0.6,0.6-1c0.1-0.4,0.2-0.8,0.2-1.2c0-0.4-0.1-0.8-0.2-1.2c-0.1-0.4-0.3-0.7-0.6-1
			c-0.3-0.3-0.6-0.5-1-0.7c-0.4-0.2-0.8-0.3-1.2-0.3c-0.5,0-0.9,0.1-1.3,0.3s-0.7,0.4-0.9,0.7c-0.3,0.3-0.4,0.6-0.6,1
			C131.1,65.4,131,65.8,131,66.2z"/>
		<path class="st1" d="M148.3,75.2h-1.8V61.7h1.7v1.4h0.1c0.3-0.5,0.7-0.9,1.3-1.2c0.6-0.3,1.2-0.5,2-0.5c0.7,0,1.3,0.1,1.8,0.4
			c0.5,0.2,1,0.6,1.4,1s0.7,0.9,0.9,1.5c0.2,0.6,0.3,1.2,0.3,1.8s-0.1,1.3-0.3,1.9c-0.2,0.6-0.5,1.1-0.9,1.5c-0.4,0.4-0.9,0.8-1.4,1
			s-1.2,0.4-1.9,0.4c-0.6,0-1.2-0.1-1.8-0.4c-0.6-0.3-1-0.7-1.3-1.2h-0.1V75.2z M154.2,66.2c0-0.4-0.1-0.8-0.2-1.2s-0.3-0.7-0.6-1
			c-0.3-0.3-0.6-0.5-0.9-0.7c-0.4-0.2-0.8-0.3-1.3-0.3c-0.5,0-0.9,0.1-1.2,0.3c-0.4,0.2-0.7,0.4-1,0.7c-0.3,0.3-0.5,0.6-0.6,1
			c-0.1,0.4-0.2,0.8-0.2,1.2c0,0.4,0.1,0.8,0.2,1.2c0.1,0.4,0.3,0.7,0.6,1c0.3,0.3,0.6,0.5,1,0.7c0.4,0.2,0.8,0.3,1.2,0.3
			c0.5,0,0.9-0.1,1.3-0.3c0.4-0.2,0.7-0.4,0.9-0.7c0.3-0.3,0.4-0.6,0.6-1S154.2,66.6,154.2,66.2z"/>
		<path class="st1" d="M158.5,62.7c0-0.4,0-0.7-0.1-1h1.7c0,0.2,0,0.5,0.1,0.8c0,0.3,0,0.5,0,0.7h0.1c0.3-0.5,0.6-1,1.1-1.3
			c0.5-0.3,1-0.5,1.6-0.5c0.3,0,0.5,0,0.7,0.1l-0.1,1.6c-0.3-0.1-0.5-0.1-0.8-0.1c-0.4,0-0.8,0.1-1.1,0.2c-0.3,0.2-0.6,0.4-0.8,0.6
			c-0.2,0.3-0.4,0.6-0.5,0.9c-0.1,0.3-0.2,0.7-0.2,1.1v4.7h-1.8v-7C158.5,63.4,158.5,63.1,158.5,62.7z"/>
		<path class="st1" d="M173.4,66.1c0,0.1,0,0.2,0,0.3c0,0.1,0,0.2,0,0.3h-7.1c0,0.4,0.1,0.7,0.3,1.1s0.4,0.6,0.6,0.9
			s0.6,0.4,0.9,0.6c0.3,0.1,0.7,0.2,1.1,0.2c0.6,0,1.1-0.1,1.6-0.4c0.4-0.3,0.8-0.6,1-1l1.2,1c-0.5,0.6-1,1.1-1.7,1.4
			c-0.6,0.3-1.4,0.4-2.2,0.4c-0.7,0-1.3-0.1-1.9-0.3c-0.6-0.2-1.1-0.5-1.5-1c-0.4-0.4-0.7-0.9-1-1.5c-0.2-0.6-0.4-1.2-0.4-1.9
			c0-0.7,0.1-1.3,0.4-1.9c0.2-0.6,0.6-1.1,1-1.5c0.4-0.4,0.9-0.7,1.5-1c0.6-0.2,1.2-0.3,1.8-0.3s1.3,0.1,1.8,0.3s1,0.5,1.4,0.9
			s0.7,0.9,0.9,1.5C173.3,64.8,173.4,65.4,173.4,66.1z M171.5,65.4c0-0.4-0.1-0.7-0.2-1c-0.1-0.3-0.3-0.6-0.5-0.8
			c-0.2-0.2-0.5-0.4-0.8-0.5c-0.3-0.1-0.7-0.2-1.1-0.2c-0.4,0-0.7,0.1-1.1,0.2c-0.3,0.1-0.6,0.3-0.9,0.5c-0.2,0.2-0.4,0.5-0.6,0.8
			c-0.2,0.3-0.2,0.6-0.3,1H171.5z"/>
		<path class="st1" d="M177.6,75.2h-1.8V61.7h1.7v1.4h0.1c0.3-0.5,0.7-0.9,1.3-1.2c0.6-0.3,1.2-0.5,2-0.5c0.7,0,1.3,0.1,1.8,0.4
			c0.5,0.2,1,0.6,1.4,1s0.7,0.9,0.9,1.5c0.2,0.6,0.3,1.2,0.3,1.8s-0.1,1.3-0.3,1.9c-0.2,0.6-0.5,1.1-0.9,1.5c-0.4,0.4-0.9,0.8-1.4,1
			s-1.2,0.4-1.9,0.4c-0.6,0-1.2-0.1-1.8-0.4c-0.6-0.3-1-0.7-1.3-1.2h-0.1V75.2z M183.5,66.2c0-0.4-0.1-0.8-0.2-1.2s-0.3-0.7-0.6-1
			c-0.3-0.3-0.6-0.5-0.9-0.7c-0.4-0.2-0.8-0.3-1.3-0.3c-0.5,0-0.9,0.1-1.2,0.3c-0.4,0.2-0.7,0.4-1,0.7c-0.3,0.3-0.5,0.6-0.6,1
			c-0.1,0.4-0.2,0.8-0.2,1.2c0,0.4,0.1,0.8,0.2,1.2c0.1,0.4,0.3,0.7,0.6,1c0.3,0.3,0.6,0.5,1,0.7c0.4,0.2,0.8,0.3,1.2,0.3
			c0.5,0,0.9-0.1,1.3-0.3c0.4-0.2,0.7-0.4,0.9-0.7c0.3-0.3,0.4-0.6,0.6-1S183.5,66.6,183.5,66.2z"/>
		<path class="st1" d="M193.4,64.9c0-0.7-0.2-1.2-0.6-1.5c-0.4-0.3-0.9-0.5-1.6-0.5c-0.5,0-1,0.1-1.4,0.3c-0.4,0.2-0.8,0.4-1.1,0.7
			l-0.9-1.1c0.4-0.4,1-0.7,1.6-1c0.6-0.2,1.3-0.4,2-0.4c0.6,0,1.2,0.1,1.7,0.3c0.5,0.2,0.9,0.4,1.2,0.7c0.3,0.3,0.5,0.7,0.7,1.1
			c0.2,0.4,0.2,0.9,0.2,1.4v3.9c0,0.3,0,0.6,0,1s0.1,0.6,0.1,0.8h-1.6c-0.1-0.4-0.2-0.9-0.2-1.3h-0.1c-0.3,0.5-0.7,0.8-1.2,1.1
			c-0.5,0.3-1.1,0.4-1.8,0.4c-0.4,0-0.7,0-1.1-0.1c-0.4-0.1-0.7-0.2-1-0.5c-0.3-0.2-0.6-0.5-0.8-0.8c-0.2-0.4-0.3-0.8-0.3-1.3
			c0-0.7,0.2-1.2,0.5-1.6s0.8-0.7,1.4-0.9c0.6-0.2,1.3-0.3,2-0.4c0.7-0.1,1.5-0.1,2.2-0.1V64.9z M192.9,66.4c-0.4,0-0.9,0-1.4,0.1
			c-0.5,0-0.9,0.1-1.3,0.2c-0.4,0.1-0.7,0.3-1,0.5c-0.3,0.2-0.4,0.5-0.4,0.9c0,0.3,0.1,0.5,0.2,0.7s0.2,0.3,0.4,0.4
			c0.2,0.1,0.4,0.2,0.6,0.2c0.2,0,0.4,0.1,0.7,0.1c0.8,0,1.5-0.2,1.9-0.7c0.4-0.5,0.7-1.1,0.7-1.9v-0.5H192.9z"/>
		<path class="st1" d="M200.1,58.5c0,0.3-0.1,0.6-0.3,0.8c-0.2,0.2-0.5,0.3-0.8,0.3c-0.3,0-0.6-0.1-0.8-0.3
			c-0.2-0.2-0.3-0.5-0.3-0.8c0-0.3,0.1-0.6,0.3-0.8c0.2-0.2,0.5-0.3,0.8-0.3c0.3,0,0.6,0.1,0.8,0.3C200,57.9,200.1,58.2,200.1,58.5z
			 M199.8,70.7H198v-9h1.8V70.7z"/>
		<path class="st1" d="M210.1,69.3c-0.3,0.5-0.8,1-1.4,1.2s-1.2,0.4-1.8,0.4c-0.7,0-1.3-0.1-1.9-0.4c-0.6-0.2-1-0.6-1.4-1
			c-0.4-0.4-0.7-0.9-0.9-1.5c-0.2-0.6-0.3-1.2-0.3-1.9s0.1-1.3,0.3-1.8c0.2-0.6,0.5-1.1,0.9-1.5s0.9-0.8,1.4-1
			c0.6-0.2,1.2-0.4,1.8-0.4c0.7,0,1.4,0.2,1.9,0.5c0.5,0.3,1,0.7,1.3,1.1h0v-6.7h1.8v14.3h-1.7L210.1,69.3L210.1,69.3z M204.2,66.2
			c0,0.4,0.1,0.8,0.2,1.2s0.3,0.7,0.6,1c0.3,0.3,0.6,0.5,0.9,0.7c0.4,0.2,0.8,0.3,1.3,0.3c0.5,0,0.9-0.1,1.2-0.3
			c0.4-0.2,0.7-0.4,1-0.7s0.5-0.6,0.6-1c0.1-0.4,0.2-0.8,0.2-1.2c0-0.4-0.1-0.8-0.2-1.2c-0.1-0.4-0.3-0.7-0.6-1
			c-0.3-0.3-0.6-0.5-1-0.7c-0.4-0.2-0.8-0.3-1.2-0.3c-0.5,0-0.9,0.1-1.3,0.3s-0.7,0.4-0.9,0.7c-0.3,0.3-0.4,0.6-0.6,1
			C204.2,65.4,204.2,65.8,204.2,66.2z"/>
		<path class="st1" d="M225.9,64c-0.2-0.3-0.5-0.5-0.9-0.7c-0.4-0.2-0.8-0.3-1.2-0.3c-0.5,0-0.9,0.1-1.2,0.3
			c-0.4,0.2-0.7,0.4-0.9,0.7c-0.3,0.3-0.4,0.6-0.6,1c-0.1,0.4-0.2,0.8-0.2,1.2c0,0.4,0.1,0.8,0.2,1.2c0.1,0.4,0.3,0.7,0.6,1
			c0.3,0.3,0.6,0.5,0.9,0.7s0.8,0.3,1.2,0.3c0.5,0,0.9-0.1,1.2-0.3c0.4-0.2,0.7-0.4,0.9-0.7l1.2,1.1c-0.4,0.4-0.9,0.8-1.4,1
			c-0.6,0.2-1.2,0.4-1.9,0.4c-0.7,0-1.3-0.1-1.9-0.3c-0.6-0.2-1.1-0.5-1.5-1c-0.4-0.4-0.8-0.9-1-1.5c-0.2-0.6-0.4-1.2-0.4-1.9
			c0-0.7,0.1-1.3,0.4-1.9c0.2-0.6,0.6-1.1,1-1.5c0.4-0.4,0.9-0.7,1.5-1s1.2-0.3,1.9-0.3c0.6,0,1.3,0.1,1.9,0.4
			c0.6,0.3,1.1,0.6,1.5,1.1L225.9,64z"/>
		<path class="st1" d="M234.5,64.9c0-0.7-0.2-1.2-0.6-1.5c-0.4-0.3-0.9-0.5-1.6-0.5c-0.5,0-1,0.1-1.4,0.3c-0.4,0.2-0.8,0.4-1.1,0.7
			l-0.9-1.1c0.4-0.4,1-0.7,1.6-1c0.6-0.2,1.3-0.4,2-0.4c0.6,0,1.2,0.1,1.7,0.3c0.5,0.2,0.9,0.4,1.2,0.7c0.3,0.3,0.5,0.7,0.7,1.1
			c0.2,0.4,0.2,0.9,0.2,1.4v3.9c0,0.3,0,0.6,0,1s0.1,0.6,0.1,0.8h-1.6c-0.1-0.4-0.2-0.9-0.2-1.3h-0.1c-0.3,0.5-0.7,0.8-1.2,1.1
			c-0.5,0.3-1.1,0.4-1.8,0.4c-0.4,0-0.7,0-1.1-0.1c-0.4-0.1-0.7-0.2-1-0.5c-0.3-0.2-0.6-0.5-0.8-0.8c-0.2-0.4-0.3-0.8-0.3-1.3
			c0-0.7,0.2-1.2,0.5-1.6s0.8-0.7,1.4-0.9c0.6-0.2,1.3-0.3,2-0.4c0.7-0.1,1.5-0.1,2.2-0.1V64.9z M234.1,66.4c-0.4,0-0.9,0-1.4,0.1
			c-0.5,0-0.9,0.1-1.3,0.2c-0.4,0.1-0.7,0.3-1,0.5c-0.3,0.2-0.4,0.5-0.4,0.9c0,0.3,0.1,0.5,0.2,0.7s0.2,0.3,0.4,0.4
			c0.2,0.1,0.4,0.2,0.6,0.2c0.2,0,0.4,0.1,0.7,0.1c0.8,0,1.5-0.2,1.9-0.7c0.4-0.5,0.7-1.1,0.7-1.9v-0.5H234.1z"/>
		<path class="st1" d="M239.2,62.7c0-0.4,0-0.7-0.1-1h1.7c0,0.2,0,0.5,0.1,0.8c0,0.3,0,0.5,0,0.7h0.1c0.3-0.5,0.6-1,1.1-1.3
			c0.5-0.3,1-0.5,1.6-0.5c0.3,0,0.5,0,0.7,0.1l-0.1,1.6c-0.3-0.1-0.5-0.1-0.8-0.1c-0.4,0-0.8,0.1-1.1,0.2c-0.3,0.2-0.6,0.4-0.8,0.6
			c-0.2,0.3-0.4,0.6-0.5,0.9c-0.1,0.3-0.2,0.7-0.2,1.1v4.7h-1.8v-7C239.2,63.4,239.2,63.1,239.2,62.7z"/>
		<path class="st1" d="M252.8,69.3c-0.3,0.5-0.8,1-1.4,1.2s-1.2,0.4-1.8,0.4c-0.7,0-1.3-0.1-1.9-0.4c-0.6-0.2-1-0.6-1.4-1
			c-0.4-0.4-0.7-0.9-0.9-1.5c-0.2-0.6-0.3-1.2-0.3-1.9s0.1-1.3,0.3-1.8c0.2-0.6,0.5-1.1,0.9-1.5s0.9-0.8,1.4-1
			c0.6-0.2,1.2-0.4,1.8-0.4c0.7,0,1.4,0.2,1.9,0.5c0.5,0.3,1,0.7,1.3,1.1h0v-6.7h1.8v14.3h-1.7L252.8,69.3L252.8,69.3z M246.9,66.2
			c0,0.4,0.1,0.8,0.2,1.2s0.3,0.7,0.6,1c0.3,0.3,0.6,0.5,0.9,0.7c0.4,0.2,0.8,0.3,1.3,0.3c0.5,0,0.9-0.1,1.2-0.3
			c0.4-0.2,0.7-0.4,1-0.7s0.5-0.6,0.6-1c0.1-0.4,0.2-0.8,0.2-1.2c0-0.4-0.1-0.8-0.2-1.2c-0.1-0.4-0.3-0.7-0.6-1
			c-0.3-0.3-0.6-0.5-1-0.7c-0.4-0.2-0.8-0.3-1.2-0.3c-0.5,0-0.9,0.1-1.3,0.3s-0.7,0.4-0.9,0.7c-0.3,0.3-0.4,0.6-0.6,1
			C247,65.4,246.9,65.8,246.9,66.2z"/>
		<path class="st1" d="M262.5,64c-0.2-0.3-0.5-0.6-0.9-0.8s-0.8-0.3-1.2-0.3c-0.2,0-0.4,0-0.6,0.1c-0.2,0-0.4,0.1-0.5,0.2
			c-0.2,0.1-0.3,0.2-0.4,0.4c-0.1,0.1-0.1,0.3-0.1,0.5c0,0.4,0.2,0.7,0.5,0.8c0.3,0.2,0.8,0.3,1.5,0.5c0.4,0.1,0.8,0.2,1.2,0.4
			c0.4,0.1,0.7,0.3,1,0.5c0.3,0.2,0.5,0.5,0.6,0.7c0.2,0.3,0.2,0.6,0.2,1c0,0.5-0.1,1-0.3,1.3s-0.5,0.7-0.8,0.9
			c-0.3,0.2-0.7,0.4-1.1,0.5c-0.4,0.1-0.9,0.2-1.3,0.2c-0.7,0-1.3-0.1-2-0.4c-0.6-0.3-1.2-0.7-1.6-1.2l1.3-1.1
			c0.2,0.4,0.6,0.6,1,0.9c0.4,0.2,0.9,0.4,1.4,0.4c0.2,0,0.4,0,0.7-0.1c0.2,0,0.4-0.1,0.6-0.2c0.2-0.1,0.3-0.2,0.4-0.4
			c0.1-0.2,0.2-0.4,0.2-0.6c0-0.4-0.2-0.7-0.6-0.9s-1-0.4-1.7-0.6c-0.3-0.1-0.6-0.2-0.9-0.3s-0.6-0.3-0.8-0.4
			c-0.3-0.2-0.5-0.4-0.6-0.7s-0.2-0.6-0.2-1c0-0.5,0.1-0.9,0.3-1.2c0.2-0.3,0.5-0.6,0.8-0.9c0.3-0.2,0.7-0.4,1.1-0.5
			s0.8-0.2,1.2-0.2c0.6,0,1.3,0.1,1.9,0.4c0.6,0.3,1.1,0.6,1.4,1.1L262.5,64z"/>
	</g>
</g>
</svg>
