<?xml version="1.0" encoding="utf-8"?>
<!-- Generator: Adobe Illustrator 21.0.2, SVG Export Plug-In . SVG Version: 6.00 Build 0)  -->
<svg version="1.1" id="Layer_1" xmlns="http://www.w3.org/2000/svg" xmlns:xlink="http://www.w3.org/1999/xlink" x="0px" y="0px"
	 viewBox="0 0 175.8 175.8" style="enable-background:new 0 0 175.8 175.8;" xml:space="preserve">
<style type="text/css">
	.st0{fill:none;stroke:#FFFFFF;stroke-miterlimit:10;}
	.st1{fill:#FFFFFF;}
	.st2{fill:url(#SVGID_1_);}
	.st3{fill:url(#SVGID_2_);}
	.st4{fill:url(#SVGID_3_);}
	.st5{fill:url(#SVGID_4_);}
</style>
<circle class="st0" cx="87.9" cy="87.9" r="84"/>
<g>
	<path class="st1" d="M50.6,148.4L50.6,148.4c0-4.2,3.4-7.6,7.9-7.6s7.8,3.3,7.8,7.5v0.1c0,4.2-3.4,7.6-7.9,7.6
		C54,155.9,50.6,152.6,50.6,148.4z M62.3,148.4L62.3,148.4c0-2.2-1.5-4.1-3.8-4.1c-2.4,0-3.8,1.8-3.8,4v0.1c0,2.1,1.5,4,3.8,4
		C60.9,152.3,62.3,150.5,62.3,148.4z"/>
	<path class="st1" d="M68,142.9c0-1.1,0.9-2.1,2.1-2.1s2.1,0.9,2.1,2.1v0.2c1-1.2,2.2-2.3,4.3-2.3c3.1,0,4.9,2.1,4.9,5.4v7.5
		c0,1.1-0.9,2.1-2.1,2.1s-2.1-0.9-2.1-2.1v-6.2c0-2-0.9-3-2.5-3s-2.6,1-2.6,3v6.2c0,1.1-0.9,2.1-2.1,2.1s-2.1-0.9-2.1-2.1L68,142.9
		L68,142.9z"/>
	<path class="st1" d="M83.8,137.6c0-1.1,0.9-2.1,2.1-2.1s2.1,0.9,2.1,2.1v16c0,1.1-0.9,2.1-2.1,2.1s-2.1-0.9-2.1-2.1V137.6z"/>
	<path class="st1" d="M90.4,137.5c0-1.2,1-1.9,2.3-1.9s2.3,0.7,2.3,1.9v0.1c0,1.2-1,2-2.3,2S90.4,138.8,90.4,137.5L90.4,137.5z
		 M90.6,142.9c0-1.1,0.9-2.1,2.1-2.1s2.1,0.9,2.1,2.1v10.8c0,1.1-0.9,2.1-2.1,2.1s-2.1-0.9-2.1-2.1V142.9z"/>
	<path class="st1" d="M97.3,142.9c0-1.1,0.9-2.1,2.1-2.1s2.1,0.9,2.1,2.1v0.2c1-1.2,2.2-2.3,4.3-2.3c3.1,0,4.9,2.1,4.9,5.4v7.5
		c0,1.1-0.9,2.1-2.1,2.1s-2.1-0.9-2.1-2.1v-6.2c0-2-0.9-3-2.5-3s-2.6,1-2.6,3v6.2c0,1.1-0.9,2.1-2.1,2.1s-2.1-0.9-2.1-2.1
		L97.3,142.9L97.3,142.9z"/>
	<path class="st1" d="M119.7,155.9c-4.4,0-7.6-3.1-7.6-7.5v-0.1c0-4.2,3-7.6,7.2-7.6c4.9,0,7,4,7,7c0,1.2-0.8,2-1.9,2h-8.2
		c0.4,1.9,1.7,2.9,3.6,2.9c1.1,0,2.1-0.4,2.9-1c0.3-0.2,0.6-0.3,1-0.3c0.9,0,1.6,0.7,1.6,1.6c0,0.5-0.2,1-0.5,1.2
		C123.5,155.2,121.8,155.9,119.7,155.9z M122.4,147.1c-0.2-1.8-1.3-3.1-3.1-3.1c-1.7,0-2.8,1.2-3.2,3.1H122.4z"/>
</g>
<linearGradient id="SVGID_1_" gradientUnits="userSpaceOnUse" x1="110.1" y1="119.15" x2="110.5" y2="119.15" gradientTransform="matrix(1 0 0 -1 0 178)">
	<stop  offset="0" style="stop-color:#E83894"/>
	<stop  offset="1" style="stop-color:#863397"/>
</linearGradient>
<path class="st2" d="M110.5,59c-0.1-0.1-0.2-0.2-0.4-0.3C110.2,58.8,110.4,58.9,110.5,59z"/>
<linearGradient id="SVGID_2_" gradientUnits="userSpaceOnUse" x1="109.6" y1="119.5" x2="109.9" y2="119.5" gradientTransform="matrix(1 0 0 -1 0 178)">
	<stop  offset="0" style="stop-color:#E83894"/>
	<stop  offset="1" style="stop-color:#863397"/>
</linearGradient>
<path class="st3" d="M109.9,58.6c-0.1-0.1-0.2-0.1-0.3-0.2C109.7,58.4,109.8,58.5,109.9,58.6z"/>
<linearGradient id="SVGID_3_" gradientUnits="userSpaceOnUse" x1="109.1" y1="119.85" x2="109.3" y2="119.85" gradientTransform="matrix(1 0 0 -1 0 178)">
	<stop  offset="0" style="stop-color:#E83894"/>
	<stop  offset="1" style="stop-color:#863397"/>
</linearGradient>
<path class="st4" d="M109.1,58.1c0.1,0,0.1,0.1,0.2,0.1C109.3,58.2,109.2,58.2,109.1,58.1L109.1,58.1z"/>
<linearGradient id="SVGID_4_" gradientUnits="userSpaceOnUse" x1="110.7" y1="117.7" x2="113.2" y2="117.7" gradientTransform="matrix(1 0 0 -1 0 178)">
	<stop  offset="0" style="stop-color:#E83894"/>
	<stop  offset="1" style="stop-color:#863397"/>
</linearGradient>
<path class="st5" d="M111.2,59.5c-0.2-0.1-0.4-0.3-0.5-0.4C110.8,59.2,111,59.4,111.2,59.5c0.7,0.6,1.4,1.3,2,2
	C112.6,60.8,111.9,60.1,111.2,59.5z"/>
<path class="st1" d="M61.7,56c1.5-1.2,3.2-2.2,4.9-2.9V41.4h42.5v11.7c1.8,0.7,3.4,1.7,4.9,2.9c0.2,0.2,0.5,0.4,0.7,0.6V30.9
	c0-1.9-1.6-3.5-3.5-3.5H64.5c-1.9,0-3.5,1.6-3.5,3.5v25.7C61.3,56.4,61.5,56.2,61.7,56z"/>
<path class="st1" d="M109.1,91.5v24.2H66.6V91.5l-5.6-7v41.7c0,1.9,1.6,3.5,3.5,3.5h46.7c1.9,0,3.5-1.6,3.5-3.5V84.5L109.1,91.5z
	 M87.9,126.4c-2.4,0-4.4-2-4.4-4.4s2-4.4,4.4-4.4s4.4,2,4.4,4.4S90.3,126.4,87.9,126.4z"/>
<path class="st1" d="M111.2,59.5c-6-4.9-14.8-3.9-19.6,2L87.9,66l-3.7-4.5c-4.9-6-13.6-6.9-19.6-2s-6.9,13.6-2,19.6l23.2,28.7
	c1.1,1.4,3.2,1.4,4.3,0l23.2-28.7C118.1,73.2,117.2,64.4,111.2,59.5z M97.3,83.2c0,0.9-0.3,1.8-1.2,1.8h-5.6v5.3
	c0,0.9-0.6,1.4-1.6,1.4h-1.4c-0.9,0-1.8-0.5-1.8-1.4V85h-5.3c-0.9,0-2-0.9-2-1.8v-1.4c0-0.9,1-1.5,2-1.5h5.3v-5.6
	c0-0.9,0.8-1.7,1.8-1.7H89c0.9,0,1.6,0.8,1.6,1.7v5.6h5.6c0.9,0,1.2,0.6,1.2,1.5L97.3,83.2L97.3,83.2z"/>
</svg>
