<?xml version="1.0" encoding="utf-8"?>
<!-- Generator: Adobe Illustrator 21.0.2, SVG Export Plug-In . SVG Version: 6.00 Build 0)  -->
<svg version="1.1" id="Layer_1" xmlns="http://www.w3.org/2000/svg" xmlns:xlink="http://www.w3.org/1999/xlink" x="0px" y="0px"
	 viewBox="0 0 175.8 175.8" style="enable-background:new 0 0 175.8 175.8;" xml:space="preserve">
<style type="text/css">
	.st0{fill:none;stroke:#FFFFFF;stroke-miterlimit:10;}
	.st1{fill:#FFFFFF;}
</style>
<circle class="st0" cx="87.9" cy="87.9" r="83.8"/>
<g>
	<path class="st1" d="M88.1,41.4c-19.1,0-34.5,15.4-34.5,34.5s15.4,34.5,34.5,34.5s34.5-15.4,34.5-34.5S107.2,41.4,88.1,41.4z
		 M99.9,76.6l-10.6,3.7c-0.4,0.1-0.8,0.2-1.2,0.2c-0.7,0-1.5-0.2-2.1-0.7c-0.9-0.7-1.5-1.8-1.5-2.9v-27c0-2,1.6-3.6,3.6-3.6
		s3.6,1.6,3.6,3.6v21.9l5.9-2c1.9-0.6,3.9,0.3,4.6,2.2C102.7,73.9,101.7,76,99.9,76.6z"/>
</g>
<path class="st1" d="M132.8,102.3l-1.4,0.4c4.7-7.8,7.2-16.8,7.2-26c0-27.8-22.6-50.5-50.5-50.5S37.6,48.8,37.6,76.7
	s22.6,50.5,50.5,50.5c2,0,3.6-1.6,3.6-3.6s-1.6-3.6-3.6-3.6c-23.9,0-43.3-19.4-43.3-43.3s19.4-43.3,43.3-43.3s43.3,19.4,43.3,43.3
	c0,7.6-2,15-5.7,21.6l-0.5-1.7c-0.5-1.9-2.5-3-4.4-2.4c-1.9,0.5-3,2.5-2.4,4.4l3,10.5c0.5,1.6,1.9,2.6,3.4,2.6c0.3,0,0.6,0,0.9-0.1
	l8.9-2.2c1.9-0.5,3.1-2.4,2.6-4.3C136.7,103,134.7,101.8,132.8,102.3z"/>
<g>
	<g>
		<path class="st1" d="M55.9,149.3l6.2-5.1c2.7-2.2,3.8-3.4,3.8-5.2s-1.2-2.8-2.9-2.8c-1.4,0-2.3,0.6-3.6,1.9
			c-0.3,0.3-0.9,0.7-1.6,0.7c-1.2,0-2.2-1-2.2-2.2c0-0.5,0.2-1.1,0.6-1.5c1.7-2,3.8-3.2,7.1-3.2c4.5,0,7.5,2.6,7.5,6.7v0.1
			c0,3.6-1.9,5.5-5.7,8.4l-3.6,2.7H69c1.2,0,2.1,0.9,2.1,2.1c0,1.2-0.9,2.1-2.1,2.1H57.2c-1.5,0-2.6-0.8-2.6-2.3
			C54.6,150.7,55,149.9,55.9,149.3z"/>
	</g>
	<g>
		<path class="st1" d="M83,149.2h-9c-1.3,0-2.3-0.9-2.3-2.2c0-1,0.4-1.8,1.1-2.6l9.5-11c0.9-1.1,1.6-1.6,3-1.6c1.3,0,2.3,1,2.3,2.3
			v11.3h1.2c1.1,0,2,0.9,2,2s-0.9,1.9-2,1.9h-1.2v2.6c0,1.3-1,2.3-2.3,2.3s-2.3-1-2.3-2.3C83,151.9,83,149.2,83,149.2z M83,145.3
			v-6.8l-5.8,6.8H83z"/>
	</g>
	<g>
		<path class="st1" d="M90.2,155.4l12.2-25.4c0.3-0.7,0.9-1.1,1.7-1.1c1,0,1.8,0.8,1.8,1.8c0,0.3-0.1,0.7-0.2,0.9L93.5,157
			c-0.3,0.7-0.9,1.1-1.7,1.1c-1,0-1.8-0.8-1.8-1.8C90,156,90.2,155.6,90.2,155.4z"/>
	</g>
	<g>
		<path class="st1" d="M108.8,150.5l8.1-14.2h-8.3c-1.2,0-2.1-0.9-2.1-2.1c0-1.2,0.9-2.1,2.1-2.1h11.8c1.3,0,2.2,0.8,2.2,2.1
			c0,0.7-0.3,1.6-0.7,2.3l-8.8,15.9c-0.6,1.2-1.4,1.6-2.3,1.6c-1.3,0-2.5-0.8-2.5-2.1C108.4,151.6,108.6,150.9,108.8,150.5z"/>
	</g>
</g>
</svg>
