<?xml version="1.0" encoding="utf-8"?>
<!-- Generator: Adobe Illustrator 21.0.2, SVG Export Plug-In . SVG Version: 6.00 Build 0)  -->
<svg version="1.1" id="Layer_1" xmlns="http://www.w3.org/2000/svg" xmlns:xlink="http://www.w3.org/1999/xlink" x="0px" y="0px"
	 viewBox="0 0 175.8 175.8" style="enable-background:new 0 0 175.8 175.8;" xml:space="preserve">
<style type="text/css">
	.st0{fill:none;stroke:#FFFFFF;stroke-miterlimit:10;}
	.st1{fill:#FFFFFF;}
</style>
<circle class="st0" cx="87.9" cy="87.9" r="84"/>
<g>
	<path class="st1" d="M66.9,20.1c0-1.5,1.2-2.8,2.8-2.8c1.5,0,2.8,1.2,2.8,2.8v0.2c1.3-1.6,2.9-3.1,5.7-3.1c4.2,0,6.7,2.8,6.7,7.3
		v10.1c0,1.5-1.2,2.8-2.8,2.8c-1.5,0-2.8-1.2-2.8-2.8v-8.4c0-2.6-1.2-4-3.4-4c-2.1,0-3.5,1.4-3.5,4v8.4c0,1.5-1.2,2.8-2.8,2.8
		c-1.5,0-2.8-1.2-2.8-2.8V20.1H66.9z"/>
	<path class="st1" d="M88.7,27.4L88.7,27.4c0-5.7,4.5-10.3,10.6-10.3s10.6,4.5,10.6,10.1v0.1c0,5.6-4.5,10.2-10.6,10.2
		C93.2,37.6,88.7,33.1,88.7,27.4z M104.4,27.4L104.4,27.4c0-3-2.1-5.5-5.2-5.5c-3.2,0-5.1,2.4-5.1,5.3v0.1c0,2.9,2.1,5.4,5.2,5.4
		C102.5,32.8,104.4,30.3,104.4,27.4z"/>
</g>
<g>
	<g>
		<path class="st1" d="M39.6,133.9L39.6,133.9c0-4.2,3.2-7.7,7.7-7.7c2.2,0,3.8,0.6,5,1.6c0.3,0.2,0.7,0.7,0.7,1.4
			c0,1-0.8,1.9-1.9,1.9c-0.5,0-1-0.2-1.2-0.4c-0.7-0.6-1.5-0.9-2.6-0.9c-2.1,0-3.6,1.8-3.6,4v0.1c0,2.2,1.4,4,3.7,4
			c1.1,0,1.9-0.4,2.7-1c0.2-0.2,0.6-0.4,1.1-0.4c1,0,1.7,0.8,1.7,1.8c0,0.5-0.2,1-0.6,1.3c-1.2,1.1-2.8,1.9-5.2,1.9
			C42.8,141.5,39.6,138.1,39.6,133.9z"/>
		<path class="st1" d="M54.7,133.9L54.7,133.9c0-4.3,3.4-7.7,7.9-7.7s7.9,3.4,7.9,7.6v0.1c0,4.2-3.4,7.6-7.9,7.6
			C58,141.5,54.7,138.1,54.7,133.9z M66.4,133.9L66.4,133.9c0-2.2-1.6-4.1-3.9-4.1c-2.4,0-3.8,1.8-3.8,4v0.1c0,2.2,1.6,4,3.9,4
			C65,137.9,66.4,136,66.4,133.9z"/>
		<path class="st1" d="M73.4,128.4c0-1.1,0.9-2.1,2.1-2.1c1.1,0,2.1,0.9,2.1,2.1v0.2c1-1.2,2.2-2.3,4.3-2.3c3.1,0,5,2.1,5,5.4v7.6
			c0,1.1-0.9,2.1-2.1,2.1s-2.1-0.9-2.1-2.1V133c0-2-0.9-3-2.5-3s-2.6,1-2.6,3v6.3c0,1.1-0.9,2.1-2.1,2.1c-1.1,0-2.1-0.9-2.1-2.1
			C73.4,139.3,73.4,128.4,73.4,128.4z"/>
		<path class="st1" d="M89.9,139.7c-0.4-0.3-0.8-0.8-0.8-1.4c0-0.9,0.7-1.6,1.6-1.6c0.3,0,0.6,0.1,0.8,0.2c1.4,0.9,2.8,1.3,4,1.3
			s1.7-0.4,1.7-1.1V137c0-0.9-1.4-1.2-3-1.7c-2-0.6-4.4-1.6-4.4-4.4v-0.1c0-3,2.4-4.6,5.4-4.6c1.5,0,3.1,0.4,4.5,1.1
			c0.6,0.3,1,0.8,1,1.6c0,0.9-0.7,1.6-1.7,1.6c-0.3,0-0.5-0.1-0.8-0.2c-1.2-0.6-2.3-0.9-3.2-0.9c-1,0-1.5,0.4-1.5,1v0.1
			c0,0.8,1.4,1.2,3,1.7c2,0.7,4.4,1.7,4.4,4.3v0.1c0,3.2-2.4,4.7-5.6,4.7C93.6,141.4,91.6,140.9,89.9,139.7z"/>
		<path class="st1" d="M117.1,139.2c0,1.1-0.9,2.1-2.1,2.1s-2.1-0.9-2.1-2.1V139c-1,1.2-2.2,2.3-4.3,2.3c-3.1,0-5-2.1-5-5.4v-7.6
			c0-1.1,0.9-2.1,2.1-2.1c1.1,0,2.1,0.9,2.1,2.1v6.3c0,2,0.9,3,2.5,3s2.6-1,2.6-3v-6.3c0-1.1,0.9-2.1,2.1-2.1s2.1,0.9,2.1,2.1
			C117.1,128.3,117.1,139.2,117.1,139.2z"/>
		<path class="st1" d="M120.9,123.1c0-1.1,0.9-2.1,2.1-2.1c1.1,0,2.1,0.9,2.1,2.1v16.1c0,1.1-0.9,2.1-2.1,2.1
			c-1.1,0-2.1-0.9-2.1-2.1V123.1z"/>
		<path class="st1" d="M129.5,137v-7h-0.1c-1,0-1.8-0.8-1.8-1.8s0.8-1.8,1.8-1.8h0.1v-1.8c0-1.1,0.9-2.1,2.1-2.1
			c1.1,0,2.1,0.9,2.1,2.1v1.8h1.8c1,0,1.8,0.8,1.8,1.8s-0.8,1.8-1.8,1.8h-1.8v6.3c0,1,0.4,1.4,1.3,1.4c0.1,0,0.4,0,0.5,0
			c0.9,0,1.7,0.8,1.7,1.7c0,0.7-0.5,1.3-1.1,1.6c-0.8,0.3-1.5,0.4-2.4,0.4C131.2,141.4,129.5,140.4,129.5,137z"/>
	</g>
</g>
<path class="st1" d="M94.9,76.3l55.4-44.5c-1.6-1.7-3.2-3.4-4.9-5l-40.7,32.7c-0.2-2.1-1.5-3.4-2.9-4.3c-3.5-2-7.4-3.3-11.9-3.9
	v-1.1c0-2.4-1.9-4.3-4.3-4.3s-4.2,1.9-4.2,4.3v1c-10.3,1.1-17.2,7.1-17.2,16.1c0,7.9,3.8,12.3,11.5,15.4l-60,48.2
	c1.2,2,2.5,3.9,3.8,5.8l44.2-35.5c0.4,0.5,0.9,0.9,1.5,1.3c4.8,2.9,10.3,5,16.1,5.7v4.4c0,2.4,1.9,4.3,4.2,4.3
	c2.4,0,4.3-1.9,4.3-4.3v-4.3c10.3-1.1,17.3-7,17.3-16.2C107.3,84.5,103.5,79.7,94.9,76.3z M81.9,61.4v11c-4.5-1.6-5.6-3.4-5.6-5.9
	S78,62,81.9,61.4z M89.6,62.2c2.2,0.6,4.5,1.6,6.8,2.8c0.4,0.2,0.7,0.3,1.1,0.5l-7.9,6.3V62.2z M72.9,94l9-7.3v10.9
	C78.7,97,75.8,95.8,72.9,94z M89.6,98.1V86.8c4.4,1.6,5.8,3.4,5.8,6C95.4,95.8,93.4,97.6,89.6,98.1z"/>
<g>
	<path class="st1" d="M73,153.2L73,153.2c-0.8,0-1.4-0.6-1.4-1.3s0.6-1.3,1.3-1.3H73v-0.7c0-1.2,0.3-2.1,0.9-2.7
		c0.6-0.6,1.4-0.9,2.5-0.9c0.5,0,0.9,0,1.3,0.1c0.5,0.1,1.1,0.6,1.1,1.3s-0.6,1.3-1.3,1.3h-0.3c-0.7,0-1.1,0.4-1.1,1.2v0.4h1.4
		c0.7,0,1.3,0.6,1.3,1.3s-0.6,1.3-1.3,1.3h-1.3v7c0,0.9-0.7,1.6-1.6,1.6s-1.6-0.7-1.6-1.6V153.2z"/>
	<path class="st1" d="M85.4,161.8c-3.3,0-5.8-2.3-5.8-5.7l0,0c0-3.2,2.3-5.8,5.5-5.8c3.7,0,5.3,3,5.3,5.3c0,0.9-0.6,1.5-1.5,1.5
		h-6.2c0.3,1.4,1.3,2.2,2.7,2.2c0.9,0,1.6-0.3,2.2-0.7c0.2-0.2,0.4-0.2,0.8-0.2c0.7,0,1.2,0.5,1.2,1.2c0,0.4-0.2,0.7-0.4,0.9
		C88.3,161.3,87,161.8,85.4,161.8z M87.4,155.1c-0.2-1.4-1-2.4-2.3-2.4s-2.2,0.9-2.4,2.4H87.4z"/>
	<path class="st1" d="M98.1,161.8c-3.3,0-5.8-2.3-5.8-5.7l0,0c0-3.2,2.3-5.8,5.5-5.8c3.7,0,5.3,3,5.3,5.3c0,0.9-0.6,1.5-1.5,1.5
		h-6.2c0.3,1.4,1.3,2.2,2.7,2.2c0.9,0,1.6-0.3,2.2-0.7c0.2-0.2,0.4-0.2,0.8-0.2c0.7,0,1.2,0.5,1.2,1.2c0,0.4-0.2,0.7-0.4,0.9
		C101,161.3,99.7,161.8,98.1,161.8z M100.1,155.1c-0.2-1.4-1-2.4-2.3-2.4s-2.2,0.9-2.4,2.4H100.1z"/>
</g>
</svg>
