<?xml version="1.0" encoding="utf-8"?>
<!-- Generator: Adobe Illustrator 21.0.2, SVG Export Plug-In . SVG Version: 6.00 Build 0)  -->
<svg version="1.1" id="Layer_1" xmlns="http://www.w3.org/2000/svg" xmlns:xlink="http://www.w3.org/1999/xlink" x="0px" y="0px"
	 viewBox="0 0 475.5 475.5" style="enable-background:new 0 0 475.5 475.5;" xml:space="preserve">
<style type="text/css">
	.st0{fill:url(#SVGID_1_);}
	.st1{fill:#FFFFFF;}
</style>
<linearGradient id="SVGID_1_" gradientUnits="userSpaceOnUse" x1="8.734" y1="237.734" x2="466.734" y2="237.734">
	<stop  offset="0" style="stop-color:#EB3796"/>
	<stop  offset="1" style="stop-color:#873299"/>
</linearGradient>
<circle class="st0" cx="237.7" cy="237.7" r="229"/>
<g id="XMLID_1_">
	<path id="XMLID_10_" class="st1" d="M237.8,110.8c-70,0-127,57-127,126.9c0,70,56.9,127,127,127c70,0,126.9-57,126.9-127
		C364.7,167.8,307.7,110.8,237.8,110.8 M237.8,326.9c-49.6,0-89.8-40-89.8-89.2c0-49.5,40.3-89.7,89.8-89.7
		c49.5,0,89.8,40.3,89.8,89.7C327.6,286.9,287.3,326.9,237.8,326.9"/>
	<path id="XMLID_2_" class="st1" d="M237.8,299c-33.5,0-62-24.9-66.3-57.8c-0.9-6.3,3.6-12.1,9.9-12.9c6.3-0.8,12,3.6,12.9,9.9
		c2.8,21.6,21.5,37.9,43.5,37.9c21.9,0,40.6-16.1,43.6-37.5c0.9-6.3,6.7-10.7,13-9.8c6.3,0.9,10.6,6.7,9.8,13
		c-2.2,15.8-10.1,30.3-22.2,40.8C269.7,293.1,254,299,237.8,299"/>
</g>
</svg>
