<?xml version="1.0" encoding="utf-8"?>
<!-- Generator: Adobe Illustrator 21.0.2, SVG Export Plug-In . SVG Version: 6.00 Build 0)  -->
<svg version="1.1" id="Layer_1" xmlns="http://www.w3.org/2000/svg" xmlns:xlink="http://www.w3.org/1999/xlink" x="0px" y="0px"
	 viewBox="0 0 642.4 103.9" style="enable-background:new 0 0 642.4 103.9;" xml:space="preserve">
<style type="text/css">
	.st0{opacity:0.7;}
	.st1{fill:#FFFFFF;}
</style>
<g id="XMLID_141_">
	<g id="XMLID_173_" class="st0">
		<path id="XMLID_516_" class="st1" d="M129.5,18.4c-15.3,0-27.8,12.5-27.8,27.8c0,15.3,12.4,27.8,27.8,27.8
			c15.3,0,27.8-12.5,27.8-27.8C157.2,30.9,144.8,18.4,129.5,18.4 M129.5,65.7c-10.8,0-19.7-8.8-19.7-19.5c0-10.8,8.8-19.6,19.7-19.6
			c10.8,0,19.6,8.8,19.6,19.6C149.1,57,140.3,65.7,129.5,65.7"/>
		<path id="XMLID_175_" class="st1" d="M274,46.8c0-7-2.3-13.9-6.2-19.1c-2.2-2.9-4.8-5.1-7.8-6.7c-3.2-1.7-6.9-2.6-10.7-2.6
			c-14.3,0-25.5,12.2-25.5,27.7c0,7.7,2.7,14.8,7.6,19.9c4.9,5.1,11.6,8,19,8c8.1,0,14.3-2.5,20-8c0.9-0.8,1.3-1.8,1.3-2.8
			c0-2-1.7-3.7-3.8-3.7c-1.1,0-1.9,0.5-2.4,1l0,0c-4,3.7-8.6,5.3-14.9,5.3c-4.9,0-9.2-1.3-12.3-3.6c-3.3-2.5-5.3-6.3-5.9-11.2l0-0.3
			h37.7C272.3,50.8,274,49,274,46.8 M238,30.7c3-2.9,6.8-4.4,11.1-4.4c5,0,9,1.7,11.9,5c3.1,3.6,4.2,8.1,4.5,11.3l0,0.3h-33.2l0-0.3
			C233,37.8,234.9,33.6,238,30.7"/>
		<path id="XMLID_512_" class="st1" d="M190.7,18.4c-1,0-2,0.1-3.2,0.2l-0.3,0c-11.3,1.7-19.9,11.4-19.9,22.7v27.6v0
			c0.1,2.3,1.9,4.1,4.3,4.1c2.3,0,4.2-1.8,4.2-4.1v0c0,0,0-26,0-27.4l0-0.1c0-0.1,0-0.1,0-0.2c0-0.1,0-0.1,0-0.2
			c0-3.9,1.5-7.4,4.3-10c2.7-2.6,6.4-4,10.4-4c4,0,7.7,1.4,10.4,4c2.8,2.6,4.3,6.2,4.3,10v28.1l0,0.1c0.2,2.2,2,3.8,4.2,3.8
			c2.2,0,4.1-1.7,4.3-3.9l0,0V41.4C213.7,28.7,203.4,18.4,190.7,18.4"/>
		<path id="XMLID_511_" class="st1" d="M327.6,23.8c0,0.6-0.2,1.3-0.4,1.8l-0.1,0.1c-0.7,1.8-21.2,50.9-21.2,50.9
			c-2.8,7.5-6.5,17.1-15.3,21.8c-5.7,3-12.3,3.2-19.7,0.6c-5-1.9-9.3-5.4-12.1-9.9c0,0,0-0.1-0.1-0.1c-0.4-0.6-0.6-1.3-0.6-2.1
			c0-2.3,1.9-4.2,4.2-4.2c1.5,0,2.8,0.8,3.5,1.9c0,0,0,0.1,0.1,0.1c1.9,3.1,4.8,5.5,8,6.6c10.6,3.6,17-2.7,18.7-4.9
			c3.5-4.3,7.1-14.8,7.1-14.8L278.1,26l0,0c-0.4-0.8-0.5-1.6-0.5-2.3c0-2.3,1.9-4.2,4.3-4.2c0.7,0,2.9,0,4.3,3.3l17.7,37.7
			l15.6-37.9c0.5-1.4,1.7-3.1,4.1-3.1C325.8,19.5,327.6,21.5,327.6,23.8"/>
		<path id="XMLID_174_" class="st1" d="M69.2,18.4c-6.9,0-13.6,3.1-17.9,8.4l-0.8,0.9l-0.8-0.9c-4.3-5.4-10.9-8.4-17.7-8.4
			c-12.5,0-23,10.1-23,22.6v27.7c0.1,2.4,2,4.3,4.4,4.3c2.4,0,4.3-1.9,4.4-4.3V41c0-7.7,6.4-14,14-14c7.7,0,14.2,6.3,14.2,14v27.7
			c0.1,2.4,2,4.3,4.4,4.3c2.4,0,4.4-1.9,4.4-4.3V41c0-7.7,6.4-14,14.2-14c7.7,0,14,6.3,14,14V69c0.2,2.3,2.1,4.1,4.4,4.1
			c2.3,0,4.2-1.8,4.4-4.1V41C91.9,28.6,81.6,18.4,69.2,18.4"/>
	</g>
	<g id="XMLID_142_">
		<path id="XMLID_172_" class="st1" d="M502.6,6.9c0,3-2.5,5.4-5.5,5.4c-3,0-5.5-2.4-5.5-5.4c0-3,2.4-5.5,5.5-5.5
			C500.2,1.5,502.6,3.9,502.6,6.9"/>
		<path id="XMLID_169_" class="st1" d="M605.6,18.4c-15.3,0-27.8,12.5-27.8,27.8c0,15.3,12.4,27.8,27.8,27.8
			c15.3,0,27.8-12.5,27.8-27.8C633.4,30.9,620.9,18.4,605.6,18.4 M605.6,65.7c-10.8,0-19.7-8.8-19.7-19.5c0-10.8,8.8-19.6,19.7-19.6
			c10.8,0,19.6,8.8,19.6,19.6C625.2,57,616.4,65.7,605.6,65.7"/>
		<path id="XMLID_167_" class="st1" d="M458,18.4c-6.9,0-13.6,3.1-17.9,8.4l-0.8,0.9l-0.8-0.9c-4.3-5.4-10.9-8.4-17.7-8.4
			c-12.5,0-23,10.1-23,22.6v27.7c0.1,2.4,2,4.3,4.4,4.3c2.4,0,4.3-1.9,4.4-4.3V41c0-7.7,6.4-14,14-14c7.7,0,14.2,6.3,14.2,14v27.7
			c0.1,2.4,2,4.3,4.4,4.3c2.4,0,4.3-1.9,4.4-4.3V41c0-7.7,6.4-14,14.2-14c7.7,0,14,6.3,14,14V69c0.2,2.3,2.1,4.1,4.4,4.1
			c2.3,0,4.2-1.8,4.4-4.1V41C480.7,28.6,470.4,18.4,458,18.4"/>
		<path id="XMLID_155_" class="st1" d="M501.6,23.9c0-2.4-2-4.4-4.4-4.4c-2.4,0-4.4,2-4.4,4.4c0,0.1,0,0.2,0,0.2h0v44.5h0
			c0,2.4,2,4.4,4.4,4.4c2.4,0,4.4-1.9,4.4-4.4V24.2h0C501.6,24.1,501.6,24,501.6,23.9"/>
		<path id="XMLID_152_" class="st1" d="M386.1,46.2c0-15.3-12.3-27.8-27.6-27.8c-15.3,0-27.7,12.5-27.7,27.8
			c0,15.3,12.5,27.8,27.8,27.8c12.4,0,18.5-8.2,18.5-8.2v2.7c0,2.5,2,4.5,4.5,4.5c2.5,0,4.5-2,4.5-4.5l0,0.9V46.2z M358.6,65.9
			c-10.8,0-19.7-8.8-19.7-19.6c0-10.8,8.8-19.7,19.7-19.7c10.8,0,19.7,8.8,19.7,19.7C378.2,57,369.4,65.9,358.6,65.9"/>
		<path id="XMLID_149_" class="st1" d="M567.7,46.2c0-15.3-12.7-27.8-27.8-27.8c-15.1,0-27.4,12.5-27.4,27.8
			c0,15.3,12.3,27.8,27.4,27.8c6.3,0,12.8-2.6,17.5-6.6l1.3-1.1c0,0,0.8,8.7-1.1,14.5c-1,2.9-5.1,12-17.6,12.4
			c-5.8,0.2-11.8-3.3-15.4-8.4c-0.8-1.3-2.2-2.1-3.8-2.1c-2.5,0-4.5,2-4.5,4.5c0,0.7,0.2,1.4,0.5,2l0,0c4.8,8.4,13.9,13.3,23.2,13.3
			c8.8-0.3,15.6-3,20.3-8.4c7.4-8.4,7.5-20.7,7.5-29.6V46.2z M539.9,65c-10.2,0-18.5-8.4-18.5-18.8c0-10.4,8.3-18.9,18.5-18.9
			c10.3,0,18.7,8.5,18.7,18.9C558.6,56.6,550.2,65,539.9,65"/>
		<path id="XMLID_148_" class="st1" d="M605.6,59.6c-7.3,0-13.6-5.4-14.5-12.7c-0.2-1.4,0.8-2.6,2.2-2.8c1.4-0.2,2.6,0.8,2.8,2.2
			c0.6,4.7,4.7,8.3,9.5,8.3c4.8,0,8.9-3.5,9.5-8.2c0.2-1.4,1.5-2.3,2.8-2.1c1.4,0.2,2.3,1.5,2.1,2.8c-0.5,3.5-2.2,6.6-4.9,8.9
			C612.6,58.3,609.2,59.6,605.6,59.6"/>
	</g>
</g>
</svg>
