<?xml version="1.0" encoding="utf-8"?>
<!-- Generator: Adobe Illustrator 21.0.2, SVG Export Plug-In . SVG Version: 6.00 Build 0)  -->
<svg version="1.1" id="Layer_1" xmlns="http://www.w3.org/2000/svg" xmlns:xlink="http://www.w3.org/1999/xlink" x="0px" y="0px"
	 viewBox="0 0 491.1 159.7" style="enable-background:new 0 0 491.1 159.7;" xml:space="preserve">
<style type="text/css">
	.st0{clip-path:url(#SVGID_2_);fill:#FFFFFF;}
	.st1{clip-path:url(#SVGID_4_);fill:#FFFFFF;}
	.st2{clip-path:url(#SVGID_6_);fill:#FFFFFF;}
	.st3{clip-path:url(#SVGID_8_);fill:#FFFFFF;}
	.st4{clip-path:url(#SVGID_10_);fill:#FFFFFF;}
	.st5{clip-path:url(#XMLID_2_);fill:#FFFFFF;}
</style>
<g>
	<g>
		<defs>
			<path id="SVGID_1_" d="M5.3,14.3c0-6.9,5.4-12.5,12.5-12.5c7.1,0,12.8,5.6,12.8,12.5V62C37.8,51.7,48,42.7,65.2,42.7
				c24.9,0,39.3,16.7,39.3,42.2v59c0,7.1-5.4,12.5-12.5,12.5c-7.1,0-12.8-5.4-12.8-12.5V92.7c0-17.1-8.6-27-23.6-27
				c-14.6,0-24.9,10.2-24.9,27.4v50.8c0,7.1-5.6,12.5-12.8,12.5c-6.9,0-12.5-5.4-12.5-12.5V14.3z"/>
		</defs>
		<use xlink:href="#SVGID_1_"  style="overflow:visible;fill:#FFFFFF;"/>
		<clipPath id="SVGID_2_">
			<use xlink:href="#SVGID_1_"  style="overflow:visible;"/>
		</clipPath>
		<rect x="-10.5" y="-63.6" class="st0" width="543.9" height="237.8"/>
	</g>
	<g>
		<defs>
			<path id="SVGID_3_" d="M128.9,100.9v-0.4c0-31.6,25.1-57.7,59-57.7c33.9,0,58.8,25.7,58.8,57.3v0.4c0,31.4-25.1,57.5-59.2,57.5
				C153.8,158,128.9,132.2,128.9,100.9z M221.4,100.9v-0.4c0-19.4-14-35.6-33.9-35.6c-20.3,0-33.3,15.9-33.3,35.1v0.4
				c0,19.2,14,35.3,33.7,35.3C208.4,135.8,221.4,119.9,221.4,100.9z"/>
		</defs>
		<use xlink:href="#SVGID_3_"  style="overflow:visible;fill:#FFFFFF;"/>
		<clipPath id="SVGID_4_">
			<use xlink:href="#SVGID_3_"  style="overflow:visible;"/>
		</clipPath>
		<rect x="-10.5" y="-63.6" class="st1" width="543.9" height="237.8"/>
	</g>
	<g>
		<defs>
			<path id="SVGID_5_" d="M273.9,14.3c0-6.9,5.4-12.5,12.5-12.5c7.1,0,12.8,5.6,12.8,12.5v129.7c0,7.1-5.6,12.5-12.8,12.5
				c-6.9,0-12.5-5.4-12.5-12.5V14.3z"/>
		</defs>
		<use xlink:href="#SVGID_5_"  style="overflow:visible;fill:#FFFFFF;"/>
		<clipPath id="SVGID_6_">
			<use xlink:href="#SVGID_5_"  style="overflow:visible;"/>
		</clipPath>
		<rect x="-10.5" y="-63.6" class="st2" width="543.9" height="237.8"/>
	</g>
	<g>
		<defs>
			<path id="SVGID_7_" d="M324.9,123.7v-0.4c0-23.8,18.6-35.6,45.6-35.6c12.3,0,21.1,1.9,29.7,4.6v-2.7c0-15.7-9.6-24.1-27.4-24.1
				c-9.6,0-17.6,1.7-24.5,4.4c-1.5,0.4-2.7,0.6-4,0.6c-5.9,0-10.7-4.6-10.7-10.5c0-4.6,3.1-8.6,6.9-10c10.5-4,21.1-6.5,35.6-6.5
				c16.5,0,28.9,4.4,36.6,12.3c8.2,7.9,11.9,19.7,11.9,34.1v54.4c0,6.9-5.4,12.1-12.3,12.1c-7.3,0-12.3-5-12.3-10.7v-4.2
				c-7.5,9-19,16.1-36,16.1C343.3,157.7,324.9,145.8,324.9,123.7z M400.6,115.7v-7.5c-6.5-2.5-15.1-4.4-25.1-4.4
				c-16.3,0-25.9,6.9-25.9,18.4v0.4c0,10.7,9.4,16.7,21.5,16.7C387.8,139.3,400.6,129.7,400.6,115.7z"/>
		</defs>
		<use xlink:href="#SVGID_7_"  style="overflow:visible;fill:#FFFFFF;"/>
		<clipPath id="SVGID_8_">
			<use xlink:href="#SVGID_7_"  style="overflow:visible;"/>
		</clipPath>
		<rect x="-10.5" y="-63.6" class="st3" width="543.9" height="237.8"/>
	</g>
	<g>
		<defs>
			<path id="SVGID_9_" d="M455.8,17.4c-0.4-5,2.5-9,7.3-9h15.1c4.8,0,7.9,4,7.5,9l-7.3,85.3c-0.4,4.6-3.6,7.5-7.7,7.5
				c-4.2,0-7.1-2.9-7.5-7.5L455.8,17.4z M470.7,125.5c8.6,0,14.8,6.3,14.8,14.4v2.1c0,8.2-6.3,14.4-14.8,14.4
				c-8.4,0-14.8-6.3-14.8-14.4V140C455.8,131.8,462.3,125.5,470.7,125.5z"/>
		</defs>
		<use xlink:href="#SVGID_9_"  style="overflow:visible;fill:#FFFFFF;"/>
		<clipPath id="SVGID_10_">
			<use xlink:href="#SVGID_9_"  style="overflow:visible;"/>
		</clipPath>
		<rect x="-10.5" y="-63.6" class="st4" width="543.9" height="237.8"/>
	</g>
	<g>
		<defs>
			<path id="XMLID_266_" d="M188.5,126.4c-12.9,0-23.9-9.6-25.6-22.3c-0.3-2.4,1.4-4.6,3.8-5c2.4-0.3,4.7,1.4,5,3.8
				c1.1,8.3,8.3,14.6,16.8,14.6c8.4,0,15.6-6.2,16.8-14.5c0.3-2.4,2.6-4.1,5-3.8c2.4,0.3,4.1,2.6,3.8,5c-0.9,6.1-3.9,11.7-8.5,15.7
				C200.8,124.2,194.8,126.4,188.5,126.4"/>
		</defs>
		<use xlink:href="#XMLID_266_"  style="overflow:visible;fill:#FFFFFF;"/>
		<clipPath id="XMLID_2_">
			<use xlink:href="#XMLID_266_"  style="overflow:visible;"/>
		</clipPath>
		<rect x="-10.5" y="-63.6" class="st5" width="543.9" height="237.8"/>
	</g>
</g>
</svg>
