<?xml version="1.0" encoding="utf-8"?>
<!-- Generator: Adobe Illustrator 21.0.2, SVG Export Plug-In . SVG Version: 6.00 Build 0)  -->
<svg version="1.1" id="Layer_1" xmlns="http://www.w3.org/2000/svg" xmlns:xlink="http://www.w3.org/1999/xlink" x="0px" y="0px"
	 viewBox="0 0 244.8 244.8" style="enable-background:new 0 0 244.8 244.8;" xml:space="preserve">
<style type="text/css">
	.st0{fill:url(#SVGID_1_);}
	.st1{fill:url(#SVGID_2_);}
	.st2{fill:url(#SVGID_3_);}
	.st3{fill:url(#SVGID_4_);}
	.st4{fill:url(#SVGID_5_);}
	.st5{fill:url(#SVGID_6_);}
	.st6{fill:url(#SVGID_7_);}
	.st7{fill:url(#SVGID_8_);}
	.st8{fill:url(#SVGID_9_);}
	.st9{fill:url(#SVGID_10_);}
	.st10{fill:url(#SVGID_11_);}
	.st11{fill:url(#SVGID_12_);}
	.st12{fill:url(#SVGID_13_);}
	.st13{fill:url(#SVGID_14_);}
	.st14{fill:url(#SVGID_15_);}
	.st15{fill:url(#SVGID_16_);}
	.st16{fill:url(#SVGID_17_);}
	.st17{fill:url(#SVGID_18_);}
	.st18{fill:url(#SVGID_19_);}
	.st19{fill:url(#SVGID_20_);}
	.st20{fill:url(#SVGID_21_);}
	.st21{fill:url(#SVGID_22_);}
</style>
<g>
	<g>
		<linearGradient id="SVGID_1_" gradientUnits="userSpaceOnUse" x1="34.4451" y1="208.662" x2="211.1319" y2="208.662">
			<stop  offset="0" style="stop-color:#EB3796"/>
			<stop  offset="1" style="stop-color:#873299"/>
		</linearGradient>
		<path class="st0" d="M105.6,208.8L105.6,208.8c0,2,1.6,3.1,3.9,3.1c3.3,0,5.6-1.8,5.6-4.4v-1.3c-1.2-0.6-2.8-0.9-4.6-0.9
			C107.4,205.4,105.6,206.6,105.6,208.8z"/>
		<linearGradient id="SVGID_2_" gradientUnits="userSpaceOnUse" x1="34.4453" y1="203.854" x2="211.1319" y2="203.854">
			<stop  offset="0" style="stop-color:#EB3796"/>
			<stop  offset="1" style="stop-color:#873299"/>
		</linearGradient>
		<path class="st1" d="M81.7,196.9c-3.3,0-6.1,2.8-6.1,6.9v0.1c0,4.2,2.8,6.9,6.1,6.9s6.1-2.7,6.1-6.9v-0.1
			C87.8,199.6,85,196.9,81.7,196.9z"/>
		<linearGradient id="SVGID_3_" gradientUnits="userSpaceOnUse" x1="34.4453" y1="171.2729" x2="211.1317" y2="171.2729">
			<stop  offset="0" style="stop-color:#EB3796"/>
			<stop  offset="1" style="stop-color:#873299"/>
		</linearGradient>
		<path class="st2" d="M112.6,170.1v-1.3c-1.3-0.6-3-1-4.8-1c-3.2,0-5.2,1.3-5.2,3.7v0.1c0,2,1.7,3.2,4.1,3.2
			C110.2,174.8,112.6,172.8,112.6,170.1z"/>
		<linearGradient id="SVGID_4_" gradientUnits="userSpaceOnUse" x1="34.4455" y1="67.4605" x2="211.1309" y2="67.4605">
			<stop  offset="0" style="stop-color:#EB3796"/>
			<stop  offset="1" style="stop-color:#873299"/>
		</linearGradient>
		<ellipse class="st3" cx="128.5" cy="67.5" rx="4.3" ry="3.9"/>
		<linearGradient id="SVGID_5_" gradientUnits="userSpaceOnUse" x1="34.4454" y1="122.395" x2="211.1318" y2="122.395">
			<stop  offset="0" style="stop-color:#EB3796"/>
			<stop  offset="1" style="stop-color:#873299"/>
		</linearGradient>
		<path class="st4" d="M122.4,1.9C55.9,1.9,1.9,55.9,1.9,122.4c0,66.5,53.9,120.5,120.5,120.5c66.5,0,120.5-53.9,120.5-120.5
			C242.9,55.9,188.9,1.9,122.4,1.9z M171.7,59.6c1.5,1.3,1.3,3.8-0.5,5.4l-45.7,40.5c-1.9,1.6-4.7,1.8-6.2,0.4
			c-1.5-1.3-1.3-3.8,0.5-5.4l45.7-40.5C167.3,58.4,170.1,58.3,171.7,59.6z M173.3,98.1c0,5.4-4.9,9.7-10.9,9.7
			c-6,0-10.9-4.4-10.9-9.7c0-5.4,4.9-9.7,10.9-9.7C168.4,88.4,173.3,92.7,173.3,98.1z M128.5,57.7c6,0,10.9,4.4,10.9,9.7
			c0,5.4-4.9,9.7-10.9,9.7c-6,0-10.9-4.4-10.9-9.7C117.6,62.1,122.5,57.7,128.5,57.7z M67.4,166.3c0-7.6,5.8-13.8,13.9-13.8
			c4,0,6.8,1.1,9,3c0.5,0.4,1.2,1.3,1.2,2.6c0,1.9-1.5,3.4-3.4,3.4c-1,0-1.7-0.4-2.2-0.7c-1.3-1-2.7-1.7-4.7-1.7
			c-3.8,0-6.4,3.3-6.4,7.2v0.1c0,4.1,2.6,7.3,6.7,7.3c2,0,3.5-0.7,4.9-1.8c0.4-0.3,1.1-0.7,2-0.7c1.8,0,3.2,1.4,3.2,3.2
			c0,1-0.4,1.8-1.1,2.4c-2.2,2-5,3.4-9.4,3.4C73.2,180,67.4,173.9,67.4,166.3L67.4,166.3z M94.9,203.9c0,8.4-5.5,13-11.4,13
			c-3.8,0-6.1-1.7-7.8-3.8v0c0,1.9-1.6,3.5-3.6,3.5c-2,0-3.6-1.6-3.6-3.6v-27.7c0-2,1.6-3.6,3.6-3.6c2,0,3.6,1.6,3.6,3.6v9.4
			c1.7-2.3,4.1-4.1,7.8-4.1C89.3,190.8,94.9,195.4,94.9,203.9L94.9,203.9z M95.3,171.8L95.3,171.8c0-5.9,4.4-8.5,10.7-8.5
			c2.7,0,4.6,0.4,6.5,1.1v-0.4c0-3.1-1.9-4.8-5.7-4.8c-2.1,0-3.8,0.3-5.2,0.7c-0.4,0.1-0.7,0.2-1.1,0.2c-1.7,0-3.1-1.3-3.1-3.1
			c0-1.3,0.8-2.5,2-2.9c2.4-0.9,4.9-1.4,8.4-1.4c4.1,0,7.1,1.1,8.9,3c2,2,2.9,4.9,2.9,8.4v12.1c0,2-1.6,3.6-3.7,3.6
			c-2.2,0-3.6-1.5-3.6-3.1v0c-1.8,2-4.3,3.4-8,3.4C99.4,179.9,95.3,177.1,95.3,171.8z M121.8,213.3c0,1.9-1.5,3.4-3.5,3.4
			c-2.1,0-3.4-1.5-3.4-3v0c-1.7,1.9-4.1,3.2-7.6,3.2c-4.7,0-8.6-2.7-8.6-7.7v-0.1c0-5.5,4.2-8,10.1-8c2.5,0,4.4,0.4,6.1,1v-0.4
			c0-3-1.8-4.6-5.4-4.6c-2,0-3.6,0.3-4.9,0.7c-0.4,0.1-0.7,0.2-1,0.2c-1.6,0-3-1.3-3-2.9c0-1.3,0.8-2.3,1.9-2.8
			c2.3-0.8,4.7-1.3,8-1.3c3.9,0,6.7,1,8.5,2.8c1.9,1.9,2.7,4.6,2.7,8V213.3z M116.6,137.4H78.1c-4.5,0-8.1-3.2-8.1-7.2
			c0-4,3.6-7.2,8.1-7.2h11.1V52.5l-11.1,3c-4.3,1.2-8.8-1-10.1-4.8c-1.3-3.8,1.1-7.9,5.4-9L95,35.8c2.5-0.7,5.1-0.2,7.2,1.1
			c2.1,1.4,3.3,3.5,3.3,5.8v80.2h11.1c4.5,0,8.1,3.2,8.1,7.2C124.7,134.2,121,137.4,116.6,137.4z M124,174.4c0-1.7,1.3-3,3-3
			c0.5,0,1.1,0.1,1.5,0.4c2.5,1.6,5,2.4,7.2,2.4c2.2,0,3.2-0.8,3.2-2v-0.1c0-1.6-2.6-2.2-5.5-3.1c-3.7-1.1-7.9-2.8-7.9-8V161
			c0-5.4,4.3-8.4,9.7-8.4c2.8,0,5.6,0.7,8.2,2c1.1,0.5,1.8,1.5,1.8,2.8c0,1.7-1.3,3-3,3c-0.5,0-0.9-0.1-1.4-0.3
			c-2.1-1-4.1-1.7-5.7-1.7c-1.8,0-2.8,0.8-2.8,1.8v0.1c0,1.5,2.5,2.2,5.4,3.2c3.7,1.2,8,3,8,7.9v0.1c0,5.9-4.4,8.5-10.1,8.5
			c-3.3,0-6.8-0.9-10-3C124.7,176.4,124,175.5,124,174.4z M148.7,213.8c-2.1,1.9-4.8,3.2-8.9,3.2c-7.6,0-13.1-5.8-13.1-13v-0.1
			c0-7.2,5.5-13.1,13.2-13.1c3.8,0,6.5,1,8.6,2.8c0.5,0.4,1.1,1.2,1.1,2.4c0,1.8-1.5,3.2-3.2,3.2c-0.9,0-1.6-0.4-2.1-0.7
			c-1.3-1-2.6-1.6-4.5-1.6c-3.6,0-6.1,3.1-6.1,6.8v0.1c0,3.8,2.5,6.9,6.4,6.9c1.9,0,3.3-0.7,4.7-1.7c0.4-0.3,1.1-0.7,1.9-0.7
			c1.7,0,3,1.4,3,3C149.8,212.4,149.3,213.2,148.7,213.8z M150.9,176v-29.1c0-2.1,1.7-3.8,3.8-3.8s3.8,1.7,3.8,3.8v9.9
			c1.7-2.2,4-4.2,7.8-4.2c5.7,0,9,3.8,9,9.8V176c0,2.1-1.7,3.8-3.8,3.8c-2.1,0-3.8-1.7-3.8-3.8v-11.3c0-3.6-1.7-5.4-4.5-5.4
			c-2.9,0-4.7,1.8-4.7,5.4V176c0,2.1-1.7,3.8-3.8,3.8S150.9,178.1,150.9,176z M174.1,216.7c-1.4,0-2.3-0.5-3.1-1.6l-6.2-8.6
			l-2.9,2.6v4.1c0,2-1.6,3.6-3.6,3.6c-2,0-3.6-1.6-3.6-3.6v-27.7c0-2,1.6-3.6,3.6-3.6c2,0,3.6,1.6,3.6,3.6V201l8.9-8.4
			c1-1,1.9-1.6,3.1-1.6c1.9,0,3.1,1.5,3.1,3.2c0,1.2-0.7,2.2-1.6,3.1l-5.6,4.8l6.7,9.1c0.6,0.8,0.9,1.5,0.9,2.3
			C177.4,215.4,175.8,216.7,174.1,216.7z"/>
		<linearGradient id="SVGID_6_" gradientUnits="userSpaceOnUse" x1="34.4457" y1="98.1129" x2="211.132" y2="98.1129">
			<stop  offset="0" style="stop-color:#EB3796"/>
			<stop  offset="1" style="stop-color:#873299"/>
		</linearGradient>
		<ellipse class="st5" cx="162.4" cy="98.1" rx="4.3" ry="3.9"/>
	</g>
</g>
<g>
	<g>
		<linearGradient id="SVGID_7_" gradientUnits="userSpaceOnUse" x1="361.9012" y1="151.1581" x2="599.9891" y2="151.1581">
			<stop  offset="0" style="stop-color:#EB3796"/>
			<stop  offset="1" style="stop-color:#873299"/>
		</linearGradient>
		<polygon class="st6" points="441.3,158.7 454.4,158.7 447.8,143.7 		"/>
		<linearGradient id="SVGID_8_" gradientUnits="userSpaceOnUse" x1="361.9011" y1="148.9057" x2="599.9892" y2="148.9057">
			<stop  offset="0" style="stop-color:#EB3796"/>
			<stop  offset="1" style="stop-color:#873299"/>
		</linearGradient>
		<path class="st7" d="M495.3,149v-0.1c0-4.3-3.1-6.6-8-6.6h-7.6v13.4h7.6C492.2,155.6,495.3,152.8,495.3,149z"/>
		<linearGradient id="SVGID_9_" gradientUnits="userSpaceOnUse" x1="361.9009" y1="202.0419" x2="599.9902" y2="202.0419">
			<stop  offset="0" style="stop-color:#EB3796"/>
			<stop  offset="1" style="stop-color:#873299"/>
		</linearGradient>
		<path class="st8" d="M459.4,194c-4.7,0-7.5,3.6-7.5,7.9v0.1c0,4.3,3.1,8,7.7,8c4.7,0,7.5-3.6,7.5-7.9V202
			C467.1,197.8,464,194,459.4,194z"/>
		<linearGradient id="SVGID_10_" gradientUnits="userSpaceOnUse" x1="361.9004" y1="207.5528" x2="599.9895" y2="207.5528">
			<stop  offset="0" style="stop-color:#EB3796"/>
			<stop  offset="1" style="stop-color:#873299"/>
		</linearGradient>
		<path class="st9" d="M486.9,207.7v0.1c0,2.2,1.8,3.5,4.5,3.5c3.9,0,6.5-2.1,6.5-5.1v-1.5c-1.4-0.7-3.3-1.1-5.3-1.1
			C489,203.7,486.9,205.1,486.9,207.7z"/>
		<linearGradient id="SVGID_11_" gradientUnits="userSpaceOnUse" x1="361.9026" y1="67.4605" x2="599.9889" y2="67.4605">
			<stop  offset="0" style="stop-color:#EB3796"/>
			<stop  offset="1" style="stop-color:#873299"/>
		</linearGradient>
		<ellipse class="st10" cx="512.6" cy="67.5" rx="4.3" ry="3.9"/>
		<linearGradient id="SVGID_12_" gradientUnits="userSpaceOnUse" x1="361.9012" y1="82.6654" x2="599.9899" y2="82.6654">
			<stop  offset="0" style="stop-color:#EB3796"/>
			<stop  offset="1" style="stop-color:#873299"/>
		</linearGradient>
		<path class="st11" d="M481.3,82.8c0-18.1-14.7-32.7-32.7-32.7c-18.1,0-32.8,14.7-32.8,32.7c0,17.9,14.7,32.5,32.8,32.5
			C466.6,115.3,481.3,100.7,481.3,82.8z"/>
		<linearGradient id="SVGID_13_" gradientUnits="userSpaceOnUse" x1="361.9002" y1="98.1129" x2="599.9899" y2="98.1129">
			<stop  offset="0" style="stop-color:#EB3796"/>
			<stop  offset="1" style="stop-color:#873299"/>
		</linearGradient>
		<ellipse class="st12" cx="546.4" cy="98.1" rx="4.3" ry="3.9"/>
		<linearGradient id="SVGID_14_" gradientUnits="userSpaceOnUse" x1="361.9012" y1="122.395" x2="599.9899" y2="122.395">
			<stop  offset="0" style="stop-color:#EB3796"/>
			<stop  offset="1" style="stop-color:#873299"/>
		</linearGradient>
		<path class="st13" d="M484.3,1.9c-66.5,0-120.5,53.9-120.5,120.5c0,66.5,53.9,120.5,120.5,120.5c66.5,0,120.5-53.9,120.5-120.5
			C604.8,55.9,550.9,1.9,484.3,1.9z M512.6,57.7c6,0,10.9,4.4,10.9,9.7c0,5.4-4.9,9.7-10.9,9.7c-6,0-10.9-4.4-10.9-9.7
			C501.6,62.1,506.5,57.7,512.6,57.7z M401.4,82.8c0-26,21.1-47.2,47.2-47.2c26,0,47.2,21.2,47.2,47.2c0,26-21.2,47.2-47.2,47.2
			C422.6,130,401.4,108.8,401.4,82.8z M437.9,212.7c0,2.3-1.8,4.1-4.1,4.1c-2.3,0-4.1-1.8-4.1-4.1v-32c0-2.3,1.8-4.1,4.1-4.1
			c2.3,0,4.1,1.8,4.1,4.1V212.7z M435.7,171.6c-0.5,1.3-1.6,2.1-3,2.1c-1.7,0-3-1.3-3-3c0-0.5,0.2-1,0.4-1.5l13.8-30.7
			c0.7-1.6,2.1-2.7,3.9-2.7h0.3c1.9,0,3.1,1,3.9,2.7l13.8,30.7c0.3,0.5,0.4,1,0.4,1.4c0,1.7-1.3,3.1-3.1,3.1c-1.5,0-2.6-0.9-3.2-2.3
			l-3-6.9h-18L435.7,171.6z M475.2,202c0,8.4-6.7,15.1-15.8,15.1c-9,0-15.7-6.7-15.7-15V202c0-8.4,6.7-15.1,15.8-15.1
			c9,0,15.7,6.7,15.7,15V202z M476.5,173.7c-1.9,0-3.3-1.4-3.3-3.2v-30.8c0-1.9,1.4-3.3,3.3-3.3h11.3c8.7,0,14.1,4.9,14.1,12.4v0.1
			c0,8.3-6.7,12.7-14.8,12.7h-7.4v9C479.7,172.2,478.3,173.7,476.5,173.7z M505.7,212.9c0,2.2-1.8,4-4,4c-2.4,0-4-1.7-4-3.4v-0.1
			c-2,2.2-4.8,3.7-8.8,3.7c-5.5,0-10-3.1-10-8.9v-0.1c0-6.4,4.8-9.3,11.7-9.3c2.9,0,5,0.5,7.1,1.2v-0.5c0-3.4-2.1-5.3-6.2-5.3
			c-2.3,0-4.1,0.3-5.7,0.8c-0.5,0.2-0.8,0.2-1.2,0.2c-1.9,0-3.4-1.5-3.4-3.4c0-1.5,0.9-2.7,2.2-3.2c2.6-1,5.4-1.5,9.3-1.5
			c4.5,0,7.8,1.2,9.8,3.3c2.2,2.2,3.1,5.4,3.1,9.3V212.9z M503.3,106c-1.5-1.3-1.3-3.8,0.5-5.4l45.7-40.5c1.9-1.6,4.7-1.8,6.2-0.4
			c1.5,1.3,1.3,3.8-0.5,5.4l-45.7,40.5C507.6,107.1,504.8,107.3,503.3,106z M538.9,212.7c0,2.3-1.8,4.1-4.1,4.1
			c-2.3,0-4.1-1.8-4.1-4.1v-12.4c0-3.9-1.8-5.9-5-5.9c-3.1,0-5.2,2-5.2,5.9v12.4c0,2.3-1.8,4.1-4.1,4.1c-2.3,0-4.1-1.8-4.1-4.1
			v-21.5c0-2.3,1.8-4.1,4.1-4.1c2.3,0,4.1,1.8,4.1,4.1v0.3c1.9-2.4,4.3-4.7,8.5-4.7c6.2,0,9.9,4.1,9.9,10.8V212.7z M538.9,148.1
			c0,5.9-3.4,9.5-8.4,11.1l7.1,9c0.6,0.8,1.1,1.5,1.1,2.5c0,1.8-1.5,3-3.1,3c-1.5,0-2.4-0.7-3.2-1.7l-9-11.5h-8.2v10
			c0,1.8-1.4,3.2-3.2,3.2c-1.9,0-3.3-1.4-3.3-3.2v-30.8c0-1.9,1.4-3.3,3.3-3.3h13.3c4.7,0,8.3,1.4,10.7,3.7c2,2,3.1,4.8,3.1,8V148.1
			z M546.4,107.9c-6,0-10.9-4.4-10.9-9.7c0-5.4,4.9-9.7,10.9-9.7c6,0,10.9,4.4,10.9,9.7C557.3,103.5,552.4,107.9,546.4,107.9z"/>
		<linearGradient id="SVGID_15_" gradientUnits="userSpaceOnUse" x1="361.9011" y1="148.4552" x2="599.9892" y2="148.4552">
			<stop  offset="0" style="stop-color:#EB3796"/>
			<stop  offset="1" style="stop-color:#873299"/>
		</linearGradient>
		<path class="st14" d="M524.6,142.2h-9.5v12.5h9.5c4.7,0,7.6-2.4,7.6-6.2v-0.1C532.3,144.4,529.4,142.2,524.6,142.2z"/>
	</g>
</g>
<g>
	<linearGradient id="SVGID_16_" gradientUnits="userSpaceOnUse" x1="713.2869" y1="206.5186" x2="926.3707" y2="206.5186">
		<stop  offset="0" style="stop-color:#EB3796"/>
		<stop  offset="1" style="stop-color:#873299"/>
	</linearGradient>
	<path class="st15" d="M821.6,200.8c-3.3,0-5.3,2.6-5.3,5.6v0.1c0,3,2.2,5.7,5.4,5.7c3.3,0,5.3-2.6,5.3-5.6v-0.1
		C827,203.5,824.8,200.8,821.6,200.8z"/>
	<linearGradient id="SVGID_17_" gradientUnits="userSpaceOnUse" x1="713.2868" y1="206.4799" x2="926.3709" y2="206.4799">
		<stop  offset="0" style="stop-color:#EB3796"/>
		<stop  offset="1" style="stop-color:#873299"/>
	</linearGradient>
	<path class="st16" d="M796.5,200.8c-2.7,0-5,2.2-5,5.7v0.1c0,3.4,2.3,5.7,5,5.7c2.7,0,5-2.3,5-5.7v-0.1
		C801.4,203,799.2,200.8,796.5,200.8z"/>
	<linearGradient id="SVGID_18_" gradientUnits="userSpaceOnUse" x1="713.2862" y1="115.4221" x2="926.3712" y2="115.4221">
		<stop  offset="0" style="stop-color:#EB3796"/>
		<stop  offset="1" style="stop-color:#873299"/>
	</linearGradient>
	<path class="st17" d="M833.1,120.2h8.2v8c0,2.7,2.2,4.9,4.9,4.9c2.7,0,4.9-2.2,4.9-4.9v-8h8.2c2.6,0,4.8-2.2,4.8-4.8
		c0-2.6-2.2-4.8-4.8-4.8h-8.2v-8c0-2.7-2.2-4.9-4.9-4.9c-2.7,0-4.9,2.2-4.9,4.9v8h-8.2c-2.6,0-4.8,2.2-4.8,4.8
		C828.3,118.1,830.4,120.2,833.1,120.2z"/>
	<linearGradient id="SVGID_19_" gradientUnits="userSpaceOnUse" x1="713.2856" y1="25.8526" x2="926.3722" y2="25.8526">
		<stop  offset="0" style="stop-color:#EB3796"/>
		<stop  offset="1" style="stop-color:#873299"/>
	</linearGradient>
	<polygon class="st18" points="841.2,22.4 835.3,29.3 841.2,29.3 	"/>
	<linearGradient id="SVGID_20_" gradientUnits="userSpaceOnUse" x1="713.2869" y1="170.3712" x2="926.371" y2="170.3712">
		<stop  offset="0" style="stop-color:#EB3796"/>
		<stop  offset="1" style="stop-color:#873299"/>
	</linearGradient>
	<circle class="st19" cx="846.2" cy="170.4" r="6.2"/>
	<linearGradient id="SVGID_21_" gradientUnits="userSpaceOnUse" x1="713.2867" y1="122.3462" x2="926.3714" y2="122.3462">
		<stop  offset="0" style="stop-color:#EB3796"/>
		<stop  offset="1" style="stop-color:#873299"/>
	</linearGradient>
	<path class="st20" d="M846.2,2.2C779.8,2.2,726,56,726,122.3c0,66.4,53.8,120.2,120.2,120.2c66.4,0,120.2-53.8,120.2-120.2
		C966.4,56,912.6,2.2,846.2,2.2z M867.3,15.8h12.1c1.4,0,2.2,0.8,2.2,2.2c0,0.7-0.3,1.6-0.7,2.4L872,36.6c-0.6,1.2-1.4,1.7-2.4,1.7
		c-1.3,0-2.5-0.8-2.5-2.2c0-0.4,0.2-1.1,0.4-1.5l8.3-14.5h-8.5c-1.2,0-2.1-0.9-2.1-2.1C865.2,16.8,866.1,15.8,867.3,15.8z
		 M862.7,12.5c1,0,1.9,0.9,1.9,1.8c0,0.3-0.1,0.7-0.2,0.9l-12.4,26c-0.3,0.7-0.9,1.1-1.7,1.1c-1,0-1.9-0.9-1.9-1.8
		c0-0.3,0.1-0.7,0.2-0.9l12.4-26C861.4,12.9,861.9,12.5,862.7,12.5z M830.9,28.4l9.7-11.2c0.9-1.1,1.6-1.7,3.1-1.7
		c1.3,0,2.4,1,2.4,2.3v11.5h1.2c1.1,0,2,0.9,2,2c0,1.1-0.9,2-2,2h-1.2V36c0,1.3-1,2.3-2.4,2.3c-1.3,0-2.3-1-2.3-2.3v-2.7h-9.2
		c-1.3,0-2.4-1-2.4-2.3C829.7,30,830.1,29.2,830.9,28.4z M820.7,19.9c-1.4,0-2.4,0.6-3.6,1.9c-0.3,0.3-0.9,0.7-1.7,0.7
		c-1.2,0-2.2-1-2.2-2.2c0-0.5,0.2-1.1,0.6-1.5c1.8-2.1,3.9-3.3,7.2-3.3c4.6,0,7.7,2.7,7.7,6.9v0.1c0,3.7-1.9,5.6-5.8,8.6l-3.6,2.8
		h7.8c1.2,0,2.1,1,2.1,2.1c0,1.2-1,2.1-2.1,2.1h-12.1c-1.5,0-2.6-0.9-2.6-2.3c0-1,0.4-1.8,1.3-2.4l6.3-5.2c2.8-2.3,3.8-3.5,3.8-5.3
		C823.7,20.9,822.4,19.9,820.7,19.9z M808.7,51.1c0-2.7,2.2-4.9,4.9-4.9l65.3,0c2.7,0,4.9,2.2,4.9,4.9l0,27.8
		c-0.3-0.3-0.6-0.6-1-0.8c-2.1-1.7-4.4-3-6.9-4l0-16.4l-59.4,0l0,16.4c-2.5,1-4.8,2.3-6.9,4c-0.3,0.3-0.6,0.5-1,0.8L808.7,51.1z
		 M813.7,83.1c0.9-0.7,1.8-1.4,2.8-1.9c-0.1,0-0.1,0.1-0.2,0.1c0.1-0.1,0.2-0.1,0.3-0.2v0c8.1-4.5,18.5-2.7,24.6,4.8l5.1,6.3
		l5.1-6.3c6.1-7.4,16.5-9.3,24.6-4.8v0c0.1,0,0.2,0.1,0.2,0.1c0.9,0.5,1.8,1.1,2.6,1.8c8.4,6.8,9.6,19.1,2.8,27.4l-32.4,40.1
		c-1.5,1.9-4.4,1.9-6,0l-32.4-40.1C804,102.2,805.3,89.9,813.7,83.1z M807.2,214.1c0,1.6-1.3,2.9-2.9,2.9s-2.9-1.3-2.9-2.9v-0.3
		c-1.4,1.9-3.4,3.3-6.4,3.3c-4.8,0-9.4-3.8-9.4-10.6v-0.1c0-6.9,4.5-10.6,9.4-10.6c3.1,0,5,1.4,6.4,3.1v-7.5c0-1.6,1.3-2.9,2.9-2.9
		s2.9,1.3,2.9,2.9V214.1z M808.6,176.3l0-58.3l7.9,9.7l0,33.8l59.4,0l0-33.8l7.9-9.8l0,58.3c0,2.7-2.2,4.9-4.9,4.9l-65.3,0
		C810.8,181.2,808.6,179,808.6,176.3z M832.8,206.5c0,5.9-4.8,10.7-11.2,10.7c-6.4,0-11.1-4.7-11.1-10.6v-0.1
		c0-5.9,4.8-10.7,11.2-10.7C828,195.8,832.8,200.5,832.8,206.5L832.8,206.5z M853,214.6c-1.7,1.6-3.9,2.7-7.3,2.7
		c-6.2,0-10.7-4.8-10.7-10.6v-0.1c0-5.9,4.5-10.7,10.8-10.7c3.1,0,5.3,0.8,7,2.3c0.4,0.3,0.9,1,0.9,2c0,1.5-1.2,2.6-2.7,2.6
		c-0.8,0-1.3-0.3-1.7-0.6c-1-0.8-2.1-1.3-3.6-1.3c-2.9,0-5,2.6-5,5.6v0.1c0,3.2,2,5.7,5.2,5.7c1.5,0,2.7-0.5,3.8-1.4
		c0.3-0.2,0.9-0.5,1.6-0.5c1.4,0,2.5,1.1,2.5,2.5C853.9,213.5,853.5,214.1,853,214.6z M865.7,212c0.2,0,0.6,0,0.7,0
		c1.3,0,2.4,1.1,2.4,2.4c0,1-0.7,1.9-1.5,2.2c-1.1,0.4-2.1,0.6-3.3,0.6c-3.6,0-6-1.4-6-6.2v-9.8h-0.2c-1.4,0-2.5-1.1-2.5-2.5
		c0-1.4,1.1-2.5,2.5-2.5h0.2v-2.6c0-1.6,1.3-2.9,2.9-2.9c1.6,0,2.9,1.3,2.9,2.9v2.6h2.6c1.4,0,2.5,1.1,2.5,2.5
		c0,1.4-1.1,2.5-2.5,2.5h-2.6v8.8C863.8,211.3,864.4,212,865.7,212z M892.7,206.5c0,5.9-4.8,10.7-11.2,10.7
		c-6.4,0-11.1-4.7-11.1-10.6v-0.1c0-5.9,4.8-10.7,11.2-10.7C887.9,195.8,892.7,200.5,892.7,206.5L892.7,206.5z M906.4,201.5
		c-3,0.7-4.6,3-4.6,7.1v5.5c0,1.6-1.3,2.9-2.9,2.9s-2.9-1.3-2.9-2.9v-15.2c0-1.6,1.3-2.9,2.9-2.9s2.9,1.3,2.9,2.9v0.9
		c0.8-2,2.2-3.8,4-3.8c1.8,0,2.8,1.2,2.8,2.8C908.6,200.3,907.6,201.3,906.4,201.5z"/>
	<linearGradient id="SVGID_22_" gradientUnits="userSpaceOnUse" x1="713.287" y1="206.5186" x2="926.3707" y2="206.5186">
		<stop  offset="0" style="stop-color:#EB3796"/>
		<stop  offset="1" style="stop-color:#873299"/>
	</linearGradient>
	<path class="st21" d="M881.5,200.8c-3.3,0-5.3,2.6-5.3,5.6v0.1c0,3,2.2,5.7,5.4,5.7c3.3,0,5.3-2.6,5.3-5.6v-0.1
		C886.9,203.5,884.7,200.8,881.5,200.8z"/>
</g>
</svg>
