<svg xmlns="http://www.w3.org/2000/svg" xmlns:xlink="http://www.w3.org/1999/xlink" viewBox="0 0 287.6 293"><defs><style>.cls-1{isolation:isolate;}.cls-2{fill:#eb3796;}.cls-3{fill:url(#Degradado_sin_nombre);}</style><linearGradient id="Degradado_sin_nombre" x1="38.23" y1="820.93" x2="237.06" y2="1019.76" gradientTransform="translate(0 -780)" gradientUnits="userSpaceOnUse"><stop offset="0" stop-color="#eb3796"/><stop offset="1" stop-color="#873299"/></linearGradient></defs><title>icon-good6</title><g id="Capa_2" data-name="Capa 2"><g id="Layer_1" data-name="Layer 1"><g class="cls-1"><path class="cls-2" d="M89,130V101.45A3.93,3.93,0,0,1,93,97.51h.82a5.17,5.17,0,0,1,4.1,2.3l15.21,20V101.3a3.89,3.89,0,1,1,7.78,0v28.52a3.84,3.84,0,0,1-1.15,2.79,3.8,3.8,0,0,1-2.79,1.15h-.26a5.17,5.17,0,0,1-4.1-2.3L96.8,110.77V130A3.89,3.89,0,1,1,89,130Z"/><path class="cls-2" d="M129.47,129.92V101.66a3.93,3.93,0,0,1,3.94-4h10.71q6.34,0,10,3.41a11.64,11.64,0,0,1,3.69,9v.11q0,6-4.1,9.29a16,16,0,0,1-10.39,3.3h-6v7.12a3.95,3.95,0,1,1-7.89,0Zm7.89-14.13h6.24a6.47,6.47,0,0,0,4.56-1.54,5,5,0,0,0,1.69-3.89v-.1a4.93,4.93,0,0,0-1.69-4,7.12,7.12,0,0,0-4.71-1.41h-6.09Z"/><path class="cls-2" d="M194.74,128.77a20,20,0,0,1-27.25,0,17.72,17.72,0,0,1-5.4-13.08v-.11a17.78,17.78,0,0,1,5.46-13.13,19.94,19.94,0,0,1,27.24,0,17.72,17.72,0,0,1,5.4,13.08v.1A17.81,17.81,0,0,1,194.74,128.77Zm-21.33-5.15a10.19,10.19,0,0,0,7.78,3.28,10.09,10.09,0,0,0,7.73-3.23,11.14,11.14,0,0,0,3-7.93v-.11a11.22,11.22,0,0,0-3.08-8,10.88,10.88,0,0,0-15.51-.06,11.17,11.17,0,0,0-3,7.94v.1A11.22,11.22,0,0,0,173.41,123.62Z"/></g><g class="cls-1"><path class="cls-2" d="M86,184.17V155.65A3.93,3.93,0,0,1,90,151.71h.82a5.17,5.17,0,0,1,4.1,2.3l15.21,20V155.5a3.89,3.89,0,1,1,7.78,0V184a3.84,3.84,0,0,1-1.15,2.79,3.8,3.8,0,0,1-2.79,1.15h-.26a5.17,5.17,0,0,1-4.1-2.3L93.8,165v19.2a3.89,3.89,0,1,1-7.78,0Z"/><path class="cls-2" d="M143.73,188.37q-8.29,0-13.57-5.22a17.81,17.81,0,0,1-5.28-13.21v-.1a17.94,17.94,0,0,1,5.38-13.14,18.17,18.17,0,0,1,13.42-5.4,20.84,20.84,0,0,1,12.24,3.48,3.9,3.9,0,0,1,.48,5.94,3.79,3.79,0,0,1-2.74,1.13,4,4,0,0,1-2.4-.82,13.12,13.12,0,0,0-7.84-2.46,9.51,9.51,0,0,0-7.3,3.28,11.29,11.29,0,0,0-3,7.88v.11a11.39,11.39,0,0,0,3,8.14A10.29,10.29,0,0,0,144,181.2a12.43,12.43,0,0,0,7.43-2.15v-5.12h-5.33a3.36,3.36,0,0,1-2.43-1,3.25,3.25,0,0,1-1-2.41,3.34,3.34,0,0,1,1-2.43,3.31,3.31,0,0,1,2.43-1h9a3.84,3.84,0,0,1,2.79,1.15,3.8,3.8,0,0,1,1.15,2.79v8.71a5.44,5.44,0,0,1-2.76,5A23.59,23.59,0,0,1,143.73,188.37Z"/><path class="cls-2" d="M197.68,183a20,20,0,0,1-27.25.05,17.72,17.72,0,0,1-5.4-13.08v-.1a17.81,17.81,0,0,1,5.45-13.14,20,20,0,0,1,27.25,0,17.72,17.72,0,0,1,5.4,13.08v.11A17.81,17.81,0,0,1,197.68,183Zm-21.33-5.15a10.88,10.88,0,0,0,15.51.06,11.18,11.18,0,0,0,3-7.94v-.1a11.23,11.23,0,0,0-3.08-8,10.87,10.87,0,0,0-15.51,0,11.13,11.13,0,0,0-3,7.93v.11A11.21,11.21,0,0,0,176.35,177.82Z"/></g><path class="cls-3" d="M143.8,293C64.5,293,0,227.3,0,146.5S64.5,0,143.8,0,287.6,65.7,287.6,146.5,223.1,293,143.8,293Zm0-282.6C70.2,10.4,10.2,71.5,10.2,146.5S70.1,282.6,143.8,282.6s133.6-61.1,133.6-136.1S217.5,10.4,143.8,10.4Z"/></g></g></svg>