<svg xmlns="http://www.w3.org/2000/svg" xmlns:xlink="http://www.w3.org/1999/xlink" viewBox="0 0 287.6 293"><defs><style>.cls-1{isolation:isolate;}.cls-2{fill:#eb3796;}.cls-3{fill:url(#Degradado_sin_nombre);}</style><linearGradient id="Degradado_sin_nombre" x1="38.23" y1="820.93" x2="237.06" y2="1019.76" gradientTransform="translate(0 -780)" gradientUnits="userSpaceOnUse"><stop offset="0" stop-color="#eb3796"/><stop offset="1" stop-color="#873299"/></linearGradient></defs><title>icon-good4</title><g id="Capa_2" data-name="Capa 2"><g id="Layer_1" data-name="Layer 1"><g class="cls-1"><path class="cls-2" d="M55.87,157.31V129.59a3.58,3.58,0,1,1,7.15,0V139a9.32,9.32,0,0,1,7.85-4.09,10.87,10.87,0,0,1,8.08,3.5Q82.34,142,82.34,148v.1q0,6-3.37,9.51a10.8,10.8,0,0,1-8.1,3.5A9.82,9.82,0,0,1,63,157.31v.05A3.34,3.34,0,0,1,62,159.85a3.57,3.57,0,0,1-6.09-2.54Zm8.82-4.25A5.61,5.61,0,0,0,69,155a5.73,5.73,0,0,0,4.37-1.92,7.09,7.09,0,0,0,1.79-5V148a7.06,7.06,0,0,0-1.79-5A5.69,5.69,0,0,0,69,141a5.61,5.61,0,0,0-4.34,2,7.14,7.14,0,0,0-1.77,5v.1A7.16,7.16,0,0,0,64.69,153.06Z"/><path class="cls-2" d="M87.6,157.31V138.7a3.42,3.42,0,0,1,1-2.53,3.62,3.62,0,0,1,5.08,0,3.42,3.42,0,0,1,1,2.53v1.13a11,11,0,0,1,2.12-3.36,3.73,3.73,0,0,1,2.72-1.34,3.36,3.36,0,0,1,2.56,1,3.49,3.49,0,0,1,.92,2.52,3.22,3.22,0,0,1-.75,2.21,3.66,3.66,0,0,1-1.93,1.13q-5.64,1.31-5.64,8.69v6.67a3.57,3.57,0,1,1-7.14,0Z"/><path class="cls-2" d="M128.65,157.36a14.36,14.36,0,0,1-19.46,0,12.4,12.4,0,0,1-3.87-9.23v-.09a12.49,12.49,0,0,1,3.92-9.31,14.36,14.36,0,0,1,19.46,0,12.42,12.42,0,0,1,3.88,9.23v.1A12.46,12.46,0,0,1,128.65,157.36ZM119,155a6.1,6.1,0,0,0,4.75-2,7,7,0,0,0,1.79-4.89v-.09a7.06,7.06,0,0,0-1.86-4.92,6.65,6.65,0,0,0-9.52-.07,7,7,0,0,0-1.78,4.89v.1a7.09,7.09,0,0,0,1.85,4.91A6.17,6.17,0,0,0,119,155Z"/><path class="cls-2" d="M137.75,157.31V129.59a3.57,3.57,0,1,1,7.14,0v15.6l8.93-8.46a4.81,4.81,0,0,1,3.15-1.6,2.93,2.93,0,0,1,2.28,1,3.25,3.25,0,0,1,.87,2.24,4.39,4.39,0,0,1-1.65,3.1l-5.64,4.84,6.72,9.07a4,4,0,0,1,.9,2.3,3,3,0,0,1-1,2.33,3.34,3.34,0,0,1-2.35.92,3.62,3.62,0,0,1-3.1-1.65l-6.25-8.6-2.87,2.59v4.08a3.57,3.57,0,1,1-7.14,0Z"/><path class="cls-2" d="M185.59,158.11a14.05,14.05,0,0,1-18.19-.58,12.6,12.6,0,0,1-3.71-9.38v-.09a13.16,13.16,0,0,1,3.53-9.31,11.63,11.63,0,0,1,8.93-3.81,12.56,12.56,0,0,1,5.42,1.15,10.31,10.31,0,0,1,3.83,3,13.86,13.86,0,0,1,2.14,3.88,12,12,0,0,1,.73,4.11,3.37,3.37,0,0,1-1,2.47,3.26,3.26,0,0,1-2.38,1H170.79a6.16,6.16,0,0,0,2.11,3.67,6.33,6.33,0,0,0,4,1.26,8.38,8.38,0,0,0,5.08-1.69,2.85,2.85,0,0,1,1.74-.56,2.83,2.83,0,0,1,1.83,4.93ZM170.69,146h10.77a6.89,6.89,0,0,0-1.72-3.9,4.72,4.72,0,0,0-3.59-1.45,4.84,4.84,0,0,0-3.6,1.43A7.08,7.08,0,0,0,170.69,146Z"/><path class="cls-2" d="M193.72,157.31V138.7a3.58,3.58,0,1,1,7.15,0v1.13a11,11,0,0,1,2.11-3.36,3.76,3.76,0,0,1,2.73-1.34,3.38,3.38,0,0,1,2.56,1,3.54,3.54,0,0,1,.92,2.52,3.22,3.22,0,0,1-.76,2.21,3.67,3.67,0,0,1-1.92,1.13q-5.64,1.31-5.64,8.69v6.67a3.58,3.58,0,1,1-7.15,0Z"/><path class="cls-2" d="M222.2,161.07a17.11,17.11,0,0,1-9.49-2.86,2.72,2.72,0,0,1-1.36-2.45,2.69,2.69,0,0,1,.82-2,2.72,2.72,0,0,1,2-.83,2.66,2.66,0,0,1,1.41.38,13,13,0,0,0,6.81,2.26c2,0,3-.63,3-1.88v-.1a1.58,1.58,0,0,0-.07-.47,1,1,0,0,0-.26-.42,3.34,3.34,0,0,0-.4-.35,3.07,3.07,0,0,0-.56-.33l-.61-.28c-.18-.08-.42-.18-.73-.29s-.58-.19-.8-.25l-.89-.26-.9-.26a22.51,22.51,0,0,1-2.72-1,12.25,12.25,0,0,1-2.33-1.34,5.46,5.46,0,0,1-1.83-2.18,7,7,0,0,1-.64-3.08V143a7.14,7.14,0,0,1,2.64-5.86,10.09,10.09,0,0,1,6.57-2.13,17.34,17.34,0,0,1,7.81,1.92,2.81,2.81,0,0,1,1.69,2.68,2.8,2.8,0,0,1-2.87,2.82,2.86,2.86,0,0,1-1.31-.33,13.26,13.26,0,0,0-5.46-1.59,3.31,3.31,0,0,0-1.95.49,1.49,1.49,0,0,0-.68,1.24v.1c0,.85,1.44,1.75,4.33,2.72l.8.29c1.09.37,2,.73,2.74,1.05a14.44,14.44,0,0,1,2.35,1.37,5.65,5.65,0,0,1,1.88,2.14,6.3,6.3,0,0,1,.64,2.91v.09a7.2,7.2,0,0,1-2.66,6.09A11.13,11.13,0,0,1,222.2,161.07Z"/></g><path class="cls-3" d="M143.8,293C64.5,293,0,227.3,0,146.5S64.5,0,143.8,0,287.6,65.7,287.6,146.5,223.1,293,143.8,293Zm0-282.6C70.2,10.4,10.2,71.5,10.2,146.5S70.1,282.6,143.8,282.6s133.6-61.1,133.6-136.1S217.5,10.4,143.8,10.4Z"/></g></g></svg>