<svg xmlns="http://www.w3.org/2000/svg" xmlns:xlink="http://www.w3.org/1999/xlink" viewBox="0 0 287.6 293"><defs><style>.cls-1{isolation:isolate;}.cls-2{fill:#eb3796;}.cls-3{fill:url(#Degradado_sin_nombre);}</style><linearGradient id="Degradado_sin_nombre" x1="38.23" y1="820.93" x2="237.06" y2="1019.76" gradientTransform="translate(0 -780)" gradientUnits="userSpaceOnUse"><stop offset="0" stop-color="#eb3796"/><stop offset="1" stop-color="#873299"/></linearGradient></defs><title>icon-good5</title><g id="Capa_2" data-name="Capa 2"><g id="Layer_1" data-name="Layer 1"><g class="cls-1"><path class="cls-2" d="M32.36,161.06a10.4,10.4,0,0,1-10.61-10.53v-.07a10.49,10.49,0,0,1,10.68-10.6,10.42,10.42,0,0,1,7,2.28,2.4,2.4,0,0,1,.91,2,2.49,2.49,0,0,1-.76,1.83,2.57,2.57,0,0,1-1.86.76,2.65,2.65,0,0,1-1.68-.57,5.77,5.77,0,0,0-3.61-1.29,4.47,4.47,0,0,0-3.53,1.63,5.78,5.78,0,0,0-1.41,3.91v.08a5.86,5.86,0,0,0,1.43,4,4.74,4.74,0,0,0,3.74,1.61,6.06,6.06,0,0,0,3.8-1.4,2.55,2.55,0,0,1,1.56-.54,2.34,2.34,0,0,1,1.73.73,2.47,2.47,0,0,1-.13,3.57A10.35,10.35,0,0,1,32.36,161.06Z"/><path class="cls-2" d="M61.75,158a10.89,10.89,0,0,1-7.89,3.08A10.77,10.77,0,0,1,46,158a10,10,0,0,1-3.14-7.47v-.07a10.09,10.09,0,0,1,3.18-7.53,10.86,10.86,0,0,1,7.88-3.07,10.79,10.79,0,0,1,7.85,3.06,10,10,0,0,1,3.13,7.46v.08A10.09,10.09,0,0,1,61.75,158Zm-7.81-1.9a4.93,4.93,0,0,0,3.84-1.59,5.7,5.7,0,0,0,1.44-4v-.07a5.69,5.69,0,0,0-1.5-4,5.37,5.37,0,0,0-7.69-.06,5.63,5.63,0,0,0-1.45,3.95v.08a5.71,5.71,0,0,0,1.5,4A5,5,0,0,0,53.94,156.08Z"/><path class="cls-2" d="M69.1,157.94v-15a2.89,2.89,0,1,1,5.78,0v.91a8.66,8.66,0,0,1,1.71-2.72,3,3,0,0,1,2.2-1.08,2.71,2.71,0,0,1,2.07.78,2.79,2.79,0,0,1,.74,2,2.62,2.62,0,0,1-.6,1.79,3,3,0,0,1-1.56.91q-4.56,1.06-4.56,7v5.39a2.89,2.89,0,1,1-5.78,0Z"/><path class="cls-2" d="M85,164V142.9A2.84,2.84,0,0,1,87.87,140a2.84,2.84,0,0,1,2.89,2.89v.26a7.54,7.54,0,0,1,6.35-3.3,8.75,8.75,0,0,1,6.53,2.83,10.58,10.58,0,0,1,2.74,7.69v.08a10.64,10.64,0,0,1-2.72,7.69A8.73,8.73,0,0,1,97.11,161a7.94,7.94,0,0,1-6.35-3V164a2.91,2.91,0,0,1-4.94,2.06A2.78,2.78,0,0,1,85,164Zm7.12-9.51a4.55,4.55,0,0,0,3.52,1.57,4.62,4.62,0,0,0,3.53-1.56,5.73,5.73,0,0,0,1.44-4.06v-.08a5.76,5.76,0,0,0-1.44-4,4.58,4.58,0,0,0-3.53-1.58,4.53,4.53,0,0,0-3.52,1.58,5.79,5.79,0,0,0-1.42,4v.08A5.82,5.82,0,0,0,92.11,154.51Z"/><path class="cls-2" d="M128.51,158a11.61,11.61,0,0,1-15.73,0,10,10,0,0,1-3.13-7.47v-.07a10.11,10.11,0,0,1,3.17-7.53,10.89,10.89,0,0,1,7.89-3.07,10.77,10.77,0,0,1,7.84,3.06,10,10,0,0,1,3.14,7.46v.08A10.06,10.06,0,0,1,128.51,158Zm-7.8-1.9a4.92,4.92,0,0,0,3.83-1.59,5.66,5.66,0,0,0,1.45-4v-.07a5.69,5.69,0,0,0-1.5-4,5,5,0,0,0-3.86-1.65,4.93,4.93,0,0,0-3.84,1.59,5.67,5.67,0,0,0-1.44,3.95v.08a5.71,5.71,0,0,0,1.5,4A5,5,0,0,0,120.71,156.08Z"/><path class="cls-2" d="M135.87,157.94v-15a2.89,2.89,0,1,1,5.77,0v.91a9,9,0,0,1,1.71-2.72,3,3,0,0,1,2.21-1.08,2.74,2.74,0,0,1,2.07.78,2.83,2.83,0,0,1,.74,2,2.58,2.58,0,0,1-.61,1.79,2.93,2.93,0,0,1-1.56.91q-4.56,1.06-4.56,7v5.39a2.89,2.89,0,1,1-5.77,0Z"/><path class="cls-2" d="M156.58,161a7.59,7.59,0,0,1-5-1.65,5.62,5.62,0,0,1-2-4.58v-.07a5.66,5.66,0,0,1,2.22-4.87,9.88,9.88,0,0,1,6-1.63,15.39,15.39,0,0,1,5,.83v-.34c0-2.48-1.45-3.72-4.37-3.72a13.36,13.36,0,0,0-4,.57,2.66,2.66,0,0,1-.83.15,2.38,2.38,0,0,1-1.7-.68,2.35,2.35,0,0,1-.26-3,2.42,2.42,0,0,1,1.12-.88,18.5,18.5,0,0,1,6.5-1.06c3.06,0,5.36.76,6.88,2.28s2.2,3.63,2.2,6.5v9.27a2.63,2.63,0,0,1-.82,2,2.71,2.71,0,0,1-2,.8,2.84,2.84,0,0,1-2-.72,2.22,2.22,0,0,1-.78-1.67v0A7.85,7.85,0,0,1,156.58,161Zm1.75-4a5,5,0,0,0,3.26-1,3.15,3.15,0,0,0,1.26-2.57v-1a8.6,8.6,0,0,0-3.69-.76,5.13,5.13,0,0,0-2.92.72,2.37,2.37,0,0,0-1.07,2.09v.07a2.14,2.14,0,0,0,.88,1.81A3.67,3.67,0,0,0,158.33,157Z"/><path class="cls-2" d="M180,161a6.35,6.35,0,0,1-4.39-1.39c-1-.93-1.54-2.5-1.54-4.73v-9.65h-.19a2.48,2.48,0,0,1-2.47-2.47,2.46,2.46,0,0,1,2.47-2.47h.19v-2.55a2.89,2.89,0,0,1,5.77,0v2.55h2.55a2.47,2.47,0,0,1,1.75,4.21,2.36,2.36,0,0,1-1.75.73h-2.55v8.7c0,1.32.62,2,1.87,2h.38l.3,0a2.39,2.39,0,0,1,2.39,2.39,2.2,2.2,0,0,1-.43,1.35,2.37,2.37,0,0,1-1.05.82A8.92,8.92,0,0,1,180,161Z"/><path class="cls-2" d="M188.8,135.45v-.08a2.4,2.4,0,0,1,.91-2,4,4,0,0,1,4.64,0,2.37,2.37,0,0,1,.91,2v.08a2.42,2.42,0,0,1-.91,2,3.92,3.92,0,0,1-4.64,0A2.45,2.45,0,0,1,188.8,135.45Zm.34,22.49v-15a2.79,2.79,0,0,1,.86-2.06,2.89,2.89,0,0,1,4.92,2.06v15a2.8,2.8,0,0,1-.85,2.06,2.91,2.91,0,0,1-4.07,0A2.77,2.77,0,0,1,189.14,157.94Z"/><path class="cls-2" d="M218.23,158a11.61,11.61,0,0,1-15.73,0,10,10,0,0,1-3.13-7.47v-.07a10.08,10.08,0,0,1,3.17-7.53,11.62,11.62,0,0,1,15.73,0,10,10,0,0,1,3.14,7.46v.08A10.06,10.06,0,0,1,218.23,158Zm-7.81-1.9a4.93,4.93,0,0,0,3.84-1.59,5.7,5.7,0,0,0,1.45-4v-.07a5.7,5.7,0,0,0-1.51-4,5.37,5.37,0,0,0-7.69-.06,5.67,5.67,0,0,0-1.44,3.95v.08a5.71,5.71,0,0,0,1.5,4A5,5,0,0,0,210.42,156.08Z"/><path class="cls-2" d="M225.58,157.94v-15a2.85,2.85,0,0,1,2.89-2.89,2.84,2.84,0,0,1,2.89,2.89v.22a7.45,7.45,0,0,1,6-3.26,6.53,6.53,0,0,1,5.09,2,8,8,0,0,1,1.82,5.55v10.52a2.76,2.76,0,0,1-.85,2.06,2.91,2.91,0,0,1-4.07,0,2.76,2.76,0,0,1-.85-2.06v-8.7a4.66,4.66,0,0,0-.91-3.08A3.25,3.25,0,0,0,235,145.1a3.43,3.43,0,0,0-2.64,1.06,4.41,4.41,0,0,0-1,3.08v8.7a2.91,2.91,0,0,1-4.94,2.06A2.79,2.79,0,0,1,225.58,157.94Z"/><path class="cls-2" d="M256.4,161a13.87,13.87,0,0,1-7.67-2.31,2.3,2.3,0,0,1-.44-3.59,2.17,2.17,0,0,1,1.61-.67,2.07,2.07,0,0,1,1.14.31,10.57,10.57,0,0,0,5.51,1.82c1.63,0,2.44-.51,2.44-1.52v-.08a1.31,1.31,0,0,0-.06-.38.88.88,0,0,0-.21-.34,2.79,2.79,0,0,0-.32-.28,2.66,2.66,0,0,0-.46-.27l-.49-.23-.59-.23-.65-.2-.72-.21-.72-.21a21.89,21.89,0,0,1-2.21-.78,11.3,11.3,0,0,1-1.88-1.09A4.45,4.45,0,0,1,249.2,149a5.77,5.77,0,0,1-.51-2.49v-.08a5.76,5.76,0,0,1,2.13-4.73,8.16,8.16,0,0,1,5.32-1.73,13.93,13.93,0,0,1,6.3,1.56,2.27,2.27,0,0,1,1.37,2.17,2.2,2.2,0,0,1-.66,1.61,2.25,2.25,0,0,1-1.66.67,2.32,2.32,0,0,1-1.06-.27,10.65,10.65,0,0,0-4.41-1.29,2.66,2.66,0,0,0-1.58.4,1.2,1.2,0,0,0-.55,1v.08c0,.69,1.17,1.42,3.5,2.2.28.11.49.18.65.23.88.31,1.62.59,2.22.86a11.33,11.33,0,0,1,1.9,1.1,4.64,4.64,0,0,1,1.52,1.73,5.22,5.22,0,0,1,.51,2.36v.07a5.82,5.82,0,0,1-2.14,4.92A9.05,9.05,0,0,1,256.4,161Z"/></g><path class="cls-3" d="M143.8,293C64.5,293,0,227.3,0,146.5S64.5,0,143.8,0,287.6,65.7,287.6,146.5,223.1,293,143.8,293Zm0-282.6C70.2,10.4,10.2,71.5,10.2,146.5S70.1,282.6,143.8,282.6s133.6-61.1,133.6-136.1S217.5,10.4,143.8,10.4Z"/></g></g></svg>