<?xml version="1.0" encoding="utf-8"?>
<!-- Generator: Adobe Illustrator 21.0.2, SVG Export Plug-In . SVG Version: 6.00 Build 0)  -->
<svg version="1.1" id="Layer_1" xmlns="http://www.w3.org/2000/svg" xmlns:xlink="http://www.w3.org/1999/xlink" x="0px" y="0px"
	 viewBox="0 0 244.8 244.8" style="enable-background:new 0 0 244.8 244.8;" xml:space="preserve">
<style type="text/css">
	.st0{fill:url(#SVGID_1_);}
	.st1{fill:url(#SVGID_2_);}
	.st2{fill:url(#SVGID_3_);}
	.st3{fill:url(#SVGID_4_);}
	.st4{fill:url(#SVGID_5_);}
	.st5{fill:url(#SVGID_6_);}
	.st6{fill:url(#SVGID_7_);}
</style>
<g>
	<linearGradient id="SVGID_1_" gradientUnits="userSpaceOnUse" x1="-10.5482" y1="206.5186" x2="202.5356" y2="206.5186">
		<stop  offset="0" style="stop-color:#EB3796"/>
		<stop  offset="1" style="stop-color:#873299"/>
	</linearGradient>
	<path class="st0" d="M97.7,200.8c-3.3,0-5.3,2.6-5.3,5.6v0.1c0,3,2.2,5.7,5.4,5.7c3.3,0,5.3-2.6,5.3-5.6v-0.1
		C103.2,203.5,101,200.8,97.7,200.8z"/>
	<linearGradient id="SVGID_2_" gradientUnits="userSpaceOnUse" x1="-10.5483" y1="206.4799" x2="202.5358" y2="206.4799">
		<stop  offset="0" style="stop-color:#EB3796"/>
		<stop  offset="1" style="stop-color:#873299"/>
	</linearGradient>
	<path class="st1" d="M72.6,200.8c-2.7,0-5,2.2-5,5.7v0.1c0,3.4,2.3,5.7,5,5.7c2.7,0,5-2.3,5-5.7v-0.1
		C77.6,203,75.3,200.8,72.6,200.8z"/>
	<linearGradient id="SVGID_3_" gradientUnits="userSpaceOnUse" x1="-10.5489" y1="115.4221" x2="202.5361" y2="115.4221">
		<stop  offset="0" style="stop-color:#EB3796"/>
		<stop  offset="1" style="stop-color:#873299"/>
	</linearGradient>
	<path class="st2" d="M109.2,120.2h8.2v8c0,2.7,2.2,4.9,4.9,4.9c2.7,0,4.9-2.2,4.9-4.9v-8h8.2c2.6,0,4.8-2.2,4.8-4.8
		c0-2.6-2.2-4.8-4.8-4.8h-8.2v-8c0-2.7-2.2-4.9-4.9-4.9c-2.7,0-4.9,2.2-4.9,4.9v8h-8.2c-2.6,0-4.8,2.2-4.8,4.8
		C104.4,118.1,106.6,120.2,109.2,120.2z"/>
	<linearGradient id="SVGID_4_" gradientUnits="userSpaceOnUse" x1="-10.5495" y1="25.8526" x2="202.5371" y2="25.8526">
		<stop  offset="0" style="stop-color:#EB3796"/>
		<stop  offset="1" style="stop-color:#873299"/>
	</linearGradient>
	<polygon class="st3" points="117.4,22.4 111.5,29.3 117.4,29.3 	"/>
	<linearGradient id="SVGID_5_" gradientUnits="userSpaceOnUse" x1="-10.5482" y1="170.3712" x2="202.5359" y2="170.3712">
		<stop  offset="0" style="stop-color:#EB3796"/>
		<stop  offset="1" style="stop-color:#873299"/>
	</linearGradient>
	<circle class="st4" cx="122.4" cy="170.4" r="6.2"/>
	<linearGradient id="SVGID_6_" gradientUnits="userSpaceOnUse" x1="-10.5484" y1="122.3462" x2="202.5363" y2="122.3462">
		<stop  offset="0" style="stop-color:#EB3796"/>
		<stop  offset="1" style="stop-color:#873299"/>
	</linearGradient>
	<path class="st5" d="M122.4,2.2C56,2.2,2.2,56,2.2,122.3c0,66.4,53.8,120.2,120.2,120.2c66.4,0,120.2-53.8,120.2-120.2
		C242.6,56,188.8,2.2,122.4,2.2z M143.5,15.8h12.1c1.4,0,2.2,0.8,2.2,2.2c0,0.7-0.3,1.6-0.7,2.4l-8.9,16.2c-0.6,1.2-1.4,1.7-2.4,1.7
		c-1.3,0-2.5-0.8-2.5-2.2c0-0.4,0.2-1.1,0.4-1.5l8.3-14.5h-8.5c-1.2,0-2.1-0.9-2.1-2.1C141.3,16.8,142.3,15.8,143.5,15.8z
		 M138.9,12.5c1,0,1.9,0.9,1.9,1.8c0,0.3-0.1,0.7-0.2,0.9l-12.4,26c-0.3,0.7-0.9,1.1-1.7,1.1c-1,0-1.9-0.9-1.9-1.8
		c0-0.3,0.1-0.7,0.2-0.9l12.4-26C137.5,12.9,138.1,12.5,138.9,12.5z M107,28.4l9.7-11.2c0.9-1.1,1.6-1.7,3.1-1.7
		c1.3,0,2.4,1,2.4,2.3v11.5h1.2c1.1,0,2,0.9,2,2c0,1.1-0.9,2-2,2h-1.2V36c0,1.3-1,2.3-2.4,2.3c-1.3,0-2.3-1-2.3-2.3v-2.7h-9.2
		c-1.3,0-2.4-1-2.4-2.3C105.9,30,106.3,29.2,107,28.4z M96.9,19.9c-1.4,0-2.4,0.6-3.6,1.9c-0.3,0.3-0.9,0.7-1.7,0.7
		c-1.2,0-2.2-1-2.2-2.2c0-0.5,0.2-1.1,0.6-1.5c1.8-2.1,3.9-3.3,7.2-3.3c4.6,0,7.7,2.7,7.7,6.9v0.1c0,3.7-1.9,5.6-5.8,8.6l-3.6,2.8
		h7.8c1.2,0,2.1,1,2.1,2.1c0,1.2-1,2.1-2.1,2.1H91c-1.5,0-2.6-0.9-2.6-2.3c0-1,0.4-1.8,1.3-2.4l6.3-5.2c2.8-2.3,3.8-3.5,3.8-5.3
		C99.8,20.9,98.6,19.9,96.9,19.9z M84.8,51.1c0-2.7,2.2-4.9,4.9-4.9l65.3,0c2.7,0,4.9,2.2,4.9,4.9l0,27.8c-0.3-0.3-0.6-0.6-1-0.8
		c-2.1-1.7-4.4-3-6.9-4l0-16.4l-59.4,0l0,16.4c-2.5,1-4.8,2.3-6.9,4c-0.3,0.3-0.6,0.5-1,0.8L84.8,51.1z M89.8,83.1
		c0.9-0.7,1.8-1.4,2.8-1.9c-0.1,0-0.1,0.1-0.2,0.1c0.1-0.1,0.2-0.1,0.3-0.2v0c8.1-4.5,18.5-2.7,24.6,4.8l5.1,6.3l5.1-6.3
		c6.1-7.4,16.5-9.3,24.6-4.8v0c0.1,0,0.2,0.1,0.2,0.1c0.9,0.5,1.8,1.1,2.6,1.8c8.4,6.8,9.6,19.1,2.8,27.4l-32.4,40.1
		c-1.5,1.9-4.4,1.9-6,0L87,110.5C80.2,102.2,81.5,89.9,89.8,83.1z M83.4,214.1c0,1.6-1.3,2.9-2.9,2.9c-1.6,0-2.9-1.3-2.9-2.9v-0.3
		c-1.4,1.9-3.4,3.3-6.4,3.3c-4.8,0-9.4-3.8-9.4-10.6v-0.1c0-6.9,4.5-10.6,9.4-10.6c3.1,0,5,1.4,6.4,3.1v-7.5c0-1.6,1.3-2.9,2.9-2.9
		c1.6,0,2.9,1.3,2.9,2.9V214.1z M84.8,176.3l0-58.3l7.9,9.7l0,33.8l59.4,0l0-33.8l7.9-9.8l0,58.3c0,2.7-2.2,4.9-4.9,4.9l-65.3,0
		C87,181.2,84.8,179,84.8,176.3z M108.9,206.5c0,5.9-4.8,10.7-11.2,10.7c-6.4,0-11.1-4.7-11.1-10.6v-0.1c0-5.9,4.8-10.7,11.2-10.7
		C104.2,195.8,108.9,200.5,108.9,206.5L108.9,206.5z M129.2,214.6c-1.7,1.6-3.9,2.7-7.3,2.7c-6.2,0-10.7-4.8-10.7-10.6v-0.1
		c0-5.9,4.5-10.7,10.8-10.7c3.1,0,5.3,0.8,7,2.3c0.4,0.3,0.9,1,0.9,2c0,1.5-1.2,2.6-2.7,2.6c-0.8,0-1.3-0.3-1.7-0.6
		c-1-0.8-2.1-1.3-3.6-1.3c-2.9,0-5,2.6-5,5.6v0.1c0,3.2,2,5.7,5.2,5.7c1.5,0,2.7-0.5,3.8-1.4c0.3-0.2,0.9-0.5,1.6-0.5
		c1.4,0,2.5,1.1,2.5,2.5C130,213.5,129.7,214.1,129.2,214.6z M141.8,212c0.2,0,0.6,0,0.7,0c1.3,0,2.4,1.1,2.4,2.4
		c0,1-0.7,1.9-1.5,2.2c-1.1,0.4-2.1,0.6-3.3,0.6c-3.6,0-6-1.4-6-6.2v-9.8h-0.2c-1.4,0-2.5-1.1-2.5-2.5c0-1.4,1.1-2.5,2.5-2.5h0.2
		v-2.6c0-1.6,1.3-2.9,2.9-2.9c1.6,0,2.9,1.3,2.9,2.9v2.6h2.6c1.4,0,2.5,1.1,2.5,2.5c0,1.4-1.1,2.5-2.5,2.5h-2.6v8.8
		C139.9,211.3,140.5,212,141.8,212z M168.8,206.5c0,5.9-4.8,10.7-11.2,10.7c-6.4,0-11.1-4.7-11.1-10.6v-0.1
		c0-5.9,4.8-10.7,11.2-10.7C164.1,195.8,168.8,200.5,168.8,206.5L168.8,206.5z M182.5,201.5c-3,0.7-4.6,3-4.6,7.1v5.5
		c0,1.6-1.3,2.9-2.9,2.9s-2.9-1.3-2.9-2.9v-15.2c0-1.6,1.3-2.9,2.9-2.9s2.9,1.3,2.9,2.9v0.9c0.8-2,2.2-3.8,4-3.8
		c1.8,0,2.8,1.2,2.8,2.8C184.7,200.3,183.7,201.3,182.5,201.5z"/>
	<linearGradient id="SVGID_7_" gradientUnits="userSpaceOnUse" x1="-10.5481" y1="206.5186" x2="202.5356" y2="206.5186">
		<stop  offset="0" style="stop-color:#EB3796"/>
		<stop  offset="1" style="stop-color:#873299"/>
	</linearGradient>
	<path class="st6" d="M157.7,200.8c-3.3,0-5.3,2.6-5.3,5.6v0.1c0,3,2.2,5.7,5.4,5.7c3.3,0,5.3-2.6,5.3-5.6v-0.1
		C163.1,203.5,160.9,200.8,157.7,200.8z"/>
</g>
</svg>
