<svg xmlns="http://www.w3.org/2000/svg" xmlns:xlink="http://www.w3.org/1999/xlink" viewBox="0 0 287.6 293"><defs><style>.cls-1{isolation:isolate;}.cls-2{fill:#eb3796;}.cls-3{fill:url(#Degradado_sin_nombre);}</style><linearGradient id="Degradado_sin_nombre" x1="38.23" y1="820.93" x2="237.06" y2="1019.76" gradientTransform="translate(0 -780)" gradientUnits="userSpaceOnUse"><stop offset="0" stop-color="#eb3796"/><stop offset="1" stop-color="#873299"/></linearGradient></defs><title>icon-good3</title><g id="Capa_2" data-name="Capa 2"><g id="Layer_1" data-name="Layer 1"><g class="cls-1"><path class="cls-2" d="M52.68,157.31V129.59a3.39,3.39,0,0,1,1.06-2.54,3.46,3.46,0,0,1,2.51-1,3.5,3.5,0,0,1,2.52,1,3.42,3.42,0,0,1,1,2.54v27.72a3.42,3.42,0,0,1-1,2.54,3.5,3.5,0,0,1-2.52,1,3.46,3.46,0,0,1-2.51-1A3.39,3.39,0,0,1,52.68,157.31Z"/><path class="cls-2" d="M66.45,129.49v-.09A3,3,0,0,1,67.58,127a4.92,4.92,0,0,1,5.73,0,3,3,0,0,1,1.13,2.42v.09a3,3,0,0,1-1.13,2.44,4.8,4.8,0,0,1-5.73,0A3,3,0,0,1,66.45,129.49Zm.42,27.82V138.7a3.4,3.4,0,0,1,1.06-2.53,3.56,3.56,0,0,1,5,0A3.4,3.4,0,0,1,74,138.7v18.61A3.43,3.43,0,0,1,73,159.85a3.56,3.56,0,0,1-5,0A3.43,3.43,0,0,1,66.87,157.31Z"/><path class="cls-2" d="M92.63,161.17a12.86,12.86,0,0,1-13.12-13v-.09a13,13,0,0,1,13.21-13.12,12.85,12.85,0,0,1,8.6,2.82,3,3,0,0,1,1.13,2.45,3.05,3.05,0,0,1-.94,2.25,3.12,3.12,0,0,1-2.3.94,3.22,3.22,0,0,1-2.07-.7,7.15,7.15,0,0,0-4.47-1.6,5.52,5.52,0,0,0-4.37,2A7.17,7.17,0,0,0,86.56,148v.1A7.19,7.19,0,0,0,88.33,153,5.85,5.85,0,0,0,93,155a7.49,7.49,0,0,0,4.7-1.74,3.15,3.15,0,0,1,1.92-.66,2.85,2.85,0,0,1,2.14.9,3.05,3.05,0,0,1-.16,4.42A12.79,12.79,0,0,1,92.63,161.17Z"/><path class="cls-2" d="M127.55,158.11a14.05,14.05,0,0,1-18.19-.58,12.56,12.56,0,0,1-3.71-9.38v-.09a13.2,13.2,0,0,1,3.52-9.31,11.64,11.64,0,0,1,8.93-3.81,12.57,12.57,0,0,1,5.43,1.15,10.39,10.39,0,0,1,3.83,3A14.11,14.11,0,0,1,129.5,143a12.29,12.29,0,0,1,.73,4.11,3.34,3.34,0,0,1-1,2.47,3.22,3.22,0,0,1-2.37,1H112.74a6.17,6.17,0,0,0,2.12,3.67,6.31,6.31,0,0,0,4,1.26,8.38,8.38,0,0,0,5.08-1.69,2.85,2.85,0,0,1,1.74-.56,2.68,2.68,0,0,1,2,.8,2.89,2.89,0,0,1-.14,4.13ZM112.65,146h10.76a6.88,6.88,0,0,0-1.71-3.9,4.76,4.76,0,0,0-3.6-1.45,4.84,4.84,0,0,0-3.59,1.43A7,7,0,0,0,112.65,146Z"/><path class="cls-2" d="M135.68,157.31V138.7a3.42,3.42,0,0,1,1-2.53,3.62,3.62,0,0,1,5.08,0,3.42,3.42,0,0,1,1,2.53V139q3.15-4,7.38-4a8.06,8.06,0,0,1,6.3,2.49,9.88,9.88,0,0,1,2.26,6.87v13a3.43,3.43,0,0,1-1.06,2.54,3.5,3.5,0,0,1-2.52,1,3.46,3.46,0,0,1-2.51-1,3.39,3.39,0,0,1-1.06-2.54V146.55a5.62,5.62,0,0,0-1.13-3.8,4,4,0,0,0-3.19-1.32,4.2,4.2,0,0,0-3.27,1.32,5.43,5.43,0,0,0-1.2,3.8v10.76a3.57,3.57,0,1,1-7.14,0Z"/><path class="cls-2" d="M173.79,161.07a17.13,17.13,0,0,1-9.49-2.86,2.72,2.72,0,0,1-1.36-2.45,2.69,2.69,0,0,1,.82-2,2.72,2.72,0,0,1,2-.83,2.66,2.66,0,0,1,1.41.38,13,13,0,0,0,6.81,2.26c2,0,3-.63,3-1.88v-.1a1.58,1.58,0,0,0-.07-.47,1,1,0,0,0-.26-.42,3.34,3.34,0,0,0-.4-.35,3.07,3.07,0,0,0-.56-.33l-.61-.28c-.18-.08-.42-.18-.73-.29s-.58-.19-.8-.25l-.89-.26-.9-.26a22.51,22.51,0,0,1-2.72-1,12.56,12.56,0,0,1-2.33-1.34,5.46,5.46,0,0,1-1.83-2.18,7.15,7.15,0,0,1-.64-3.08V143a7.14,7.14,0,0,1,2.64-5.86,10.1,10.1,0,0,1,6.58-2.13,17.33,17.33,0,0,1,7.8,1.92,2.81,2.81,0,0,1,1.69,2.68,2.71,2.71,0,0,1-.82,2,2.77,2.77,0,0,1-2,.82,2.89,2.89,0,0,1-1.31-.33,13.26,13.26,0,0,0-5.46-1.59,3.31,3.31,0,0,0-1.95.49,1.49,1.49,0,0,0-.68,1.24v.1c0,.85,1.44,1.75,4.33,2.72l.8.29c1.09.37,2,.73,2.75,1.05a15.33,15.33,0,0,1,2.35,1.37,5.83,5.83,0,0,1,1.88,2.14,6.42,6.42,0,0,1,.63,2.91v.09a7.2,7.2,0,0,1-2.66,6.09A11.13,11.13,0,0,1,173.79,161.07Z"/><path class="cls-2" d="M209.23,158.11a14.05,14.05,0,0,1-18.19-.58,12.6,12.6,0,0,1-3.71-9.38v-.09a13.2,13.2,0,0,1,3.53-9.31,11.63,11.63,0,0,1,8.93-3.81,12.56,12.56,0,0,1,5.42,1.15,10.31,10.31,0,0,1,3.83,3,13.86,13.86,0,0,1,2.14,3.88,12,12,0,0,1,.73,4.11,3.37,3.37,0,0,1-1,2.47,3.24,3.24,0,0,1-2.38,1H194.43a6.16,6.16,0,0,0,2.11,3.67,6.33,6.33,0,0,0,4,1.26,8.38,8.38,0,0,0,5.08-1.69,2.85,2.85,0,0,1,1.74-.56,2.83,2.83,0,0,1,1.83,4.93ZM194.33,146H205.1a6.82,6.82,0,0,0-1.72-3.9,4.72,4.72,0,0,0-3.59-1.45,4.86,4.86,0,0,0-3.6,1.43A7.08,7.08,0,0,0,194.33,146Z"/><path class="cls-2" d="M226.2,161.07a17.17,17.17,0,0,1-9.5-2.86,2.84,2.84,0,0,1,1.46-5.27,2.66,2.66,0,0,1,1.41.38,13.06,13.06,0,0,0,6.82,2.26c2,0,3-.63,3-1.88v-.1a1.6,1.6,0,0,0-.08-.47,1,1,0,0,0-.25-.42,4.36,4.36,0,0,0-.4-.35,2.87,2.87,0,0,0-.57-.33l-.61-.28a7.33,7.33,0,0,0-.73-.29c-.31-.11-.58-.19-.8-.25l-.89-.26-.89-.26a22.1,22.1,0,0,1-2.73-1,12.19,12.19,0,0,1-2.32-1.34,5.57,5.57,0,0,1-1.84-2.18,7.15,7.15,0,0,1-.63-3.08V143a7.13,7.13,0,0,1,2.63-5.86,10.12,10.12,0,0,1,6.58-2.13,17.33,17.33,0,0,1,7.8,1.92,2.81,2.81,0,0,1,1.69,2.68,2.71,2.71,0,0,1-.82,2,2.77,2.77,0,0,1-2,.82,2.93,2.93,0,0,1-1.32-.33,13.22,13.22,0,0,0-5.45-1.59,3.27,3.27,0,0,0-1.95.49,1.46,1.46,0,0,0-.68,1.24v.1c0,.85,1.44,1.75,4.32,2.72l.8.29c1.1.37,2,.73,2.75,1.05a14.87,14.87,0,0,1,2.35,1.37,5.65,5.65,0,0,1,1.88,2.14,6.42,6.42,0,0,1,.63,2.91v.09a7.2,7.2,0,0,1-2.65,6.09A11.15,11.15,0,0,1,226.2,161.07Z"/></g><path class="cls-3" d="M143.8,293C64.5,293,0,227.3,0,146.5S64.5,0,143.8,0,287.6,65.7,287.6,146.5,223.1,293,143.8,293Zm0-282.6C70.2,10.4,10.2,71.5,10.2,146.5S70.1,282.6,143.8,282.6s133.6-61.1,133.6-136.1S217.5,10.4,143.8,10.4Z"/></g></g></svg>