<?xml version="1.0" encoding="utf-8"?>
<!-- Generator: Adobe Illustrator 21.0.2, SVG Export Plug-In . SVG Version: 6.00 Build 0)  -->
<svg version="1.1" id="Layer_1" xmlns="http://www.w3.org/2000/svg" xmlns:xlink="http://www.w3.org/1999/xlink" x="0px" y="0px"
	 viewBox="0 0 244.8 244.8" style="enable-background:new 0 0 244.8 244.8;" xml:space="preserve">
<style type="text/css">
	.st0{fill:url(#SVGID_1_);}
	.st1{fill:url(#SVGID_2_);}
	.st2{fill:url(#SVGID_3_);}
	.st3{fill:url(#SVGID_4_);}
	.st4{fill:url(#SVGID_5_);}
	.st5{fill:url(#SVGID_6_);}
	.st6{fill:url(#SVGID_7_);}
	.st7{fill:url(#SVGID_8_);}
	.st8{fill:url(#SVGID_9_);}
	.st9{fill:url(#SVGID_10_);}
	.st10{fill:url(#SVGID_11_);}
	.st11{fill:url(#SVGID_12_);}
	.st12{fill:url(#SVGID_13_);}
	.st13{fill:url(#SVGID_14_);}
	.st14{fill:url(#SVGID_15_);}
	.st15{fill:url(#SVGID_16_);}
</style>
<g>
	<g>
		<linearGradient id="SVGID_1_" gradientUnits="userSpaceOnUse" x1="-1.636654e-02" y1="151.1581" x2="238.0716" y2="151.1581">
			<stop  offset="0" style="stop-color:#EB3796"/>
			<stop  offset="1" style="stop-color:#873299"/>
		</linearGradient>
		<polygon class="st0" points="79.4,158.7 92.4,158.7 85.9,143.7 		"/>
		<linearGradient id="SVGID_2_" gradientUnits="userSpaceOnUse" x1="-1.648820e-02" y1="148.9057" x2="238.0717" y2="148.9057">
			<stop  offset="0" style="stop-color:#EB3796"/>
			<stop  offset="1" style="stop-color:#873299"/>
		</linearGradient>
		<path class="st1" d="M133.4,149v-0.1c0-4.3-3.1-6.6-8-6.6h-7.6v13.4h7.6C130.3,155.6,133.4,152.8,133.4,149z"/>
		<linearGradient id="SVGID_3_" gradientUnits="userSpaceOnUse" x1="-1.660424e-02" y1="202.0419" x2="238.0726" y2="202.0419">
			<stop  offset="0" style="stop-color:#EB3796"/>
			<stop  offset="1" style="stop-color:#873299"/>
		</linearGradient>
		<path class="st2" d="M97.5,194c-4.7,0-7.5,3.6-7.5,7.9v0.1c0,4.3,3.1,8,7.7,8c4.7,0,7.5-3.6,7.5-7.9V202
			C105.1,197.8,102,194,97.5,194z"/>
		<linearGradient id="SVGID_4_" gradientUnits="userSpaceOnUse" x1="-1.717421e-02" y1="207.5528" x2="238.072" y2="207.5528">
			<stop  offset="0" style="stop-color:#EB3796"/>
			<stop  offset="1" style="stop-color:#873299"/>
		</linearGradient>
		<path class="st3" d="M125,207.7v0.1c0,2.2,1.8,3.5,4.5,3.5c3.9,0,6.5-2.1,6.5-5.1v-1.5c-1.4-0.7-3.3-1.1-5.3-1.1
			C127.1,203.7,125,205.1,125,207.7z"/>
		<linearGradient id="SVGID_5_" gradientUnits="userSpaceOnUse" x1="-1.494983e-02" y1="67.4605" x2="238.0713" y2="67.4605">
			<stop  offset="0" style="stop-color:#EB3796"/>
			<stop  offset="1" style="stop-color:#873299"/>
		</linearGradient>
		<ellipse class="st4" cx="150.6" cy="67.5" rx="4.3" ry="3.9"/>
		<linearGradient id="SVGID_6_" gradientUnits="userSpaceOnUse" x1="-1.634567e-02" y1="82.6654" x2="238.0723" y2="82.6654">
			<stop  offset="0" style="stop-color:#EB3796"/>
			<stop  offset="1" style="stop-color:#873299"/>
		</linearGradient>
		<path class="st5" d="M119.4,82.8c0-18.1-14.7-32.7-32.7-32.7c-18.1,0-32.8,14.7-32.8,32.7c0,17.9,14.7,32.5,32.8,32.5
			C104.7,115.3,119.4,100.7,119.4,82.8z"/>
		<linearGradient id="SVGID_7_" gradientUnits="userSpaceOnUse" x1="-1.733737e-02" y1="98.1129" x2="238.0724" y2="98.1129">
			<stop  offset="0" style="stop-color:#EB3796"/>
			<stop  offset="1" style="stop-color:#873299"/>
		</linearGradient>
		<ellipse class="st6" cx="184.5" cy="98.1" rx="4.3" ry="3.9"/>
		<linearGradient id="SVGID_8_" gradientUnits="userSpaceOnUse" x1="-1.632630e-02" y1="122.395" x2="238.0723" y2="122.395">
			<stop  offset="0" style="stop-color:#EB3796"/>
			<stop  offset="1" style="stop-color:#873299"/>
		</linearGradient>
		<path class="st7" d="M122.4,1.9C55.9,1.9,1.9,55.9,1.9,122.4c0,66.5,53.9,120.5,120.5,120.5c66.5,0,120.5-53.9,120.5-120.5
			C242.9,55.9,188.9,1.9,122.4,1.9z M150.6,57.7c6,0,10.9,4.4,10.9,9.7c0,5.4-4.9,9.7-10.9,9.7c-6,0-10.9-4.4-10.9-9.7
			C139.7,62.1,144.6,57.7,150.6,57.7z M39.5,82.8c0-26,21.1-47.2,47.2-47.2c26,0,47.2,21.2,47.2,47.2c0,26-21.2,47.2-47.2,47.2
			C60.6,130,39.5,108.8,39.5,82.8z M76,212.7c0,2.3-1.8,4.1-4.1,4.1c-2.3,0-4.1-1.8-4.1-4.1v-32c0-2.3,1.8-4.1,4.1-4.1
			c2.3,0,4.1,1.8,4.1,4.1V212.7z M73.8,171.6c-0.5,1.3-1.6,2.1-3,2.1c-1.7,0-3-1.3-3-3c0-0.5,0.2-1,0.4-1.5l13.8-30.7
			c0.7-1.6,2.1-2.7,3.9-2.7h0.3c1.9,0,3.1,1,3.9,2.7l13.8,30.7c0.3,0.5,0.4,1,0.4,1.4c0,1.7-1.3,3.1-3.1,3.1c-1.5,0-2.6-0.9-3.2-2.3
			l-3-6.9h-18L73.8,171.6z M113.3,202c0,8.4-6.7,15.1-15.8,15.1c-9,0-15.7-6.7-15.7-15V202c0-8.4,6.7-15.1,15.8-15.1
			c9,0,15.7,6.7,15.7,15V202z M114.5,173.7c-1.9,0-3.3-1.4-3.3-3.2v-30.8c0-1.9,1.4-3.3,3.3-3.3h11.3c8.7,0,14.1,4.9,14.1,12.4v0.1
			c0,8.3-6.7,12.7-14.8,12.7h-7.4v9C117.8,172.2,116.3,173.7,114.5,173.7z M143.7,212.9c0,2.2-1.8,4-4,4c-2.4,0-4-1.7-4-3.4v-0.1
			c-2,2.2-4.8,3.7-8.8,3.7c-5.5,0-10-3.1-10-8.9v-0.1c0-6.4,4.8-9.3,11.7-9.3c2.9,0,5,0.5,7.1,1.2v-0.5c0-3.4-2.1-5.3-6.2-5.3
			c-2.3,0-4.1,0.3-5.7,0.8c-0.5,0.2-0.8,0.2-1.2,0.2c-1.9,0-3.4-1.5-3.4-3.4c0-1.5,0.9-2.7,2.2-3.2c2.6-1,5.4-1.5,9.3-1.5
			c4.5,0,7.8,1.2,9.8,3.3c2.2,2.2,3.1,5.4,3.1,9.3V212.9z M141.3,106c-1.5-1.3-1.3-3.8,0.5-5.4l45.7-40.5c1.9-1.6,4.7-1.8,6.2-0.4
			c1.5,1.3,1.3,3.8-0.5,5.4l-45.7,40.5C145.7,107.1,142.9,107.3,141.3,106z M177,212.7c0,2.3-1.8,4.1-4.1,4.1
			c-2.3,0-4.1-1.8-4.1-4.1v-12.4c0-3.9-1.8-5.9-5-5.9c-3.1,0-5.2,2-5.2,5.9v12.4c0,2.3-1.8,4.1-4.1,4.1s-4.1-1.8-4.1-4.1v-21.5
			c0-2.3,1.8-4.1,4.1-4.1s4.1,1.8,4.1,4.1v0.3c1.9-2.4,4.3-4.7,8.5-4.7c6.2,0,9.9,4.1,9.9,10.8V212.7z M177,148.1
			c0,5.9-3.4,9.5-8.4,11.1l7.1,9c0.6,0.8,1.1,1.5,1.1,2.5c0,1.8-1.5,3-3.1,3c-1.5,0-2.4-0.7-3.2-1.7l-9-11.5h-8.2v10
			c0,1.8-1.4,3.2-3.2,3.2c-1.9,0-3.3-1.4-3.3-3.2v-30.8c0-1.9,1.4-3.3,3.3-3.3h13.3c4.7,0,8.3,1.4,10.7,3.7c2,2,3.1,4.8,3.1,8V148.1
			z M184.5,107.9c-6,0-10.9-4.4-10.9-9.7c0-5.4,4.9-9.7,10.9-9.7c6,0,10.9,4.4,10.9,9.7C195.4,103.5,190.5,107.9,184.5,107.9z"/>
		<linearGradient id="SVGID_9_" gradientUnits="userSpaceOnUse" x1="-1.647479e-02" y1="148.4552" x2="238.0717" y2="148.4552">
			<stop  offset="0" style="stop-color:#EB3796"/>
			<stop  offset="1" style="stop-color:#873299"/>
		</linearGradient>
		<path class="st8" d="M162.7,142.2h-9.5v12.5h9.5c4.7,0,7.6-2.4,7.6-6.2v-0.1C170.3,144.4,167.5,142.2,162.7,142.2z"/>
	</g>
</g>
<g>
	<linearGradient id="SVGID_10_" gradientUnits="userSpaceOnUse" x1="713.2869" y1="206.5186" x2="926.3707" y2="206.5186">
		<stop  offset="0" style="stop-color:#EB3796"/>
		<stop  offset="1" style="stop-color:#873299"/>
	</linearGradient>
	<path class="st9" d="M821.6,200.8c-3.3,0-5.3,2.6-5.3,5.6v0.1c0,3,2.2,5.7,5.4,5.7c3.3,0,5.3-2.6,5.3-5.6v-0.1
		C827,203.5,824.8,200.8,821.6,200.8z"/>
	<linearGradient id="SVGID_11_" gradientUnits="userSpaceOnUse" x1="713.2868" y1="206.4799" x2="926.3709" y2="206.4799">
		<stop  offset="0" style="stop-color:#EB3796"/>
		<stop  offset="1" style="stop-color:#873299"/>
	</linearGradient>
	<path class="st10" d="M796.5,200.8c-2.7,0-5,2.2-5,5.7v0.1c0,3.4,2.3,5.7,5,5.7c2.7,0,5-2.3,5-5.7v-0.1
		C801.4,203,799.2,200.8,796.5,200.8z"/>
	<linearGradient id="SVGID_12_" gradientUnits="userSpaceOnUse" x1="713.2862" y1="115.4221" x2="926.3712" y2="115.4221">
		<stop  offset="0" style="stop-color:#EB3796"/>
		<stop  offset="1" style="stop-color:#873299"/>
	</linearGradient>
	<path class="st11" d="M833.1,120.2h8.2v8c0,2.7,2.2,4.9,4.9,4.9c2.7,0,4.9-2.2,4.9-4.9v-8h8.2c2.6,0,4.8-2.2,4.8-4.8
		c0-2.6-2.2-4.8-4.8-4.8h-8.2v-8c0-2.7-2.2-4.9-4.9-4.9c-2.7,0-4.9,2.2-4.9,4.9v8h-8.2c-2.6,0-4.8,2.2-4.8,4.8
		C828.3,118.1,830.4,120.2,833.1,120.2z"/>
	<linearGradient id="SVGID_13_" gradientUnits="userSpaceOnUse" x1="713.2856" y1="25.8526" x2="926.3722" y2="25.8526">
		<stop  offset="0" style="stop-color:#EB3796"/>
		<stop  offset="1" style="stop-color:#873299"/>
	</linearGradient>
	<polygon class="st12" points="841.2,22.4 835.3,29.3 841.2,29.3 	"/>
	<linearGradient id="SVGID_14_" gradientUnits="userSpaceOnUse" x1="713.2869" y1="170.3712" x2="926.371" y2="170.3712">
		<stop  offset="0" style="stop-color:#EB3796"/>
		<stop  offset="1" style="stop-color:#873299"/>
	</linearGradient>
	<circle class="st13" cx="846.2" cy="170.4" r="6.2"/>
	<linearGradient id="SVGID_15_" gradientUnits="userSpaceOnUse" x1="713.2867" y1="122.3462" x2="926.3714" y2="122.3462">
		<stop  offset="0" style="stop-color:#EB3796"/>
		<stop  offset="1" style="stop-color:#873299"/>
	</linearGradient>
	<path class="st14" d="M846.2,2.2C779.8,2.2,726,56,726,122.3c0,66.4,53.8,120.2,120.2,120.2c66.4,0,120.2-53.8,120.2-120.2
		C966.4,56,912.6,2.2,846.2,2.2z M867.3,15.8h12.1c1.4,0,2.2,0.8,2.2,2.2c0,0.7-0.3,1.6-0.7,2.4L872,36.6c-0.6,1.2-1.4,1.7-2.4,1.7
		c-1.3,0-2.5-0.8-2.5-2.2c0-0.4,0.2-1.1,0.4-1.5l8.3-14.5h-8.5c-1.2,0-2.1-0.9-2.1-2.1C865.2,16.8,866.1,15.8,867.3,15.8z
		 M862.7,12.5c1,0,1.9,0.9,1.9,1.8c0,0.3-0.1,0.7-0.2,0.9l-12.4,26c-0.3,0.7-0.9,1.1-1.7,1.1c-1,0-1.9-0.9-1.9-1.8
		c0-0.3,0.1-0.7,0.2-0.9l12.4-26C861.4,12.9,861.9,12.5,862.7,12.5z M830.9,28.4l9.7-11.2c0.9-1.1,1.6-1.7,3.1-1.7
		c1.3,0,2.4,1,2.4,2.3v11.5h1.2c1.1,0,2,0.9,2,2c0,1.1-0.9,2-2,2h-1.2V36c0,1.3-1,2.3-2.4,2.3c-1.3,0-2.3-1-2.3-2.3v-2.7h-9.2
		c-1.3,0-2.4-1-2.4-2.3C829.7,30,830.1,29.2,830.9,28.4z M820.7,19.9c-1.4,0-2.4,0.6-3.6,1.9c-0.3,0.3-0.9,0.7-1.7,0.7
		c-1.2,0-2.2-1-2.2-2.2c0-0.5,0.2-1.1,0.6-1.5c1.8-2.1,3.9-3.3,7.2-3.3c4.6,0,7.7,2.7,7.7,6.9v0.1c0,3.7-1.9,5.6-5.8,8.6l-3.6,2.8
		h7.8c1.2,0,2.1,1,2.1,2.1c0,1.2-1,2.1-2.1,2.1h-12.1c-1.5,0-2.6-0.9-2.6-2.3c0-1,0.4-1.8,1.3-2.4l6.3-5.2c2.8-2.3,3.8-3.5,3.8-5.3
		C823.7,20.9,822.4,19.9,820.7,19.9z M808.7,51.1c0-2.7,2.2-4.9,4.9-4.9l65.3,0c2.7,0,4.9,2.2,4.9,4.9l0,27.8
		c-0.3-0.3-0.6-0.6-1-0.8c-2.1-1.7-4.4-3-6.9-4l0-16.4l-59.4,0l0,16.4c-2.5,1-4.8,2.3-6.9,4c-0.3,0.3-0.6,0.5-1,0.8L808.7,51.1z
		 M813.7,83.1c0.9-0.7,1.8-1.4,2.8-1.9c-0.1,0-0.1,0.1-0.2,0.1c0.1-0.1,0.2-0.1,0.3-0.2v0c8.1-4.5,18.5-2.7,24.6,4.8l5.1,6.3
		l5.1-6.3c6.1-7.4,16.5-9.3,24.6-4.8v0c0.1,0,0.2,0.1,0.2,0.1c0.9,0.5,1.8,1.1,2.6,1.8c8.4,6.8,9.6,19.1,2.8,27.4l-32.4,40.1
		c-1.5,1.9-4.4,1.9-6,0l-32.4-40.1C804,102.2,805.3,89.9,813.7,83.1z M807.2,214.1c0,1.6-1.3,2.9-2.9,2.9s-2.9-1.3-2.9-2.9v-0.3
		c-1.4,1.9-3.4,3.3-6.4,3.3c-4.8,0-9.4-3.8-9.4-10.6v-0.1c0-6.9,4.5-10.6,9.4-10.6c3.1,0,5,1.4,6.4,3.1v-7.5c0-1.6,1.3-2.9,2.9-2.9
		s2.9,1.3,2.9,2.9V214.1z M808.6,176.3l0-58.3l7.9,9.7l0,33.8l59.4,0l0-33.8l7.9-9.8l0,58.3c0,2.7-2.2,4.9-4.9,4.9l-65.3,0
		C810.8,181.2,808.6,179,808.6,176.3z M832.8,206.5c0,5.9-4.8,10.7-11.2,10.7c-6.4,0-11.1-4.7-11.1-10.6v-0.1
		c0-5.9,4.8-10.7,11.2-10.7C828,195.8,832.8,200.5,832.8,206.5L832.8,206.5z M853,214.6c-1.7,1.6-3.9,2.7-7.3,2.7
		c-6.2,0-10.7-4.8-10.7-10.6v-0.1c0-5.9,4.5-10.7,10.8-10.7c3.1,0,5.3,0.8,7,2.3c0.4,0.3,0.9,1,0.9,2c0,1.5-1.2,2.6-2.7,2.6
		c-0.8,0-1.3-0.3-1.7-0.6c-1-0.8-2.1-1.3-3.6-1.3c-2.9,0-5,2.6-5,5.6v0.1c0,3.2,2,5.7,5.2,5.7c1.5,0,2.7-0.5,3.8-1.4
		c0.3-0.2,0.9-0.5,1.6-0.5c1.4,0,2.5,1.1,2.5,2.5C853.9,213.5,853.5,214.1,853,214.6z M865.7,212c0.2,0,0.6,0,0.7,0
		c1.3,0,2.4,1.1,2.4,2.4c0,1-0.7,1.9-1.5,2.2c-1.1,0.4-2.1,0.6-3.3,0.6c-3.6,0-6-1.4-6-6.2v-9.8h-0.2c-1.4,0-2.5-1.1-2.5-2.5
		c0-1.4,1.1-2.5,2.5-2.5h0.2v-2.6c0-1.6,1.3-2.9,2.9-2.9c1.6,0,2.9,1.3,2.9,2.9v2.6h2.6c1.4,0,2.5,1.1,2.5,2.5
		c0,1.4-1.1,2.5-2.5,2.5h-2.6v8.8C863.8,211.3,864.4,212,865.7,212z M892.7,206.5c0,5.9-4.8,10.7-11.2,10.7
		c-6.4,0-11.1-4.7-11.1-10.6v-0.1c0-5.9,4.8-10.7,11.2-10.7C887.9,195.8,892.7,200.5,892.7,206.5L892.7,206.5z M906.4,201.5
		c-3,0.7-4.6,3-4.6,7.1v5.5c0,1.6-1.3,2.9-2.9,2.9s-2.9-1.3-2.9-2.9v-15.2c0-1.6,1.3-2.9,2.9-2.9s2.9,1.3,2.9,2.9v0.9
		c0.8-2,2.2-3.8,4-3.8c1.8,0,2.8,1.2,2.8,2.8C908.6,200.3,907.6,201.3,906.4,201.5z"/>
	<linearGradient id="SVGID_16_" gradientUnits="userSpaceOnUse" x1="713.287" y1="206.5186" x2="926.3707" y2="206.5186">
		<stop  offset="0" style="stop-color:#EB3796"/>
		<stop  offset="1" style="stop-color:#873299"/>
	</linearGradient>
	<path class="st15" d="M881.5,200.8c-3.3,0-5.3,2.6-5.3,5.6v0.1c0,3,2.2,5.7,5.4,5.7c3.3,0,5.3-2.6,5.3-5.6v-0.1
		C886.9,203.5,884.7,200.8,881.5,200.8z"/>
</g>
</svg>
