<svg xmlns="http://www.w3.org/2000/svg" xmlns:xlink="http://www.w3.org/1999/xlink" viewBox="0 0 287.6 293"><defs><style>.cls-1{isolation:isolate;}.cls-2{fill:#eb3796;}.cls-3{fill:url(#Degradado_sin_nombre);}</style><linearGradient id="Degradado_sin_nombre" x1="38.23" y1="820.93" x2="237.06" y2="1019.76" gradientTransform="translate(0 -780)" gradientUnits="userSpaceOnUse"><stop offset="0" stop-color="#eb3796"/><stop offset="1" stop-color="#873299"/></linearGradient></defs><title>icon-good2</title><g id="Capa_2" data-name="Capa 2"><g id="Layer_1" data-name="Layer 1"><g class="cls-1"><path class="cls-2" d="M32,147.36V121.22a3.57,3.57,0,1,1,7.14,0v.33A9.33,9.33,0,0,1,47,117.46,10.86,10.86,0,0,1,55.08,121q3.38,3.5,3.38,9.51v.1q0,6-3.36,9.51A10.81,10.81,0,0,1,47,143.6a9.86,9.86,0,0,1-7.85-3.76v7.52a3.57,3.57,0,1,1-7.14,0Zm8.81-11.78a5.65,5.65,0,0,0,4.35,1.95,5.74,5.74,0,0,0,4.37-1.92,7.12,7.12,0,0,0,1.79-5v-.1a7.13,7.13,0,0,0-1.79-5,5.85,5.85,0,0,0-8.72,0,7.2,7.2,0,0,0-1.76,5v.1A7.2,7.2,0,0,0,40.81,135.58Z"/><path class="cls-2" d="M63.72,139.84V121.22a3.58,3.58,0,1,1,7.15,0v1.13A11.08,11.08,0,0,1,73,119a3.76,3.76,0,0,1,2.73-1.34,3.35,3.35,0,0,1,2.56,1,3.5,3.5,0,0,1,.92,2.51,3.2,3.2,0,0,1-.76,2.21,3.67,3.67,0,0,1-1.92,1.13q-5.64,1.31-5.64,8.69v6.68a3.58,3.58,0,1,1-7.15,0Z"/><path class="cls-2" d="M104.78,139.88a14.37,14.37,0,0,1-19.46,0,12.41,12.41,0,0,1-3.88-9.24v-.09a12.47,12.47,0,0,1,3.93-9.31,14.34,14.34,0,0,1,19.45,0,12.39,12.39,0,0,1,3.88,9.23v.1A12.49,12.49,0,0,1,104.78,139.88Zm-9.66-2.35a6.1,6.1,0,0,0,4.75-2,7,7,0,0,0,1.78-4.89v-.09a7,7,0,0,0-1.86-4.91,6.63,6.63,0,0,0-9.51-.08,7,7,0,0,0-1.79,4.89v.1a7,7,0,0,0,1.86,4.91A6.17,6.17,0,0,0,95.12,137.53Z"/><path class="cls-2" d="M125.15,150.74a24.64,24.64,0,0,1-9.21-1.74,2.82,2.82,0,0,1-2-2.77,2.76,2.76,0,0,1,.87-2.07,2.85,2.85,0,0,1,2-.85,3,3,0,0,1,1.18.24,16.55,16.55,0,0,0,6.95,1.5q7.2,0,7.19-6.86V137a11.94,11.94,0,0,1-3.59,3.08,9.81,9.81,0,0,1-4.63,1,11,11,0,0,1-7.92-3.17,11.42,11.42,0,0,1-3.27-8.58v-.1a11.35,11.35,0,0,1,3.29-8.57,11,11,0,0,1,7.9-3.18,10.69,10.69,0,0,1,8.13,3.76v0a3.34,3.34,0,0,1,1.06-2.49,3.46,3.46,0,0,1,2.51-1,3.5,3.5,0,0,1,2.52,1,3.41,3.41,0,0,1,1,2.53v16.22q0,6.72-3.19,9.92Q132.62,150.74,125.15,150.74Zm-3.52-17.23a6.1,6.1,0,0,0,4.37,1.63,6.17,6.17,0,0,0,4.39-1.65,5.45,5.45,0,0,0,1.76-4.18v-.1a5.45,5.45,0,0,0-1.76-4.18,6.16,6.16,0,0,0-4.39-1.64,6.07,6.07,0,0,0-4.37,1.64,5.51,5.51,0,0,0-1.74,4.18v.1A5.48,5.48,0,0,0,121.63,133.51Z"/><path class="cls-2" d="M145.59,139.84V121.22a3.58,3.58,0,1,1,7.15,0v1.13a11.08,11.08,0,0,1,2.11-3.36,3.76,3.76,0,0,1,2.73-1.34,3.33,3.33,0,0,1,2.56,1,3.5,3.5,0,0,1,.92,2.51,3.2,3.2,0,0,1-.75,2.21,3.74,3.74,0,0,1-1.93,1.13q-5.64,1.31-5.64,8.69v6.68a3.58,3.58,0,1,1-7.15,0Z"/><path class="cls-2" d="M171.21,143.6a9.36,9.36,0,0,1-6.18-2,6.93,6.93,0,0,1-2.47-5.66v-.1a7,7,0,0,1,2.75-6,12.21,12.21,0,0,1,7.4-2,18.83,18.83,0,0,1,6.16,1v-.42q0-4.61-5.4-4.61a16.47,16.47,0,0,0-4.94.71,3.48,3.48,0,0,1-1,.19,2.92,2.92,0,0,1-2.1-.85,2.76,2.76,0,0,1-.86-2.07,2.84,2.84,0,0,1,.54-1.69,3,3,0,0,1,1.38-1.08,22.82,22.82,0,0,1,8-1.32q5.69,0,8.51,2.82t2.72,8V140a3.25,3.25,0,0,1-1,2.44,3.38,3.38,0,0,1-2.47,1,3.45,3.45,0,0,1-2.46-.9,2.71,2.71,0,0,1-1-2.06v0A9.73,9.73,0,0,1,171.21,143.6Zm2.16-4.94a6.25,6.25,0,0,0,4-1.24,3.88,3.88,0,0,0,1.55-3.18V133a10.74,10.74,0,0,0-4.56-.94,6.3,6.3,0,0,0-3.61.9,2.91,2.91,0,0,0-1.32,2.58v.1a2.65,2.65,0,0,0,1.08,2.23A4.52,4.52,0,0,0,173.37,138.66Z"/><path class="cls-2" d="M191.89,139.84V121.22a3.57,3.57,0,1,1,7.14,0v.29q3.15-4,7.43-4.05c3.35,0,5.72,1.34,7.1,4a10.54,10.54,0,0,1,8.27-4,8.21,8.21,0,0,1,6.27,2.38c1.49,1.58,2.23,3.88,2.23,6.88v13.12a3.57,3.57,0,1,1-7.14,0V129.07q0-5.11-4.18-5.12a4,4,0,0,0-3.17,1.32,5.57,5.57,0,0,0-1.16,3.8v10.77a3.4,3.4,0,0,1-1.05,2.53,3.5,3.5,0,0,1-2.52,1,3.46,3.46,0,0,1-2.51-1,3.37,3.37,0,0,1-1.06-2.53V129.07q0-5.11-4.18-5.12a4,4,0,0,0-3.18,1.32,5.62,5.62,0,0,0-1.15,3.8v10.77a3.42,3.42,0,0,1-1,2.53,3.62,3.62,0,0,1-5.08,0A3.42,3.42,0,0,1,191.89,139.84Z"/><path class="cls-2" d="M245.37,143.6a17.14,17.14,0,0,1-9.49-2.87,2.83,2.83,0,0,1,1.46-5.26,2.65,2.65,0,0,1,1.41.37,13,13,0,0,0,6.81,2.26c2,0,3-.63,3-1.88v-.1a1.58,1.58,0,0,0-.07-.47,1,1,0,0,0-.26-.42,4.55,4.55,0,0,0-.4-.35,3.07,3.07,0,0,0-.56-.33l-.61-.28c-.18-.08-.42-.18-.73-.29l-.8-.25-.89-.26-.9-.26a24.51,24.51,0,0,1-2.72-1,13.81,13.81,0,0,1-2.33-1.34,5.56,5.56,0,0,1-1.83-2.19,7.15,7.15,0,0,1-.64-3.08v-.09a7.11,7.11,0,0,1,2.64-5.85,10,10,0,0,1,6.58-2.14,17.22,17.22,0,0,1,7.8,1.93,2.79,2.79,0,0,1,1.69,2.67,2.71,2.71,0,0,1-.82,2,2.77,2.77,0,0,1-2.05.82,2.84,2.84,0,0,1-1.31-.32,13.14,13.14,0,0,0-5.46-1.6,3.31,3.31,0,0,0-2,.49,1.5,1.5,0,0,0-.68,1.25v.09q0,1.27,4.33,2.73l.8.28c1.09.37,2,.73,2.75,1.06a14,14,0,0,1,2.34,1.36,5.65,5.65,0,0,1,1.88,2.14,6.3,6.3,0,0,1,.64,2.91v.1a7.2,7.2,0,0,1-2.66,6.08A11.14,11.14,0,0,1,245.37,143.6Z"/></g><g class="cls-1"><path class="cls-2" d="M58.8,189.76V163.63a3.57,3.57,0,1,1,7.14,0V164a9.33,9.33,0,0,1,7.85-4.09,10.86,10.86,0,0,1,8.09,3.51q3.38,3.49,3.38,9.51v.1q0,6-3.36,9.52a10.84,10.84,0,0,1-8.11,3.5,9.86,9.86,0,0,1-7.85-3.76v7.52a3.57,3.57,0,1,1-7.14,0ZM67.61,178a5.63,5.63,0,0,0,4.35,2A5.74,5.74,0,0,0,76.33,178a7.12,7.12,0,0,0,1.79-5v-.1a7.13,7.13,0,0,0-1.79-5A5.7,5.7,0,0,0,72,165.93a5.63,5.63,0,0,0-4.35,1.95,7.2,7.2,0,0,0-1.76,5v.1A7.2,7.2,0,0,0,67.61,178Z"/><path class="cls-2" d="M97.67,186A9.36,9.36,0,0,1,91.49,184,6.93,6.93,0,0,1,89,178.29v-.1a7,7,0,0,1,2.75-6,12.21,12.21,0,0,1,7.4-2,18.83,18.83,0,0,1,6.16,1v-.42q0-4.61-5.41-4.61a16.45,16.45,0,0,0-4.93.71,3.48,3.48,0,0,1-1,.19,2.92,2.92,0,0,1-2.09-.85,2.76,2.76,0,0,1-.87-2.07,2.84,2.84,0,0,1,.54-1.69,3.07,3.07,0,0,1,1.39-1.08,22.82,22.82,0,0,1,8-1.32q5.69,0,8.5,2.82t2.73,8v11.47a3.29,3.29,0,0,1-1,2.44,3.41,3.41,0,0,1-2.47,1,3.53,3.53,0,0,1-2.47-.89,2.76,2.76,0,0,1-1-2.07v0A9.73,9.73,0,0,1,97.67,186Zm2.16-4.94a6.25,6.25,0,0,0,4-1.24,3.91,3.91,0,0,0,1.55-3.18v-1.27a10.81,10.81,0,0,0-4.56-.94,6.36,6.36,0,0,0-3.62.9,2.93,2.93,0,0,0-1.31,2.58v.1A2.65,2.65,0,0,0,97,180.24,4.52,4.52,0,0,0,99.83,181.06Z"/><path class="cls-2" d="M118.35,182.24V163.63a3.59,3.59,0,0,1,6.11-2.54,3.48,3.48,0,0,1,1,2.54v1.12a11,11,0,0,1,2.12-3.36,3.73,3.73,0,0,1,2.72-1.34,3.33,3.33,0,0,1,2.56,1,3.5,3.5,0,0,1,.92,2.51,3.2,3.2,0,0,1-.75,2.21,3.7,3.7,0,0,1-1.93,1.13q-5.64,1.32-5.64,8.69v6.68a3.59,3.59,0,0,1-6.11,2.53A3.42,3.42,0,0,1,118.35,182.24Z"/><path class="cls-2" d="M146.5,186a7.81,7.81,0,0,1-5.43-1.72q-1.9-1.71-1.9-5.85V166.44h-.24a3.05,3.05,0,1,1,0-6.1h.24v-3.15a3.57,3.57,0,0,1,7.14,0v3.15h3.15a3.05,3.05,0,1,1,0,6.1h-3.15v10.77c0,1.63.77,2.44,2.3,2.44l.47,0,.38,0a3,3,0,0,1,3,3,2.71,2.71,0,0,1-.54,1.66,2.77,2.77,0,0,1-1.29,1A10.89,10.89,0,0,1,146.5,186Z"/><path class="cls-2" d="M157.5,182.24V163.63a3.59,3.59,0,0,1,6.11-2.54,3.48,3.48,0,0,1,1,2.54v.28q3.15-4,7.38-4a8.09,8.09,0,0,1,6.3,2.5,9.85,9.85,0,0,1,2.25,6.86v13a3.4,3.4,0,0,1-1,2.53,3.5,3.5,0,0,1-2.52,1,3.46,3.46,0,0,1-2.51-1,3.37,3.37,0,0,1-1.06-2.53V171.47a5.67,5.67,0,0,0-1.13-3.8,4,4,0,0,0-3.19-1.32,4.2,4.2,0,0,0-3.27,1.32,5.43,5.43,0,0,0-1.2,3.8v10.77a3.59,3.59,0,0,1-6.11,2.53A3.42,3.42,0,0,1,157.5,182.24Z"/><path class="cls-2" d="M207.46,183a13,13,0,0,1-8.75,3.05,12.9,12.9,0,0,1-9.44-3.64,12.57,12.57,0,0,1-3.72-9.38V173a13.2,13.2,0,0,1,3.53-9.31,11.63,11.63,0,0,1,8.93-3.81,12.49,12.49,0,0,1,5.43,1.16,10.27,10.27,0,0,1,3.83,3,14.11,14.11,0,0,1,2.14,3.88,12.27,12.27,0,0,1,.72,4.11,3.35,3.35,0,0,1-1,2.47,3.22,3.22,0,0,1-2.37,1H192.65a6.17,6.17,0,0,0,2.12,3.67,6.32,6.32,0,0,0,4,1.27,8.34,8.34,0,0,0,5.07-1.7,2.85,2.85,0,0,1,1.74-.56,2.71,2.71,0,0,1,2,.8,2.9,2.9,0,0,1-.14,4.14ZM192.56,171h10.76a6.76,6.76,0,0,0-1.72-3.9A4.73,4.73,0,0,0,198,165.6a4.92,4.92,0,0,0-3.6,1.43A7.1,7.1,0,0,0,192.56,171Z"/><path class="cls-2" d="M215.59,182.24V163.63a3.57,3.57,0,1,1,7.14,0v1.12a11,11,0,0,1,2.12-3.36,3.73,3.73,0,0,1,2.72-1.34,3.33,3.33,0,0,1,2.56,1,3.5,3.5,0,0,1,.92,2.51,3.2,3.2,0,0,1-.75,2.21,3.7,3.7,0,0,1-1.93,1.13q-5.64,1.32-5.64,8.69v6.68a3.42,3.42,0,0,1-1,2.53,3.62,3.62,0,0,1-5.08,0A3.42,3.42,0,0,1,215.59,182.24Z"/></g><path class="cls-3" d="M143.8,293C64.5,293,0,227.3,0,146.5S64.5,0,143.8,0,287.6,65.7,287.6,146.5,223.1,293,143.8,293Zm0-282.6C70.2,10.4,10.2,71.5,10.2,146.5S70.1,282.6,143.8,282.6s133.6-61.1,133.6-136.1S217.5,10.4,143.8,10.4Z"/></g></g></svg>