<svg xmlns="http://www.w3.org/2000/svg" xmlns:xlink="http://www.w3.org/1999/xlink" viewBox="0 0 287.6 293"><defs><style>.cls-1{isolation:isolate;}.cls-2{fill:#eb3796;}.cls-3{fill:url(#Degradado_sin_nombre);}</style><linearGradient id="Degradado_sin_nombre" x1="38.23" y1="820.93" x2="237.06" y2="1019.76" gradientTransform="translate(0 -780)" gradientUnits="userSpaceOnUse"><stop offset="0" stop-color="#eb3796"/><stop offset="1" stop-color="#873299"/></linearGradient></defs><title>icon-good7</title><g id="Capa_2" data-name="Capa 2"><g id="Layer_1" data-name="Layer 1"><g class="cls-1"><path class="cls-2" d="M50,129.49v-.09A3,3,0,0,1,51.1,127a4.94,4.94,0,0,1,5.74,0A3,3,0,0,1,58,129.4v.09a3,3,0,0,1-1.13,2.44,4.81,4.81,0,0,1-5.74,0A3,3,0,0,1,50,129.49Zm.42,27.82V138.7a3.37,3.37,0,0,1,1.06-2.53,3.46,3.46,0,0,1,2.51-1,3.5,3.5,0,0,1,2.52,1,3.4,3.4,0,0,1,1,2.53v18.61a3.42,3.42,0,0,1-1,2.54,3.5,3.5,0,0,1-2.52,1,3.46,3.46,0,0,1-2.51-1A3.39,3.39,0,0,1,50.4,157.31Z"/><path class="cls-2" d="M64.26,157.31V138.7a3.58,3.58,0,1,1,7.15,0V139q3.15-4,7.38-4a8,8,0,0,1,6.29,2.49,9.83,9.83,0,0,1,2.26,6.87v13a3.39,3.39,0,0,1-1.06,2.54,3.46,3.46,0,0,1-2.51,1,3.5,3.5,0,0,1-2.52-1,3.42,3.42,0,0,1-1-2.54V146.55a5.67,5.67,0,0,0-1.13-3.8,4,4,0,0,0-3.2-1.32,4.18,4.18,0,0,0-3.26,1.32,5.43,5.43,0,0,0-1.2,3.8v10.76a3.58,3.58,0,1,1-7.15,0Z"/><path class="cls-2" d="M107.93,158q-1.37,3.1-4.05,3.1h-.37q-2.73,0-4-3.1l-7.71-17.81a4.77,4.77,0,0,1-.38-1.74,3.18,3.18,0,0,1,1-2.33,3.39,3.39,0,0,1,2.44-1,3.43,3.43,0,0,1,3.48,2.54l5.4,14.62,5.5-14.71a3.38,3.38,0,0,1,3.34-2.45,3.33,3.33,0,0,1,2.42,1,3.24,3.24,0,0,1,1,2.39,4.41,4.41,0,0,1-.38,1.7Z"/><path class="cls-2" d="M140.54,158.11a14,14,0,0,1-18.18-.58,12.57,12.57,0,0,1-3.72-9.38v-.09a13.2,13.2,0,0,1,3.53-9.31,11.63,11.63,0,0,1,8.93-3.81,12.63,12.63,0,0,1,5.43,1.15,10.39,10.39,0,0,1,3.83,3,13.82,13.82,0,0,1,2.13,3.88,12,12,0,0,1,.73,4.11,3.37,3.37,0,0,1-1,2.47,3.22,3.22,0,0,1-2.37,1H125.74a6.16,6.16,0,0,0,2.11,3.67,6.36,6.36,0,0,0,4.05,1.26,8.36,8.36,0,0,0,5.07-1.69,2.85,2.85,0,0,1,1.74-.56,2.83,2.83,0,0,1,1.83,4.93ZM125.65,146h10.76a6.82,6.82,0,0,0-1.72-3.9,4.72,4.72,0,0,0-3.59-1.45,4.88,4.88,0,0,0-3.6,1.43A7.07,7.07,0,0,0,125.65,146Z"/><path class="cls-2" d="M157.51,161.07a17.11,17.11,0,0,1-9.49-2.86,2.72,2.72,0,0,1-1.37-2.45,2.83,2.83,0,0,1,2.82-2.82,2.61,2.61,0,0,1,1.41.38,13.09,13.09,0,0,0,6.82,2.26c2,0,3-.63,3-1.88v-.1a2,2,0,0,0-.07-.47,1.09,1.09,0,0,0-.26-.42,4.36,4.36,0,0,0-.4-.35,2.87,2.87,0,0,0-.57-.33c-.23-.11-.43-.21-.61-.28a7.33,7.33,0,0,0-.73-.29c-.31-.11-.58-.19-.79-.25l-.9-.26-.89-.26a22.71,22.71,0,0,1-2.73-1,12.5,12.5,0,0,1-2.32-1.34,5.57,5.57,0,0,1-1.84-2.18,7.15,7.15,0,0,1-.63-3.08V143a7.16,7.16,0,0,1,2.63-5.86,10.14,10.14,0,0,1,6.58-2.13A17.33,17.33,0,0,1,165,137a2.82,2.82,0,0,1,1.7,2.68,2.72,2.72,0,0,1-.83,2,2.77,2.77,0,0,1-2,.82,2.93,2.93,0,0,1-1.32-.33,13.22,13.22,0,0,0-5.45-1.59,3.27,3.27,0,0,0-1.95.49,1.49,1.49,0,0,0-.68,1.24v.1c0,.85,1.44,1.75,4.32,2.72l.8.29c1.1.37,2,.73,2.75,1.05a14.44,14.44,0,0,1,2.35,1.37,5.65,5.65,0,0,1,1.88,2.14,6.43,6.43,0,0,1,.64,2.91v.09a7.2,7.2,0,0,1-2.66,6.09A11.15,11.15,0,0,1,157.51,161.07Z"/><path class="cls-2" d="M180.31,161a7.81,7.81,0,0,1-5.43-1.72q-1.9-1.71-1.91-5.85V141.52h-.23a3.06,3.06,0,0,1,0-6.11H173v-3.15a3.62,3.62,0,0,1,3.58-3.57,3.62,3.62,0,0,1,3.57,3.57v3.15h3.15a3.06,3.06,0,1,1,0,6.11h-3.15v10.77c0,1.63.77,2.44,2.3,2.44l.47,0,.38,0a3,3,0,0,1,3,3,2.71,2.71,0,0,1-.54,1.67,2.83,2.83,0,0,1-1.29,1A11.13,11.13,0,0,1,180.31,161Z"/><path class="cls-2" d="M212.71,157.36a14.36,14.36,0,0,1-19.46,0,12.4,12.4,0,0,1-3.87-9.23v-.09a12.46,12.46,0,0,1,3.92-9.31,14.36,14.36,0,0,1,19.46,0,12.42,12.42,0,0,1,3.88,9.23v.1A12.46,12.46,0,0,1,212.71,157.36ZM203.05,155a6.1,6.1,0,0,0,4.75-2,7,7,0,0,0,1.79-4.89v-.09a7.06,7.06,0,0,0-1.86-4.92,6.65,6.65,0,0,0-9.52-.07,7,7,0,0,0-1.78,4.89v.1a7,7,0,0,0,1.85,4.91A6.17,6.17,0,0,0,203.05,155Z"/><path class="cls-2" d="M221.81,157.31V138.7a3.57,3.57,0,1,1,7.14,0v1.13a11,11,0,0,1,2.11-3.36,3.76,3.76,0,0,1,2.73-1.34,3.36,3.36,0,0,1,2.56,1,3.54,3.54,0,0,1,.92,2.52,3.22,3.22,0,0,1-.75,2.21,3.74,3.74,0,0,1-1.93,1.13q-5.64,1.31-5.64,8.69v6.67a3.57,3.57,0,1,1-7.14,0Z"/></g><path class="cls-3" d="M143.8,293C64.5,293,0,227.3,0,146.5S64.5,0,143.8,0,287.6,65.7,287.6,146.5,223.1,293,143.8,293Zm0-282.6C70.2,10.4,10.2,71.5,10.2,146.5S70.1,282.6,143.8,282.6s133.6-61.1,133.6-136.1S217.5,10.4,143.8,10.4Z"/></g></g></svg>