<svg xmlns="http://www.w3.org/2000/svg" xmlns:xlink="http://www.w3.org/1999/xlink" viewBox="0 0 287.6 293"><defs><style>.cls-1{isolation:isolate;}.cls-2{fill:#eb3796;}.cls-3{fill:url(#Degradado_sin_nombre);}</style><linearGradient id="Degradado_sin_nombre" x1="38.23" y1="820.93" x2="237.06" y2="1019.76" gradientTransform="translate(0 -780)" gradientUnits="userSpaceOnUse"><stop offset="0" stop-color="#eb3796"/><stop offset="1" stop-color="#873299"/></linearGradient></defs><title>icon-good2</title><g id="Capa_2" data-name="Capa 2"><g id="Layer_1" data-name="Layer 1"><g class="cls-1"><path class="cls-2" d="M52,147.36V121.22a3.58,3.58,0,1,1,7.15,0v.33A9.32,9.32,0,0,1,67,117.46,10.84,10.84,0,0,1,75.12,121q3.39,3.5,3.38,9.51v.1q0,6-3.36,9.51A10.81,10.81,0,0,1,67,143.6a9.85,9.85,0,0,1-7.85-3.76v7.52a3.58,3.58,0,1,1-7.15,0Zm8.82-11.78a5.61,5.61,0,0,0,4.34,1.95,5.73,5.73,0,0,0,4.37-1.92,7.07,7.07,0,0,0,1.79-5v-.1a7.08,7.08,0,0,0-1.79-5,5.69,5.69,0,0,0-4.37-2,5.61,5.61,0,0,0-4.34,2,7.16,7.16,0,0,0-1.77,5v.1A7.16,7.16,0,0,0,60.86,135.58Z"/><path class="cls-2" d="M83.77,139.84V121.22a3.57,3.57,0,1,1,7.14,0v1.13A11.1,11.1,0,0,1,93,119a3.73,3.73,0,0,1,2.72-1.34,3.33,3.33,0,0,1,2.56,1,3.45,3.45,0,0,1,.92,2.51,3.2,3.2,0,0,1-.75,2.21,3.7,3.7,0,0,1-1.93,1.13q-5.64,1.31-5.64,8.69v6.68a3.42,3.42,0,0,1-1,2.53,3.62,3.62,0,0,1-5.08,0A3.42,3.42,0,0,1,83.77,139.84Z"/><path class="cls-2" d="M124.82,139.88a14.37,14.37,0,0,1-19.46,0,12.44,12.44,0,0,1-3.87-9.24v-.09a12.46,12.46,0,0,1,3.92-9.31,14.36,14.36,0,0,1,19.46,0,12.42,12.42,0,0,1,3.88,9.23v.1A12.46,12.46,0,0,1,124.82,139.88Zm-9.66-2.35a6.07,6.07,0,0,0,4.75-2,7,7,0,0,0,1.79-4.89v-.09a7,7,0,0,0-1.86-4.91,6.64,6.64,0,0,0-9.52-.08,7,7,0,0,0-1.78,4.89v.1a7,7,0,0,0,1.85,4.91A6.17,6.17,0,0,0,115.16,137.53Z"/><path class="cls-2" d="M159.25,112.11v27.73a3.37,3.37,0,0,1-1.06,2.53,3.46,3.46,0,0,1-2.51,1,3.5,3.5,0,0,1-2.52-1,3.4,3.4,0,0,1-1-2.53v-.33a9.34,9.34,0,0,1-7.85,4.09,10.85,10.85,0,0,1-8.09-3.51q-3.37-3.5-3.38-9.51v-.1q0-6,3.36-9.51a10.81,10.81,0,0,1,8.11-3.51,9.86,9.86,0,0,1,7.85,3.76v-9.11a3.42,3.42,0,0,1,1-2.54,3.5,3.5,0,0,1,2.52-1,3.46,3.46,0,0,1,2.51,1A3.39,3.39,0,0,1,159.25,112.11Zm-8.81,13.37a5.65,5.65,0,0,0-4.35-2,5.74,5.74,0,0,0-4.37,1.92,7.13,7.13,0,0,0-1.79,5v.1a7.13,7.13,0,0,0,1.79,5,5.85,5.85,0,0,0,8.72,0,7.2,7.2,0,0,0,1.76-5v-.1A7.2,7.2,0,0,0,150.44,125.48Z"/><path class="cls-2" d="M188.53,121.22v18.62a3.37,3.37,0,0,1-1.06,2.53,3.56,3.56,0,0,1-5,0,3.4,3.4,0,0,1-1.05-2.53v-.29q-3.15,4-7.38,4a8.06,8.06,0,0,1-6.3-2.49,9.85,9.85,0,0,1-2.26-6.87v-13a3.58,3.58,0,1,1,7.15,0V132a5.67,5.67,0,0,0,1.12,3.8,4,4,0,0,0,3.2,1.32,4.2,4.2,0,0,0,3.27-1.32,5.43,5.43,0,0,0,1.2-3.8V121.22a3.41,3.41,0,0,1,1.05-2.53,3.56,3.56,0,0,1,5,0A3.38,3.38,0,0,1,188.53,121.22Z"/><path class="cls-2" d="M206.81,143.69a12.83,12.83,0,0,1-13.11-13v-.09a13,13,0,0,1,13.2-13.12,12.9,12.9,0,0,1,8.61,2.82,3,3,0,0,1,1.12,2.45,3,3,0,0,1-.94,2.25,3.1,3.1,0,0,1-2.3.94,3.26,3.26,0,0,1-2.07-.7,7.12,7.12,0,0,0-4.46-1.6,5.54,5.54,0,0,0-4.37,2,7.17,7.17,0,0,0-1.74,4.84v.1a7.27,7.27,0,0,0,1.76,5,5.89,5.89,0,0,0,4.63,2,7.47,7.47,0,0,0,4.7-1.74,3.23,3.23,0,0,1,1.93-.65,2.84,2.84,0,0,1,2.13.89,3,3,0,0,1,.88,2.16,3,3,0,0,1-1,2.26A12.79,12.79,0,0,1,206.81,143.69Z"/><path class="cls-2" d="M230.26,143.55a7.77,7.77,0,0,1-5.42-1.72q-1.91-1.71-1.91-5.85V124h-.23a3.06,3.06,0,1,1,0-6.11h.23v-3.14a3.62,3.62,0,0,1,3.57-3.58,3.62,3.62,0,0,1,3.58,3.58v3.14h3.15a3.06,3.06,0,1,1,0,6.11h-3.15v10.77c0,1.63.76,2.44,2.3,2.44l.47,0,.38,0a3,3,0,0,1,3,3,2.71,2.71,0,0,1-.54,1.66,2.84,2.84,0,0,1-1.3,1A11.06,11.06,0,0,1,230.26,143.55Z"/></g><g class="cls-1"><path class="cls-2" d="M58.74,189.76V163.63a3.58,3.58,0,1,1,7.15,0V164a9.32,9.32,0,0,1,7.85-4.09,10.84,10.84,0,0,1,8.08,3.51q3.39,3.49,3.38,9.51v.1q0,6-3.36,9.52a10.83,10.83,0,0,1-8.1,3.5,9.85,9.85,0,0,1-7.85-3.76v7.52a3.58,3.58,0,1,1-7.15,0ZM67.56,178a5.61,5.61,0,0,0,4.34,2A5.73,5.73,0,0,0,76.27,178a7.12,7.12,0,0,0,1.79-5v-.1a7.13,7.13,0,0,0-1.79-5,5.69,5.69,0,0,0-4.37-1.95,5.61,5.61,0,0,0-4.34,1.95,7.16,7.16,0,0,0-1.77,5v.1A7.16,7.16,0,0,0,67.56,178Z"/><path class="cls-2" d="M97.61,186A9.4,9.4,0,0,1,91.43,184,7,7,0,0,1,89,178.29v-.1a7,7,0,0,1,2.75-6,12.24,12.24,0,0,1,7.41-2,18.77,18.77,0,0,1,6.15,1v-.42q0-4.61-5.4-4.61a16.52,16.52,0,0,0-4.94.71,3.42,3.42,0,0,1-1,.19,2.9,2.9,0,0,1-2.09-.85,2.76,2.76,0,0,1-.87-2.07,2.84,2.84,0,0,1,.54-1.69,3,3,0,0,1,1.38-1.08,22.82,22.82,0,0,1,8-1.32q5.68,0,8.51,2.82c1.82,1.82,2.72,4.5,2.72,8v11.47a3.25,3.25,0,0,1-1,2.44,3.37,3.37,0,0,1-2.46,1,3.5,3.5,0,0,1-2.47-.89,2.76,2.76,0,0,1-1-2.07v0A9.75,9.75,0,0,1,97.61,186Zm2.16-4.94a6.29,6.29,0,0,0,4-1.24,3.91,3.91,0,0,0,1.55-3.18v-1.27a10.81,10.81,0,0,0-4.56-.94,6.33,6.33,0,0,0-3.62.9,2.91,2.91,0,0,0-1.32,2.58v.1A2.65,2.65,0,0,0,97,180.24,4.52,4.52,0,0,0,99.77,181.06Z"/><path class="cls-2" d="M118.29,182.24V163.63a3.58,3.58,0,1,1,7.15,0v1.12a11,11,0,0,1,2.11-3.36,3.75,3.75,0,0,1,2.73-1.34,3.35,3.35,0,0,1,2.56,1,3.49,3.49,0,0,1,.91,2.51,3.2,3.2,0,0,1-.75,2.21,3.67,3.67,0,0,1-1.92,1.13q-5.64,1.32-5.64,8.69v6.68a3.58,3.58,0,1,1-7.15,0Z"/><path class="cls-2" d="M146.44,186a7.77,7.77,0,0,1-5.42-1.72q-1.91-1.71-1.91-5.85V166.44h-.23a3.05,3.05,0,1,1,0-6.1h.23v-3.15a3.62,3.62,0,0,1,3.57-3.58,3.62,3.62,0,0,1,3.58,3.58v3.15h3.15a3.05,3.05,0,1,1,0,6.1h-3.15v10.77c0,1.63.76,2.44,2.3,2.44l.47,0,.38,0a3,3,0,0,1,3,3,2.71,2.71,0,0,1-.54,1.66,2.79,2.79,0,0,1-1.3,1A10.86,10.86,0,0,1,146.44,186Z"/><path class="cls-2" d="M157.44,182.24V163.63a3.58,3.58,0,1,1,7.15,0v.28c2.09-2.7,4.56-4,7.37-4a8.06,8.06,0,0,1,6.3,2.5,9.8,9.8,0,0,1,2.26,6.86v13a3.37,3.37,0,0,1-1.06,2.53,3.46,3.46,0,0,1-2.51,1,3.5,3.5,0,0,1-2.52-1,3.4,3.4,0,0,1-1.06-2.53V171.47a5.67,5.67,0,0,0-1.12-3.8,4,4,0,0,0-3.2-1.32,4.2,4.2,0,0,0-3.27,1.32,5.43,5.43,0,0,0-1.19,3.8v10.77a3.58,3.58,0,1,1-7.15,0Z"/><path class="cls-2" d="M207.4,183a14.07,14.07,0,0,1-18.19-.59,12.6,12.6,0,0,1-3.71-9.38V173a13.16,13.16,0,0,1,3.53-9.31,11.61,11.61,0,0,1,8.92-3.81,12.43,12.43,0,0,1,5.43,1.16,10.19,10.19,0,0,1,3.83,3,13.86,13.86,0,0,1,2.14,3.88,12,12,0,0,1,.73,4.11,3.35,3.35,0,0,1-1,2.47,3.26,3.26,0,0,1-2.38,1H192.6a6.16,6.16,0,0,0,2.11,3.67,6.33,6.33,0,0,0,4,1.27,8.39,8.39,0,0,0,5.08-1.7,2.85,2.85,0,0,1,1.74-.56,2.68,2.68,0,0,1,2,.8,2.9,2.9,0,0,1-.14,4.14ZM192.5,171h10.77a6.83,6.83,0,0,0-1.72-3.9,4.74,4.74,0,0,0-3.6-1.46,4.88,4.88,0,0,0-3.59,1.43A7,7,0,0,0,192.5,171Z"/><path class="cls-2" d="M215.53,182.24V163.63a3.58,3.58,0,1,1,7.15,0v1.12a11,11,0,0,1,2.11-3.36,3.76,3.76,0,0,1,2.73-1.34,3.35,3.35,0,0,1,2.56,1,3.49,3.49,0,0,1,.91,2.51,3.2,3.2,0,0,1-.75,2.21,3.67,3.67,0,0,1-1.92,1.13q-5.64,1.32-5.64,8.69v6.68a3.58,3.58,0,1,1-7.15,0Z"/></g><path class="cls-3" d="M143.8,293C64.5,293,0,227.3,0,146.5S64.5,0,143.8,0,287.6,65.7,287.6,146.5,223.1,293,143.8,293Zm0-282.6C70.2,10.4,10.2,71.5,10.2,146.5S70.1,282.6,143.8,282.6s133.6-61.1,133.6-136.1S217.5,10.4,143.8,10.4Z"/></g></g></svg>