<?xml version="1.0" encoding="utf-8"?>
<!-- Generator: Adobe Illustrator 21.0.2, SVG Export Plug-In . SVG Version: 6.00 Build 0)  -->
<svg version="1.1" id="Layer_1" xmlns="http://www.w3.org/2000/svg" xmlns:xlink="http://www.w3.org/1999/xlink" x="0px" y="0px"
	 viewBox="0 0 367 367" style="enable-background:new 0 0 367 367;" xml:space="preserve">
<style type="text/css">
	.st0{fill:url(#SVGID_1_);}
	.st1{fill:url(#SVGID_2_);}
	.st2{fill:url(#SVGID_3_);}
	.st3{fill:url(#SVGID_4_);}
	.st4{fill:#873299;}
</style>
<g>
	<g>
		<linearGradient id="SVGID_1_" gradientUnits="userSpaceOnUse" x1="51.8083" y1="51.8083" x2="299.8152" y2="299.8152">
			<stop  offset="0" style="stop-color:#EB3796"/>
			<stop  offset="1" style="stop-color:#873299"/>
		</linearGradient>
		<path class="st0" d="M183.5,364.6c-99.8,0-181.1-81.2-181.1-181.1S83.7,2.4,183.5,2.4s181.1,81.2,181.1,181.1
			S283.3,364.6,183.5,364.6z M183.5,15.3c-92.7,0-168.2,75.5-168.2,168.2c0,92.7,75.5,168.2,168.2,168.2s168.2-75.5,168.2-168.2
			C351.7,90.8,276.3,15.3,183.5,15.3z"/>
	</g>
	<g>
		<linearGradient id="SVGID_2_" gradientUnits="userSpaceOnUse" x1="49.8776" y1="181.842" x2="247.2321" y2="181.842">
			<stop  offset="0" style="stop-color:#EB3796"/>
			<stop  offset="1" style="stop-color:#873299"/>
		</linearGradient>
		<path class="st1" d="M66.1,211.7l29-23.8c12.7-10.4,17.6-16,17.6-24.5c0-8.6-5.7-13.3-13.7-13.3c-6.4,0-10.9,2.8-16.6,8.9
			c-1.5,1.6-4.1,3.2-7.6,3.2c-5.7,0-10.2-4.5-10.2-10.2c0-2.5,1-5.1,2.6-7c8.2-9.5,17.8-15,33.2-15c21.1,0,35.1,12.4,35.1,31.5v0.3
			c0,17.1-8.7,25.5-26.8,39.5l-16.6,12.8h35.6c5.4,0,9.8,4.4,9.8,9.8c0,5.4-4.4,9.6-9.8,9.6H72.4c-7,0-12.1-3.9-12.1-10.6
			C60.3,218.6,62.3,214.8,66.1,211.7z"/>
		<linearGradient id="SVGID_3_" gradientUnits="userSpaceOnUse" x1="49.8773" y1="183.0081" x2="247.2327" y2="183.0081">
			<stop  offset="0" style="stop-color:#EB3796"/>
			<stop  offset="1" style="stop-color:#873299"/>
		</linearGradient>
		<path class="st2" d="M164.1,217.4l37.9-66.5h-39.1c-5.4,0-9.8-4.2-9.8-9.6c0-5.4,4.4-9.8,9.8-9.8h55.4c6.3,0,10.2,3.6,10.2,10.1
			c0,3.4-1.3,7.4-3.2,10.9l-41,74.3c-2.9,5.4-6.4,7.6-10.8,7.6c-6,0-11.5-3.6-11.5-10.1C162,222.5,162.9,219.5,164.1,217.4z"/>
		<linearGradient id="SVGID_4_" gradientUnits="userSpaceOnUse" x1="49.8779" y1="182.2792" x2="247.233" y2="182.2792">
			<stop  offset="0" style="stop-color:#EB3796"/>
			<stop  offset="1" style="stop-color:#873299"/>
		</linearGradient>
		<path class="st3" d="M270.6,192.3h-17.2c-5.5,0-10.1-4.5-10.1-10.1c0-5.5,4.5-10.1,10.1-10.1h17.2v-16.8c0-5.7,4.7-10.4,10.4-10.4
			c5.7,0,10.4,4.7,10.4,10.4v16.8h17.2c5.5,0,10.1,4.5,10.1,10.1c0,5.5-4.5,10.1-10.1,10.1h-17.2v16.8c0,5.7-4.7,10.4-10.4,10.4
			c-5.7,0-10.4-4.7-10.4-10.4V192.3z"/>
	</g>
	<g>
		<path class="st4" d="M107.4,269.5c0-1.9,1.6-3.5,3.5-3.5s3.5,1.6,3.5,3.5v0.3c1.6-2.1,3.7-4,7.3-4c3.2,0,5.7,1.4,6.9,3.9
			c2.2-2.5,4.7-3.9,8.1-3.9c5.2,0,8.3,3.1,8.3,9.1v12.8c0,1.9-1.6,3.5-3.5,3.5c-1.9,0-3.5-1.6-3.5-3.5v-10.5c0-3.3-1.5-5-4.1-5
			s-4.2,1.7-4.2,5v10.5c0,1.9-1.6,3.5-3.5,3.5c-1.9,0-3.5-1.6-3.5-3.5v-10.5c0-3.3-1.5-5-4.1-5s-4.2,1.7-4.2,5v10.5
			c0,1.9-1.6,3.5-3.5,3.5s-3.5-1.6-3.5-3.5V269.5z"/>
		<path class="st4" d="M151,260.4c0-2,1.7-3.3,3.9-3.3s3.9,1.2,3.9,3.3v0.1c0,2-1.7,3.3-3.9,3.3S151,262.5,151,260.4L151,260.4z
			 M151.4,269.5c0-1.9,1.6-3.5,3.5-3.5c1.9,0,3.5,1.6,3.5,3.5v18.2c0,1.9-1.6,3.5-3.5,3.5c-1.9,0-3.5-1.6-3.5-3.5V269.5z"/>
		<path class="st4" d="M165.3,260.6c0-1.9,1.6-3.5,3.5-3.5s3.5,1.6,3.5,3.5v27.2c0,1.9-1.6,3.5-3.5,3.5s-3.5-1.6-3.5-3.5V260.6z"/>
		<path class="st4" d="M179.2,260.6c0-1.9,1.6-3.5,3.5-3.5s3.5,1.6,3.5,3.5v27.2c0,1.9-1.6,3.5-3.5,3.5s-3.5-1.6-3.5-3.5V260.6z"/>
		<path class="st4" d="M192.7,260.4c0-2,1.7-3.3,3.9-3.3s3.9,1.2,3.9,3.3v0.1c0,2-1.7,3.3-3.9,3.3S192.7,262.5,192.7,260.4
			L192.7,260.4z M193.1,269.5c0-1.9,1.6-3.5,3.5-3.5c1.9,0,3.5,1.6,3.5,3.5v18.2c0,1.9-1.6,3.5-3.5,3.5c-1.9,0-3.5-1.6-3.5-3.5
			V269.5z"/>
		<path class="st4" d="M205.5,278.7L205.5,278.7c0-7.2,5.7-12.9,13.4-12.9c7.6,0,13.3,5.7,13.3,12.7v0.1c0,7.1-5.7,12.8-13.4,12.8
			C211.1,291.5,205.5,285.8,205.5,278.7z M225.3,278.7L225.3,278.7c0-3.7-2.6-6.9-6.5-6.9c-4,0-6.4,3.1-6.4,6.7v0.1
			c0,3.6,2.6,6.8,6.5,6.8C222.9,285.5,225.3,282.4,225.3,278.7z"/>
		<path class="st4" d="M237.2,269.5c0-1.9,1.6-3.5,3.5-3.5s3.5,1.6,3.5,3.5v0.3c1.6-2.1,3.7-4,7.2-4c5.3,0,8.4,3.5,8.4,9.2v12.7
			c0,1.9-1.6,3.5-3.5,3.5c-1.9,0-3.5-1.6-3.5-3.5v-10.5c0-3.3-1.6-5-4.2-5c-2.7,0-4.4,1.7-4.4,5v10.5c0,1.9-1.6,3.5-3.5,3.5
			s-3.5-1.6-3.5-3.5V269.5z"/>
	</g>
</g>
</svg>
