<?xml version="1.0" encoding="utf-8"?>
<!-- Generator: Adobe Illustrator 21.0.2, SVG Export Plug-In . SVG Version: 6.00 Build 0)  -->
<svg version="1.1" id="Layer_1" xmlns="http://www.w3.org/2000/svg" xmlns:xlink="http://www.w3.org/1999/xlink" x="0px" y="0px"
	 viewBox="0 0 367 367" style="enable-background:new 0 0 367 367;" xml:space="preserve">
<style type="text/css">
	.st0{fill:url(#SVGID_1_);}
	.st1{fill:url(#SVGID_2_);}
	.st2{fill:url(#SVGID_3_);}
	.st3{fill:url(#SVGID_4_);}
	.st4{fill:url(#SVGID_5_);}
	.st5{fill:url(#SVGID_6_);}
	.st6{fill:url(#SVGID_7_);}
	.st7{fill:url(#SVGID_8_);}
	.st8{fill:url(#SVGID_9_);}
	.st9{fill:#873299;}
	.st10{fill:url(#SVGID_10_);}
	.st11{fill:url(#SVGID_11_);}
	.st12{fill:url(#SVGID_12_);}
	.st13{fill:url(#SVGID_13_);}
	.st14{fill:url(#SVGID_14_);}
</style>
<g>
	<linearGradient id="SVGID_1_" gradientUnits="userSpaceOnUse" x1="599.3824" y1="183.2078" x2="836.8886" y2="183.2078">
		<stop  offset="0" style="stop-color:#EB3796"/>
		<stop  offset="1" style="stop-color:#873299"/>
	</linearGradient>
	<path class="st0" d="M617.4,207.2h-34.3c-4.9,0-8.9-3.6-8.9-8.5c0-3.8,1.5-6.8,4.3-10l36.2-42c3.5-4,6.1-6.2,11.4-6.2
		c4.9,0,8.8,3.8,8.8,8.7v43.1h4.4c4.2,0,7.5,3.3,7.5,7.5c0,4.2-3.3,7.4-7.5,7.4h-4.4v10c0,4.9-3.9,8.7-8.8,8.7
		c-4.9,0-8.7-3.8-8.7-8.7V207.2z M617.4,192.3v-25.9l-22.1,25.9H617.4z"/>
	<linearGradient id="SVGID_2_" gradientUnits="userSpaceOnUse" x1="592.2413" y1="183.5059" x2="829.7477" y2="183.5059">
		<stop  offset="0" style="stop-color:#EB3796"/>
		<stop  offset="1" style="stop-color:#873299"/>
	</linearGradient>
	<path class="st1" d="M651.4,183.7v-0.2c0-24.2,15-43.1,37.1-43.1c22,0,36.9,18.7,36.9,42.8v0.2c0,24.2-14.9,43.1-37.1,43.1
		C666,226.6,651.4,207.9,651.4,183.7z M706.6,183.7v-0.2c0-15.1-7.4-26.5-18.3-26.5c-11,0-18.1,11.1-18.1,26.3v0.2
		c0,15.2,7.3,26.5,18.3,26.5C699.6,210,706.6,198.9,706.6,183.7z"/>
	<linearGradient id="SVGID_3_" gradientUnits="userSpaceOnUse" x1="585.1003" y1="183.2677" x2="822.6066" y2="183.2677">
		<stop  offset="0" style="stop-color:#EB3796"/>
		<stop  offset="1" style="stop-color:#873299"/>
	</linearGradient>
	<path class="st2" d="M754.3,191.5h-14c-4.5,0-8.2-3.7-8.2-8.2c0-4.5,3.7-8.2,8.2-8.2h14v-13.7c0-4.6,3.8-8.5,8.5-8.5
		s8.5,3.8,8.5,8.5v13.7h14c4.5,0,8.2,3.7,8.2,8.2c0,4.5-3.7,8.2-8.2,8.2h-14v13.7c0,4.6-3.8,8.5-8.5,8.5s-8.5-3.8-8.5-8.5V191.5z"/>
	<linearGradient id="SVGID_4_" gradientUnits="userSpaceOnUse" x1="577.9587" y1="183.5054" x2="815.465" y2="183.5054">
		<stop  offset="0" style="stop-color:#EB3796"/>
		<stop  offset="1" style="stop-color:#873299"/>
	</linearGradient>
	<path class="st3" d="M799.1,162.4v-0.2c0-11.8,8.2-21.3,20.4-21.3c12,0,20.1,9.4,20.1,21.1v0.2c0,11.7-8.2,21.3-20.4,21.3
		C807.2,183.5,799.1,174.1,799.1,162.4z M827,162.4v-0.2c0-5.6-3.1-10.5-7.9-10.5c-5,0-7.6,4.8-7.6,10.2v0.2
		c0,5.6,3.1,10.5,7.9,10.5C824.4,172.7,827,167.8,827,162.4z M813.7,216.5l53.2-72.8c1.1-1.5,3-2.5,4.9-2.5c3.1,0,5.6,2.5,5.6,5.6
		c0,1.5-0.5,2.7-1.3,3.8l-53.2,72.8c-1.1,1.5-3,2.5-4.9,2.5c-3.1,0-5.6-2.5-5.6-5.6C812.4,218.7,813,217.5,813.7,216.5z M850.2,205
		v-0.2c0-11.8,8.2-21.3,20.4-21.3c12,0,20.1,9.4,20.1,21.1v0.2c0,11.7-8.2,21.3-20.4,21.3C858.3,226.1,850.2,216.7,850.2,205z
		 M878.2,205v-0.2c0-5.6-3.1-10.5-7.9-10.5c-5,0-7.6,4.8-7.6,10.2v0.2c0,5.6,3.1,10.5,7.9,10.5C875.6,215.3,878.2,210.4,878.2,205z"
		/>
</g>
<g>
	<linearGradient id="SVGID_5_" gradientUnits="userSpaceOnUse" x1="600.8144" y1="51.8458" x2="848.7506" y2="299.782">
		<stop  offset="0" style="stop-color:#EB3796"/>
		<stop  offset="1" style="stop-color:#873299"/>
	</linearGradient>
	<path class="st4" d="M732.5,364.6c-99.8,0-181-81.2-181-181.1S632.7,2.4,732.5,2.4s181,81.2,181,181.1S832.3,364.6,732.5,364.6z
		 M732.5,15.3c-92.7,0-168.1,75.5-168.1,168.2c0,92.7,75.4,168.2,168.1,168.2s168.1-75.5,168.1-168.2
		C900.6,90.8,825.2,15.3,732.5,15.3z"/>
</g>
<g>
	<linearGradient id="SVGID_6_" gradientUnits="userSpaceOnUse" x1="1149.2076" y1="51.8083" x2="1397.2146" y2="299.8152">
		<stop  offset="0" style="stop-color:#EB3796"/>
		<stop  offset="1" style="stop-color:#873299"/>
	</linearGradient>
	<path class="st5" d="M1280.9,364.6c-99.8,0-181.1-81.2-181.1-181.1S1181.1,2.4,1280.9,2.4c99.8,0,181.1,81.2,181.1,181.1
		S1380.7,364.6,1280.9,364.6z M1280.9,15.3c-92.7,0-168.2,75.5-168.2,168.2c0,92.7,75.5,168.2,168.2,168.2
		c92.7,0,168.2-75.5,168.2-168.2C1449.1,90.8,1373.7,15.3,1280.9,15.3z"/>
</g>
<g>
	<linearGradient id="SVGID_7_" gradientUnits="userSpaceOnUse" x1="1147.277" y1="181.842" x2="1344.6315" y2="181.842">
		<stop  offset="0" style="stop-color:#EB3796"/>
		<stop  offset="1" style="stop-color:#873299"/>
	</linearGradient>
	<path class="st6" d="M1163.5,211.7l29-23.8c12.7-10.4,17.6-16,17.6-24.5c0-8.6-5.7-13.3-13.7-13.3c-6.4,0-10.9,2.8-16.6,8.9
		c-1.5,1.6-4.1,3.2-7.6,3.2c-5.7,0-10.2-4.5-10.2-10.2c0-2.5,1-5.1,2.6-7c8.2-9.5,17.8-15,33.2-15c21.1,0,35.1,12.4,35.1,31.5v0.3
		c0,17.1-8.7,25.5-26.8,39.5l-16.6,12.8h35.6c5.4,0,9.8,4.4,9.8,9.8c0,5.4-4.4,9.6-9.8,9.6h-55.4c-7,0-12.1-3.9-12.1-10.6
		C1157.7,218.6,1159.7,214.8,1163.5,211.7z"/>
	<linearGradient id="SVGID_8_" gradientUnits="userSpaceOnUse" x1="1147.2767" y1="183.0081" x2="1344.6321" y2="183.0081">
		<stop  offset="0" style="stop-color:#EB3796"/>
		<stop  offset="1" style="stop-color:#873299"/>
	</linearGradient>
	<path class="st7" d="M1261.5,217.4l37.9-66.5h-39.1c-5.4,0-9.8-4.2-9.8-9.6c0-5.4,4.4-9.8,9.8-9.8h55.4c6.3,0,10.2,3.6,10.2,10.1
		c0,3.4-1.3,7.4-3.2,10.9l-41,74.3c-2.9,5.4-6.4,7.6-10.8,7.6c-6,0-11.5-3.6-11.5-10.1C1259.4,222.5,1260.3,219.5,1261.5,217.4z"/>
	<linearGradient id="SVGID_9_" gradientUnits="userSpaceOnUse" x1="1147.2773" y1="182.2792" x2="1344.6324" y2="182.2792">
		<stop  offset="0" style="stop-color:#EB3796"/>
		<stop  offset="1" style="stop-color:#873299"/>
	</linearGradient>
	<path class="st8" d="M1368,192.3h-17.2c-5.5,0-10.1-4.5-10.1-10.1c0-5.5,4.5-10.1,10.1-10.1h17.2v-16.8c0-5.7,4.7-10.4,10.4-10.4
		s10.4,4.7,10.4,10.4v16.8h17.2c5.5,0,10.1,4.5,10.1,10.1c0,5.5-4.5,10.1-10.1,10.1h-17.2v16.8c0,5.7-4.7,10.4-10.4,10.4
		s-10.4-4.7-10.4-10.4V192.3z"/>
</g>
<g>
	<path class="st9" d="M1204.8,269.5c0-1.9,1.6-3.5,3.5-3.5s3.5,1.6,3.5,3.5v0.3c1.6-2.1,3.7-4,7.3-4c3.2,0,5.7,1.4,6.9,3.9
		c2.2-2.5,4.7-3.9,8.1-3.9c5.2,0,8.3,3.1,8.3,9.1v12.8c0,1.9-1.6,3.5-3.5,3.5c-1.9,0-3.5-1.6-3.5-3.5v-10.5c0-3.3-1.5-5-4.1-5
		s-4.2,1.7-4.2,5v10.5c0,1.9-1.6,3.5-3.5,3.5s-3.5-1.6-3.5-3.5v-10.5c0-3.3-1.5-5-4.1-5s-4.2,1.7-4.2,5v10.5c0,1.9-1.6,3.5-3.5,3.5
		s-3.5-1.6-3.5-3.5V269.5z"/>
	<path class="st9" d="M1248.4,260.4c0-2,1.7-3.3,3.9-3.3s3.9,1.2,3.9,3.3v0.1c0,2-1.7,3.3-3.9,3.3S1248.4,262.5,1248.4,260.4
		L1248.4,260.4z M1248.8,269.5c0-1.9,1.6-3.5,3.5-3.5c1.9,0,3.5,1.6,3.5,3.5v18.2c0,1.9-1.6,3.5-3.5,3.5c-1.9,0-3.5-1.6-3.5-3.5
		V269.5z"/>
	<path class="st9" d="M1262.7,260.6c0-1.9,1.6-3.5,3.5-3.5s3.5,1.6,3.5,3.5v27.2c0,1.9-1.6,3.5-3.5,3.5s-3.5-1.6-3.5-3.5V260.6z"/>
	<path class="st9" d="M1276.6,260.6c0-1.9,1.6-3.5,3.5-3.5s3.5,1.6,3.5,3.5v27.2c0,1.9-1.6,3.5-3.5,3.5s-3.5-1.6-3.5-3.5V260.6z"/>
	<path class="st9" d="M1290.1,260.4c0-2,1.7-3.3,3.9-3.3s3.9,1.2,3.9,3.3v0.1c0,2-1.7,3.3-3.9,3.3S1290.1,262.5,1290.1,260.4
		L1290.1,260.4z M1290.5,269.5c0-1.9,1.6-3.5,3.5-3.5c1.9,0,3.5,1.6,3.5,3.5v18.2c0,1.9-1.6,3.5-3.5,3.5c-1.9,0-3.5-1.6-3.5-3.5
		V269.5z"/>
	<path class="st9" d="M1302.9,278.7L1302.9,278.7c0-7.2,5.7-12.9,13.4-12.9c7.6,0,13.3,5.7,13.3,12.7v0.1c0,7.1-5.7,12.8-13.4,12.8
		C1308.5,291.5,1302.9,285.8,1302.9,278.7z M1322.7,278.7L1322.7,278.7c0-3.7-2.6-6.9-6.5-6.9c-4,0-6.4,3.1-6.4,6.7v0.1
		c0,3.6,2.6,6.8,6.5,6.8C1320.3,285.5,1322.7,282.4,1322.7,278.7z"/>
	<path class="st9" d="M1334.6,269.5c0-1.9,1.6-3.5,3.5-3.5s3.5,1.6,3.5,3.5v0.3c1.6-2.1,3.7-4,7.2-4c5.3,0,8.4,3.5,8.4,9.2v12.7
		c0,1.9-1.6,3.5-3.5,3.5c-1.9,0-3.5-1.6-3.5-3.5v-10.5c0-3.3-1.6-5-4.2-5c-2.7,0-4.4,1.7-4.4,5v10.5c0,1.9-1.6,3.5-3.5,3.5
		s-3.5-1.6-3.5-3.5V269.5z"/>
</g>
<g>
	<g>
		<linearGradient id="SVGID_10_" gradientUnits="userSpaceOnUse" x1="42.5776" y1="183.8523" x2="267.2385" y2="183.8523">
			<stop  offset="0" style="stop-color:#EB3796"/>
			<stop  offset="1" style="stop-color:#873299"/>
		</linearGradient>
		<path class="st10" d="M48.9,216.6l36-63.2H47.8c-5.1,0-9.3-4-9.3-9.1s4.2-9.3,9.3-9.3h52.6c6,0,9.7,3.5,9.7,9.6
			c0,3.2-1.2,7.1-3,10.4l-38.9,70.7c-2.8,5.1-6.1,7.2-10.3,7.2c-5.7,0-10.9-3.5-10.9-9.6C47,221.4,47.8,218.5,48.9,216.6z"/>
		<linearGradient id="SVGID_11_" gradientUnits="userSpaceOnUse" x1="42.5772" y1="184.2683" x2="267.2379" y2="184.2683">
			<stop  offset="0" style="stop-color:#EB3796"/>
			<stop  offset="1" style="stop-color:#873299"/>
		</linearGradient>
		<path class="st11" d="M124.7,224.4c-2.5-1.8-4.3-4.6-4.3-8.2c0-5.5,4.6-10.3,10.1-10.3c2.5,0,4.2,0.7,5.8,1.9
			c6,4.3,11.6,6.2,18.4,6.2c9,0,15.7-4.8,15.7-13.4v-0.3c0-8.3-7.1-13.2-17.2-13.2c-8.2,0-11.8,2.5-14.7,2.5c-3,0-5.4-1.2-9.7-4.3
			c-2.9-2.1-4.2-5-3.9-8.6l1.9-32.8c0.3-5.1,4.3-9.1,9.4-9.1h42.1c5.1,0,9.4,4.3,9.4,9.4s-4.3,9.3-9.4,9.3h-32.7l-1.1,16.8
			c3.9-1,7.3-1.7,12.7-1.7c19.1,0,33.9,9.1,33.9,31v0.3c0,20.5-14.8,33.5-36.2,33.5C141.7,233.6,132.5,230,124.7,224.4z"/>
		<linearGradient id="SVGID_12_" gradientUnits="userSpaceOnUse" x1="42.5778" y1="220.8451" x2="267.2385" y2="220.8451">
			<stop  offset="0" style="stop-color:#EB3796"/>
			<stop  offset="1" style="stop-color:#873299"/>
		</linearGradient>
		<path class="st12" d="M219.3,208.9c6.9,0,12.1,5.1,12.1,11.8v0.3c0,6.6-5.1,11.8-12.1,11.8c-6.9,0-12.1-5.1-12.1-11.8v-0.3
			C207.3,214.1,212.4,208.9,219.3,208.9z"/>
		<linearGradient id="SVGID_13_" gradientUnits="userSpaceOnUse" x1="42.5778" y1="183.0899" x2="267.2389" y2="183.0899">
			<stop  offset="0" style="stop-color:#EB3796"/>
			<stop  offset="1" style="stop-color:#873299"/>
		</linearGradient>
		<path class="st13" d="M294.3,211h-39.9c-5.7,0-10.4-4.2-10.4-9.8c0-4.4,1.8-7.9,5-11.6l42.1-48.9c4-4.7,7.1-7.2,13.3-7.2
			c5.7,0,10.3,4.4,10.3,10.1v50.2h5.1c4.8,0,8.7,3.9,8.7,8.7c0,4.9-3.9,8.6-8.7,8.6h-5.1v11.6c0,5.7-4.6,10.1-10.3,10.1
			c-5.7,0-10.1-4.4-10.1-10.1V211z M294.3,193.7v-30.2l-25.8,30.2H294.3z"/>
	</g>
	<g>
		<linearGradient id="SVGID_14_" gradientUnits="userSpaceOnUse" x1="51.8083" y1="51.8083" x2="299.8152" y2="299.8152">
			<stop  offset="0" style="stop-color:#EB3796"/>
			<stop  offset="1" style="stop-color:#873299"/>
		</linearGradient>
		<path class="st14" d="M183.5,364.6c-99.8,0-181.1-81.2-181.1-181.1S83.7,2.4,183.5,2.4s181.1,81.2,181.1,181.1
			S283.3,364.6,183.5,364.6z M183.5,15.3c-92.7,0-168.2,75.5-168.2,168.2c0,92.7,75.5,168.2,168.2,168.2s168.2-75.5,168.2-168.2
			C351.7,90.8,276.3,15.3,183.5,15.3z"/>
	</g>
	<g>
		<path class="st9" d="M107.4,269.5c0-1.9,1.6-3.5,3.5-3.5s3.5,1.6,3.5,3.5v0.3c1.6-2.1,3.7-4,7.3-4c3.2,0,5.7,1.4,6.9,3.9
			c2.2-2.5,4.7-3.9,8.1-3.9c5.2,0,8.3,3.1,8.3,9.1v12.8c0,1.9-1.6,3.5-3.5,3.5c-1.9,0-3.5-1.6-3.5-3.5v-10.5c0-3.3-1.5-5-4.1-5
			s-4.2,1.7-4.2,5v10.5c0,1.9-1.6,3.5-3.5,3.5c-1.9,0-3.5-1.6-3.5-3.5v-10.5c0-3.3-1.5-5-4.1-5s-4.2,1.7-4.2,5v10.5
			c0,1.9-1.6,3.5-3.5,3.5s-3.5-1.6-3.5-3.5V269.5z"/>
		<path class="st9" d="M151,260.4c0-2,1.7-3.3,3.9-3.3s3.9,1.2,3.9,3.3v0.1c0,2-1.7,3.3-3.9,3.3S151,262.5,151,260.4L151,260.4z
			 M151.4,269.5c0-1.9,1.6-3.5,3.5-3.5c1.9,0,3.5,1.6,3.5,3.5v18.2c0,1.9-1.6,3.5-3.5,3.5c-1.9,0-3.5-1.6-3.5-3.5V269.5z"/>
		<path class="st9" d="M165.3,260.6c0-1.9,1.6-3.5,3.5-3.5s3.5,1.6,3.5,3.5v27.2c0,1.9-1.6,3.5-3.5,3.5s-3.5-1.6-3.5-3.5V260.6z"/>
		<path class="st9" d="M179.2,260.6c0-1.9,1.6-3.5,3.5-3.5s3.5,1.6,3.5,3.5v27.2c0,1.9-1.6,3.5-3.5,3.5s-3.5-1.6-3.5-3.5V260.6z"/>
		<path class="st9" d="M192.7,260.4c0-2,1.7-3.3,3.9-3.3s3.9,1.2,3.9,3.3v0.1c0,2-1.7,3.3-3.9,3.3S192.7,262.5,192.7,260.4
			L192.7,260.4z M193.1,269.5c0-1.9,1.6-3.5,3.5-3.5c1.9,0,3.5,1.6,3.5,3.5v18.2c0,1.9-1.6,3.5-3.5,3.5c-1.9,0-3.5-1.6-3.5-3.5
			V269.5z"/>
		<path class="st9" d="M205.5,278.7L205.5,278.7c0-7.2,5.7-12.9,13.4-12.9c7.6,0,13.3,5.7,13.3,12.7v0.1c0,7.1-5.7,12.8-13.4,12.8
			C211.1,291.5,205.5,285.8,205.5,278.7z M225.3,278.7L225.3,278.7c0-3.7-2.6-6.9-6.5-6.9c-4,0-6.4,3.1-6.4,6.7v0.1
			c0,3.6,2.6,6.8,6.5,6.8C222.9,285.5,225.3,282.4,225.3,278.7z"/>
		<path class="st9" d="M237.2,269.5c0-1.9,1.6-3.5,3.5-3.5s3.5,1.6,3.5,3.5v0.3c1.6-2.1,3.7-4,7.2-4c5.3,0,8.4,3.5,8.4,9.2v12.7
			c0,1.9-1.6,3.5-3.5,3.5c-1.9,0-3.5-1.6-3.5-3.5v-10.5c0-3.3-1.6-5-4.2-5c-2.7,0-4.4,1.7-4.4,5v10.5c0,1.9-1.6,3.5-3.5,3.5
			s-3.5-1.6-3.5-3.5V269.5z"/>
	</g>
</g>
</svg>
