<?xml version="1.0" encoding="utf-8"?>
<!-- Generator: Adobe Illustrator 21.0.2, SVG Export Plug-In . SVG Version: 6.00 Build 0)  -->
<svg version="1.1" id="Layer_1" xmlns="http://www.w3.org/2000/svg" xmlns:xlink="http://www.w3.org/1999/xlink" x="0px" y="0px"
	 viewBox="0 0 139.9 129.8" style="enable-background:new 0 0 139.9 129.8;" xml:space="preserve">
<style type="text/css">
	.st0{fill:#FFFFFF;}
</style>
<g>
	<g transform="translate(0,-952.36218)">
		<g>
			<path class="st0" d="M49.8,998.8l4,52.4h32.2l4-52.4H49.8z M69.9,1034.6c-5.7,0-10.2-4.6-10.2-10.2c0-5.7,4.6-10.2,10.2-10.2
				c5.7,0,10.2,4.6,10.2,10.2C80.2,1030.1,75.6,1034.6,69.9,1034.6z"/>
			<path class="st0" d="M92,992.8h-2.2l-4.6-7.6H54.6l-4.6,7.6h-2.2c-1.1,0-2.1,0.9-2.1,2.1c0,1.1,0.9,2.1,2.1,2.1H92
				c1.1,0,2.1-0.9,2.1-2.1C94.1,993.7,93.2,992.8,92,992.8z"/>
		</g>
	</g>
	<g>
		<g>
			<g id="XMLID_25_">
				<g>
					<path class="st0" d="M69.9,4.2C33.8,4.2,4.5,31.4,4.5,64.9c0,33.5,29.3,60.7,65.4,60.7c36.1,0,65.4-27.2,65.4-60.7
						C135.4,31.4,106,4.2,69.9,4.2 M69.9,110.6c-27.4,0-49.6-20.5-49.6-45.7c0-25.4,22.3-46,49.6-46c27.3,0,49.6,20.6,49.6,46
						C119.5,90.1,97.3,110.6,69.9,110.6"/>
				</g>
			</g>
		</g>
	</g>
</g>
</svg>
