<?xml version="1.0" encoding="utf-8"?>
<!-- Generator: Adobe Illustrator 21.0.2, SVG Export Plug-In . SVG Version: 6.00 Build 0)  -->
<svg version="1.1" id="Layer_1" xmlns="http://www.w3.org/2000/svg" xmlns:xlink="http://www.w3.org/1999/xlink" x="0px" y="0px"
	 viewBox="0 0 139.9 129.8" style="enable-background:new 0 0 139.9 129.8;" xml:space="preserve">
<style type="text/css">
	.st0{fill:#FFFFFF;}
</style>
<g>
	<g>
		<g>
			<g id="XMLID_31_">
				<g>
					<path class="st0" d="M69.9,4.2C33.8,4.2,4.5,31.4,4.5,64.9c0,33.5,29.3,60.7,65.4,60.7c36.1,0,65.4-27.2,65.4-60.7
						C135.4,31.4,106,4.2,69.9,4.2 M69.9,110.6c-27.4,0-49.6-20.5-49.6-45.7c0-25.4,22.3-46,49.6-46c27.3,0,49.6,20.6,49.6,46
						C119.5,90.1,97.3,110.6,69.9,110.6"/>
				</g>
			</g>
		</g>
	</g>
	<g>
		<g>
			<g>
				<path class="st0" d="M72.9,72.4L60.7,60.2c-0.5-0.5-1.3-0.5-1.9,0.1L39.6,79.5c-0.5,0.5-0.7,1.4-0.1,1.9l12.2,12.2
					c0.5,0.5,1.3,0.5,1.9-0.1l19.2-19.2C73.2,73.7,73.4,72.9,72.9,72.4z"/>
			</g>
		</g>
		<g>
			<g>
				<path class="st0" d="M68.9,73.2L60,64.3c-0.6-0.6-0.8-1.8-0.2-2.4L74,47.7c0.6-0.6,1.8-0.8,2.6,0l8.9,8.9c0.6,0.6,0.8,1.8,0,2.6
					L71.3,73.4C70.5,73.8,69.5,73.8,68.9,73.2z M63.5,63l6.5,6.5l11.6-11.6l-6.5-6.5L63.5,63z"/>
			</g>
		</g>
		<g>
			<g>
				<path class="st0" d="M90.5,46.4l-1.1-6.3c0-0.6-0.5-1.1-1.3-1.3c-0.5-0.2-1.3,0-1.8,0.5L75.8,49.8c-0.6,0.6-0.8,1.8,0,2.6
					l4.9,4.9c0.6,0.6,1.8,0.8,2.6,0l5.8-5.8C90.4,50.1,90.8,48.3,90.5,46.4z"/>
			</g>
		</g>
	</g>
</g>
</svg>
