<?xml version="1.0" encoding="utf-8"?>
<!-- Generator: Adobe Illustrator 21.0.2, SVG Export Plug-In . SVG Version: 6.00 Build 0)  -->
<svg version="1.1" id="Layer_1" xmlns="http://www.w3.org/2000/svg" xmlns:xlink="http://www.w3.org/1999/xlink" x="0px" y="0px"
	 viewBox="0 0 139.9 129.8" style="enable-background:new 0 0 139.9 129.8;" xml:space="preserve">
<style type="text/css">
	.st0{fill:#FFFFFF;}
</style>
<g>
	<path class="st0" d="M109.6,70c-0.1-0.3-10.5-32.2-40-39.9l-1.3-0.3L43.7,96.2L110,71.3L109.6,70z M61.6,64.2c1,0,1.8,0.8,1.8,1.8
		c0,1-0.8,1.8-1.8,1.8c-1,0-1.8-0.8-1.8-1.8C59.8,65,60.6,64.2,61.6,64.2z M58.8,85.1l-4.6-2.3l1.3-2.6l4.6,2.3L58.8,85.1z
		 M65.9,81.3c-3.3,0-6.1-2.7-6.1-6.1c0-3.4,2.7-6.1,6.1-6.1s6.1,2.7,6.1,6.1C72.1,78.6,69.3,81.3,65.9,81.3z M68.8,64.7
		c-3.3,0-6.1-2.7-6.1-6.1s2.7-6.1,6.1-6.1c3.4,0,6.1,2.7,6.1,6.1S72.2,64.7,68.8,64.7z M67.9,48.5c0-1,0.8-1.8,1.8-1.8
		s1.8,0.8,1.8,1.8c0,1-0.8,1.8-1.8,1.8S67.9,49.6,67.9,48.5z M73.4,65.5h2.9v5.1h-2.9V65.5z M77,78.3c-1,0-1.8-0.8-1.8-1.8
		s0.8-1.8,1.8-1.8c1,0,1.8,0.8,1.8,1.8S78,78.3,77,78.3z M77.2,57.2l2.9-4.2l2.4,1.6l-2.9,4.2L77.2,57.2z M85.8,75.2
		c-3.3,0-6.1-2.7-6.1-6.1c0-3.4,2.7-6.1,6.1-6.1c3.3,0,6.1,2.7,6.1,6.1C91.9,72.5,89.2,75.2,85.8,75.2z M99.3,72.3l-0.1-0.2
		c-6.5-20.8-25.7-29.7-31.4-32L67.6,40l2.5-6.8l0.2,0.1c23.7,7,34.1,31.3,36,36.1l0.1,0.2L99.3,72.3z"/>
	<path class="st0" d="M68.8,55.4c-1.8,0-3.2,1.4-3.2,3.2s1.4,3.2,3.2,3.2s3.2-1.4,3.2-3.2S70.6,55.4,68.8,55.4z"/>
	<path class="st0" d="M65.9,72c-1.8,0-3.2,1.4-3.2,3.2c0,1.8,1.4,3.2,3.2,3.2c1.8,0,3.2-1.4,3.2-3.2C69.1,73.4,67.7,72,65.9,72z"/>
	<path class="st0" d="M85.8,65.8c-1.8,0-3.2,1.4-3.2,3.2c0,1.8,1.4,3.2,3.2,3.2S89,70.8,89,69C89,67.3,87.5,65.8,85.8,65.8z"/>
</g>
<g>
	<g>
		<g id="XMLID_31_">
			<g>
				<path class="st0" d="M69.9,4.2C33.8,4.2,4.5,31.4,4.5,64.9c0,33.5,29.3,60.7,65.4,60.7c36.1,0,65.4-27.2,65.4-60.7
					C135.4,31.4,106,4.2,69.9,4.2 M69.9,110.6c-27.4,0-49.6-20.5-49.6-45.7c0-25.4,22.3-46,49.6-46c27.3,0,49.6,20.6,49.6,46
					C119.5,90.1,97.3,110.6,69.9,110.6"/>
			</g>
		</g>
	</g>
</g>
</svg>
