<?xml version="1.0" encoding="utf-8"?>
<!-- Generator: Adobe Illustrator 19.0.0, SVG Export Plug-In . SVG Version: 6.00 Build 0)  -->
<svg version="1.1" id="Layer_1" xmlns="http://www.w3.org/2000/svg" xmlns:xlink="http://www.w3.org/1999/xlink" x="0px" y="0px"
	 viewBox="-213 305.39999 183.60001 183.60001" style="enable-background:new -213 305.39999 183.60001 183.60001;"
	 xml:space="preserve">
<metadata><?xpacket begin="﻿" id="W5M0MpCehiHzreSzNTczkc9d"?>
<x:xmpmeta xmlns:x="adobe:ns:meta/" x:xmptk="Adobe XMP Core 5.6-c067 79.157747, 2015/03/30-23:40:42        ">
   <rdf:RDF xmlns:rdf="http://www.w3.org/1999/02/22-rdf-syntax-ns#">
      <rdf:Description rdf:about=""/>
   </rdf:RDF>
</x:xmpmeta>
                                                                                                    
                                                                                                    
                                                                                                    
                                                                                                    
                                                                                                    
                                                                                                    
                                                                                                    
                                                                                                    
                                                                                                    
                                                                                                    
                                                                                                    
                                                                                                    
                                                                                                    
                                                                                                    
                                                                                                    
                                                                                                    
                                                                                                    
                                                                                                    
                                                                                                    
                                                                                                    
                           
<?xpacket end="w"?></metadata>
<style type="text/css">
	.st0{fill:none;stroke:#293F99;stroke-miterlimit:10;}
	.st1{fill:#293F99;}
</style>
<path class="st0" d="M-34.60001,384.70001c-3.2-21.40002-13-39.30002-29.2-53.60001c-13.2-11.60001-28.7-18.39999-46-20.80002
	c-2.3-0.29999-4.6-0.5-6.9-0.79999c-3,0-5.9,0-8.9,0c-2.7,0.29999-5.39999,0.60001-8.10001,1c-22.5,3.39999-41,14-55.5,31.5
	C-199.7,354.79999-206,369.5-208.10001,385.79999c-5.79999,44.60001,22.60001,85.5,65.10001,96.29999
	c47,12,94-15.69998,106.5-62.59998c1.39999-5.20001,1.8-10.60001,2.7-16c0.10001-0.60001,0.2-1.20001,0.3-1.80002
	c0-3,0-5.89999,0-8.89999C-33.89999,390.09998-34.2,387.39999-34.60001,384.70001z"/>
<path class="st1" d="M-73.20001,389.69995c-0.20001-4.5-0.59998-9-1.29999-13.39996c-1.20001-7.10004-4.90002-11-11.10004-12.20001
	c-1.5-0.29999-3.09998-0.40002-4.59998-0.40002C-103.90002,363.39996-117.60004,363-131.29999,363c-8,0-16.10004,0.5-24.10004,1
	c-4.89996,0.29999-8.70001,2.69995-10.70001,7.29999c-0.69995,1.59998-1.29999,3.29999-1.59998,5
	c-1.70001,9.89996-1.70001,20-1.20001,30c0.20001,4,0.5,8,1.20001,11.89996c1.40002,8,5.5,11.80005,13.59998,12.30005
	c10.90002,0.70001,21.90002,0.89996,33.30005,1.29999c11-0.5,22.39996-0.79999,33.89996-1.40002
	c5-0.19995,8.80005-2.79999,10.80005-7.59998c0.89996-2.09998,1.5-4.40002,1.79999-6.70001
	C-73.09998,407.39996-73,398.59998-73.20001,389.69995z M-130.70001,409.39996c0-9.09998,0-18,0-27
	c8.60004,4.5,17,8.90002,25.70001,13.5C-113.70001,400.39996-122.09998,404.89996-130.70001,409.39996z"/>
</svg>
