<?xml version="1.0" encoding="utf-8"?>
<!-- Generator: Adobe Illustrator 19.0.0, SVG Export Plug-In . SVG Version: 6.00 Build 0)  -->
<svg version="1.1" id="Layer_1" xmlns="http://www.w3.org/2000/svg" xmlns:xlink="http://www.w3.org/1999/xlink" x="0px" y="0px"
	 viewBox="-213 305.39999 183.60001 183.60001" style="enable-background:new -213 305.39999 183.60001 183.60001;"
	 xml:space="preserve">
<metadata><?xpacket begin="﻿" id="W5M0MpCehiHzreSzNTczkc9d"?>
<x:xmpmeta xmlns:x="adobe:ns:meta/" x:xmptk="Adobe XMP Core 5.6-c067 79.157747, 2015/03/30-23:40:42        ">
   <rdf:RDF xmlns:rdf="http://www.w3.org/1999/02/22-rdf-syntax-ns#">
      <rdf:Description rdf:about=""/>
   </rdf:RDF>
</x:xmpmeta>
                                                                                                    
                                                                                                    
                                                                                                    
                                                                                                    
                                                                                                    
                                                                                                    
                                                                                                    
                                                                                                    
                                                                                                    
                                                                                                    
                                                                                                    
                                                                                                    
                                                                                                    
                                                                                                    
                                                                                                    
                                                                                                    
                                                                                                    
                                                                                                    
                                                                                                    
                                                                                                    
                           
<?xpacket end="w"?></metadata>
<style type="text/css">
	.st0{fill:none;stroke:#1B3A68;stroke-miterlimit:10;}
	.st1{fill:#1B3A68;}
</style>
<circle class="st0" cx="-121.2" cy="397.19998" r="88.2"/>
<path class="st1" d="M-77.7,383.29999c0,0.90002,0.10001,1.80002,0.10001,2.70001c0,27.89999-21.2,60-60,60
	c-11.90001,0-23-3.5-32.3-9.5c1.60001,0.20001,3.3,0.29999,5,0.29999c9.89999,0,19-3.39996,26.20001-9
	c-9.20001-0.19998-17.10001-6.29999-19.70001-14.59998c1.3,0.19998,2.5,0.39999,3.90001,0.39999
	c1.89999,0,3.59999-0.30002,5.39999-0.69998c-9.59999-1.90002-17.3-10.5-17.3-20.70001c0-0.10001,0-0.20001,0-0.29999
	c3.90001,1.59998,6.40001,2.5,9.90001,2.59998c-5.7-3.79999-9-10.19998-9-17.59998c0-3.90002,1-7.5,2.90001-10.60001
	c10.39999,12.79999,25.89999,21.19998,43.49999,22c-0.4-1.5-0.5-3.20001-0.5-4.80002c0-11.59998,9.4-21.09998,21.1-21.09998
	c6.1,0,11.6,2.59998,15.39999,6.69998c4.8-0.89999,9.3-2.69998,13.39999-5.10001c-1.60001,4.90002-4.89999,9.10001-9.3,11.70001
	c4.3-0.5,8.3-1.60001,12.10001-3.29999C-70,376.59998-73.60001,380.29999-77.7,383.29999z"/>
</svg>
