<?xml version="1.0" encoding="utf-8"?>
<!-- Generator: Adobe Illustrator 19.0.0, SVG Export Plug-In . SVG Version: 6.00 Build 0)  -->
<svg version="1.1" id="Layer_1" xmlns="http://www.w3.org/2000/svg" xmlns:xlink="http://www.w3.org/1999/xlink" x="0px" y="0px"
	 viewBox="-213 305.39999 183.60001 183.60001" style="enable-background:new -213 305.39999 183.60001 183.60001;"
	 xml:space="preserve">
<metadata><?xpacket begin="﻿" id="W5M0MpCehiHzreSzNTczkc9d"?>
<x:xmpmeta xmlns:x="adobe:ns:meta/" x:xmptk="Adobe XMP Core 5.6-c067 79.157747, 2015/03/30-23:40:42        ">
   <rdf:RDF xmlns:rdf="http://www.w3.org/1999/02/22-rdf-syntax-ns#">
      <rdf:Description rdf:about=""/>
   </rdf:RDF>
</x:xmpmeta>
                                                                                                    
                                                                                                    
                                                                                                    
                                                                                                    
                                                                                                    
                                                                                                    
                                                                                                    
                                                                                                    
                                                                                                    
                                                                                                    
                                                                                                    
                                                                                                    
                                                                                                    
                                                                                                    
                                                                                                    
                                                                                                    
                                                                                                    
                                                                                                    
                                                                                                    
                                                                                                    
                           
<?xpacket end="w"?></metadata>
<style type="text/css">
	.st0{fill:#4059A8;}
	.st1{fill:none;stroke:#4059A8;stroke-miterlimit:10;}
</style>
<g>
	<path class="st0" d="M-93.79999,363.39996c-3.70001,0-6.60004,3-6.60004,6.60004c0,3.70001,3,6.59998,6.60004,6.59998
		c3.59998,0,6.59998-2.89996,6.59998-6.59998S-90.09998,363.39996-93.79999,363.39996z"/>
	<path class="st0" d="M-121.20001,369.79999c-15.09998,0-27.39996,12.29999-27.39996,27.40002
		c0,15.09998,12.29999,27.39996,27.39996,27.39996c15.10004,0,27.40002-12.29999,27.40002-27.39996
		C-93.79999,382.09998-106.09998,369.79999-121.20001,369.79999z M-121.20001,413.89996
		c-9.22314,0-16.69995-7.47681-16.69995-16.69995c0-9.22321,7.47681-16.70001,16.69995-16.70001
		c9.22321,0,16.70001,7.47681,16.70001,16.70001C-104.5,406.42316-111.97681,413.89996-121.20001,413.89996z"/>
	<path class="st0" d="M-99.59998,345.79999h-42.20001c-17.40002,0-31.5,14.09998-31.5,31.5v42.29999
		c0,17.40002,14.09998,31.5,31.5,31.5h42.20001c17.39996,0,31.5-14.09998,31.5-31.5v-42.29999
		C-68.09998,359.89996-82.20001,345.79999-99.59998,345.79999z M-79.70001,418.59998c0,11.59998-9.39996,20.90002-20.89996,20.90002
		h-42.10004c-11.59998,0-20.89996-9.40002-20.89996-20.90002V376.5c0-11.60004,9.39996-20.90002,20.89996-20.90002h42.10004
		c11.5,0,20.79999,9.29999,20.89996,20.79999V418.59998z"/>
</g>
<circle class="st1" cx="-121.2" cy="397.19998" r="88.19057"/>
</svg>
