<?xml version="1.0" encoding="utf-8"?>
<!-- Generator: Adobe Illustrator 21.0.2, SVG Export Plug-In . SVG Version: 6.00 Build 0)  -->
<svg version="1.1" id="Layer_1" xmlns="http://www.w3.org/2000/svg" xmlns:xlink="http://www.w3.org/1999/xlink" x="0px" y="0px"
	 viewBox="0 0 175.3 175.3" style="enable-background:new 0 0 175.3 175.3;" xml:space="preserve">
<style type="text/css">
	.st0{fill:url(#SVGID_1_);}
	.st1{fill:url(#SVGID_2_);}
	.st2{fill:url(#SVGID_3_);}
	.st3{fill:url(#SVGID_4_);}
	.st4{fill:url(#SVGID_5_);}
</style>
<g>
	
		<linearGradient id="SVGID_1_" gradientUnits="userSpaceOnUse" x1="-0.4924" y1="982.5093" x2="275.5298" y2="995.8115" gradientTransform="matrix(1 0 0 1 0 -902)">
		<stop  offset="9.615400e-04" style="stop-color:#00A8E1"/>
		<stop  offset="1" style="stop-color:#00B550"/>
	</linearGradient>
	<path class="st0" d="M93.7,81.2c0.6,0.1,1.1,0.8,1,1.4c-0.3,1.7-1.1,3.2-2.4,4.3c-1.3,1.1-2.9,1.7-4.7,1.7c-3.5,0-6.6-2.6-7-6.1
		c-0.1-0.7,0.4-1.3,1-1.4c0.7-0.1,1.3,0.4,1.4,1c0.3,2.3,2.3,4.1,4.6,4.1c2.3,0,4.3-1.7,4.6-4C92.3,81.6,92.9,81.1,93.7,81.2"/>
	
		<linearGradient id="SVGID_2_" gradientUnits="userSpaceOnUse" x1="-0.3694" y1="979.9561" x2="275.6539" y2="993.2585" gradientTransform="matrix(1 0 0 1 0 -902)">
		<stop  offset="9.615400e-04" style="stop-color:#00A8E1"/>
		<stop  offset="1" style="stop-color:#00B550"/>
	</linearGradient>
	<path class="st1" d="M87.7,95.7c7.4,0,13.4-6.1,13.4-13.5S95,68.7,87.7,68.7c-7.4,0-13.5,6.1-13.5,13.5S80.2,95.7,87.7,95.7z
		 M87.7,72.7c5.2,0,9.5,4.3,9.5,9.6c0,5.2-4.2,9.5-9.5,9.5s-9.5-4.3-9.5-9.5C78.2,76.9,82.3,72.7,87.7,72.7z"/>
	
		<linearGradient id="SVGID_3_" gradientUnits="userSpaceOnUse" x1="-0.4973" y1="982.6041" x2="275.5265" y2="995.9064" gradientTransform="matrix(1 0 0 1 0 -902)">
		<stop  offset="9.615400e-04" style="stop-color:#00A8E1"/>
		<stop  offset="1" style="stop-color:#00B550"/>
	</linearGradient>
	<path class="st2" d="M87.7,88.7c1.7,0,3.3-0.6,4.7-1.7c1.3-1.1,2.1-2.6,2.4-4.3c0.1-0.7-0.4-1.3-1-1.4c-0.7-0.1-1.3,0.4-1.4,1.1
		c-0.3,2.3-2.3,4-4.6,4c-2.3,0-4.3-1.8-4.6-4.1c-0.1-0.7-0.7-1.1-1.4-1c-0.7,0.1-1.2,0.7-1,1.4C81.1,86.1,84.1,88.7,87.7,88.7z"/>
	
		<linearGradient id="SVGID_4_" gradientUnits="userSpaceOnUse" x1="-0.6319" y1="985.4004" x2="275.3908" y2="998.7027" gradientTransform="matrix(1 0 0 1 0 -902)">
		<stop  offset="9.615400e-04" style="stop-color:#00A8E1"/>
		<stop  offset="1" style="stop-color:#00B550"/>
	</linearGradient>
	<path class="st3" d="M109.3,35.8H65.8c-2.8,0-5.2,2.3-5.2,5.2v93.3c0,2.9,2.3,5.2,5.2,5.2h43.5c2.8,0,5.2-2.3,5.2-5.2V41
		C114.6,38.2,112.2,35.8,109.3,35.8z M81.1,40h13c0.8,0,1.4,0.6,1.4,1.5c0,0.8-0.6,1.4-1.4,1.4h-13c-0.8,0-1.4-0.7-1.4-1.4
		C79.7,40.6,80.2,40,81.1,40z M87.6,133.4c-2.6,0-4.6-2.1-4.6-4.7c0-2.6,2.1-4.7,4.6-4.7c2.6,0,4.7,2.1,4.7,4.7
		C92.2,131.4,90.2,133.4,87.6,133.4z M111.2,120.1H64V46.9h47.3v73.2H111.2z"/>
	
		<linearGradient id="SVGID_5_" gradientUnits="userSpaceOnUse" x1="-0.6317" y1="985.3932" x2="275.3911" y2="998.6955" gradientTransform="matrix(1 0 0 1 0 -902)">
		<stop  offset="9.615400e-04" style="stop-color:#00A8E1"/>
		<stop  offset="1" style="stop-color:#00B550"/>
	</linearGradient>
	<path class="st4" d="M87.7,174.5c-47.9,0-86.9-38.9-86.9-86.8s39-86.9,86.9-86.9s86.9,39,86.9,86.9
		C174.4,135.6,135.6,174.5,87.7,174.5z M87.7,7C43.2,7,7,43.2,7,87.7s36.2,80.7,80.7,80.7s80.7-36.2,80.7-80.7
		C168.2,43.2,132.1,7,87.7,7z"/>
</g>
</svg>
