<?xml version="1.0" encoding="utf-8"?>
<!-- Generator: Adobe Illustrator 21.0.2, SVG Export Plug-In . SVG Version: 6.00 Build 0)  -->
<svg version="1.1" id="Layer_1" xmlns="http://www.w3.org/2000/svg" xmlns:xlink="http://www.w3.org/1999/xlink" x="0px" y="0px"
	 viewBox="0 0 175.3 175.3" style="enable-background:new 0 0 175.3 175.3;" xml:space="preserve">
<style type="text/css">
	.st0{fill:url(#SVGID_1_);}
	.st1{fill:url(#SVGID_2_);}
</style>
<g>
	
		<linearGradient id="SVGID_1_" gradientUnits="userSpaceOnUse" x1="-60.5351" y1="989.65" x2="232.1156" y2="989.65" gradientTransform="matrix(1 0 0 1 0 -902)">
		<stop  offset="9.615400e-04" style="stop-color:#00A8E1"/>
		<stop  offset="1" style="stop-color:#00B550"/>
	</linearGradient>
	<path class="st0" d="M112.5,70.9h-2.4v-5.5c0-12-9.7-21.8-21.7-21.8s-21.7,9.8-21.7,21.8v5.5H63c-6.4,0-11.6,5.1-11.6,11.4v38.1
		c0,6.2,5.2,11.3,11.6,11.3h49.5c6.4,0,11.6-5.1,11.6-11.3V82.3C124,76,118.8,70.9,112.5,70.9z M96.5,114.7c0.1,0.4,0,0.9-0.2,1.3
		c-0.3,0.4-0.7,0.6-1.1,0.6H81.8c-0.4,0-0.9-0.2-1.1-0.6c-0.3-0.4-0.4-0.8-0.2-1.3l3.2-10.7c-2.7-1.6-4.4-4.6-4.4-7.8
		c0-5,4.1-9.1,9.1-9.1s9.1,4.1,9.1,9.1c0,3.2-1.6,6-4.2,7.7L96.5,114.7z M102,70.9H74.8v-5.5c0-7.6,6.1-13.7,13.6-13.7
		S102,57.8,102,65.4V70.9L102,70.9z"/>
	
		<linearGradient id="SVGID_2_" gradientUnits="userSpaceOnUse" x1="-60.5351" y1="989.6" x2="232.1156" y2="989.6" gradientTransform="matrix(1 0 0 1 0 -902)">
		<stop  offset="9.615400e-04" style="stop-color:#00A8E1"/>
		<stop  offset="1" style="stop-color:#00B550"/>
	</linearGradient>
	<path class="st1" d="M87.6,174.5c-47.9,0-86.9-39-86.9-86.9s39-86.9,86.9-86.9s86.9,39,86.9,86.9
		C174.6,135.6,135.6,174.5,87.6,174.5z M87.6,7C43.1,7,6.9,43.2,6.9,87.7s36.2,80.7,80.7,80.7s80.7-36.2,80.7-80.7S132.1,7,87.6,7z"
		/>
</g>
</svg>
