<?xml version="1.0" encoding="utf-8"?>
<!-- Generator: Adobe Illustrator 21.0.2, SVG Export Plug-In . SVG Version: 6.00 Build 0)  -->
<svg version="1.1" id="Layer_1" xmlns="http://www.w3.org/2000/svg" xmlns:xlink="http://www.w3.org/1999/xlink" x="0px" y="0px"
	 viewBox="0 0 175.3 175.3" style="enable-background:new 0 0 175.3 175.3;" xml:space="preserve">
<style type="text/css">
	.st0{fill:url(#SVGID_1_);}
	.st1{fill:url(#SVGID_2_);}
	.st2{fill:url(#SVGID_3_);}
	.st3{fill:url(#SVGID_4_);}
	.st4{fill:url(#SVGID_5_);}
</style>
<g>
	<g>
		<g>
			<g id="XMLID_161_">
				
					<linearGradient id="SVGID_1_" gradientUnits="userSpaceOnUse" x1="-66.1306" y1="87.6697" x2="219.8679" y2="77.693" gradientTransform="matrix(1 0 0 -1 0 178)">
					<stop  offset="9.615400e-04" style="stop-color:#00A8E1"/>
					<stop  offset="1" style="stop-color:#00B550"/>
				</linearGradient>
				<path class="st0" d="M122.2,104.7c-4.8,0-8.7-3.5-8.7-7.8s3.9-7.8,8.7-7.8c4.8,0,8.7,3.5,8.7,7.8
					C130.9,101.3,127,104.7,122.2,104.7z M122.2,93.9c-1.9,0-3.5,1.4-3.5,3.1s1.6,3.1,3.5,3.1s3.5-1.4,3.5-3.1
					S124.1,93.9,122.2,93.9z"/>
			</g>
			<g id="XMLID_160_">
				
					<linearGradient id="SVGID_2_" gradientUnits="userSpaceOnUse" x1="-65.313" y1="111.0993" x2="220.6854" y2="101.1226" gradientTransform="matrix(1 0 0 -1 0 178)">
					<stop  offset="9.615400e-04" style="stop-color:#00A8E1"/>
					<stop  offset="1" style="stop-color:#00B550"/>
				</linearGradient>
				<path class="st1" d="M95.2,80.3c-4.8,0-8.7-3.5-8.7-7.8s3.9-7.8,8.7-7.8c4.8,0,8.7,3.5,8.7,7.8C103.9,76.8,100,80.3,95.2,80.3z
					 M95.2,69.4c-1.9,0-3.5,1.4-3.5,3.1s1.6,3.1,3.5,3.1s3.5-1.4,3.5-3.1C98.6,70.8,97.1,69.4,95.2,69.4z"/>
			</g>
			<g id="XMLID_159_">
				
					<linearGradient id="SVGID_3_" gradientUnits="userSpaceOnUse" x1="-65.7252" y1="99.2829" x2="220.2739" y2="89.3061" gradientTransform="matrix(1 0 0 -1 0 178)">
					<stop  offset="9.615400e-04" style="stop-color:#00A8E1"/>
					<stop  offset="1" style="stop-color:#00B550"/>
				</linearGradient>
				<path class="st2" d="M129.2,70.6l-36.5,32.3c-1.5,1.3-3.7,1.4-5,0.4c-1.2-1.1-1.1-3,0.4-4.3l36.5-32.3c1.5-1.3,3.7-1.4,5-0.4
					C130.8,67.3,130.7,69.3,129.2,70.6z"/>
			</g>
			
				<linearGradient id="SVGID_4_" gradientUnits="userSpaceOnUse" x1="-65.8817" y1="94.7998" x2="220.1175" y2="84.8231" gradientTransform="matrix(1 0 0 -1 0 178)">
				<stop  offset="9.615400e-04" style="stop-color:#00A8E1"/>
				<stop  offset="1" style="stop-color:#00B550"/>
			</linearGradient>
			<path class="st3" d="M85.6,116.8h-8.9V52.7c0-1.8-1-3.5-2.6-4.6s-3.8-1.4-5.7-0.9l-17.2,4.6c-3.4,0.9-5.4,4.1-4.3,7.2
				c1,3.1,4.7,4.8,8.1,3.9l8.9-2.4v56.3H55c-3.6,0-6.5,2.6-6.5,5.8c0,3.2,2.9,5.8,6.5,5.8h30.7c3.6,0,6.5-2.6,6.5-5.8
				C92.1,119.4,89.2,116.8,85.6,116.8z"/>
		</g>
	</g>
	
		<linearGradient id="SVGID_5_" gradientUnits="userSpaceOnUse" x1="-65.8485" y1="95.7529" x2="220.1511" y2="85.7761" gradientTransform="matrix(1 0 0 -1 0 178)">
		<stop  offset="9.615400e-04" style="stop-color:#00A8E1"/>
		<stop  offset="1" style="stop-color:#00B550"/>
	</linearGradient>
	<path class="st4" d="M87.6,174.5c-47.9,0-86.9-39-86.9-86.9s39-86.9,86.9-86.9s86.9,39,86.9,86.9S135.5,174.5,87.6,174.5z M87.6,7
		C43.2,7,7,43.2,7,87.6c0,44.5,36.2,80.7,80.7,80.7s80.7-36.2,80.7-80.7C168.3,43.2,132.1,7,87.6,7z"/>
</g>
</svg>
