<?xml version="1.0" encoding="utf-8"?>
<!-- Generator: Adobe Illustrator 21.0.2, SVG Export Plug-In . SVG Version: 6.00 Build 0)  -->
<svg version="1.1" id="Layer_1" xmlns="http://www.w3.org/2000/svg" xmlns:xlink="http://www.w3.org/1999/xlink" x="0px" y="0px"
	 viewBox="0 0 175.3 175.3" style="enable-background:new 0 0 175.3 175.3;" xml:space="preserve">
<style type="text/css">
	.st0{fill:url(#SVGID_1_);}
	.st1{fill:url(#SVGID_2_);}
	.st2{fill:url(#SVGID_3_);}
</style>
<g>
	
		<linearGradient id="SVGID_1_" gradientUnits="userSpaceOnUse" x1="-60.5354" y1="1001.85" x2="232.1154" y2="1001.85" gradientTransform="matrix(1 0 0 1 0 -902)">
		<stop  offset="9.615400e-04" style="stop-color:#00A8E1"/>
		<stop  offset="1" style="stop-color:#00B550"/>
	</linearGradient>
	<path class="st0" d="M87.6,60.2c-20.5,0-37.1,16.7-37.1,37.2s16.6,37.2,37.1,37.2c1.7,0,3.3-0.1,4.9-0.4l10.1,5.1
		c0.2,0.1,0.4,0.2,0.6,0.2s0.4-0.1,0.6-0.1c0.4-0.2,0.7-0.5,0.8-0.9l2.6-9.5c10.6-6.6,17.7-18.3,17.7-31.7
		C124.8,76.9,108.1,60.2,87.6,60.2"/>
	
		<linearGradient id="SVGID_2_" gradientUnits="userSpaceOnUse" x1="-60.535" y1="946.3" x2="232.1159" y2="946.3" gradientTransform="matrix(1 0 0 1 0 -902)">
		<stop  offset="9.615400e-04" style="stop-color:#00A8E1"/>
		<stop  offset="1" style="stop-color:#00B550"/>
	</linearGradient>
	<path class="st1" d="M97,52.8c-5.5,0-8.7-3.4-11.3-6.1c-2.5-2.6-4.1-4.2-6.8-4.2c-7.6,0-12.6,9.6-12.7,9.7l-5.9-3
		c0.3-0.5,6.8-13.4,18.6-13.4c5.7,0,9,3.4,11.6,6.2c2.5,2.6,4,4.1,6.5,4.1c5,0,7.4-2.8,10.4-6.3c0.9-1,1.8-2,2.8-3l4.7,4.7
		c-0.8,0.8-1.6,1.7-2.4,2.7C109.1,48,105,52.8,97,52.8z"/>
	
		<linearGradient id="SVGID_3_" gradientUnits="userSpaceOnUse" x1="-60.5351" y1="989.7" x2="232.1156" y2="989.7" gradientTransform="matrix(1 0 0 1 0 -902)">
		<stop  offset="9.615400e-04" style="stop-color:#00A8E1"/>
		<stop  offset="1" style="stop-color:#00B550"/>
	</linearGradient>
	<path class="st2" d="M87.6,174.6c-47.9,0-86.9-39-86.9-86.9s39-86.9,86.9-86.9s86.9,39,86.9,86.9S135.6,174.6,87.6,174.6z
		 M87.6,7.1C43.1,7.1,6.9,43.3,6.9,87.8s36.2,80.7,80.7,80.7s80.7-36.2,80.7-80.7S132.1,7.1,87.6,7.1z"/>
</g>
</svg>
