<?xml version="1.0" encoding="utf-8"?>
<!-- Generator: Adobe Illustrator 21.0.2, SVG Export Plug-In . SVG Version: 6.00 Build 0)  -->
<svg version="1.1" id="Layer_1" xmlns="http://www.w3.org/2000/svg" xmlns:xlink="http://www.w3.org/1999/xlink" x="0px" y="0px"
	 viewBox="0 0 175.3 175.3" style="enable-background:new 0 0 175.3 175.3;" xml:space="preserve">
<style type="text/css">
	.st0{fill:url(#XMLID_2_);}
	.st1{fill:url(#SVGID_1_);}
	.st2{fill:url(#SVGID_2_);}
	.st3{fill:url(#SVGID_3_);}
	.st4{fill:url(#SVGID_4_);}
	.st5{fill:url(#SVGID_5_);}
</style>
<g>
	<g>
		
			<linearGradient id="XMLID_2_" gradientUnits="userSpaceOnUse" x1="-37.6078" y1="96.1413" x2="238.415" y2="82.839" gradientTransform="matrix(1 0 0 -1 0 178)">
			<stop  offset="9.615400e-04" style="stop-color:#00A8E1"/>
			<stop  offset="1" style="stop-color:#00B550"/>
		</linearGradient>
		<path id="XMLID_156_" class="st0" d="M83.6,45.5c-23.3,0-42.2,18.9-42.2,42.2s18.9,42.2,42.2,42.2s42.2-18.9,42.2-42.2
			S106.9,45.5,83.6,45.5 M83.6,117.3c-16.5,0-29.9-13.3-29.9-29.6c0-16.4,13.4-29.8,29.9-29.8c16.4,0,29.8,13.4,29.8,29.8
			C113.5,104,100.1,117.3,83.6,117.3"/>
	</g>
	<g>
		<g>
			<g>
				
					<linearGradient id="SVGID_1_" gradientUnits="userSpaceOnUse" x1="-37.2084" y1="104.4251" x2="238.8136" y2="91.1228" gradientTransform="matrix(1 0 0 -1 0 178)">
					<stop  offset="9.615400e-04" style="stop-color:#00A8E1"/>
					<stop  offset="1" style="stop-color:#00B550"/>
				</linearGradient>
				<path class="st1" d="M134,78.1L134,78.1c0-2.3,1.6-4.2,3.9-4.2c2.3,0,3.8,1.9,3.8,4.1l0,0c0,2.3-1.5,4.2-3.9,4.2
					C135.5,82.3,134,80.4,134,78.1z M139.6,78.1L139.6,78.1c0-1.3-0.7-2.4-1.8-2.4s-1.7,1.1-1.7,2.3l0,0c0,1.3,0.7,2.4,1.8,2.4
					C139,80.5,139.6,79.4,139.6,78.1z M136.7,89l10.7-14.6c0.2-0.3,0.5-0.4,0.8-0.4c0.5,0,0.9,0.4,0.9,0.9c0,0.2-0.1,0.4-0.2,0.6
					l-10.7,14.6c-0.2,0.3-0.5,0.4-0.8,0.4c-0.5,0-0.9-0.4-0.9-0.9C136.5,89.4,136.6,89.2,136.7,89z M143.8,86.5L143.8,86.5
					c0-2.3,1.6-4.2,3.9-4.2c2.3,0,3.8,1.9,3.8,4.1l0,0c0,2.3-1.6,4.2-3.9,4.2C145.4,90.6,143.8,88.7,143.8,86.5z M149.5,86.5
					L149.5,86.5c0-1.3-0.7-2.4-1.8-2.4s-1.7,1.1-1.7,2.3l0,0c0,1.3,0.7,2.4,1.8,2.4C148.8,88.8,149.5,87.7,149.5,86.5z"/>
			</g>
			<g>
				
					<linearGradient id="SVGID_2_" gradientUnits="userSpaceOnUse" x1="-37.9655" y1="88.6951" x2="238.0556" y2="75.3929" gradientTransform="matrix(1 0 0 -1 0 178)">
					<stop  offset="9.615400e-04" style="stop-color:#00A8E1"/>
					<stop  offset="1" style="stop-color:#00B550"/>
				</linearGradient>
				<path class="st2" d="M131.9,100.5l2.8-6.1c0.1-0.3,0.4-0.5,0.8-0.5h0.1c0.4,0,0.6,0.2,0.8,0.5l2.8,6.1c0.1,0.1,0.1,0.2,0.1,0.3
					c0,0.3-0.3,0.6-0.6,0.6s-0.5-0.2-0.6-0.5l-0.6-1.4h-3.6l-0.6,1.4c-0.1,0.3-0.3,0.4-0.6,0.4s-0.6-0.3-0.6-0.6
					C131.8,100.7,131.9,100.6,131.9,100.5z M136.8,98.4l-1.3-3l-1.3,3H136.8z"/>
				
					<linearGradient id="SVGID_3_" gradientUnits="userSpaceOnUse" x1="-37.9442" y1="89.1909" x2="238.0806" y2="75.8885" gradientTransform="matrix(1 0 0 -1 0 178)">
					<stop  offset="9.615400e-04" style="stop-color:#00A8E1"/>
					<stop  offset="1" style="stop-color:#00B550"/>
				</linearGradient>
				<path class="st3" d="M140.5,94.5c0-0.4,0.3-0.7,0.7-0.7h2.3c1.7,0,2.8,1,2.8,2.5l0,0c0,1.7-1.3,2.5-3,2.5h-1.5v1.8
					c0,0.4-0.3,0.6-0.6,0.6c-0.4,0-0.7-0.3-0.7-0.6V94.5z M143.4,97.7c1,0,1.6-0.6,1.6-1.3l0,0c0-0.9-0.6-1.3-1.6-1.3h-1.5v2.7
					L143.4,97.7L143.4,97.7z"/>
				
					<linearGradient id="SVGID_4_" gradientUnits="userSpaceOnUse" x1="-37.9264" y1="89.5393" x2="238.0964" y2="76.237" gradientTransform="matrix(1 0 0 -1 0 178)">
					<stop  offset="9.615400e-04" style="stop-color:#00A8E1"/>
					<stop  offset="1" style="stop-color:#00B550"/>
				</linearGradient>
				<path class="st4" d="M147.6,94.5c0-0.4,0.3-0.7,0.7-0.7h2.6c0.9,0,1.7,0.3,2.1,0.7c0.4,0.4,0.6,1,0.6,1.6l0,0
					c0,1.2-0.7,1.9-1.7,2.2l1.4,1.8c0.1,0.2,0.2,0.3,0.2,0.5c0,0.4-0.3,0.6-0.6,0.6s-0.5-0.1-0.6-0.3l-1.8-2.3h-1.6v2
					c0,0.4-0.3,0.6-0.6,0.6c-0.4,0-0.7-0.3-0.7-0.6L147.6,94.5L147.6,94.5z M150.8,97.6c0.9,0,1.5-0.5,1.5-1.2l0,0
					c0-0.8-0.6-1.2-1.5-1.2h-1.9v2.5h1.9V97.6z"/>
			</g>
		</g>
	</g>
	
		<linearGradient id="SVGID_5_" gradientUnits="userSpaceOnUse" x1="-33.6031" y1="96.2411" x2="242.4197" y2="82.9388" gradientTransform="matrix(1 0 0 -1 0 178)">
		<stop  offset="9.615400e-04" style="stop-color:#00A8E1"/>
		<stop  offset="1" style="stop-color:#00B550"/>
	</linearGradient>
	<path class="st5" d="M87.6,174.5c-47.9,0-86.9-39-86.9-86.9s39-86.9,86.9-86.9s86.9,39,86.9,86.9S135.5,174.5,87.6,174.5z M87.6,7
		C43.2,7,7,43.2,7,87.6c0,44.5,36.2,80.7,80.7,80.7s80.7-36.2,80.7-80.7C168.3,43.2,132.1,7,87.6,7z"/>
</g>
</svg>
