<?xml version="1.0" encoding="utf-8"?>
<!-- Generator: Adobe Illustrator 21.0.2, SVG Export Plug-In . SVG Version: 6.00 Build 0)  -->
<svg version="1.1" id="Layer_1" xmlns="http://www.w3.org/2000/svg" xmlns:xlink="http://www.w3.org/1999/xlink" x="0px" y="0px"
	 viewBox="0 0 175.3 175.3" style="enable-background:new 0 0 175.3 175.3;" xml:space="preserve">
<style type="text/css">
	.st0{fill:url(#SVGID_1_);}
	.st1{fill:url(#SVGID_2_);}
	.st2{fill:url(#SVGID_3_);}
	.st3{fill:url(#SVGID_4_);}
</style>
<g>
	
		<linearGradient id="SVGID_1_" gradientUnits="userSpaceOnUse" x1="-41.9298" y1="94.9185" x2="244.0699" y2="84.9418" gradientTransform="matrix(1 0 0 -1 0 178)">
		<stop  offset="9.615400e-04" style="stop-color:#00A8E1"/>
		<stop  offset="1" style="stop-color:#00B550"/>
	</linearGradient>
	<path class="st0" d="M87.6,174.5c-47.9,0-86.9-39-86.9-86.9s39-86.9,86.9-86.9s86.9,39,86.9,86.9S135.5,174.5,87.6,174.5z M87.6,7
		C43.2,7,7,43.2,7,87.6c0,44.5,36.2,80.7,80.7,80.7s80.7-36.2,80.7-80.7C168.3,43.2,132.1,7,87.6,7z"/>
	
		<linearGradient id="SVGID_2_" gradientUnits="userSpaceOnUse" x1="-41.9212" y1="95.1617" x2="244.0784" y2="85.1849" gradientTransform="matrix(1 0 0 -1 0 178)">
		<stop  offset="9.615400e-04" style="stop-color:#00A8E1"/>
		<stop  offset="1" style="stop-color:#00B550"/>
	</linearGradient>
	<path class="st1" d="M87.6,39.1c-25,0-45.3,20.4-45.3,45.6c0,25.1,20.3,45.5,45.3,45.5c2,0,4-0.2,5.9-0.4l12.3,6.3
		c0.2,0.1,0.5,0.2,0.7,0.2s0.5-0.1,0.7-0.1c0.4-0.2,0.8-0.6,0.9-1.1l3.2-11.6c12.9-8,21.5-22.4,21.5-38.7
		C132.9,59.5,112.7,39.1,87.6,39.1z M91.4,102.3v1.9c0,1.2-1.6,2.2-2.8,2.2c-1.2,0-2.8-1-2.8-2.2v-1.9c-2.8-0.4-8.2-2.7-10-5.7
		c-1.3-2.2-0.6-4.9,2-4.9c1,0,2.1,0.9,3.2,2.2c1.1,1.2,3.1,2.8,4.8,2.8v-9.6l-1.7-0.5c-5.8-1.4-9-4.8-9-9.8c0-5.8,5.2-9.6,10.7-10.4
		V65c0-1.2,1.6-2.2,2.8-2.2c1.2,0,2.8,1,2.8,2.2v1.6c4.2,0.5,7.7,2.3,9.2,5.2c1.1,2,0.3,4.7-2.2,4.7c-0.8,0-1.9-0.6-2.5-1.7
		c-0.6-1.3-2.4-2.5-4.5-2.5v9.1l1.9,0.4c6.2,1.4,9.5,4.6,9.5,9.9C102.8,97.7,98.3,101.6,91.4,102.3z"/>
	
		<linearGradient id="SVGID_3_" gradientUnits="userSpaceOnUse" x1="-41.54" y1="106.1421" x2="244.4633" y2="96.1653" gradientTransform="matrix(1 0 0 -1 0 178)">
		<stop  offset="9.615400e-04" style="stop-color:#00A8E1"/>
		<stop  offset="1" style="stop-color:#00B550"/>
	</linearGradient>
	<path class="st2" d="M85.8,72.2v8.2c-3.1-0.7-4.4-2.1-4.4-4.1C81.4,74.2,82.7,72.6,85.8,72.2"/>
	
		<linearGradient id="SVGID_4_" gradientUnits="userSpaceOnUse" x1="-42.0933" y1="90.2567" x2="243.9082" y2="80.2799" gradientTransform="matrix(1 0 0 -1 0 178)">
		<stop  offset="9.615400e-04" style="stop-color:#00A8E1"/>
		<stop  offset="1" style="stop-color:#00B550"/>
	</linearGradient>
	<path class="st3" d="M96.6,92.4c0,1.4-0.5,4.1-5.2,4.4V88C96,88.8,96.6,91,96.6,92.4"/>
</g>
</svg>
