<?xml version="1.0" encoding="utf-8"?>
<!-- Generator: Adobe Illustrator 21.0.2, SVG Export Plug-In . SVG Version: 6.00 Build 0)  -->
<svg version="1.1" id="Layer_1" xmlns="http://www.w3.org/2000/svg" xmlns:xlink="http://www.w3.org/1999/xlink" x="0px" y="0px"
	 viewBox="0 0 175.3 175.3" style="enable-background:new 0 0 175.3 175.3;" xml:space="preserve">
<style type="text/css">
	.st0{fill:url(#SVGID_1_);}
	.st1{fill:url(#SVGID_2_);}
	.st2{fill:url(#SVGID_3_);}
</style>
<g>
	
		<linearGradient id="SVGID_1_" gradientUnits="userSpaceOnUse" x1="-53.8932" y1="984.6607" x2="232.1064" y2="994.6374" gradientTransform="matrix(1 0 0 1 0 -902)">
		<stop  offset="9.615400e-04" style="stop-color:#00A8E1"/>
		<stop  offset="1" style="stop-color:#00B550"/>
	</linearGradient>
	<path class="st0" d="M87.7,174.5c-47.9,0-86.9-39-86.9-86.9s39-86.9,86.9-86.9s86.9,39,86.9,86.9
		C174.4,135.6,135.6,174.5,87.7,174.5z M87.7,7C43.2,7,6.9,43.2,6.9,87.7s36.2,80.7,80.7,80.7s80.7-36.2,80.7-80.7S132.1,7,87.7,7z"
		/>
	
		<linearGradient id="SVGID_2_" gradientUnits="userSpaceOnUse" x1="-53.8969" y1="984.7606" x2="232.1027" y2="994.7373" gradientTransform="matrix(1 0 0 1 0 -902)">
		<stop  offset="9.615400e-04" style="stop-color:#00A8E1"/>
		<stop  offset="1" style="stop-color:#00B550"/>
	</linearGradient>
	<path class="st1" d="M87.7,42.4c-25,0-45.3,20.3-45.3,45.3S62.7,133,87.7,133S133,112.7,133,87.7C132.9,62.7,112.7,42.4,87.7,42.4z
		 M88.1,121.8c-18.8,0-34-15.3-34-34.1s15.3-34.1,34-34.1c18.8,0,34.1,15.3,34.1,34.1S106.8,121.8,88.1,121.8z"/>
	
		<linearGradient id="SVGID_3_" gradientUnits="userSpaceOnUse" x1="-53.896" y1="984.7468" x2="232.1033" y2="994.7235" gradientTransform="matrix(1 0 0 1 0 -902)">
		<stop  offset="9.615400e-04" style="stop-color:#00A8E1"/>
		<stop  offset="1" style="stop-color:#00B550"/>
	</linearGradient>
	<path class="st2" d="M88.1,63.7C74.7,63.7,64,74.5,64,87.8c0,13.2,10.8,23.9,24.1,23.9s24.1-10.7,24.1-23.9
		C112.2,74.5,101.3,63.7,88.1,63.7z M99.8,99.8c-3.3,2.8-7.5,4.4-11.8,4.4c-9,0-16.6-6.7-17.8-15.5c-0.2-1.7,1-3.2,2.6-3.4
		c1.7-0.2,3.2,1,3.5,2.7c0.8,5.8,5.8,10.1,11.7,10.1c5.9,0,10.9-4.3,11.7-10.1c0.2-1.7,1.8-2.9,3.5-2.6c1.7,0.2,2.9,1.8,2.6,3.5
		C105.2,93.1,103.2,97,99.8,99.8z"/>
</g>
</svg>
