<?xml version="1.0" encoding="utf-8"?>
<!-- Generator: Adobe Illustrator 21.0.2, SVG Export Plug-In . SVG Version: 6.00 Build 0)  -->
<svg version="1.1" id="Layer_1" xmlns="http://www.w3.org/2000/svg" xmlns:xlink="http://www.w3.org/1999/xlink" x="0px" y="0px"
	 viewBox="0 0 175.3 175.3" style="enable-background:new 0 0 175.3 175.3;" xml:space="preserve">
<style type="text/css">
	.st0{fill:url(#SVGID_1_);}
	.st1{fill:url(#SVGID_2_);}
</style>
<g>
	
		<linearGradient id="SVGID_1_" gradientUnits="userSpaceOnUse" x1="-17.1374" y1="984.6476" x2="258.8856" y2="997.9499" gradientTransform="matrix(1 0 0 1 0 -902)">
		<stop  offset="9.615400e-04" style="stop-color:#00A8E1"/>
		<stop  offset="1" style="stop-color:#00B550"/>
	</linearGradient>
	<path class="st0" d="M87.7,42.8c-25,0-45.3,20.1-45.3,44.9s20.3,44.9,45.3,44.9S133,112.5,133,87.7S112.7,42.8,87.7,42.8z
		 M111.4,106.8c1.3,1.3,1.3,3.4,0,4.7c-0.7,0.6-1.5,1-2.4,1s-1.7-0.3-2.4-1l-19.2-19l-19.2,19c-0.7,0.6-1.5,1-2.4,1s-1.7-0.3-2.4-1
		c-1.3-1.3-1.3-3.4,0-4.7l19.2-19l-19.2-19c-1.3-1.3-1.3-3.4,0-4.7s3.4-1.3,4.7,0l19.2,19l19.2-19c1.3-1.3,3.4-1.3,4.7,0
		c1.3,1.3,1.3,3.4,0,4.7L92,87.8L111.4,106.8z"/>
	
		<linearGradient id="SVGID_2_" gradientUnits="userSpaceOnUse" x1="-17.1325" y1="984.5478" x2="258.8902" y2="997.8502" gradientTransform="matrix(1 0 0 1 0 -902)">
		<stop  offset="9.615400e-04" style="stop-color:#00A8E1"/>
		<stop  offset="1" style="stop-color:#00B550"/>
	</linearGradient>
	<path class="st1" d="M87.7,174.5c-47.9,0-86.9-39-86.9-86.9s39-86.9,86.9-86.9s86.9,39,86.9,86.9
		C174.4,135.5,135.6,174.5,87.7,174.5z M87.7,7C43.2,7,7,43.3,7,87.8s36.2,80.7,80.7,80.7s80.7-36.2,80.7-80.7
		C168.2,43.3,132.1,7,87.7,7z"/>
</g>
</svg>
